<svg width="100" height="100" viewBox="0 0 100 100" fill="none" xmlns="http://www.w3.org/2000/svg">
<g clip-path="url(#clip0_820_2259)">
<path d="M50 100C77.6125 100 100 77.6125 100 50C100 22.3875 77.6125 0 50 0C22.3875 0 0 22.3875 0 50C0 77.6125 22.3875 100 50 100Z" fill="#006FFB"/>
<path fill-rule="evenodd" clip-rule="evenodd" d="M46.8332 34.9711C47.2291 32.2878 48.0916 28.8461 49.4332 24.6378L49.9999 22.9003L50.5666 24.6378C51.9082 28.8461 52.7749 32.2878 53.1666 34.9711C53.4624 36.9378 53.4624 39.4378 53.1666 42.4711C52.8666 45.517 52.8666 48.0378 53.1666 50.0295C53.6082 52.9461 54.9416 55.367 57.1666 57.2961C59.3325 59.226 62.1408 60.278 65.0416 60.2461C66.6181 60.2702 68.1829 59.9723 69.6401 59.3704C71.0974 58.7686 72.4165 57.8756 73.5166 56.7461C75.8499 54.417 77.0249 51.6045 77.0499 48.3128C77.0624 45.3961 77.3624 42.1795 77.9499 38.6628C78.2374 36.9045 78.5332 35.4336 78.8249 34.2461L79.2207 32.6461L79.9207 34.1295C81.9298 38.3571 83.0096 42.9661 83.0874 47.6461V48.3128C83.1008 52.7348 82.2163 57.1136 80.4874 61.1836C77.1306 69.1241 70.8112 75.4435 62.8707 78.8003C58.8003 80.5277 54.4216 81.4108 49.9999 81.3961C45.5782 81.4109 41.1995 80.5278 37.1291 78.8003C29.1887 75.4435 22.8692 69.1241 19.5124 61.1836C17.7844 57.112 16.9013 52.7318 16.9166 48.3086V47.6461C16.993 42.9664 18.0714 38.3574 20.0791 34.1295L20.7832 32.6461L21.1707 34.2503C21.4707 35.4336 21.7666 36.9045 22.0499 38.6628C22.6374 42.1795 22.9374 45.3961 22.9499 48.3128C22.9749 51.6045 24.1582 54.417 26.4832 56.7461C28.8291 59.0795 31.6541 60.2461 34.9624 60.2461C37.9416 60.2461 40.5666 59.2628 42.8332 57.2961C45.0148 55.4482 46.4388 52.8612 46.8332 50.0295C47.1374 48.0378 47.1374 45.517 46.8332 42.4711C46.5374 39.4378 46.5374 36.9378 46.8332 34.9711ZM49.9999 75.3628C54.5707 75.3628 58.8541 74.2795 62.8541 72.1211C65.6392 70.6317 68.1366 68.6578 70.2291 66.292C70.4916 66.0003 70.1874 65.5503 69.8082 65.6545C68.2666 66.0711 66.6832 66.2795 65.0416 66.2795C61.8471 66.2971 58.7078 65.4475 55.9582 63.8211C53.733 62.5367 51.8136 60.7837 50.3332 58.6836C50.295 58.6311 50.2448 58.5884 50.1869 58.5589C50.129 58.5295 50.0649 58.5141 49.9999 58.5141C49.9349 58.5141 49.8709 58.5295 49.8129 58.5589C49.755 58.5884 49.7049 58.6311 49.6666 58.6836C48.1857 60.7822 46.2664 62.5337 44.0416 63.817C41.2925 65.4448 38.1531 66.2959 34.9582 66.2795C33.3207 66.2795 31.7332 66.0711 30.1957 65.6545C29.8166 65.5503 29.5082 66.0003 29.7707 66.292C31.8633 68.6577 34.3606 70.6316 37.1457 72.1211C41.1457 74.2795 45.4291 75.3628 49.9999 75.3628Z" fill="white"/>
</g>
<defs>
<clipPath id="clip0_820_2259">
<rect width="100" height="100" fill="white"/>
</clipPath>
</defs>
</svg>
