<svg width="100" height="100" viewBox="0 0 100 100" fill="none" xmlns="http://www.w3.org/2000/svg">
<path d="M73.2624 51.4332L60.8583 72.9166H85.8333C86.7499 72.9166 87.5999 72.4291 88.0624 71.6332L99.7249 51.4332H73.2624ZM99.7249 48.5666L88.0624 28.3666C87.8366 27.9755 87.5116 27.6509 87.1202 27.4255C86.7288 27.2002 86.2849 27.0821 85.8333 27.0833H60.8583L73.2624 48.5666H99.7249ZM36.0541 27.0833H60.8583L48.3708 5.45408C48.1455 5.06219 47.8207 4.73674 47.4293 4.51066C47.0378 4.28458 46.5936 4.16588 46.1416 4.16658H22.8166L36.0541 27.0833ZM20.3374 5.59575L8.67911 25.7957C8.45388 26.1867 8.33533 26.63 8.33533 27.0812C8.33533 27.5324 8.45388 27.9756 8.67911 28.3666L21.1666 49.9957L33.5666 28.5124L20.3374 5.59575ZM33.5708 71.4791L21.1708 49.9999L8.67911 71.6332C8.45388 72.0242 8.33533 72.4675 8.33533 72.9187C8.33533 73.3699 8.45388 73.8131 8.67911 74.2041L20.3374 94.4041L33.5666 71.4874H33.5708V71.4791ZM22.8166 95.8332H46.1416C47.0583 95.8332 47.9083 95.3457 48.3708 94.5499L60.8583 72.9166H36.0541L22.8208 95.8332H22.8166Z" fill="#0163FB"/>
</svg>
