<svg width="100" height="100" viewBox="0 0 100 100" fill="none" xmlns="http://www.w3.org/2000/svg">
<path d="M54.3749 64.6382H67.2082C68.0999 64.6382 68.8291 65.3757 68.8291 66.2799V73.8632C70.3748 74.2444 71.7475 75.134 72.7268 76.3891C73.7061 77.6442 74.2352 79.1921 74.2291 80.7841C74.2291 84.7132 71.0832 87.9007 67.2082 87.9007C63.3291 87.9007 60.1833 84.7132 60.1833 80.7841C60.1833 77.4216 62.4916 74.6007 65.5874 73.8591V67.9216H54.3791V87.3507C54.3802 87.6329 54.3088 87.9107 54.1716 88.1573C54.0344 88.404 53.8361 88.6112 53.5957 88.7591L42.3874 95.5966C42.1331 95.7521 41.8406 95.8337 41.5425 95.8322C41.2444 95.8308 40.9526 95.7463 40.6999 95.5882L20.1749 82.7299C19.9381 82.5812 19.743 82.3747 19.6082 82.1297C19.4733 81.8848 19.4031 81.6095 19.4041 81.3299V67.9174L9.14992 61.9591C8.91673 61.8239 8.7203 61.6335 8.57791 61.4047C8.43551 61.1758 8.3515 60.9155 8.33325 60.6466V60.5341V39.1924C8.33325 38.6091 8.63742 38.0674 9.13325 37.7757L19.4041 31.6841V18.5341C19.4041 17.9966 19.6624 17.4966 20.0916 17.1924L20.1791 17.1341L40.7083 4.40906C40.9627 4.25063 41.2564 4.16666 41.5562 4.16666C41.8559 4.16666 42.1496 4.25063 42.4041 4.40906L53.6124 11.3882C53.8492 11.5369 54.0443 11.7434 54.1792 11.9884C54.314 12.2333 54.3843 12.5086 54.3833 12.7882V31.6674H70.4499V23.6799C68.9035 23.2986 67.5303 22.4084 66.5509 21.1524C65.5715 19.8964 65.0429 18.3476 65.0499 16.7549C65.0499 12.8257 68.1958 9.63823 72.0708 9.63823C75.9499 9.63823 79.0916 12.8257 79.0916 16.7549C79.0916 20.1174 76.7874 22.9382 73.6916 23.6799V33.3091C73.6932 33.5234 73.6526 33.7359 73.572 33.9344C73.4913 34.133 73.3724 34.3137 73.2218 34.4662C73.0712 34.6187 72.8921 34.74 72.6945 34.8231C72.497 34.9063 72.2851 34.9496 72.0708 34.9507H54.3833V42.4757H81.9833C82.3378 40.9265 83.2059 39.5428 84.4466 38.5495C85.6872 37.5563 87.2273 37.0119 88.8166 37.0049C92.6916 37.0049 95.8374 40.1882 95.8374 44.1174C95.8374 48.0466 92.6957 51.2341 88.8166 51.2341C87.2268 51.2269 85.6862 50.6819 84.4455 49.6878C83.2048 48.6937 82.337 47.3091 81.9833 45.7591H54.3749V53.8299H75.0124L78.8249 58.7466C79.8867 58.1257 81.0949 57.7992 82.3249 57.8007C86.2041 57.8007 89.3457 60.9841 89.3457 64.9132C89.3457 68.8424 86.2041 72.0299 82.3249 72.0299C78.4499 72.0299 75.3041 68.8424 75.3041 64.9132C75.3041 63.4716 75.7291 62.1299 76.4541 61.0091L73.4374 57.1132H54.3749V64.6382ZM41.5541 7.73406L33.0416 13.0091V25.3757H29.7999V15.0174L22.6458 19.4549V31.7257L31.4374 37.3924L40.4666 31.7091V22.2257H43.7082V32.6257C43.7082 33.1924 43.4166 33.7216 42.9416 34.0216L33.1791 40.1591V48.8299L39.1041 53.0341L37.2458 55.7257L31.3874 51.5674L25.0124 55.7549L23.2499 53.0049L29.9374 48.6091V40.3174L20.9916 34.5424L11.5749 40.1257V47.1091L19.7916 42.1549L21.4499 44.9757L11.5749 50.9299V59.5841L20.5999 64.8257L30.0583 59.1257L31.7124 61.9466L22.6458 67.4091V80.4174L30.4624 85.3132L40.3166 79.3716L41.9749 82.1966L33.5708 87.2632L41.5624 92.2674L51.1374 86.4216V62.3382L31.3124 74.3924L29.6458 71.5799L51.1374 58.5132V13.7049L41.5541 7.73406ZM67.2082 76.9591C66.708 76.9618 66.2131 77.0632 65.7521 77.2574C65.291 77.4516 64.8728 77.7349 64.5214 78.0909C64.17 78.447 63.8923 78.8689 63.7041 79.3325C63.5159 79.796 63.4211 80.2921 63.4249 80.7924C63.4249 82.9049 65.1166 84.6174 67.2082 84.6174C67.7078 84.6141 68.2019 84.5125 68.6622 84.3183C69.1224 84.1241 69.54 83.8411 69.8909 83.4855C70.2418 83.13 70.5193 82.7087 70.7074 82.2459C70.8956 81.7831 70.9907 81.2878 70.9874 80.7882C70.9913 80.2883 70.8965 79.7925 70.7086 79.3292C70.5207 78.866 70.2434 78.4443 69.8924 78.0882C69.5414 77.7322 69.1237 77.4489 68.6631 77.2544C68.2026 77.06 67.7082 76.9623 67.2082 76.9591ZM82.3333 61.0841C81.833 61.0868 81.3382 61.1882 80.8771 61.3824C80.4161 61.5766 79.9978 61.8599 79.6464 62.2159C79.295 62.572 79.0173 62.9939 78.8291 63.4575C78.6409 63.921 78.5461 64.4171 78.5499 64.9174C78.5499 67.0341 80.2416 68.7507 82.3291 68.7507C82.8294 68.748 83.3242 68.6466 83.7852 68.4524C84.2463 68.2582 84.6645 67.9749 85.0159 67.6189C85.3673 67.2628 85.6451 66.8409 85.8332 66.3773C86.0214 65.9138 86.1163 65.4177 86.1124 64.9174C86.1163 64.4171 86.0214 63.921 85.8332 63.4575C85.6451 62.9939 85.3673 62.572 85.0159 62.2159C84.6645 61.8599 84.2463 61.5766 83.7852 61.3824C83.3242 61.1882 82.8335 61.0868 82.3333 61.0841ZM88.8124 40.2924C88.3121 40.2951 87.8173 40.3965 87.3563 40.5907C86.8952 40.7849 86.477 41.0682 86.1256 41.4243C85.7742 41.7803 85.4964 42.2022 85.3083 42.6658C85.1201 43.1293 85.0252 43.6255 85.0291 44.1257C85.0291 46.2382 86.7249 47.9507 88.8124 47.9507C89.312 47.9475 89.806 47.8458 90.2663 47.6516C90.7266 47.4574 91.1441 47.1744 91.4951 46.8189C91.846 46.4633 92.1235 46.0421 92.3116 45.5793C92.4997 45.1165 92.5949 44.6211 92.5916 44.1216C92.5954 43.6216 92.5007 43.1259 92.3128 42.6626C92.1249 42.1993 91.8475 41.7776 91.4966 41.4216C91.1456 41.0656 90.7279 40.7822 90.2673 40.5877C89.8067 40.3933 89.3123 40.2915 88.8124 40.2882V40.2924ZM72.0666 12.9174C71.5667 12.9207 71.0723 13.0224 70.6117 13.2169C70.1511 13.4114 69.7334 13.6947 69.3825 14.0507C69.0315 14.4068 68.7541 14.8285 68.5662 15.2917C68.3783 15.755 68.2836 16.2508 68.2874 16.7507C68.2874 18.8674 69.9791 20.5841 72.0666 20.5841C72.5669 20.5813 73.0617 20.48 73.5227 20.2857C73.9838 20.0915 74.402 19.8083 74.7534 19.4522C75.1048 19.0961 75.3826 18.6742 75.5707 18.2107C75.7589 17.7471 75.8538 17.251 75.8499 16.7507C75.8538 16.2505 75.7589 15.7543 75.5707 15.2908C75.3826 14.8272 75.1048 14.4053 74.7534 14.0493C74.402 13.6932 73.9838 13.4099 73.5227 13.2157C73.0617 13.0215 72.5669 12.9201 72.0666 12.9174Z" fill="url(#paint0_linear_820_2365)"/>
<defs>
<linearGradient id="paint0_linear_820_2365" x1="7008.67" y1="1837.48" x2="1514.66" y2="7082.07" gradientUnits="userSpaceOnUse">
<stop stop-color="#6350FB"/>
<stop offset="0.5" stop-color="#3D8FFF"/>
<stop offset="1" stop-color="#9AD8F8"/>
</linearGradient>
</defs>
</svg>
