<svg width="100" height="100" viewBox="0 0 100 100" fill="none" xmlns="http://www.w3.org/2000/svg">
<g id="blueprintjs">
<g id="blueprintjs_2">
<path id="Vector" d="M71.5312 37.8121L92.9375 50.4684V75.4684L71.5312 87.8121L49.9688 75.4684V50.4684L71.5312 37.8121Z" fill="#00B46F"/>
<path id="Vector_2" d="M49.9688 -0.000854492L71.5312 12.8116V37.8116L49.9688 49.9991L28.4062 37.8116V12.8116L49.9688 -0.000854492Z" fill="#2294D9"/>
<path id="Vector_3" d="M71.5312 12.8121L92.9375 25.4684V50.4684L71.5312 62.8121L49.9688 50.4684V25.4684L71.5312 12.8121Z" fill="#2294D9"/>
<path id="Vector_4" d="M28.4063 12.8121L49.9688 25.4684V50.4684L28.4063 62.8121L7 50.4684V25.4684L28.4063 12.8121Z" fill="#F85551"/>
<path id="Vector_5" d="M28.4063 37.8121L49.9688 50.4684V75.4684L28.4063 87.8121L7 75.4684V50.4684L28.4063 37.8121Z" fill="#F85551"/>
<path id="Vector_6" d="M49.9688 49.9991L71.5312 62.8116V87.8116L49.9688 99.9991L28.4062 87.8116V62.8116L49.9688 49.9991Z" fill="#00B46F"/>
<path id="Vector_7" d="M71.5312 12.8116L49.9687 25.4679L28.4062 12.8116L49.9687 -0.000854492L71.5312 12.8116ZM92.9375 25.4679L71.375 38.2804L49.9687 25.4679L71.5312 12.6554L92.9375 25.4679Z" fill="#30B2E9"/>
<path id="Vector_8" d="M49.9688 74.9991V49.9991L28.4062 62.8116V87.8116L49.9688 74.9991Z" fill="#00AB64"/>
<path id="Vector_9" d="M71.5312 62.8116L49.9688 74.9991L28.4062 62.8116L49.9688 49.9991L71.5312 62.8116Z" fill="#00CE8E"/>
<path id="Vector_10" d="M49.9688 74.9991L28.4062 62.8116L49.9688 49.9991V74.9991Z" fill="#00C783"/>
<path id="Vector_11" d="M49.9688 25.4679L28.4062 12.8116L49.9688 -0.000854492V25.4679Z" fill="#2CAEE7"/>
<path id="Vector_12" d="M49.9688 25.4684L28.4063 38.2809L7 25.4684L28.4063 12.8121L49.9688 25.4684Z" fill="#FB716C"/>
<path id="Vector_13" d="M92.9375 50.4679L71.5312 62.8116L49.9688 49.9991L71.5312 38.2804L92.9375 50.4679Z" fill="#1F8ED6"/>
<path id="Vector_14" d="M28.0938 87.4991L7 75.3116L28.0938 62.4991V87.4991Z" fill="#F64743"/>
<path id="Vector_15" d="M28.4062 38.2809V12.8121L49.9688 25.4684V49.9996L28.4062 38.2809Z" fill="#F96560"/>
<path id="Vector_16" d="M49.9688 49.9987V25.4674L28.4062 38.2799V62.8112L49.9688 49.9987Z" fill="#B71D1D"/>
<path id="Vector_17" d="M49.9688 49.9987L28.4062 38.2799L49.9688 25.4674V49.9987Z" fill="#B21A1A"/>
<path id="Vector_18" d="M92.9375 75.4674L71.5312 62.8112L92.9375 50.4674V75.4674Z" fill="#10161A" fill-opacity="0.2"/>
<path id="Vector_19" d="M71.5312 87.8112V62.8112L49.9688 74.9987V99.9987L71.5312 87.8112ZM92.9375 75.4674V50.4674L71.375 62.6549V87.6549L92.9375 75.4674Z" fill="#007233"/>
<path id="Vector_20" d="M92.9375 75.4674L71.5312 62.8112L92.9375 50.4674V75.4674Z" fill="#00682C"/>
<path id="Vector_21" d="M92.9375 50.4674V25.4674L71.5312 38.2799V62.8112L92.9375 50.4674Z" fill="#0759BA"/>
<path id="Vector_22" d="M92.9375 50.4674L71.5312 38.2799L92.9375 25.4674V50.4674Z" fill="#0860BF"/>
<path id="Vector_23" opacity="0.78" d="M7 25.4674L28.5625 37.6549L49.9688 25.4674L29.0312 38.4362L28.5625 62.6549L28.0938 38.4362L7 25.4674Z" fill="#FEBCB7"/>
<path id="Vector_24" opacity="0.78" d="M49.9688 25.4674L71.5312 37.8112L92.9375 25.4674L72 38.4362L71.5312 62.8112L70.9063 38.4362L49.9688 25.4674Z" fill="#4EDCF8"/>
<path id="Vector_25" opacity="0.78" d="M28.4062 62.8121L49.9688 74.5309L71.5312 62.8121L50.5938 75.3121L49.9688 99.9996L49.5 75.3121L28.4062 62.8121Z" fill="#00F3C9"/>
</g>
</g>
</svg>
