<svg width="100" height="100" viewBox="0 0 100 100" fill="none" xmlns="http://www.w3.org/2000/svg">
<g id="clickhouse">
<g id="clickhouse_2">
<path id="Vector" d="M9.94259 -0.000549316H1.169C0.523512 -0.000549316 0.000244141 0.522718 0.000244141 1.1682V98.8307C0.000244141 99.4762 0.523512 99.9995 1.169 99.9995H9.94259C10.5881 99.9995 11.1113 99.4762 11.1113 98.8307V1.1682C11.1113 0.522718 10.5881 -0.000549316 9.94259 -0.000549316Z" fill="#FAFF69"/>
<path id="Vector_2" d="M32.1655 -0.000549316H23.3919C22.7464 -0.000549316 22.2231 0.522718 22.2231 1.1682V98.8307C22.2231 99.4762 22.7464 99.9995 23.3919 99.9995H32.1655C32.811 99.9995 33.3342 99.4762 33.3342 98.8307V1.1682C33.3342 0.522718 32.811 -0.000549316 32.1655 -0.000549316Z" fill="#FAFF69"/>
<path id="Vector_3" d="M54.3884 -0.000549316H45.6148C44.9693 -0.000549316 44.446 0.522718 44.446 1.1682V98.8307C44.446 99.4762 44.9693 99.9995 45.6148 99.9995H54.3884C55.0339 99.9995 55.5571 99.4762 55.5571 98.8307V1.1682C55.5571 0.522718 55.0339 -0.000549316 54.3884 -0.000549316Z" fill="#FAFF69"/>
<path id="Vector_4" d="M76.6067 -0.000549316H67.8331C67.1876 -0.000549316 66.6643 0.522718 66.6643 1.1682V98.8307C66.6643 99.4762 67.1876 99.9995 67.8331 99.9995H76.6067C77.2521 99.9995 77.7754 99.4762 77.7754 98.8307V1.1682C77.7754 0.522718 77.2521 -0.000549316 76.6067 -0.000549316Z" fill="#FAFF69"/>
<path id="Vector_5" d="M98.8369 38.8894H90.0633C89.4178 38.8894 88.8945 39.4127 88.8945 40.0582V59.9429C88.8945 60.5884 89.4178 61.1117 90.0633 61.1117H98.8369C99.4824 61.1117 100.006 60.5884 100.006 59.9429V40.0582C100.006 39.4127 99.4824 38.8894 98.8369 38.8894Z" fill="#FAFF69"/>
</g>
</g>
</svg>
