<svg width="100" height="100" viewBox="0 0 100 100" fill="none" xmlns="http://www.w3.org/2000/svg">
<g id="clojure">
<g id="clojure_2">
<path id="path8" d="M49.9996 -0.000854492C22.4309 -0.000854492 0 22.43 0 49.9995C0 77.5714 22.4309 100.001 49.9996 100.001C77.5691 100.001 100 77.5714 100 49.9995C100 22.43 77.5691 -0.000854492 49.9996 -0.000854492Z" fill="white"/>
<path id="path10" d="M48.1711 50.8987C47.7219 51.8722 47.2262 52.9659 46.7129 54.13C44.8984 58.2409 42.8891 63.2433 42.1551 66.448C41.8914 67.5894 41.7281 69.0038 41.7312 70.5722C41.7312 71.1925 41.7644 71.8444 41.8172 72.5085C44.3824 73.4511 47.1531 73.9694 50.0465 73.9745C52.6805 73.9694 55.2109 73.5343 57.5793 72.7468C57.0227 72.2378 56.4914 71.6952 56.0078 71.0839C52.7969 66.9894 51.0055 60.9886 48.1711 50.8987Z" fill="#91DC47"/>
<path id="path12" d="M36.3163 30.5558C30.1839 34.8777 26.171 42.0058 26.1558 50.0839C26.171 58.0413 30.0632 65.0773 36.0413 69.4171C37.5077 63.3089 41.1835 57.7159 46.6956 46.505C46.3683 45.6058 45.9952 44.6214 45.5776 43.5874C44.0507 39.757 41.8468 35.3085 39.88 33.2941C38.8772 32.2417 37.6604 31.3323 36.3163 30.5558Z" fill="#91DC47"/>
<path id="path14" d="M70.8569 77.4863C67.6929 77.0898 65.0815 76.6112 62.7972 75.8054C58.955 77.7132 54.628 78.7909 50.0464 78.7909C34.1932 78.7909 21.3421 65.9417 21.3401 50.0839C21.3401 41.4796 25.1307 33.7663 31.1276 28.5058C29.5237 28.1183 27.8511 27.8921 26.1425 27.8952C17.7198 27.9745 8.82879 32.6359 5.12723 45.2245C4.78114 47.057 4.86356 48.4425 4.86356 50.0847C4.86356 75.0398 25.0944 95.2706 50.0475 95.2706C65.3296 95.2706 78.8296 87.6773 87.005 76.064C82.5831 77.1659 78.3307 77.6929 74.6893 77.7042C73.3245 77.7042 72.0433 77.6312 70.8569 77.4863Z" fill="#63B132"/>
<path id="path16" d="M62.3665 68.7308C62.6454 68.8691 63.2778 69.0949 64.1579 69.3445C70.0786 64.998 73.9263 57.9968 73.9415 50.0839H73.9392C73.9169 36.8921 63.2415 26.2183 50.0466 26.1921C47.4239 26.1972 44.9044 26.63 42.5454 27.4117C47.3966 32.9414 49.7294 40.8437 51.986 49.4878C51.9872 49.4917 51.9892 49.4949 51.9899 49.498C51.9942 49.505 52.7118 51.8984 53.9438 55.0738C55.1673 58.2449 56.9103 62.1707 58.811 65.0316C60.0591 66.9488 61.4317 68.3265 62.3665 68.7308Z" fill="#90B4FE"/>
<path id="path18" d="M50.0476 4.89795C34.9132 4.89795 21.5257 12.3483 13.3257 23.7722C17.5933 21.0995 21.9507 20.1354 25.7534 20.1698C31.0058 20.1851 35.1351 21.8136 37.1163 22.9276C37.5948 23.2034 38.0491 23.5003 38.494 23.8054C42.0292 22.2483 45.9355 21.3776 50.0464 21.3776C65.9015 21.3796 78.7546 34.2288 78.7569 50.0839H78.7546C78.7546 58.0776 75.4851 65.3054 70.2144 70.5101C71.5081 70.655 72.8878 70.7452 74.2968 70.7382C79.3011 70.7405 84.7101 69.6362 88.7651 66.2257C91.4093 63.9983 93.6245 60.737 94.853 55.8472C95.0933 53.9585 95.2315 52.0386 95.2315 50.0847C95.2315 25.1308 75.0026 4.89795 50.0476 4.89795Z" fill="#5881D8"/>
</g>
</g>
</svg>
