<svg width="100" height="100" viewBox="0 0 100 100" fill="none" xmlns="http://www.w3.org/2000/svg">
<path d="M60.575 93.2842H39.1917C38.9686 93.2894 38.748 93.2359 38.5521 93.1292C38.3561 93.0224 38.1916 92.8661 38.075 92.6758L0.233343 9.73001C0.096226 9.52523 0.0168526 9.28726 0.00357742 9.04117C-0.00969779 8.79508 0.0436161 8.54996 0.157908 8.33161C0.272199 8.11326 0.44324 7.92976 0.653028 7.80043C0.862816 7.67109 1.10359 7.60071 1.35001 7.59668H22.7333C23.1917 7.59668 23.5958 7.80085 23.85 8.20501L61.6917 91.1008C62.3 92.0675 61.6417 93.2842 60.575 93.2842Z" fill="url(#paint0_linear_820_2393)"/>
<path d="M98.7709 7.64566H77.0834C76.88 7.6424 76.6793 7.69218 76.5011 7.79008C76.3228 7.88799 76.1731 8.03064 76.0667 8.20399L38.0751 91.354C37.9517 91.5395 37.8805 91.7548 37.8689 91.9774C37.8574 92.1999 37.9059 92.4214 38.0095 92.6187C38.113 92.816 38.2678 92.9818 38.4574 93.0987C38.6471 93.2156 38.8648 93.2793 39.0876 93.2832H60.7792C60.9826 93.2864 61.1833 93.2366 61.3616 93.1387C61.5398 93.0408 61.6895 92.8982 61.7959 92.7248L99.7876 9.57482C99.9112 9.389 99.9824 9.17331 99.9937 8.95044C100.005 8.72756 99.9562 8.50574 99.8521 8.30832C99.7481 8.11089 99.5928 7.94515 99.4025 7.82854C99.2122 7.71193 98.994 7.64875 98.7709 7.64566Z" fill="url(#paint1_linear_820_2393)"/>
<path d="M89.9834 12.2183C86.3251 12.0183 82.2626 14.4058 76.3709 21.5142C75.0001 23.1933 69.8209 23.1933 70.4792 26.7475C73.5792 44.3225 57.3251 81.1475 60.9292 81.3475C64.5376 81.5558 73.6792 74.5975 76.8792 70.5308C80.0792 66.4683 82.2125 63.1142 84.7001 58.085C87.1917 53.0558 89.7292 45.7933 91.9667 37.9725C94.2001 30.1517 94.3001 22.4308 94.4542 18.06C94.5542 16.7392 93.6417 12.4225 89.9834 12.2183Z" fill="#191935"/>
<path d="M75.0502 25.0712C74.1877 20.3462 70.5294 10.7962 68.0419 7.75032C65.5544 4.70032 63.1669 3.27949 59.2544 4.75032C57.1211 5.56282 52.0919 8.45866 48.4336 19.6337C47.2669 23.1878 45.3377 24.967 43.6086 27.3545C41.8836 29.6878 39.1419 32.942 39.1419 37.4128C39.1419 41.9337 40.9669 45.742 43.4586 48.6378C45.9461 51.5337 56.5627 60.067 58.7961 62.4003C61.0836 64.7378 67.2794 70.9337 68.9044 73.7295L70.5294 76.5212C70.5294 76.5212 73.5794 69.4628 74.5419 67.1753C75.5086 64.942 77.2877 53.0545 77.4377 46.3003C77.5919 39.592 75.6586 28.4712 75.0502 25.0712Z" fill="black"/>
<path d="M62.3001 85.3101C61.8959 85.5143 61.6418 84.3434 63.0126 82.3643C64.3876 80.3851 67.1251 76.5726 69.3126 74.8976C71.5418 73.2226 77.0834 68.7518 79.1668 68.2934C81.2501 67.8351 81.2501 69.6684 80.2334 70.4268C78.3001 71.9018 77.9459 71.5476 75.5084 73.7809C73.0709 76.0143 70.0709 77.1851 68.2459 78.8601C66.4126 80.5351 63.4209 84.7018 62.3001 85.3101Z" fill="black"/>
<path d="M42.3916 51.6326C36.0416 49.8034 25.7291 47.7742 21.8207 62.2492C21.8207 62.2492 19.0291 63.4659 16.9457 68.2409C13.5916 75.9117 20.9582 96.3825 42.7457 91.0492C53.1082 88.5075 61.7457 83.0242 64.2832 80.5325C68.1416 76.7742 70.6332 76.5742 70.6332 76.5742C68.9041 71.0867 56.5082 55.7451 42.3916 51.6326ZM79.0124 69.7159C81.0957 67.7867 83.7874 64.8909 84.9541 62.8576C86.1207 60.8284 87.2916 57.9825 87.4957 57.17C87.6999 56.3575 87.1916 53.8159 88.4124 53.9701C89.6291 54.12 88.8666 56.1034 88.3582 57.07C87.6499 58.3367 86.7832 60.32 86.2249 61.6909C85.6666 63.1117 83.6332 65.6492 82.0582 67.4825C80.4332 69.3075 78.8582 70.5784 78.8582 70.5784L79.0124 69.7159Z" fill="black"/>
<path d="M78.4043 70.3755C78.4043 70.3755 80.9918 68.8505 83.0751 67.3796C85.1585 65.9046 89.3751 62.0963 90.3918 60.7255C91.4585 59.3505 91.6085 58.0838 92.1668 58.3921C93.1335 59.0005 91.5085 60.4213 90.846 61.0797C90.1376 61.7422 87.7501 64.0797 85.921 65.6005C84.0418 67.1255 79.2126 70.6296 78.4043 70.3755Z" fill="black"/>
<path d="M71.9 71.5947C71.9542 71.7989 72.1084 71.9489 72.1084 71.6947C72.5625 67.2781 74.3375 62.0447 74.3917 49.1447C74.4417 35.4781 74.3917 29.2322 64.4334 26.6947C63.775 26.5405 63.1667 26.6947 63.2667 27.353C63.5209 28.878 66.975 36.3947 68.7 46.2489C70.7834 58.3864 71.4917 69.5614 71.9 71.5947Z" fill="url(#paint2_linear_820_2393)"/>
<path d="M28.779 65.5003C25.3748 66.467 33.554 68.1419 41.3748 69.6669C46.7081 70.7336 63.5206 73.3211 69.2081 73.6253C69.3123 73.6253 69.3623 73.4753 69.2581 73.4253C63.5706 69.717 50.9748 61.6378 47.3665 61.6378C40.8665 61.5878 31.3165 64.7878 28.779 65.5003Z" fill="url(#paint3_linear_820_2393)"/>
<path d="M48.2832 39.1357C48.2832 39.1357 50.9748 44.7732 55.1915 48.2815C58.8457 51.2773 62.0498 53.2065 63.2165 54.6273C67.229 59.3523 68.7999 67.6315 70.7832 71.544C71.0874 72.1023 56.2082 57.3732 48.6373 44.7732C46.9123 41.8815 47.8248 38.3732 48.2832 39.1357Z" fill="url(#paint4_linear_820_2393)"/>
<path d="M57.8334 14.4028C59.4084 14.0945 63.5709 16.4862 63.5709 17.7028C63.5709 18.2612 57.5792 17.1445 56.5626 16.6362C55.1876 15.9278 56.8126 14.6028 57.8334 14.4028Z" fill="url(#paint5_linear_820_2393)"/>
<path d="M55.0877 18.7725C55.8502 18.11 59.0503 18.8225 59.6628 19.3808C60.2711 20.0433 56.5128 20.4475 55.2919 20.6016C54.2253 20.7016 54.3294 19.4391 55.0877 18.7725Z" fill="url(#paint6_linear_820_2393)"/>
<path d="M62.4583 8.91743C64.7916 9.1216 69.4625 15.9758 68.45 16.7924C67.8916 17.1966 60.625 12.7258 59.5583 11.4591C58.6416 10.3383 60.6791 8.76327 62.4583 8.91743Z" fill="url(#paint7_linear_820_2393)"/>
<path d="M85.6668 19.5323C86.8334 19.6823 89.1709 22.274 88.9168 23.1906C88.8168 23.5948 84.8543 21.4115 84.2459 20.8031C83.4334 19.9365 84.9084 19.4281 85.6668 19.5323Z" fill="url(#paint8_linear_820_2393)"/>
<path d="M82.721 22.225C83.2794 21.8708 85.5669 23.1417 85.6169 23.75C85.6669 24.2583 83.3794 23.6958 82.4669 23.5417C81.7044 23.4417 82.1127 22.6292 82.7169 22.225H82.721Z" fill="url(#paint9_linear_820_2393)"/>
<path d="M89.5251 16.7381C91.1501 17.4006 92.5251 21.9714 92.0168 22.4298C91.4584 22.9339 87.3918 19.0256 86.9334 17.9089C86.5293 16.9423 88.3084 16.2798 89.5251 16.7381Z" fill="url(#paint10_linear_820_2393)"/>
<path d="M66.9752 55.2927C66.4669 52.7511 65.6544 42.2386 63.0169 35.9386C61.0835 31.3677 55.8502 22.8844 54.7835 25.7802C53.2085 30.0469 49.6544 34.0094 50.8752 37.1552C52.0919 40.3094 56.2085 44.6261 59.3044 47.3177C62.3044 49.9594 67.0294 55.5469 66.9752 55.2927Z" fill="url(#paint11_linear_820_2393)"/>
<path d="M38.5834 71.9013C34.5709 71.343 28.425 70.0722 24.6125 69.3097C22.225 68.8513 25.0209 75.4555 28.2709 77.1847C31.0625 78.6555 43.6625 77.843 51.9917 77.0305C58.9 76.3222 69.4625 74.4888 65.8584 74.443C56.7286 74.0716 47.6245 73.2232 38.5834 71.9013Z" fill="url(#paint12_linear_820_2393)"/>
<path d="M66.7706 76.1157C66.9748 76.0115 67.229 75.6074 67.0748 75.7074C63.979 76.724 52.5498 79.874 40.054 81.2449C30.504 82.2615 28.4706 81.449 27.3581 81.9532C26.0373 82.5157 29.6915 87.4949 37.8706 87.0365C47.2165 86.4782 61.4373 79.5699 66.7706 76.1157Z" fill="url(#paint13_linear_820_2393)"/>
<path d="M29.6416 60.7733C29.0333 60.7733 29.0333 58.9983 31.0166 58.1316C31.0166 58.1316 33.2499 55.2899 37.7166 56.1524C40.8166 56.7608 45.7416 59.5566 45.0833 59.4024C42.7499 58.8441 32.5874 60.7733 29.6416 60.7733Z" fill="url(#paint14_linear_820_2393)"/>
<path d="M74.8998 69.6139C74.8998 69.4139 76.879 66.3139 79.4707 52.5472C81.0957 44.018 80.6873 36.4972 80.4332 35.0264C80.2832 33.9597 83.9373 36.093 83.9915 40.1055C84.0415 43.0014 83.379 54.5805 78.1498 64.993C76.0165 69.3097 74.8998 69.8639 74.8998 69.6139Z" fill="url(#paint15_linear_820_2393)"/>
<path d="M82.4666 58.8967C82.4166 59.0009 82.2124 58.9509 82.2624 58.8467C83.3291 56.5134 86.2249 46.5551 86.8332 38.9884C87.0874 36.0426 87.0874 33.6551 87.4457 32.8926C87.7999 31.9759 90.0332 29.4342 90.5416 29.1342C91.6082 28.5259 91.0999 34.7717 88.7124 42.5426C87.2916 47.3676 84.3457 55.5967 82.4666 58.8967Z" fill="url(#paint16_linear_820_2393)"/>
<defs>
<linearGradient id="paint0_linear_820_2393" x1="9.05417" y1="13.7467" x2="48.0167" y2="79.0425" gradientUnits="userSpaceOnUse">
<stop stop-color="#19D46A"/>
<stop offset="1" stop-color="#0D00B5"/>
</linearGradient>
<linearGradient id="paint1_linear_820_2393" x1="53.3042" y1="85.5832" x2="80.5501" y2="24.329" gradientUnits="userSpaceOnUse">
<stop stop-color="#D70066"/>
<stop offset="1" stop-color="#0D00B5"/>
</linearGradient>
<linearGradient id="paint2_linear_820_2393" x1="67.8792" y1="27.078" x2="74.1417" y2="71.8781" gradientUnits="userSpaceOnUse">
<stop stop-color="#8890F4"/>
<stop offset="0.283" stop-color="#FFCFFD"/>
<stop offset="0.606" stop-color="#F4F0FE"/>
<stop offset="0.734" stop-color="#EFFFFF"/>
<stop offset="1" stop-color="#75D9DD"/>
</linearGradient>
<linearGradient id="paint3_linear_820_2393" x1="25.5873" y1="60.6961" x2="71.7748" y2="73.3795" gradientUnits="userSpaceOnUse">
<stop offset="0.005" stop-color="#6F69F4"/>
<stop offset="0.415" stop-color="#FFCEAD"/>
<stop offset="0.596" stop-color="#EFEFB9"/>
<stop offset="0.673" stop-color="#E7FFBF"/>
<stop offset="1" stop-color="#75D9DD"/>
</linearGradient>
<linearGradient id="paint4_linear_820_2393" x1="44.9457" y1="37.394" x2="77.0165" y2="75.744" gradientUnits="userSpaceOnUse">
<stop offset="0.005" stop-color="#6F69F4"/>
<stop offset="0.382" stop-color="#FFAFFF"/>
<stop offset="0.513" stop-color="#F5D1E4"/>
<stop offset="0.673" stop-color="#E7FFBF"/>
<stop offset="0.972" stop-color="#75D9DD"/>
</linearGradient>
<linearGradient id="paint5_linear_820_2393" x1="62.5084" y1="20.0737" x2="59.6792" y2="16.6362" gradientUnits="userSpaceOnUse">
<stop stop-color="#FFA2FF"/>
<stop offset="0.557" stop-color="#FFFFB0"/>
<stop offset="0.713" stop-color="#DDFFCA"/>
<stop offset="1" stop-color="#97FFFF"/>
</linearGradient>
<linearGradient id="paint6_linear_820_2393" x1="58.5961" y1="21.785" x2="56.0628" y2="18.5141" gradientUnits="userSpaceOnUse">
<stop stop-color="#FFA2FF"/>
<stop offset="0.557" stop-color="#FFFFB0"/>
<stop offset="0.713" stop-color="#DDFFCA"/>
<stop offset="1" stop-color="#97FFFF"/>
</linearGradient>
<linearGradient id="paint7_linear_820_2393" x1="67.8916" y1="19.3133" x2="63.9625" y2="13.3008" gradientUnits="userSpaceOnUse">
<stop stop-color="#FFA2FF"/>
<stop offset="0.557" stop-color="#FFFFB0"/>
<stop offset="0.713" stop-color="#DDFFCA"/>
<stop offset="1" stop-color="#97FFFF"/>
</linearGradient>
<linearGradient id="paint8_linear_820_2393" x1="87.5709" y1="24.6198" x2="86.4251" y2="21.5531" gradientUnits="userSpaceOnUse">
<stop stop-color="#FFA2FF"/>
<stop offset="0.557" stop-color="#FFFFB0"/>
<stop offset="0.713" stop-color="#DDFFCA"/>
<stop offset="1" stop-color="#97FFFF"/>
</linearGradient>
<linearGradient id="paint9_linear_820_2393" x1="84.5044" y1="25.1333" x2="83.3419" y2="22.275" gradientUnits="userSpaceOnUse">
<stop stop-color="#FFA2FF"/>
<stop offset="0.557" stop-color="#FFFFB0"/>
<stop offset="0.713" stop-color="#DDFFCA"/>
<stop offset="1" stop-color="#97FFFF"/>
</linearGradient>
<linearGradient id="paint10_linear_820_2393" x1="90.8001" y1="24.0214" x2="89.5126" y2="19.6506" gradientUnits="userSpaceOnUse">
<stop stop-color="#FFA2FF"/>
<stop offset="0.557" stop-color="#FFFFB0"/>
<stop offset="0.713" stop-color="#DDFFCA"/>
<stop offset="1" stop-color="#97FFFF"/>
</linearGradient>
<linearGradient id="paint11_linear_820_2393" x1="68.896" y1="49.6219" x2="51.5794" y2="29.4469" gradientUnits="userSpaceOnUse">
<stop offset="0.005" stop-color="#6F69F4"/>
<stop offset="0.329" stop-color="#FFD9AD"/>
<stop offset="0.635" stop-color="#EAFABD"/>
<stop offset="0.673" stop-color="#E7FFBF"/>
<stop offset="1" stop-color="#75D9DD"/>
</linearGradient>
<linearGradient id="paint12_linear_820_2393" x1="67.6584" y1="75.5222" x2="23.9167" y2="73.3513" gradientUnits="userSpaceOnUse">
<stop offset="0.005" stop-color="#6F69F4"/>
<stop offset="0.33" stop-color="#FFECEC"/>
<stop offset="0.591" stop-color="#EDFACB"/>
<stop offset="0.673" stop-color="#E7FFBF"/>
<stop offset="0.972" stop-color="#75D9DD"/>
</linearGradient>
<linearGradient id="paint13_linear_820_2393" x1="27.0623" y1="82.674" x2="67.3748" y2="80.5449" gradientUnits="userSpaceOnUse">
<stop offset="0.005" stop-color="#6F69F4"/>
<stop offset="0.33" stop-color="#FFECEC"/>
<stop offset="0.591" stop-color="#EDFACB"/>
<stop offset="0.673" stop-color="#E7FFBF"/>
<stop offset="0.972" stop-color="#75D9DD"/>
</linearGradient>
<linearGradient id="paint14_linear_820_2393" x1="61.4916" y1="65.5108" x2="27.8083" y2="56.9274" gradientUnits="userSpaceOnUse">
<stop offset="0.005" stop-color="#6F69F4"/>
<stop offset="0.601" stop-color="#FFCEAD"/>
<stop offset="0.707" stop-color="#EFEFB9"/>
<stop offset="0.752" stop-color="#E7FFBF"/>
<stop offset="0.976" stop-color="#75D9DD"/>
</linearGradient>
<linearGradient id="paint15_linear_820_2393" x1="83.2957" y1="34.6014" x2="75.5624" y2="73.7305" gradientUnits="userSpaceOnUse">
<stop stop-color="#8890F4"/>
<stop offset="0.425" stop-color="#FFB8FD"/>
<stop offset="0.549" stop-color="#F4D9FE"/>
<stop offset="0.673" stop-color="#E7FFFF"/>
<stop offset="1" stop-color="#75D9DD"/>
</linearGradient>
<linearGradient id="paint16_linear_820_2393" x1="82.5832" y1="58.1676" x2="89.9707" y2="30.9217" gradientUnits="userSpaceOnUse">
<stop offset="0.005" stop-color="#6F69F4"/>
<stop offset="0.329" stop-color="#FFCEAD"/>
<stop offset="0.571" stop-color="#EFEFB9"/>
<stop offset="0.673" stop-color="#E7FFBF"/>
<stop offset="1" stop-color="#75D9DD"/>
</linearGradient>
</defs>
</svg>
