<svg width="100" height="100" viewBox="0 0 100 100" fill="none" xmlns="http://www.w3.org/2000/svg">
<path fill-rule="evenodd" clip-rule="evenodd" d="M33.8668 58.7457C36.3334 58.7457 41.2418 58.6082 48.0251 55.8165C55.9293 52.5623 71.6584 46.6498 83.0042 40.5832C90.9417 36.3415 94.4209 30.7248 94.4209 23.1665C94.4209 20.671 93.9293 18.2 92.9742 15.8946C92.0191 13.5891 90.6192 11.4944 88.8545 9.73C87.0897 7.96563 84.9947 6.56619 82.689 5.6116C80.3833 4.657 77.9122 4.16596 75.4168 4.1665H31.4542C24.2168 4.16761 17.2761 7.04346 12.1588 12.1615C7.04154 17.2796 4.16675 24.2207 4.16675 31.4582C4.16675 46.529 15.6042 58.7457 33.8668 58.7457Z" fill="#39594D"/>
<path fill-rule="evenodd" clip-rule="evenodd" d="M41.2999 77.5411C41.2997 73.9281 42.3702 70.3961 44.3763 67.3911C46.3823 64.3861 49.2338 62.0431 52.5708 60.6578L66.4166 54.9078C80.4208 49.0995 95.8333 59.3911 95.8333 74.5536C95.8333 77.3468 95.283 80.1125 94.214 82.693C93.145 85.2735 91.5782 87.6181 89.6029 89.5929C87.6277 91.5678 85.2828 93.1342 82.7021 94.2027C80.1214 95.2712 77.3556 95.8209 74.5624 95.8203L59.5749 95.8162C57.1747 95.8162 54.7979 95.3433 52.5804 94.4247C50.3629 93.506 48.3481 92.1595 46.6511 90.4621C44.954 88.7646 43.608 86.7495 42.6898 84.5318C41.7717 82.3141 41.2994 79.9372 41.2999 77.537V77.5411Z" fill="#D18EE2"/>
<path d="M19.9001 62.3411C17.8338 62.3406 15.7877 62.7472 13.8785 63.5376C11.9694 64.3281 10.2348 65.487 8.77371 66.9481C7.31263 68.4092 6.15374 70.1438 5.36326 72.0529C4.57278 73.962 4.1662 76.0082 4.16675 78.0745V80.112C4.23393 84.2398 5.92087 88.1759 8.86374 91.0712C11.8066 93.9666 15.7696 95.5893 19.898 95.5893C24.0264 95.5893 27.9894 93.9666 30.9323 91.0712C33.8751 88.1759 35.5621 84.2398 35.6292 80.112V78.0703C35.6292 76.0047 35.2224 73.9594 34.4319 72.051C33.6415 70.1427 32.4829 68.4087 31.0223 66.9481C29.5617 65.4875 27.8277 64.3289 25.9194 63.5384C24.011 62.748 21.9657 62.3411 19.9001 62.3411Z" fill="#FF7759"/>
</svg>
