<svg width="100" height="100" viewBox="0 0 100 100" fill="none" xmlns="http://www.w3.org/2000/svg">
<g clip-path="url(#clip0_820_2454)">
<path fill-rule="evenodd" clip-rule="evenodd" d="M42.9623 68.5831L35.3957 33.6581C35.3279 33.3491 35.3499 33.0272 35.4592 32.7303C35.5684 32.4334 35.7602 32.174 36.0121 31.9826C36.2639 31.7912 36.5653 31.6758 36.8806 31.65C37.1959 31.6243 37.5119 31.6893 37.7915 31.8373L68.1665 47.8498C68.44 47.9939 68.6645 48.2159 68.8118 48.4876C68.959 48.7593 69.0224 49.0686 68.9939 49.3764C68.9653 49.6842 68.8461 49.9765 68.6514 50.2166C68.4567 50.4566 68.1951 50.6334 67.8998 50.7248L53.9582 55.029C53.439 55.1894 53.0045 55.5489 52.7498 56.029L45.8748 68.9873C45.7254 69.2721 45.4917 69.5038 45.2056 69.6508C44.9196 69.7979 44.5951 69.8531 44.2765 69.8088C43.958 69.7646 43.6608 69.6232 43.4256 69.4038C43.1904 69.1845 43.0286 68.8979 42.9623 68.5831Z" fill="black"/>
<path fill-rule="evenodd" clip-rule="evenodd" d="M71.1957 4.80367C57.6041 -1.4005 44.4374 -0.617163 36.3333 1.7245C40.5333 2.26617 47.1749 3.287 51.7166 5.34117C55.4874 7.04117 68.8083 14.1745 72.0332 15.6912C75.2541 17.2037 84.6791 20.6745 88.1458 22.5245C90.9208 24.012 94.1541 27.412 95.4207 28.9245C92.8666 23.7662 86.2916 11.687 71.1999 4.7995L71.1957 4.80367Z" fill="url(#paint0_linear_820_2454)"/>
<path d="M35.1585 17.2824C38.7713 17.2824 41.7002 14.3536 41.7002 10.7407C41.7002 7.12784 38.7713 4.19904 35.1585 4.19904C31.5456 4.19904 28.6168 7.12784 28.6168 10.7407C28.6168 14.3536 31.5456 17.2824 35.1585 17.2824Z" fill="url(#paint1_radial_820_2454)"/>
<path d="M91.4126 58.4039C92.8693 58.4039 94.0501 57.2231 94.0501 55.7664C94.0501 54.3098 92.8693 53.1289 91.4126 53.1289C89.956 53.1289 88.7751 54.3098 88.7751 55.7664C88.7751 57.2231 89.956 58.4039 91.4126 58.4039Z" fill="url(#paint2_radial_820_2454)"/>
<path d="M84.4789 50.1C85.6111 50.1 86.529 49.1822 86.529 48.05C86.529 46.9178 85.6111 46 84.4789 46C83.3468 46 82.429 46.9178 82.429 48.05C82.429 49.1822 83.3468 50.1 84.4789 50.1Z" fill="url(#paint3_radial_820_2454)"/>
<path d="M76.9582 74.3265C79.7633 74.3265 82.0374 72.0525 82.0374 69.2473C82.0374 66.4422 79.7633 64.1682 76.9582 64.1682C74.153 64.1682 71.879 66.4422 71.879 69.2473C71.879 72.0525 74.153 74.3265 76.9582 74.3265Z" fill="url(#paint4_radial_820_2454)"/>
<path d="M60.7458 80.1848C62.5798 80.1848 64.0666 78.698 64.0666 76.864C64.0666 75.0299 62.5798 73.5432 60.7458 73.5432C58.9117 73.5432 57.4249 75.0299 57.4249 76.864C57.4249 78.698 58.9117 80.1848 60.7458 80.1848Z" fill="url(#paint5_radial_820_2454)"/>
<path d="M63.9209 94.2439C66.4822 94.2439 68.5584 92.1677 68.5584 89.6064C68.5584 87.0452 66.4822 84.9689 63.9209 84.9689C61.3597 84.9689 59.2834 87.0452 59.2834 89.6064C59.2834 92.1677 61.3597 94.2439 63.9209 94.2439Z" fill="url(#paint6_radial_820_2454)"/>
<path d="M17.8252 67.5828C20.7109 67.5828 23.0502 65.2435 23.0502 62.3578C23.0502 59.4721 20.7109 57.1328 17.8252 57.1328C14.9395 57.1328 12.6002 59.4721 12.6002 62.3578C12.6002 65.2435 14.9395 67.5828 17.8252 67.5828Z" fill="url(#paint7_radial_820_2454)"/>
<path d="M20.7544 43.8483C24.5031 43.8483 27.5419 40.8094 27.5419 37.0608C27.5419 33.3121 24.5031 30.2733 20.7544 30.2733C17.0058 30.2733 13.9669 33.3121 13.9669 37.0608C13.9669 40.8094 17.0058 43.8483 20.7544 43.8483Z" fill="url(#paint8_radial_820_2454)"/>
<path fill-rule="evenodd" clip-rule="evenodd" d="M69.9791 70.0813L65.9207 72.5979L65.1916 73.0479L64.4416 73.5146C64.9284 74.0549 65.2909 74.6953 65.5037 75.3907C65.7165 76.0861 65.7744 76.8197 65.6732 77.5399C65.5721 78.2601 65.3145 78.9494 64.9184 79.5593C64.5223 80.1693 63.9974 80.6851 63.3806 81.0704C62.7639 81.4557 62.0702 81.7013 61.3483 81.7897C60.6264 81.8782 59.894 81.8075 59.2024 81.5826C58.5108 81.3576 57.8769 80.9839 57.3452 80.4877C56.8135 79.9915 56.397 79.3849 56.1249 78.7104C55.0082 79.4188 54.0499 80.0396 53.3249 80.5229C47.5374 84.3979 41.5874 88.2646 33.8416 88.6271C23.7582 89.1021 9.21655 79.4479 6.98322 56.6438C5.27488 39.1604 18.7999 22.8021 28.2249 16.6979L28.6916 16.4063C27.317 14.839 26.5615 12.8242 26.5666 10.7396C26.5666 8.74795 27.2416 6.91462 28.3791 5.46045C26.0166 5.86878 24.4124 6.96878 21.6499 8.97295C13.4957 14.8813 8.85822 18.5396 2.55405 34.4563C-3.74595 50.373 2.74988 69.4229 9.63738 79.8729C16.5207 90.3229 32.4916 96.8646 36.1999 97.8438C39.9124 98.8188 50.8041 101.16 55.2957 98.3313C56.7624 97.4063 57.9666 96.0979 59.0207 94.5771C57.965 93.538 57.2671 92.1901 57.0278 90.7282C56.7885 89.2664 57.0203 87.7663 57.6896 86.4449C58.3589 85.1234 59.4311 84.049 60.7512 83.3769C62.0713 82.7049 63.5709 82.47 65.0332 82.7063C66.3457 80.2521 67.8332 78.1646 69.8457 76.9896C70.8749 76.3896 71.9999 75.7771 73.1665 75.1604C72.2931 74.6008 71.5543 73.8548 71.0032 72.976C70.4521 72.0971 70.1023 71.1113 69.9791 70.0813Z" fill="url(#paint9_linear_820_2454)"/>
<path fill-rule="evenodd" clip-rule="evenodd" d="M43.6168 10.6673C43.6168 12.0756 43.2793 13.4048 42.6793 14.5756C46.8377 15.6006 51.0377 17.0673 57.7293 21.2673C59.4543 22.3506 63.3377 24.2964 66.8752 26.0714C68.746 27.0089 70.5168 27.8964 71.8168 28.5839C75.5585 30.1923 79.5418 31.9048 82.6335 33.3756C91.5502 37.6256 93.8543 44.2298 92.8085 51.9089C93.3296 52.0908 93.8087 52.3759 94.2171 52.7472C94.6256 53.1185 94.9549 53.5683 95.1854 54.0698C95.4159 54.5713 95.5429 55.1142 95.5588 55.6659C95.5747 56.2177 95.4791 56.7669 95.2778 57.2809C95.0765 57.7948 94.7736 58.2628 94.3872 58.657C94.0008 59.0512 93.5389 59.3633 93.0291 59.5748C92.5192 59.7864 91.972 59.8929 91.42 59.888C90.8681 59.8831 90.3228 59.7669 89.8168 59.5464C87.7835 61.6214 84.7668 63.0298 81.7918 64.1964C82.5289 64.9306 83.0934 65.8197 83.4444 66.7991C83.7953 67.7785 83.924 68.8237 83.821 69.8589L84.3127 69.6298L84.421 69.5798C85.9353 68.8963 87.4356 68.1823 88.921 67.4381L88.9835 67.4048C89.8585 66.9464 91.2043 66.2339 92.6585 65.1214C92.0752 66.5964 90.1585 70.2131 87.1918 72.8714C83.4835 76.1881 80.6502 76.9214 76.8377 77.7048C73.8585 78.3173 69.6377 81.9381 67.7793 83.7881C68.5443 84.2943 69.2018 84.9465 69.7144 85.7073C70.2269 86.468 70.5844 87.3224 70.7663 88.2214C70.9482 89.1205 70.951 90.0467 70.7745 90.9468C70.598 91.847 70.2456 92.7035 69.7377 93.4673C69.6168 93.9381 69.471 94.3839 69.321 94.8298C69.1769 95.2533 69.0463 95.6813 68.9293 96.1131L69.496 95.9464C72.0002 95.2089 76.8793 93.7798 87.1918 83.0756C98.3502 71.4923 99.4627 58.0089 99.9377 50.8964C100.767 39.4673 93.321 32.2298 89.7543 29.6423C87.9002 28.2964 82.7335 26.0339 77.6502 23.8089L76.8168 23.4381L73.5877 22.0423C70.3668 20.6589 67.4502 19.4048 65.7543 18.4214L65.5835 18.3214C60.596 15.4381 52.7918 10.9256 46.2918 8.8881C45.7757 8.75735 45.2527 8.6558 44.7252 8.58393C44.2409 8.51763 43.7609 8.42302 43.2877 8.3006C43.5002 9.0506 43.6168 9.84643 43.6168 10.6714V10.6673Z" fill="url(#paint10_linear_820_2454)"/>
<path fill-rule="evenodd" clip-rule="evenodd" d="M57.8582 26.9821C51.9166 23.5363 44.3291 19.1404 36.7124 19.1404C31.1541 19.1404 24.9374 22.9696 19.9082 28.3613C21.441 28.2115 22.9861 28.4698 24.3868 29.1101C25.7874 29.7504 26.9937 30.7499 27.8832 32.0071C28.8416 30.4446 29.9499 28.8321 31.1041 27.7363C33.4124 25.5488 36.6416 24.6113 37.7457 24.6113C42.5332 24.6113 48.5416 27.7363 57.2957 33.3029C59.9457 34.9863 62.5457 36.3654 64.9207 37.6279C71.0957 40.9071 75.7541 43.3779 75.7541 48.2446C75.7541 53.7613 73.7832 55.3738 71.1499 56.8863C70.6374 57.1779 69.7499 57.7154 68.5874 58.4113C64.8916 60.6321 58.4499 64.4988 52.8374 67.4363C51.313 68.2562 49.8177 69.129 48.3541 70.0529C42.7166 73.5238 37.3624 76.8238 31.3166 72.5613C23.6999 67.1904 24.5624 57.6696 26.4166 52.6404C26.9582 51.1821 27.5582 49.8154 28.1166 48.5529C29.4832 45.4571 30.5749 42.9904 29.7416 41.3571C29.5144 40.9362 29.239 40.5433 28.9207 40.1863C28.372 41.6184 27.4564 42.8811 26.2659 43.8478C25.0754 44.8146 23.6516 45.4515 22.1374 45.6946C21.4624 48.3404 20.8916 50.9113 20.7207 52.6404C20.6249 53.5988 20.5041 54.5779 20.3707 55.5404C21.3473 55.9026 22.2347 56.4701 22.9731 57.2046C23.7115 57.9392 24.2837 58.8236 24.651 59.7982C25.0183 60.7728 25.1722 61.8149 25.1023 62.8541C25.0324 63.8932 24.7403 64.9053 24.2457 65.8219C23.7511 66.7385 23.0656 67.5383 22.2354 68.1673C21.4053 68.7963 20.4498 69.2398 19.4336 69.4679C18.4173 69.6959 17.3639 69.7033 16.3446 69.4894C15.3253 69.2755 14.3637 68.8453 13.5249 68.2279C15.9707 73.6529 19.3624 78.0613 22.8416 80.2779C30.7457 85.3196 38.7499 82.6113 41.2374 81.7696C41.358 81.7273 41.483 81.6856 41.6041 81.6446C43.2874 81.0988 51.9082 75.3613 59.2499 70.4738L62.6416 68.2154C68.7582 64.1571 76.4541 60.9363 79.9582 59.4696C80.8749 59.0863 81.5082 58.8196 81.7457 58.6946L81.8041 58.6654C83.4666 57.7779 88.0374 55.3404 88.5207 48.3904C88.9457 42.2779 82.3624 39.0404 78.8332 37.3071C78.3041 37.0446 77.8416 36.8196 77.4874 36.6238C76.3624 35.9988 74.3874 35.1113 71.9624 34.0154C69.2416 32.7821 65.9457 31.2946 62.6416 29.6404C61.2166 28.9279 59.6082 27.9946 57.8582 26.9821ZM84.4832 51.0779C84.8902 51.093 85.296 51.0259 85.6765 50.8806C86.0569 50.7353 86.4042 50.5147 86.6974 50.2322C86.9907 49.9496 87.2239 49.6108 87.3833 49.236C87.5426 48.8612 87.6247 48.4581 87.6247 48.0509C87.6247 47.6436 87.5426 47.2405 87.3833 46.8657C87.2239 46.491 86.9907 46.1521 86.6974 45.8696C86.4042 45.587 86.0569 45.3664 85.6765 45.2211C85.296 45.0758 84.8902 45.0087 84.4832 45.0238C83.6998 45.0528 82.9582 45.3845 82.4143 45.949C81.8703 46.5135 81.5664 47.2669 81.5664 48.0509C81.5664 48.8348 81.8703 49.5882 82.4143 50.1527C82.9582 50.7172 83.6998 51.0489 84.4832 51.0779Z" fill="url(#paint11_linear_820_2454)"/>
<path fill-rule="evenodd" clip-rule="evenodd" d="M17.0083 48.6825C16.6796 50.822 16.6152 52.9939 16.8167 55.1491C15.4377 55.3428 14.1431 55.9277 13.0863 56.8345C12.0295 57.7414 11.2549 58.9322 10.8542 60.2658C9.53749 54.5033 9.41666 48.3116 11.2208 42.6783C11.5458 41.6575 11.9375 40.6325 12.3875 39.6116C12.7898 40.9242 13.4948 42.1239 14.4458 43.114C15.3968 44.1041 16.5672 44.8568 17.8625 45.3116C17.4875 46.345 17.1917 47.47 17.0083 48.6866V48.6825Z" fill="url(#paint12_linear_820_2454)"/>
</g>
<defs>
<linearGradient id="paint0_linear_820_2454" x1="51.6166" y1="-0.000498002" x2="93.7082" y2="26.9537" gradientUnits="userSpaceOnUse">
<stop stop-color="#83FFFF"/>
<stop offset="1" stop-color="#01F9FD"/>
</linearGradient>
<radialGradient id="paint1_radial_820_2454" cx="0" cy="0" r="1" gradientUnits="userSpaceOnUse" gradientTransform="translate(35.1585 8.10737) rotate(90) scale(9.1805 9.1805)">
<stop offset="0.592" stop-color="white"/>
<stop offset="0.62" stop-color="#8BEBFF"/>
</radialGradient>
<radialGradient id="paint2_radial_820_2454" cx="0" cy="0" r="1" gradientUnits="userSpaceOnUse" gradientTransform="translate(91.4168 54.7039) rotate(90) scale(3.69958 3.69959)">
<stop offset="0.592" stop-color="white"/>
<stop offset="0.62" stop-color="#8BEBFF"/>
</radialGradient>
<radialGradient id="paint3_radial_820_2454" cx="0" cy="0" r="1" gradientUnits="userSpaceOnUse" gradientTransform="translate(84.479 47.2292) rotate(90) scale(2.87746 2.87746)">
<stop offset="0.592" stop-color="white"/>
<stop offset="0.62" stop-color="#8BEBFF"/>
</radialGradient>
<radialGradient id="paint4_radial_820_2454" cx="0" cy="0" r="1" gradientUnits="userSpaceOnUse" gradientTransform="translate(76.9582 67.2015) rotate(90) scale(7.12517)">
<stop offset="0.592" stop-color="white"/>
<stop offset="0.62" stop-color="#8BEBFF"/>
</radialGradient>
<radialGradient id="paint5_radial_820_2454" cx="0" cy="0" r="1" gradientUnits="userSpaceOnUse" gradientTransform="translate(60.7499 75.5265) rotate(90) scale(4.65875 4.65875)">
<stop offset="0.592" stop-color="white"/>
<stop offset="0.62" stop-color="#8BEBFF"/>
</radialGradient>
<radialGradient id="paint6_radial_820_2454" cx="0" cy="0" r="1" gradientUnits="userSpaceOnUse" gradientTransform="translate(63.9251 87.7398) rotate(90) scale(6.50854 6.50854)">
<stop offset="0.592" stop-color="white"/>
<stop offset="0.62" stop-color="#8BEBFF"/>
</radialGradient>
<radialGradient id="paint7_radial_820_2454" cx="0" cy="0" r="1" gradientUnits="userSpaceOnUse" gradientTransform="translate(17.8294 60.2536) rotate(90) scale(7.33071 7.33071)">
<stop offset="0.592" stop-color="white"/>
<stop offset="0.62" stop-color="#8BEBFF"/>
</radialGradient>
<radialGradient id="paint8_radial_820_2454" cx="0" cy="0" r="1" gradientUnits="userSpaceOnUse" gradientTransform="translate(20.7544 34.3274) rotate(90) scale(9.52304)">
<stop offset="0.592" stop-color="white"/>
<stop offset="0.62" stop-color="#8BEBFF"/>
</radialGradient>
<linearGradient id="paint9_linear_820_2454" x1="28.8582" y1="5.46878" x2="63.1874" y2="96.2938" gradientUnits="userSpaceOnUse">
<stop stop-color="#0CD7FE"/>
<stop offset="0.5" stop-color="#03ACFF"/>
<stop offset="1" stop-color="#0272E1"/>
</linearGradient>
<linearGradient id="paint10_linear_820_2454" x1="28.8585" y1="5.47143" x2="63.1876" y2="96.2964" gradientUnits="userSpaceOnUse">
<stop stop-color="#0CD7FE"/>
<stop offset="0.5" stop-color="#03ACFF"/>
<stop offset="1" stop-color="#0272E1"/>
</linearGradient>
<linearGradient id="paint11_linear_820_2454" x1="88.5832" y1="44.7779" x2="9.8624" y2="56.6446" gradientUnits="userSpaceOnUse">
<stop stop-color="#1BE8F9"/>
<stop offset="0.5" stop-color="#05C3FD"/>
<stop offset="1" stop-color="#0047CB"/>
</linearGradient>
<linearGradient id="paint12_linear_820_2454" x1="88.5833" y1="44.7783" x2="9.86249" y2="56.645" gradientUnits="userSpaceOnUse">
<stop stop-color="#1BE8F9"/>
<stop offset="0.5" stop-color="#05C3FD"/>
<stop offset="1" stop-color="#0047CB"/>
</linearGradient>
<clipPath id="clip0_820_2454">
<rect width="100" height="100" fill="white"/>
</clipPath>
</defs>
</svg>
