<svg width="100" height="100" viewBox="0 0 100 100" fill="none" xmlns="http://www.w3.org/2000/svg">
<path fill-rule="evenodd" clip-rule="evenodd" d="M33.8666 58.7457C36.3333 58.7457 41.2416 58.6082 48.025 55.8165C55.9291 52.5623 71.6583 46.6498 83.0041 40.5832C90.9416 36.3415 94.4208 30.7248 94.4208 23.1665C94.4208 20.671 93.9292 18.2 92.9741 15.8946C92.019 13.5891 90.6191 11.4944 88.8544 9.73C87.0896 7.96563 84.9946 6.56619 82.6889 5.6116C80.3832 4.657 77.9121 4.16596 75.4166 4.1665H31.4541C24.2166 4.16761 17.276 7.04346 12.1587 12.1615C7.04142 17.2796 4.16663 24.2207 4.16663 31.4582C4.16663 46.529 15.6041 58.7457 33.8666 58.7457Z" fill="#39594D"/>
<path fill-rule="evenodd" clip-rule="evenodd" d="M41.2999 77.5411C41.2997 73.9281 42.3702 70.3961 44.3763 67.3911C46.3823 64.3861 49.2338 62.0431 52.5708 60.6578L66.4166 54.9078C80.4208 49.0995 95.8333 59.3911 95.8333 74.5536C95.8333 77.3468 95.283 80.1125 94.214 82.693C93.145 85.2735 91.5782 87.6181 89.6029 89.5929C87.6277 91.5678 85.2828 93.1342 82.7021 94.2027C80.1214 95.2712 77.3556 95.8209 74.5624 95.8203L59.5749 95.8162C57.1747 95.8162 54.7979 95.3433 52.5804 94.4247C50.3629 93.506 48.3481 92.1595 46.6511 90.4621C44.954 88.7646 43.608 86.7495 42.6898 84.5318C41.7717 82.3141 41.2994 79.9372 41.2999 77.537V77.5411Z" fill="#D18EE2"/>
<path d="M19.9 62.3411C17.8337 62.3406 15.7875 62.7472 13.8784 63.5376C11.9693 64.3281 10.2347 65.487 8.77359 66.9481C7.31251 68.4092 6.15362 70.1438 5.36314 72.0529C4.57266 73.962 4.16608 76.0082 4.16663 78.0745V80.112C4.23381 84.2398 5.92075 88.1759 8.86362 91.0712C11.8065 93.9666 15.7695 95.5893 19.8979 95.5893C24.0263 95.5893 27.9893 93.9666 30.9321 91.0712C33.875 88.1759 35.5619 84.2398 35.6291 80.112V78.0703C35.6291 76.0047 35.2223 73.9594 34.4318 72.051C33.6413 70.1427 32.4827 68.4087 31.0222 66.9481C29.5616 65.4875 27.8276 64.3289 25.9193 63.5384C24.0109 62.748 21.9655 62.3411 19.9 62.3411Z" fill="#FF7759"/>
</svg>
