<svg width="102" height="102" viewBox="0 0 102 102" fill="none" xmlns="http://www.w3.org/2000/svg">
<g id="crystal">
<g id="crystal_2">
<path id="Vector" d="M51 100.999C78.6142 100.999 101 78.6134 101 50.9991C101 23.3849 78.6142 0.999146 51 0.999146C23.3858 0.999146 1 23.3849 1 50.9991C1 78.6134 23.3858 100.999 51 100.999Z" fill="white" fill-opacity="0.965067" stroke="#FFFFFE" stroke-width="0.377953" stroke-linecap="round"/>
<path id="Vector_2" d="M84.0203 59.9346L59.9034 84.0033C59.8069 84.0997 59.6622 84.1479 59.5658 84.0997L26.6222 75.2729C26.4775 75.2247 26.381 75.1282 26.381 75.0318L17.506 42.1364C17.4577 41.9917 17.506 41.8952 17.6025 41.7988L41.7193 17.7301C41.8158 17.6337 41.9605 17.5854 42.0569 17.6337L75.0006 26.4604C75.1453 26.5087 75.2417 26.6051 75.2417 26.7016L84.0685 59.597C84.165 59.7417 84.1167 59.8382 84.0203 59.9346ZM51.7037 33.7437L19.3389 42.3776C19.2906 42.3776 19.2424 42.474 19.2906 42.5223L42.9734 66.1568C43.0216 66.205 43.1181 66.205 43.1181 66.1085L51.8001 33.792C51.8484 33.792 51.7519 33.6955 51.7037 33.7437Z" fill="black"/>
</g>
</g>
</svg>
