<svg width="100" height="100" viewBox="0 0 100 100" fill="none" xmlns="http://www.w3.org/2000/svg">
<g clip-path="url(#clip0_820_2491)">
<path d="M90.9208 41.2248L50.0458 64.5373L6.27084 39.629L4.16667 40.779V58.8623L50.0417 84.929L90.9208 61.704V71.2748L50.0458 94.5915L6.27084 69.679L4.16667 70.8331V73.9373L50.0417 99.9998L95.8333 73.9373V55.854L93.7292 54.6998L50.0458 79.5206L9.07917 56.2956V46.7206L50.0458 69.9456L95.8333 43.8831V26.0623L93.5542 24.7331L50.0458 49.4665L11.1833 27.4832L50.0458 5.40815L81.975 23.5831L84.7792 21.9873V19.7706L50.0458 -0.000183105L4.16667 26.0623V28.8998L50.0417 54.9623L90.9208 31.6498V41.2248Z" fill="#EE3D2C"/>
</g>
<defs>
<clipPath id="clip0_820_2491">
<rect width="100" height="100" fill="white"/>
</clipPath>
</defs>
</svg>
