<svg width="100" height="100" viewBox="0 0 100 100" fill="none" xmlns="http://www.w3.org/2000/svg">
<g id="deno">
<g id="deno_2">
<path id="Vector" d="M50 0C77.6143 0 100 22.3857 100 50C100 77.6143 77.6143 100 50 100C22.3857 100 0 77.6143 0 50C0 22.3857 22.3857 0 50 0Z" fill="black"/>
<path id="Vector_2" d="M48.8784 74.4647C47.596 74.119 46.277 74.8613 45.9017 76.127L45.885 76.186L42.5647 88.4907L42.5497 88.55C42.237 89.8327 43.0037 91.138 44.286 91.4837C45.568 91.83 46.887 91.0877 47.2624 89.8217L47.279 89.763L50.599 77.4583L50.6144 77.3987C50.637 77.3063 50.654 77.2133 50.6657 77.1207L50.6754 77.028L50.5967 76.6293L50.4817 76.0553L50.409 75.697C50.2534 75.3967 50.037 75.132 49.7734 74.9197C49.51 74.7077 49.205 74.5527 48.8784 74.4647ZM25.7414 61.793C25.6808 61.9137 25.6295 62.041 25.5886 62.174L25.5656 62.2543L22.2453 74.559L22.23 74.6187C21.9175 75.9013 22.6842 77.2063 23.9664 77.5523C25.2484 77.8983 26.5676 77.1563 26.9429 75.8903L26.9593 75.8313L29.9699 64.6743C28.3931 63.8393 26.9779 62.876 25.7414 61.793ZM17.8236 47.643C16.5414 47.297 15.2222 48.039 14.847 49.305L14.8304 49.364L11.5101 61.6687L11.4949 61.728C11.1824 63.0107 11.949 64.3157 13.2312 64.6617C14.5133 65.0077 15.8324 64.2657 16.2078 62.9997L16.2242 62.9407L19.5445 50.636L19.5597 50.5767C19.8722 49.294 19.1058 47.989 17.8236 47.643ZM92.2734 44.8487C90.991 44.5027 89.6717 45.2447 89.2967 46.5107L89.28 46.5697L85.9597 58.8743L85.9444 58.9337C85.632 60.2163 86.3987 61.5213 87.6807 61.8673C88.963 62.2133 90.282 61.4713 90.6574 60.2053L90.6737 60.1463L93.994 47.8417L94.0094 47.7823C94.3217 46.4997 93.5554 45.1947 92.2734 44.8487ZM10.5927 28.4176C7.81207 33.4813 6.04147 39.0373 5.37927 44.7763C5.69604 45.1373 6.11274 45.3967 6.57674 45.521C7.85897 45.8673 9.17811 45.125 9.55331 43.859L9.56991 43.8003L12.8902 31.4955L12.9054 31.4361C13.2179 30.1533 12.4513 28.8482 11.1691 28.5023C10.981 28.4516 10.7875 28.4231 10.5927 28.4176ZM83.8634 28.5023C82.5814 28.1562 81.262 28.8984 80.8867 30.1644L80.8704 30.2232L77.55 42.528L77.5347 42.5873C77.2224 43.87 77.9887 45.1753 79.271 45.521C80.553 45.8673 81.8724 45.125 82.2477 43.859L82.264 43.8003L85.5844 31.4955L85.5997 31.4361C85.912 30.1533 85.1454 28.8482 83.8634 28.5023Z" fill="white"/>
<path id="Vector_3" d="M25.0429 16.8022C23.7608 16.4561 22.4417 17.1983 22.0663 18.4643L22.0499 18.5231L18.7296 30.8278L18.7143 30.8872C18.4018 32.17 19.1684 33.475 20.4507 33.821C21.7327 34.167 23.0518 33.4247 23.4272 32.1588L23.4436 32.1001L26.7639 19.7954L26.7792 19.736C27.0917 18.4532 26.3251 17.1481 25.0429 16.8022ZM67.7054 19.1282C66.423 18.7821 65.104 19.5243 64.7287 20.7903L64.712 20.8491L62.481 29.1167C63.9264 29.8305 65.3057 30.6709 66.603 31.628L66.8177 31.7881L69.4264 22.1213L69.4414 22.062C69.754 20.7792 68.9877 19.4741 67.7054 19.1282ZM45.9894 5.25476C44.432 5.39239 42.8824 5.61129 41.3477 5.91059L41.022 5.97546L37.9274 17.4473L37.912 17.5067C37.5997 18.7895 38.3664 20.0946 39.6484 20.4405C40.9307 20.7866 42.2497 20.0444 42.625 18.7784L42.6414 18.7196L45.9617 6.41489L45.977 6.35553C46.0654 5.99439 46.0697 5.61779 45.9894 5.25476ZM76.542 13.7544L75.8897 16.1723L75.8744 16.2315C75.562 17.5143 76.3287 18.8194 77.6107 19.1653C78.8927 19.5114 80.212 18.7692 80.5874 17.5032L80.6037 17.4444L80.675 17.1821C79.454 16.0402 78.1704 14.967 76.8304 13.9674L76.542 13.7544ZM57.224 5.65593L56.0464 10.0198L56.0314 10.0792C55.7187 11.362 56.4854 12.6671 57.7677 13.013C59.0497 13.359 60.3687 12.6169 60.7444 11.3508L60.7607 11.2921L62 6.69889C60.5414 6.29559 59.0634 5.96673 57.5714 5.71353L57.224 5.65593Z" fill="white"/>
<path id="Vector_4" d="M32.3028 82.0843C32.678 80.8183 33.9973 80.0763 35.2793 80.422C36.5617 80.7676 37.328 82.073 37.0157 83.356L37.0003 83.4153L34.624 92.2213L34.292 92.099C32.8612 91.5646 31.4588 90.9576 30.0903 90.2796L32.2862 82.143L32.3028 82.0843Z" fill="white"/>
<path id="Vector_5" d="M48.047 28.3027C33.5073 28.3027 22.1973 37.456 22.1973 48.839C22.1973 59.5897 32.6041 66.454 48.737 66.1103C50.109 66.081 50.5057 67.0027 50.952 68.2447C51.3987 69.4867 52.5987 76.0323 53.555 81.039C54.411 85.52 55.2807 90.0173 55.9447 94.532C66.4797 93.1393 76.221 87.9357 83.3587 80.087L75.7457 51.696C73.848 44.8393 71.63 38.5213 65.761 33.9313C61.0393 30.2389 55.0407 28.3027 48.047 28.3027Z" fill="white"/>
<path id="Vector_6" d="M51.172 36.5233C52.898 36.5233 54.297 37.9223 54.297 39.6483C54.297 41.3743 52.898 42.7733 51.172 42.7733C49.446 42.7733 48.047 41.3743 48.047 39.6483C48.047 37.9223 49.446 36.5233 51.172 36.5233Z" fill="black"/>
</g>
</g>
</svg>
