<svg width="100" height="100" viewBox="0 0 100 100" fill="none" xmlns="http://www.w3.org/2000/svg">
<g clip-path="url(#clip0_820_2498)">
<mask id="mask0_820_2498" style="mask-type:luminance" maskUnits="userSpaceOnUse" x="0" y="0" width="100" height="100">
<path d="M0 0H100V100H0V0Z" fill="white"/>
</mask>
<g mask="url(#mask0_820_2498)">
<path d="M90.2499 29.238C91.5668 27.9668 92.6173 26.446 93.3401 24.7643C94.0629 23.0827 94.4436 21.274 94.4598 19.4437C94.476 17.6134 94.1275 15.7982 93.4347 14.104C92.7418 12.4098 91.7185 10.8706 90.4243 9.57617C89.1302 8.28176 87.5912 7.25807 85.8972 6.56485C84.2031 5.87163 82.388 5.52276 80.5577 5.5386C78.7274 5.55445 76.9185 5.93468 75.2368 6.65713C73.555 7.37957 72.034 8.42975 70.7624 9.74637L56.3541 24.1547C55.0375 25.4262 53.9873 26.9473 53.2648 28.6291C52.5424 30.3108 52.1622 32.1197 52.1463 33.95C52.1305 35.7803 52.4794 37.5954 53.1726 39.2894C53.8658 40.9835 54.8895 42.5225 56.1839 43.8166C57.4783 45.1107 59.0175 46.1341 60.7117 46.827C62.4059 47.5198 64.2211 47.8683 66.0514 47.8521C67.8817 47.8358 69.6904 47.4552 71.3721 46.7324C73.0537 46.0096 74.5745 44.9591 75.8458 43.6422L90.2499 29.238ZM43.6458 75.8464C44.946 74.571 45.9805 73.0507 46.6897 71.3732C47.3988 69.6956 47.7685 67.8942 47.7773 66.0729C47.7861 64.2517 47.4339 62.4468 46.741 60.7625C46.0481 59.0782 45.0282 57.5479 43.7404 56.2601C42.4526 54.9722 40.9223 53.9524 39.238 53.2595C37.5537 52.5666 35.7488 52.2144 33.9275 52.2232C32.1063 52.232 30.3048 52.6016 28.6273 53.3108C26.9498 54.0199 25.4294 55.0545 24.1541 56.3547L9.74576 70.763C8.42914 72.0346 7.37896 73.5556 6.65652 75.2374C5.93407 76.9192 5.55384 78.728 5.53799 80.5583C5.52215 82.3886 5.87102 84.2037 6.56424 85.8978C7.25746 87.5918 8.28115 89.1308 9.57556 90.4249C10.87 91.7191 12.4092 92.7424 14.1034 93.4353C15.7975 94.1282 17.6128 94.4766 19.4431 94.4604C21.2734 94.4442 23.0821 94.0635 24.7637 93.3407C26.4454 92.6179 27.9662 91.5674 29.2374 90.2505L43.6458 75.8464Z" fill="#7748F9"/>
<path d="M75.8459 56.3554C74.5706 55.0552 73.0503 54.0207 71.3727 53.3115C69.6952 52.6024 67.8938 52.2327 66.0725 52.2239C64.2513 52.2151 62.4464 52.5673 60.7621 53.2602C59.0778 53.9531 57.5475 54.973 56.2596 56.2608C54.9718 57.5486 53.952 59.0789 53.2591 60.7632C52.5662 62.4475 52.214 64.2524 52.2228 66.0737C52.2316 67.8949 52.6012 69.6964 53.3104 71.3739C54.0195 73.0514 55.0541 74.5718 56.3543 75.8471L70.7626 90.2554C73.3559 92.7991 76.8484 94.2161 80.4809 94.1986C84.1133 94.181 87.592 92.7303 90.1606 90.1617C92.7291 87.5931 94.1799 84.1145 94.1974 80.482C94.215 76.8496 92.7979 73.357 90.2543 70.7638L75.8459 56.3554ZM29.2376 9.74711C27.9623 8.44689 26.4419 7.41232 24.7644 6.70318C23.0869 5.99403 21.2854 5.62438 19.4642 5.61558C17.643 5.60678 15.838 5.95901 14.1537 6.6519C12.4694 7.3448 10.9391 8.36464 9.6513 9.65246C8.36348 10.9403 7.34364 12.4706 6.65074 14.1549C5.95785 15.8392 5.60562 17.6441 5.61442 19.4654C5.62322 21.2866 5.99287 23.088 6.70202 24.7656C7.41116 26.4431 8.44573 27.9635 9.74595 29.2388L24.1543 43.6429C26.7542 46.1528 30.2359 47.5412 33.8495 47.5091C37.4631 47.4771 40.9195 46.0271 43.4745 43.4716C46.0296 40.916 47.4787 37.4592 47.51 33.8456C47.5413 30.232 46.1522 26.7507 43.6418 24.1513L29.2376 9.74711Z" fill="#BFABFB"/>
</g>
</g>
<defs>
<clipPath id="clip0_820_2498">
<rect width="100" height="100" fill="white"/>
</clipPath>
</defs>
</svg>
