<svg width="100" height="100" viewBox="0 0 100 100" fill="none" xmlns="http://www.w3.org/2000/svg">
<g id="elastic">
<g id="elastic_2">
<path id="Vector" d="M100 52.1966C100 43.8281 94.8016 36.4739 86.9824 33.6422C87.3207 31.867 87.4898 30.0917 87.4898 28.2744C87.4898 12.6785 74.8102 -0.00115967 59.2565 -0.00115967C50.1271 -0.00115967 41.6739 4.35218 36.3485 11.7064C33.728 9.67763 30.516 8.57875 27.177 8.57875C18.8929 8.57875 12.1727 15.2989 12.1727 23.583C12.1727 25.4004 12.5108 27.1756 13.1025 28.8238C5.32569 31.6134 0.000244141 39.0944 0.000244141 47.4206C0.000244141 55.8315 5.24116 63.1857 13.0603 66.0176C12.7222 67.7505 12.5531 69.5678 12.5531 71.3851C12.5531 86.939 25.1906 99.5762 40.7442 99.5762C49.8736 99.5762 58.3266 95.1808 63.6097 87.8263C66.2302 89.8974 69.4424 91.0386 72.7814 91.0386C81.0653 91.0386 87.7856 84.3185 87.7856 76.0344C87.7856 74.217 87.4474 72.4418 86.8557 70.7934C94.6325 68.004 100 60.5231 100 52.1966Z" fill="white"/>
<path id="Vector_2" d="M39.3061 42.8995L61.1995 52.8741L83.2623 33.5165C83.6002 31.9104 83.727 30.3466 83.727 28.6558C83.727 15.0465 72.6535 3.9729 59.044 3.9729C50.8869 3.9729 43.3212 7.98812 38.7143 14.7083L35.0374 33.7701L39.3061 42.8995Z" fill="#FED10A"/>
<path id="Vector_3" d="M16.6534 66.06C16.3153 67.6661 16.1885 69.3143 16.1885 71.0048C16.1885 84.6567 27.3044 95.7302 40.956 95.7302C49.1554 95.7302 56.8055 91.6727 61.4127 84.9102L65.0473 65.9332L60.1868 56.6347L38.2087 46.6177L16.6534 66.06Z" fill="#24BBB1"/>
<path id="Vector_4" d="M16.5251 28.19L31.5294 31.7402L34.8261 14.7072C32.7973 13.1434 30.2615 12.2981 27.641 12.2981C21.1321 12.2981 15.8066 17.5813 15.8066 24.1324C15.8066 25.5271 16.0602 26.922 16.5251 28.19Z" fill="#EF5098"/>
<path id="Vector_5" d="M15.2173 31.7818C8.53937 33.9794 3.8479 40.4039 3.8479 47.4622C3.8479 54.3514 8.1167 60.48 14.4988 62.9314L35.5471 43.912L31.7008 35.6702L15.2173 31.7818Z" fill="#1BA9F5"/>
<path id="Vector_6" d="M65.2163 84.9091C67.2874 86.4729 69.7811 87.3605 72.3593 87.3605C78.8682 87.3605 84.1936 82.0772 84.1936 75.5262C84.1936 74.0892 83.9401 72.6942 83.4751 71.4263L68.5132 67.9182L65.2163 84.9091Z" fill="#93C83E"/>
<path id="Vector_7" d="M68.2577 63.9885L84.7413 67.8345C91.4616 65.6367 96.1106 59.2124 96.1106 52.1118C96.1106 45.2649 91.8419 39.094 85.4598 36.6849L63.9043 55.5776L68.2577 63.9885Z" fill="#0077CC"/>
</g>
</g>
</svg>
