<svg width="100" height="100" viewBox="0 0 100 100" fill="none" xmlns="http://www.w3.org/2000/svg">
<g id="ember">
<g id="ember_2">
<path id="Vector" d="M50 0C77.6141 0 100 22.3859 100 50C100 77.6141 77.6141 100 50 100C22.3859 100 0 77.6141 0 50C0 22.3859 22.3859 0 50 0Z" fill="#E05C43"/>
<path id="Vector_2" fill-rule="evenodd" clip-rule="evenodd" d="M50.9883 18.85C57.4304 18.7227 61.9828 20.4696 65.9 26.0297C74.4422 47.2086 43.9101 58.1391 42.6859 58.5688L42.6476 58.5813C42.6476 58.5813 41.7258 64.3336 50.482 64.1125C61.2578 64.1125 72.5867 55.7602 76.8961 52.2297C77.3969 51.818 78.0348 51.6107 78.682 51.649C79.3292 51.6874 79.938 51.9688 80.3867 52.4368L83.6133 55.7883C84.0667 56.2559 84.3258 56.8783 84.3381 57.5295C84.3504 58.1808 84.1151 58.8125 83.6797 59.2969C80.875 62.4196 74.2937 68.8305 64.3859 72.9719C64.3859 72.9719 47.8547 80.6266 36.714 73.3782C30.0711 69.0579 28.2437 63.8852 27.5008 58.5047C27.5047 58.5047 19.4351 58.0954 14.2531 56.0719C9.06951 54.0469 14.2914 47.9383 14.2914 47.9383C14.2914 47.9383 15.8851 45.4125 18.9164 47.9383C21.95 50.4602 27.6117 49.3227 27.6117 49.3227C28.1164 45.3391 28.9555 40.0821 31.4273 34.5336C36.6086 22.9047 44.5437 18.975 50.9883 18.85ZM54.7797 30.5024C51.3664 27.2133 41.5109 33.7852 41.1304 48.8227C41.1304 48.8227 44.0398 49.7086 50.482 45.2836C56.9273 40.861 58.1929 33.7852 54.7797 30.5024Z" fill="white"/>
</g>
</g>
</svg>
