<svg width="100" height="100" viewBox="0 0 100 100" fill="none" xmlns="http://www.w3.org/2000/svg">
<g clip-path="url(#clip0_820_2517)">
<path fill-rule="evenodd" clip-rule="evenodd" d="M12.5001 0.00012207H91.6667V7.46262L57.8834 50.0001L91.6667 92.5376V100H12.5001V0.00012207ZM52.5834 43.1168L80.0376 7.46262H25.1251L52.5834 43.1168ZM21.4084 16.396V46.271H44.4084L21.4084 16.396ZM44.4084 53.7293H21.4084V83.6043L44.4084 53.7293ZM25.1251 92.5418L52.5834 56.8876L80.0376 92.5418H25.1251Z" fill="#1F40ED"/>
<g clip-path="url(#clip1_820_2517)">
<path fill-rule="evenodd" clip-rule="evenodd" d="M77 72.5L84 76.9H78.7L77.4 83.5H74.8L76.1 76.9H73.6L72.5 74.7H76.5L76.9 72.5H77Z" fill="#484848"/>
</g>
</g>
<defs>
<clipPath id="clip0_820_2517">
<rect width="100" height="100" fill="white"/>
</clipPath>
<clipPath id="clip1_820_2517">
<rect width="12" height="12" fill="white" transform="translate(72 72)"/>
</clipPath>
</defs>
</svg>
