<svg width="100" height="100" viewBox="0 0 100 100" fill="none" xmlns="http://www.w3.org/2000/svg">
<g clip-path="url(#clip0_820_2526)">
<path fill-rule="evenodd" clip-rule="evenodd" d="M61.6669 20.8335L49.9961 49.146L38.3127 20.8335H30.8211L43.6211 51.7835C44.1324 53.0423 45.0075 54.12 46.1343 54.8791C47.2612 55.6381 48.5888 56.044 49.9474 56.0449C51.3061 56.0458 52.6342 55.6417 53.7621 54.8841C54.89 54.1265 55.7664 53.0499 56.2794 51.7918L69.1586 20.8335H61.6669ZM66.6502 63.9668L88.0002 42.1168L85.0877 35.1627L61.7711 59.0752C60.8191 60.0507 60.1759 61.2852 59.9217 62.6243C59.6675 63.9635 59.8137 65.3478 60.3419 66.6043C60.8605 67.8525 61.7372 68.9192 62.8614 69.6696C63.9856 70.4201 65.3069 70.8207 66.6586 70.821L66.6669 70.8335L100 70.7502L97.0877 63.796L66.6586 63.9668H66.6502ZM12.0002 42.1002L14.9127 35.146L38.2294 59.0585C40.1794 61.0543 40.7419 64.0127 39.6586 66.5877C39.1395 67.8356 38.2627 68.9019 37.1386 69.6523C36.0145 70.4026 34.6934 70.8035 33.3419 70.8043L0.00857747 70.7293L0.000244141 70.7377L2.91274 63.7835L33.3419 63.9585L12.0002 42.1002Z" fill="#5019C5"/>
</g>
<defs>
<clipPath id="clip0_820_2526">
<rect width="100" height="100" fill="white"/>
</clipPath>
</defs>
</svg>
