<svg width="100" height="100" viewBox="0 0 100 100" fill="none" xmlns="http://www.w3.org/2000/svg">
<g clip-path="url(#clip0_820_2528)">
<path fill-rule="evenodd" clip-rule="evenodd" d="M51.417 24.8043C50.9649 23.2677 50.621 21.7014 50.3878 20.1168V15.5001C59.0055 15.5854 67.2767 18.9046 73.5628 24.8001L51.417 24.8043ZM48.542 24.8043C49.0128 23.2501 49.3712 21.6585 49.6128 20.0335V15.5001C40.9952 15.5854 32.7239 18.9046 26.4378 24.8001H48.5378L48.542 24.8043ZM25.9045 25.5835H48.292C47.9665 26.5669 47.5953 27.5346 47.1795 28.4835C45.4598 32.597 42.9708 36.3446 39.8462 39.5251L25.9045 25.5835ZM24.8045 24.8043H12.4045V25.5835H24.5503C18.3307 32.0467 14.8172 40.6432 14.7295 49.6126H0.000325539V50.3876H14.7295C14.8172 59.357 18.3307 67.9535 24.5503 74.4168H12.4045V75.1918H24.8045V87.596H25.5837V75.4501C32.0469 81.6698 40.6434 85.1832 49.6128 85.271V100H50.3878V85.271C59.3572 85.1832 67.9537 81.6698 74.417 75.4501V87.596H75.192V75.1918H87.5962V74.4168H75.4503C81.67 67.9535 85.1834 59.357 85.2712 50.3876H100V49.6126H85.2712C85.1834 40.6432 81.67 32.0467 75.4503 25.5835H87.5962V24.8043H75.192V12.4043H74.417V24.5501C67.9537 18.3305 59.3572 14.817 50.3878 14.7293V0.00012207H49.6128V14.7293C40.6434 14.817 32.0469 18.3305 25.5837 24.5501V12.4043H24.8045V24.8043ZM50.3878 84.4959C59.0061 84.4095 67.2774 81.0888 73.5628 75.1918H51.417C50.967 76.7209 50.6253 78.2876 50.3878 79.8835V84.4959ZM49.6128 79.9668C49.3718 78.351 49.0125 76.755 48.5378 75.1918H26.4378C32.7233 81.0888 40.9946 84.4095 49.6128 84.4959V79.9668ZM15.5045 49.6126H20.117C21.7016 49.3795 23.2679 49.0356 24.8045 48.5835V26.4376C18.909 32.7237 15.5898 40.9949 15.5045 49.6126ZM20.0337 50.3876H15.5003C15.5856 59.0053 18.9048 67.2765 24.8003 73.5626V51.4626C23.2385 50.9881 21.6481 50.6288 20.0337 50.3876ZM84.492 49.6126C84.4067 40.9949 81.0875 32.7237 75.192 26.4376V48.5835C76.7212 49.0335 78.2878 49.3751 79.8837 49.6126H84.492ZM79.967 50.3876C78.342 50.6293 76.7503 50.9876 75.192 51.4626V73.5626C81.089 67.2772 84.4097 59.0059 84.4962 50.3876H79.967ZM74.417 74.096V51.7085C73.4335 52.0339 72.4658 52.4051 71.517 52.821C67.4034 54.5406 63.6558 57.0296 60.4753 60.1543L74.417 74.096ZM74.417 48.346V25.6376L74.367 25.5835H51.6545C51.9712 26.5626 52.3295 27.5335 52.7378 28.4835C54.5391 32.6593 57.1103 36.4587 60.317 39.6835C63.5414 42.8917 67.3409 45.4642 71.517 47.2668C72.467 47.671 73.4337 48.0293 74.417 48.346ZM25.5837 74.3668V51.7085C26.5628 52.0335 27.5337 52.4043 28.4837 52.821C32.6672 54.5707 36.471 57.1165 39.6837 60.3168C42.8839 63.5295 45.4297 67.3333 47.1795 71.5168C47.5962 72.4668 47.9712 73.4335 48.292 74.4168H25.6337L25.5837 74.3668ZM25.5837 48.346V26.3585L39.292 40.0668C36.1511 43.0967 32.4898 45.5357 28.4837 47.2668C27.5339 47.6704 26.5662 48.0305 25.5837 48.346ZM51.6545 74.4168H73.642L59.9337 60.7085C56.9037 63.8494 54.4647 67.5107 52.7337 71.5168C52.33 72.4665 51.9699 73.4342 51.6545 74.4168ZM41.8753 41.8751C38.4169 45.3186 34.3476 48.088 29.8753 50.0418C34.3551 51.9447 38.4286 54.6886 41.8753 58.1251C45.3118 61.5718 48.0558 65.6453 49.9587 70.1251C51.9124 65.6529 54.6818 61.5835 58.1253 58.1251C61.572 54.6886 65.6455 51.9447 70.1253 50.0418C65.6531 48.088 61.5837 45.3186 58.1253 41.8751C54.6818 38.4168 51.9123 34.3474 49.9587 29.8751C48.0558 34.3549 45.3118 38.4284 41.8753 41.8751Z" fill="url(#paint0_linear_820_2528)"/>
</g>
<defs>
<linearGradient id="paint0_linear_820_2528" x1="2441.9" y1="7558.1" x2="7519.4" y2="2519.4" gradientUnits="userSpaceOnUse">
<stop stop-color="#446EFF"/>
<stop offset="0.36661" stop-color="#2E96FF"/>
<stop offset="0.83221" stop-color="#B1C5FF"/>
</linearGradient>
<clipPath id="clip0_820_2528">
<rect width="100" height="100" fill="white"/>
</clipPath>
</defs>
</svg>
