<svg width="100" height="100" viewBox="0 0 100 100" fill="none" xmlns="http://www.w3.org/2000/svg">
<g clip-path="url(#clip0_820_2530)">
<path fill-rule="evenodd" clip-rule="evenodd" d="M46.8251 31.6806C47.7915 31.1265 48.8861 30.835 50.0001 30.835C51.1141 30.835 52.2087 31.1265 53.1751 31.6806L96.7918 56.6806C97.7685 57.239 98.5804 58.0456 99.145 59.0188C99.7096 59.992 100.007 61.0971 100.007 62.2222C100.007 63.3474 99.7096 64.4525 99.145 65.4257C98.5804 66.3989 97.7685 67.2055 96.7918 67.7639L53.1751 92.7639C51.2084 93.8889 48.7918 93.8889 46.8251 92.7639L3.20845 67.7639C2.23275 67.2046 1.42201 66.3977 0.858184 65.4246C0.294358 64.4515 -0.00256348 63.3469 -0.00256348 62.2222C-0.00256348 61.0976 0.294358 59.9929 0.858184 59.0199C1.42201 58.0468 2.23275 57.2398 3.20845 56.6806L46.8251 31.6806ZM19.2251 62.2222L50.0001 79.8597L80.7751 62.2222L50.0001 44.5806L19.2251 62.2222Z" fill="url(#paint0_linear_820_2530)"/>
<path fill-rule="evenodd" clip-rule="evenodd" d="M46.8252 7.22108C47.7918 6.66739 48.8863 6.3761 50.0002 6.3761C51.1141 6.3761 52.2086 6.66739 53.1752 7.22108L96.7919 32.2211C97.7676 32.7798 98.5785 33.5863 99.1425 34.559C99.7065 35.5318 100.003 36.6363 100.003 37.7607C100.003 38.8851 99.7065 39.9895 99.1425 40.9623C98.5785 41.935 97.7676 42.7416 96.7919 43.3002L53.1752 68.3002C51.2085 69.4252 48.7919 69.4252 46.8252 68.3002L3.20854 43.3002C2.23276 42.7416 1.42186 41.935 0.857907 40.9623C0.293952 39.9895 -0.00305176 38.8851 -0.00305176 37.7607C-0.00305176 36.6363 0.293952 35.5318 0.857907 34.559C1.42186 33.5863 2.23276 32.7798 3.20854 32.2211L46.8252 7.22108ZM19.2252 37.7627L50.0002 55.4002L80.7752 37.7627L50.0002 20.1211L19.2252 37.7627Z" fill="url(#paint1_linear_820_2530)"/>
<path fill-rule="evenodd" clip-rule="evenodd" d="M53.2669 42.7691L9.54605 67.6607L3.22522 56.5607L46.9502 31.6691L53.2669 42.7691Z" fill="url(#paint2_linear_820_2530)"/>
</g>
<defs>
<linearGradient id="paint0_linear_820_2530" x1="0.758447" y1="62.1139" x2="80.7376" y2="62.1139" gradientUnits="userSpaceOnUse">
<stop stop-color="#F9D100"/>
<stop offset="1" stop-color="#F97700"/>
</linearGradient>
<linearGradient id="paint1_linear_820_2530" x1="98.9169" y1="37.6544" x2="18.8294" y2="37.6544" gradientUnits="userSpaceOnUse">
<stop stop-color="#F9D100"/>
<stop offset="1" stop-color="#F97700"/>
</linearGradient>
<linearGradient id="paint2_linear_820_2530" x1="0.758553" y1="62.1107" x2="80.6252" y2="61.6357" gradientUnits="userSpaceOnUse">
<stop stop-color="#F9D100"/>
<stop offset="1" stop-color="#F97700"/>
</linearGradient>
<clipPath id="clip0_820_2530">
<rect width="100" height="100" fill="white"/>
</clipPath>
</defs>
</svg>
