<svg width="100" height="100" viewBox="0 0 100 100" fill="none" xmlns="http://www.w3.org/2000/svg">
<g id="headlessui">
<g id="headlessui_2">
<path id="Vector" d="M19.799 62.1441L80.8088 41.7721C79.5898 34.1458 78.7209 29.0513 77.7145 25.1632C76.63 20.9812 75.7705 19.8623 75.4329 19.4748C74.2566 18.1283 72.7919 17.0643 71.1478 16.3618C70.6728 16.1586 69.3413 15.6867 65.0344 15.9461C60.4774 16.2211 54.4952 17.1525 45.0218 18.6528C35.5515 20.153 29.5725 21.1188 25.1561 22.2627C20.9773 23.3473 19.8553 24.2099 19.4677 24.5474C18.1238 25.7258 17.0611 27.1885 16.3579 28.8325C16.1547 29.3076 15.6827 30.639 15.9422 34.9491C16.2172 39.5061 17.1486 45.4914 18.6488 54.9648C19.0677 57.6215 19.4458 59.9968 19.799 62.1441Z" fill="url(#paint0_linear_790_918)"/>
<path id="Vector_2" fill-rule="evenodd" clip-rule="evenodd" d="M2.97765 57.4464C0.0771862 39.1185 -1.37617 29.9545 1.76808 22.5971C3.40715 18.7599 5.88986 15.3413 9.03174 12.5955C15.0546 7.33529 24.2154 5.88506 42.5371 2.98147C60.865 0.0747539 70.029 -1.37548 77.3864 1.76877C81.2215 3.40837 84.6379 5.89108 87.3817 9.03243C92.6451 15.0584 94.0953 24.2224 96.9958 42.5534C99.8994 60.8813 101.35 70.0484 98.2053 77.4027C96.5674 81.2397 94.0857 84.6583 90.9448 87.4043C84.922 92.6676 75.758 94.1179 57.4332 97.0215C39.1115 99.925 29.9476 101.375 22.5933 98.231C18.7582 96.5913 15.3418 94.1086 12.5979 90.9674C7.33459 84.9414 5.88124 75.7774 2.97765 57.4464ZM35.2984 89.9953C40.2055 89.6984 46.5252 88.7076 55.8798 87.2262C65.2376 85.7447 71.548 84.732 76.3112 83.4974C80.9213 82.3004 83.0467 81.1346 84.4188 79.9344C86.4374 78.1691 88.0324 75.9716 89.0851 73.5052C89.804 71.8299 90.2572 69.4483 89.9696 64.6913C89.6727 59.7843 88.6819 53.4614 87.2004 44.1036C85.719 34.7459 84.7094 28.4293 83.4749 23.6691C82.2778 19.0559 81.1089 16.9306 79.9118 15.5585C78.1478 13.539 75.9514 11.943 73.4858 10.889C71.8105 10.1701 69.4289 9.71692 64.6719 10.0045C59.7648 10.3014 53.4482 11.2922 44.0936 12.7737C34.7358 14.2583 28.4223 15.2678 23.6622 16.5024C19.049 17.6994 16.9267 18.8684 15.5547 20.0654C13.5349 21.8305 11.9389 24.028 10.8852 26.4946C10.1694 28.1699 9.71622 30.5515 10.0038 35.3085C10.3007 40.2187 11.2883 46.5384 12.773 55.8962C14.2544 65.2539 15.264 71.5705 16.4986 76.3307C17.6956 80.9439 18.8614 83.0692 20.0616 84.4413C21.8257 86.4607 24.0221 88.0567 26.4876 89.1108C28.1629 89.8297 30.5383 90.2829 35.2984 89.9953Z" fill="url(#paint1_linear_790_918)"/>
</g>
</g>
<defs>
<linearGradient id="paint0_linear_790_918" x1="39.1615" y1="-0.000219659" x2="55.0359" y2="99.1812" gradientUnits="userSpaceOnUse">
<stop stop-color="#66E3FF"/>
<stop offset="1" stop-color="#7064F9"/>
</linearGradient>
<linearGradient id="paint1_linear_790_918" x1="39.1615" y1="-0.000258457" x2="55.036" y2="99.1812" gradientUnits="userSpaceOnUse">
<stop stop-color="#66E3FF"/>
<stop offset="1" stop-color="#7064F9"/>
</linearGradient>
</defs>
</svg>
