<svg width="100" height="100" viewBox="0 0 100 100" fill="none" xmlns="http://www.w3.org/2000/svg">
<g clip-path="url(#clip0_820_2547)">
<path d="M49.3873 63.5708C48.0623 63.8583 46.6873 63.9916 45.2623 63.9916H33.054C27.0747 63.9916 21.2087 62.3609 16.0873 59.275C15.2066 58.7501 14.3502 58.1856 13.5206 57.5833C8.92693 54.179 5.2819 49.6546 2.93313 44.4416C2.51646 43.4833 2.14146 42.525 1.79146 41.525C0.667445 38.1355 0.0948817 34.5876 0.0956276 31.0166V4.16663H13.6248V31.0166C13.6248 31.6541 13.6415 32.2583 13.729 32.8625C13.7956 33.7541 13.929 34.5916 14.1456 35.4291C14.757 38.0254 15.8945 40.4687 17.4876 42.608C19.0808 44.7473 21.0958 46.537 23.4081 47.8666C26.322 49.5336 29.6178 50.4179 32.9748 50.4333H33.0748C36.8804 50.4567 40.566 51.768 43.5311 54.1536C46.4963 56.5391 48.5663 59.8585 49.404 63.5708H49.3873Z" fill="url(#paint0_linear_820_2547)"/>
<path d="M13.525 60.656V94.1519H0V43.1519C0.4375 44.7769 1.14167 46.6269 1.50833 47.3477C4.29964 52.75 8.43885 57.3399 13.525 60.6727V60.656Z" fill="#1E8CFE"/>
<path d="M65.9332 67.2967V94.1509H52.4082V67.2925C52.4176 66.6702 52.3842 66.0479 52.3082 65.43C52.006 62.3412 50.9713 59.369 49.2901 56.7602C47.6089 54.1515 45.3296 51.9813 42.6415 50.43C39.7199 48.7671 36.4198 47.8833 33.0582 47.8634H32.9582C29.1574 47.8385 25.4764 46.5303 22.5124 44.1509C19.5484 41.7716 17.4752 38.4606 16.629 34.755C17.954 34.4717 19.3332 34.3384 20.7582 34.3384H32.9582C38.9371 34.3372 44.8031 35.9664 49.9249 39.0509C50.8124 39.5717 51.6707 40.1425 52.4915 40.7467C57.0888 44.1431 60.7302 48.67 63.0624 53.8884C64.9561 58.1047 65.9345 62.6746 65.9332 67.2967Z" fill="url(#paint1_linear_820_2547)"/>
<path d="M82.9336 16.1159C82.9336 13.8159 83.7711 11.8367 85.4336 10.1742C87.0961 8.49503 89.1086 7.67419 91.4419 7.67419C93.7752 7.67419 95.8377 8.51169 97.5002 10.1742C99.1794 11.7992 100 13.8159 100 16.1825C100 18.5492 99.1627 20.5784 97.5002 22.2409C95.8752 23.9159 93.8752 24.7409 91.4919 24.7409C90.3648 24.7604 89.2457 24.5486 88.2037 24.1186C87.1617 23.6886 86.2189 23.0495 85.4336 22.2409C83.7544 20.5617 82.9336 18.5325 82.9336 16.1159ZM98.4752 37.395V94.145H84.4752V37.3825H98.4752V37.395Z" fill="#0418FF"/>
<path d="M52.4083 37.6625V4.16663H65.9333V55.1666C65.5487 53.7283 65.0442 52.3248 64.425 50.9708C61.6337 45.5685 57.4945 40.9786 52.4083 37.6458V37.6625Z" fill="#1E8CFE"/>
</g>
<defs>
<linearGradient id="paint0_linear_820_2547" x1="0.0997942" y1="34.0708" x2="49.3873" y2="34.0708" gradientUnits="userSpaceOnUse">
<stop stop-color="#0418FF"/>
<stop offset="1" stop-color="#1E8CFE"/>
</linearGradient>
<linearGradient id="paint1_linear_820_2547" x1="65.9332" y1="64.2425" x2="16.629" y2="64.2425" gradientUnits="userSpaceOnUse">
<stop stop-color="#0418FF"/>
<stop offset="1" stop-color="#1E8CFE"/>
</linearGradient>
<clipPath id="clip0_820_2547">
<rect width="100" height="100" fill="white"/>
</clipPath>
</defs>
</svg>
