<svg width="100" height="100" viewBox="0 0 100 100" fill="none" xmlns="http://www.w3.org/2000/svg">
<g id="homebrew">
<g id="homebrew_2" clip-path="url(#clip0_790_937)">
<path id="Vector" fill-rule="evenodd" clip-rule="evenodd" d="M44.5055 18.5711C44.7786 9.90431 41.859 4.79471 33.466 1.41943C31.0804 9.76408 40.9291 17.4582 44.5055 18.5711Z" fill="#D1D3D4" stroke="black" stroke-width="1.76753" stroke-linejoin="round"/>
<path id="Vector_2" fill-rule="evenodd" clip-rule="evenodd" d="M67.2668 33.259C67.5399 26.1424 65.7425 23.27 64.3934 21.2162C63.0247 19.3003 59.7406 16.2892 55.7055 16.163C51.8897 16.0435 50.972 18.1527 47.4517 18.28C46.8746 11.8697 51.7126 8.35196 51.7126 8.35196C51.7126 8.35196 50.3897 6.48222 49.2952 6.02539C47.721 7.42428 43.3882 12.0903 44.3908 18.0948C41.1517 17.4756 38.8653 15.6217 35.4627 16.2911C30.8273 17.2033 27.0063 20.0058 24.8284 26.1556C22.6509 32.3058 25.5971 39.4807 26.2377 41.5298C26.8786 43.5807 31.6192 52.2914 35.3347 53.5734C39.0495 54.8557 39.0506 54.2778 41.0365 53.5095C43.0229 52.7409 46.0329 51.3317 50.4543 52.9335C54.8731 54.5346 55.4495 54.9184 58.2033 53.125C60.9594 51.332 64.5458 45.759 65.3779 44.1571C66.2107 42.556 66.6594 41.7228 66.9166 40.8903C69.5941 39.5542 67.021 39.6368 67.2668 33.259Z" fill="#D1D3D4" stroke="black" stroke-width="1.76753" stroke-linejoin="round"/>
<path id="Vector_3" d="M74.459 85.27C75.3332 85.2731 76.1994 85.1037 77.0079 84.7713C77.8165 84.4389 78.5514 83.9502 79.1707 83.3332C79.79 82.7162 80.2813 81.9831 80.6167 81.1757C80.952 80.3684 81.1246 79.5029 81.1247 78.6287C81.1255 71.8859 81.1255 61.4663 81.1255 54.7051C81.1255 52.9435 80.4257 51.2541 79.18 50.0084C77.9344 48.7628 76.245 48.063 74.4834 48.063H69.0081C68.6166 48.063 68.2412 47.9075 67.9644 47.6307C67.6876 47.3539 67.5321 46.9785 67.5321 46.587V43.1073H24.3476L24.4565 94.1084C24.457 94.356 24.5198 94.5995 24.6391 94.8165C24.7584 95.0335 24.9303 95.217 25.1391 95.3501C27.0624 96.4638 33.228 98.5789 46.1738 98.5789C59.3933 98.5789 65.3026 95.7472 66.9945 94.4686C67.1605 94.3308 67.2941 94.1581 67.3858 93.9628C67.4775 93.7675 67.5251 93.5544 67.5251 93.3387C67.5321 91.9272 67.5321 88.6567 67.5321 86.7246C67.5321 86.5282 67.5712 86.3338 67.6473 86.1527C67.7234 85.9716 67.8349 85.8075 67.9752 85.6701C68.1155 85.5327 68.2819 85.4246 68.4645 85.3523C68.6471 85.28 68.8424 85.2449 69.0387 85.249C70.6627 85.2719 72.6085 85.2752 74.459 85.27ZM67.5321 55.8213C67.5321 55.332 67.7266 54.8627 68.0723 54.5165C68.4185 54.1707 68.8878 53.9764 69.3771 53.9763H74.0775C74.5668 53.9763 75.0362 54.1708 75.3823 54.5165C75.7281 54.8627 75.9224 55.332 75.9225 55.8213V77.2918C75.9224 77.7811 75.7281 78.2504 75.3823 78.5966C75.0361 78.9424 74.5668 79.1367 74.0775 79.1368H69.3771C68.8878 79.1367 68.4185 78.9424 68.0723 78.5966C67.7265 78.2504 67.5322 77.7811 67.5321 77.2918V55.8213Z" fill="white" stroke="black" stroke-width="1.76753" stroke-linejoin="round"/>
<path id="Vector_4" fill-rule="evenodd" clip-rule="evenodd" d="M28.6048 42.6792V88.4305C28.6048 88.9585 28.8867 89.4464 29.3439 89.7098C31.2114 90.5999 36.6292 92.7242 46.1277 92.7242C55.6893 92.7242 60.9461 90.143 62.7063 89.0792C62.9131 88.9459 63.0832 88.7629 63.2009 88.5468C63.3187 88.3308 63.3804 88.0887 63.3804 87.8427C63.3845 81.7759 63.3845 42.6792 63.3845 42.6792H28.6048Z" fill="#FBB040"/>
<path id="Vector_5" d="M33.717 50.4285V85.7848" stroke="#FFDB96" stroke-width="4.06719" stroke-linecap="round"/>
<path id="Vector_6" fill-rule="evenodd" clip-rule="evenodd" d="M53.3672 52.0678C53.3672 51.3298 52.9328 50.4486 52.2196 50.0062C51.0501 49.2971 50.1491 48.2198 49.6579 46.9434C40.2148 47.2611 31.5956 45.6028 27.2535 44.432C26.1387 44.116 25.0093 43.8538 23.8694 43.646C21.2705 43.1305 19.2952 40.8482 19.2952 38.1043C19.2952 35.084 21.6915 32.6298 24.6856 32.5224C25.2631 29.3279 28.0513 26.9028 31.4122 26.9028C35.1915 26.9028 38.255 29.967 38.255 33.746C38.255 34.5412 38.1114 35.3025 37.8624 36.0132L37.8827 36.0165C38.7266 33.377 41.1974 31.4645 44.1173 31.4645C47.0184 31.4645 49.476 33.3545 50.3343 35.9693C50.3094 35.7306 50.2969 35.4908 50.297 35.2508C50.297 31.3202 53.483 28.1342 57.4129 28.1342C60.5945 28.1342 63.2871 30.2224 64.1982 33.1017L64.8184 32.9401C65.655 32.4669 66.5998 32.2183 67.5609 32.2187C70.6491 32.2187 73.1528 34.7224 73.1517 37.8098C73.1517 40.6386 71.0517 42.9763 68.3255 43.3493C67.7081 43.4368 67.1026 43.594 66.5207 43.818C64.9004 44.4287 63.2435 44.9349 61.5697 45.3526C61.4886 46.158 61.2492 46.9393 60.8653 47.6519C60.1863 48.9259 59.8819 50.366 59.9871 51.8058C59.9863 51.8929 59.9897 52.349 59.9897 52.4368C59.9897 54.2656 58.5077 55.3785 56.6775 55.3785C56.2427 55.3785 55.8122 55.2928 55.4106 55.1265C55.0089 54.9601 54.644 54.7162 54.3366 54.4088C54.0292 54.1013 53.7854 53.7364 53.619 53.3347C53.4527 52.933 53.3671 52.5025 53.3672 52.0678Z" fill="white" stroke="black" stroke-width="1.76753" stroke-linecap="round" stroke-linejoin="round"/>
</g>
</g>
<defs>
<clipPath id="clip0_790_937">
<rect width="66.4207" height="100" fill="white" transform="translate(17 -0.000854492)"/>
</clipPath>
</defs>
</svg>
