<svg width="100" height="100" viewBox="0 0 100 100" fill="none" xmlns="http://www.w3.org/2000/svg">
<g id="hyper">
<g id="hyper_2" clip-path="url(#clip0_790_955)">
<path id="Vector" d="M98.7619 67.0304V70.4907L98.7143 73.4272C98.685 75.5498 98.494 77.667 98.1429 79.7606C97.625 82.9359 96.3587 85.9424 94.4487 88.5314C92.5387 91.1204 90.0398 93.2175 87.1587 94.6495C85.2419 95.6121 83.1933 96.286 81.0794 96.6495C78.9524 97.0145 76.7937 97.1415 74.6667 97.205C70.5397 97.2526 69.381 97.2526 68.2064 97.2526H30.5556C26.0794 97.2526 25.0952 97.2368 24.1111 97.205C21.9683 97.1415 19.8095 97.0145 17.6984 96.6495C15.5736 96.2891 13.5141 95.615 11.5873 94.6495C8.7203 93.1986 6.23497 91.0935 4.3323 88.5042C2.42963 85.9149 1.16302 82.9142 0.634921 79.7447C0.283077 77.6459 0.0920456 75.5233 0.0634921 73.3955C0.0419852 72.4274 0.0314025 71.4591 0.031746 70.4907L0 67.0304V32.205V28.7447L0.047619 25.8241C0.111111 23.7129 0.238095 21.586 0.619048 19.4748C1.13638 16.3034 2.40086 13.3006 4.30804 10.7145C6.21521 8.12836 8.71034 6.03311 11.5873 4.60183C13.51 3.64321 15.564 2.97459 17.6825 2.6177C19.7937 2.25263 21.9524 2.12564 24.0952 2.06215C28.2222 1.99866 29.3968 1.99866 30.5556 1.99866H67.254H53.0476H68.2064C72.6984 1.99866 73.6825 2.01453 74.6667 2.04628C76.7937 2.10977 78.9524 2.23675 81.0794 2.60183C83.2222 2.98278 85.2222 3.6177 87.1746 4.60183C90.0434 6.04815 92.5313 8.14973 94.4368 10.7364C96.3424 13.3231 97.612 16.3221 98.1429 19.4907C98.5238 21.586 98.6508 23.7129 98.7143 25.8399C98.746 26.7923 98.746 27.7764 98.7619 28.7447V67.0304Z" fill="black"/>
<g id="Mask group">
<mask id="mask0_790_955" style="mask-type:luminance" maskUnits="userSpaceOnUse" x="0" y="1" width="99" height="97">
<g id="Group">
<path id="Vector_2" d="M98.7619 67.0304V70.4907L98.7143 73.4272C98.685 75.5498 98.494 77.667 98.1429 79.7606C97.625 82.9359 96.3587 85.9424 94.4487 88.5314C92.5387 91.1204 90.0398 93.2175 87.1587 94.6495C85.2419 95.6121 83.1933 96.286 81.0794 96.6495C78.9524 97.0145 76.7937 97.1415 74.6667 97.205C70.5397 97.2526 69.381 97.2526 68.2064 97.2526H30.5556C26.0794 97.2526 25.0952 97.2368 24.1111 97.205C21.9683 97.1415 19.8095 97.0145 17.6984 96.6495C15.5736 96.2891 13.5141 95.615 11.5873 94.6495C8.7203 93.1986 6.23497 91.0935 4.3323 88.5042C2.42963 85.9149 1.16302 82.9142 0.634921 79.7447C0.283077 77.6459 0.0920456 75.5233 0.0634921 73.3955C0.0419852 72.4274 0.0314025 71.4591 0.031746 70.4907L0 67.0304V32.205V28.7447L0.047619 25.8241C0.111111 23.7129 0.238095 21.586 0.619048 19.4748C1.13638 16.3034 2.40086 13.3006 4.30804 10.7145C6.21521 8.12836 8.71034 6.03311 11.5873 4.60183C13.51 3.64321 15.564 2.97459 17.6825 2.6177C19.7937 2.25263 21.9524 2.12564 24.0952 2.06215C28.2222 1.99866 29.3968 1.99866 30.5556 1.99866H67.254H53.0476H68.2064C72.6984 1.99866 73.6825 2.01453 74.6667 2.04628C76.7937 2.10977 78.9524 2.23675 81.0794 2.60183C83.2222 2.98278 85.2222 3.6177 87.1746 4.60183C90.0434 6.04815 92.5313 8.14973 94.4368 10.7364C96.3424 13.3231 97.612 16.3221 98.1429 19.4907C98.5238 21.586 98.6508 23.7129 98.7143 25.8399C98.746 26.7923 98.746 27.7764 98.7619 28.7447V67.0304Z" fill="white"/>
</g>
</mask>
<g mask="url(#mask0_790_955)">
<path id="Vector_3" d="M96.1429 85.7923L91.2064 83.2526L96.127 85.7923H96.1429ZM92.3651 90.9193L96.2699 94.8876L92.381 90.8876L92.3651 90.9193ZM81.0794 96.6495L80.1111 91.1733L81.0635 96.6495H81.0794ZM74.6667 97.205L74.7302 102.761H74.8095L74.6508 97.205H74.6667ZM30.5556 97.2368L30.5397 102.792H30.5556V97.2368ZM6.39684 90.9034L2.49208 94.8717L6.39684 90.8876V90.9034ZM0.0635056 73.3955L5.61906 73.2526L0.0635056 73.4114V73.3955ZM0.0317597 28.7447L5.58732 28.7923V28.7765L1.38283e-05 28.7447H0.0317597ZM0.634934 19.4749L-4.84126 18.4907L0.634934 19.4907V19.4749ZM6.41271 8.332L10.3175 12.2844L6.41271 8.31613V8.332ZM24.1111 2.04629L24.0476 -3.50927H23.9524L24.1111 2.04629ZM67.254 1.99867V7.55423V-3.55688V1.99867ZM53.0476 1.99867V-3.55688V7.55423V1.99867ZM68.2064 1.99867L68.2222 -3.55688V1.99867H68.2064ZM81.0794 2.60185L80.1111 8.07804L81.0635 2.60185H81.0794ZM92.3651 8.332L88.4603 12.2685L92.381 8.34788L92.3651 8.332ZM96.1429 13.459L91.2064 15.9987L96.127 13.459H96.1429ZM98.7143 25.8399L93.1587 25.9828L98.7143 25.8241V25.8399ZM93.2064 67.0304V70.459L104.317 70.5225V67.0304H93.2064ZM93.2064 70.459C93.2064 71.4114 93.1905 72.332 93.1587 73.2526L104.27 73.5701L104.317 70.5225L93.2064 70.459ZM93.1587 73.2526C93.1111 75.2685 93 77.078 92.6826 78.7447L103.619 80.7447C104.079 78.2368 104.206 75.7606 104.254 73.5542L93.1587 73.2526ZM92.6826 78.7606C92.4197 80.3187 91.922 81.828 91.2064 83.2368L101.079 88.3161C102.349 85.8399 103.143 83.332 103.619 80.7447L92.6826 78.7606ZM91.2064 83.2368C90.4937 84.6173 89.5669 85.8763 88.4603 86.9669L96.2699 94.8558C98.2064 92.951 99.8413 90.7288 101.079 88.3161L91.2064 83.2368ZM88.4603 86.9669C87.3492 88.0622 86.0794 88.9828 84.6825 89.6653L89.6667 99.6019C92.1025 98.3751 94.3307 96.7736 96.2699 94.8558L88.4603 86.9669ZM84.6667 89.6653C83.2699 90.3955 81.7937 90.8558 80.1111 91.1574L82.0476 102.11C84.6969 101.653 87.2643 100.808 89.6667 99.6019L84.6667 89.6812V89.6653ZM80.1111 91.1574C78.3968 91.4749 76.5556 91.586 74.5079 91.6336L74.8095 102.745C77.0318 102.681 79.5238 102.554 82.0476 102.11L80.1111 91.1574ZM74.5873 91.6336C70.4921 91.6812 69.3492 91.6812 68.2064 91.6812V102.792C69.3968 102.792 70.5873 102.792 74.7143 102.745L74.5873 91.6336ZM68.2064 91.6812H43.9683V102.792H68.2222V91.6812H68.2064ZM43.9524 91.6812H30.5556V102.792H43.9524V91.6812ZM30.5714 91.6812C26.0635 91.6812 25.1587 91.6653 24.254 91.6336L23.9524 102.745C25.0159 102.776 26.0794 102.776 30.5397 102.792L30.5714 91.6812ZM24.254 91.6336C22.2064 91.586 20.3651 91.4749 18.6667 91.1574L16.7143 102.11C19.254 102.554 21.7302 102.681 23.9524 102.745L24.2699 91.6336H24.254ZM18.6667 91.1574C17.0781 90.8949 15.5374 90.3974 14.0953 89.6812L9.09525 99.6019C11.4985 100.803 14.0658 101.643 16.7143 102.094L18.6667 91.1574ZM14.0953 89.6812C12.6962 88.9809 11.416 88.065 10.3016 86.9669L2.49208 94.8558C4.42977 96.7796 6.65807 98.3866 9.09525 99.6177L14.0953 89.6812ZM10.3016 86.9669C9.19567 85.8758 8.26892 84.6169 7.55557 83.2368L-2.31745 88.3161C-1.06837 90.7355 0.554782 92.9426 2.49208 94.8558L10.3016 86.9669ZM7.57144 83.2368C6.85013 81.8233 6.34707 80.3088 6.07938 78.7447L-4.85713 80.7447C-4.38094 83.332 -3.58729 85.8399 -2.31745 88.3161L7.57144 83.2368ZM6.07938 78.7447C5.77779 77.078 5.66668 75.2844 5.60319 73.2526L-5.50792 73.5701C-5.44443 75.7606 -5.30157 78.2368 -4.85713 80.7447L6.09525 78.7447H6.07938ZM5.60319 73.2526L5.57144 70.459L-5.53967 70.5225C-5.53967 71.5225 -5.53967 72.5384 -5.50792 73.5542L5.60319 73.2368V73.2526ZM5.57144 70.4431L5.55557 67.0304H-5.55554V70.5225L5.55557 70.4431H5.57144ZM5.55557 67.0304V55.5542H-5.55554V67.0304H5.55557ZM5.55557 55.5542V43.6812H-5.55554V55.5542H5.55557ZM5.55557 43.6812V32.205H-5.55554V43.6812H5.55557ZM5.55557 32.205V28.7923L-5.55554 28.6971V32.205H5.55557ZM5.55557 28.7765C5.55557 27.8241 5.58731 26.9034 5.60319 25.9828L-5.50792 25.6653L-5.53967 28.713L5.57144 28.7765H5.55557ZM5.60319 25.9828C5.66668 23.9511 5.77779 22.1574 6.07938 20.4749L-4.85713 18.4907C-5.25192 20.8679 -5.46418 23.2717 -5.49205 25.6812L5.61906 25.9828H5.60319ZM6.07938 20.4907C6.34707 18.9266 6.85013 17.4121 7.57144 15.9987L-2.31745 10.9193C-3.58729 13.3955 -4.38094 15.9034 -4.85713 18.4907L6.09525 20.4907H6.07938ZM7.57144 15.9987C8.28048 14.6247 9.20186 13.3712 10.3016 12.2844L2.49208 4.36375C0.552618 6.28111 -1.0707 8.49374 -2.31745 10.9193L7.57144 15.9987ZM10.3016 12.2685C11.4127 11.1733 12.6826 10.2685 14.0953 9.5701L9.09525 -0.382282C6.65766 0.848211 4.42926 2.45523 2.49208 4.37962L10.3016 12.2685ZM14.0953 9.5701C15.5079 8.83994 16.9683 8.37962 18.6667 8.07804L16.7143 -2.87434C14.1111 -2.39815 11.5873 -1.62038 9.09525 -0.366409L14.0953 9.55423V9.5701ZM18.6667 8.07804C20.3651 7.76058 22.2064 7.64946 24.254 7.60184L23.9524 -3.50927C21.7302 -3.44577 19.2381 -3.31879 16.7143 -2.87434L18.6667 8.07804ZM24.1746 7.60184C28.2699 7.55423 29.4127 7.55423 30.5556 7.55423V-3.55688C29.3651 -3.55688 28.1746 -3.55688 24.0476 -3.50927L24.1746 7.60184ZM30.5556 7.55423H43.9524V-3.55688H30.5556V7.55423ZM43.9524 7.55423H67.254V-3.55688H43.9683V7.55423H43.9524ZM67.254 -3.55688H53.0476V7.55423H67.254V-3.55688ZM53.0476 7.55423H68.2064V-3.55688H53.0476V7.55423ZM68.1905 7.55423C72.6984 7.55423 73.6032 7.5701 74.5079 7.60184L74.8254 -3.50927C73.746 -3.54101 72.6826 -3.54101 68.2222 -3.55688L68.1905 7.55423ZM74.5079 7.60184C76.5714 7.64946 78.3968 7.76058 80.1111 8.07804L82.0476 -2.87434C79.6541 -3.26599 77.2347 -3.47822 74.8095 -3.50927L74.5079 7.60184ZM80.1111 8.07804C81.7937 8.37962 83.2699 8.83994 84.6667 9.55423L89.6667 -0.366409C87.2635 -1.56745 84.6961 -2.40719 82.0476 -2.85847L80.1111 8.07804ZM84.6825 9.55423C86.0761 10.2557 87.3509 11.1716 88.4603 12.2685L96.2699 4.37962C94.3323 2.45564 92.104 0.848664 89.6667 -0.382282L84.6825 9.55423ZM88.4603 12.2844C89.5714 13.3638 90.4921 14.6336 91.2064 15.9987L101.079 10.9193C99.8333 8.49332 98.2099 6.28058 96.2699 4.36375L88.4603 12.2844ZM91.2064 15.9987C91.9206 17.3796 92.381 18.8241 92.6826 20.4749L103.619 18.4907C103.143 15.9034 102.349 13.3955 101.079 10.9193L91.2064 15.9987ZM92.6826 20.4749C93 22.1574 93.1111 23.9669 93.1587 25.9828L104.27 25.6653C104.206 23.4749 104.079 20.9987 103.619 18.4907L92.6826 20.4749ZM93.1587 25.9828C93.1905 26.9034 93.1905 27.8241 93.2064 28.7765L104.317 28.713L104.27 25.6812L93.1587 25.9987V25.9828ZM93.2064 28.7765V32.205H104.317V28.713L93.2064 28.7765ZM93.2064 32.205V43.6812H104.317V32.205H93.2064ZM93.2064 43.6812V55.5542H104.317V43.6812H93.2064ZM93.2064 55.5542V67.0304H104.317V55.5542H93.2064Z" fill="url(#paint0_linear_790_955)"/>
</g>
</g>
<path id="Vector_4" fill-rule="evenodd" clip-rule="evenodd" d="M38.8572 42.9994C38.8572 42.5708 39.2064 42.2057 39.6509 42.2057H54.254C54.6985 42.2057 55.0477 42.5708 55.0477 42.9994V44.5867C55.0477 44.7972 54.9641 44.9991 54.8152 45.1479C54.6664 45.2967 54.4645 45.3803 54.254 45.3803H39.6509C39.4404 45.3803 39.2385 45.2967 39.0897 45.1479C38.9408 44.9991 38.8572 44.7972 38.8572 44.5867V42.9994ZM33.4128 34.047C33.4698 33.9947 33.5132 33.9293 33.5392 33.8564C33.5652 33.7835 33.5731 33.7054 33.5622 33.6288C33.5512 33.5522 33.5218 33.4795 33.4764 33.4168C33.431 33.3542 33.371 33.3035 33.3017 33.2692L27.635 30.2534C27.5293 30.1988 27.4479 30.1066 27.4067 29.9949C27.3656 29.8833 27.3678 29.7603 27.4128 29.6502L31.3175 19.9359C31.4921 19.4756 30.9207 19.0788 30.5556 19.4121L18.254 30.5232C18.1975 30.5712 18.1529 30.6316 18.1239 30.6999C18.0948 30.7681 18.0821 30.8421 18.0867 30.9161C18.0914 30.9901 18.1132 31.062 18.1505 31.126C18.1878 31.1901 18.2396 31.2446 18.3016 31.2851L23.762 34.9835C23.8519 35.0445 23.9183 35.1345 23.95 35.2384C23.9818 35.3424 23.9771 35.4541 23.9366 35.555L20.381 44.6184C20.1905 45.0946 20.762 45.4756 21.1429 45.1423L33.4128 34.0311V34.047Z" fill="white"/>
</g>
</g>
<defs>
<linearGradient id="paint0_linear_790_955" x1="51.1429" y1="1.99867" x2="51.1429" y2="102.522" gradientUnits="userSpaceOnUse">
<stop stop-color="#F743B6"/>
<stop offset="1" stop-color="#FCC043"/>
</linearGradient>
<clipPath id="clip0_790_955">
<rect width="100" height="95.2381" fill="white" transform="translate(0 1.99866)"/>
</clipPath>
</defs>
</svg>
