<svg width="100" height="100" viewBox="0 0 100 100" fill="none" xmlns="http://www.w3.org/2000/svg">
<g id="id">
<g id="id_2">
<path id="Vector" d="M17.7083 1H82.2917C92.0833 1 100 8.91667 100 18.7083V80.7917C100 90.5833 92.0833 98.5 82.2917 98.5H17.7083C7.91667 98.5 0 90.5833 0 80.7917V18.7083C0 8.91667 7.91667 1 17.7083 1Z" fill="#49021F"/>
<path id="Vector_2" d="M36.3334 26.5V69.4167C36.3334 69.875 36.1251 70.0834 35.7501 70.0834H27.5834C27.2084 70.0834 27.0417 69.875 27.0417 69.4167V26.5C27.0417 26.125 27.2501 25.9584 27.6251 25.9584H35.7501C36.0001 25.9167 36.2501 26.0834 36.2917 26.375C36.3334 26.4167 36.3334 26.4584 36.3334 26.5Z" fill="#FF3366"/>
<path id="Vector_3" d="M60.4168 70.5833C57.3334 70.625 54.2501 70 51.4584 68.7083C48.8334 67.5 46.6668 65.5 45.1668 63.0417C43.6251 60.5 42.8751 57.3333 42.8751 53.5417C42.8334 50.4583 43.6251 47.4167 45.1668 44.75C46.7501 42.0417 49.0418 39.7917 51.7918 38.2917C54.7084 36.6667 58.2084 35.875 62.3334 35.875C62.5418 35.875 62.8334 35.875 63.2084 35.9167C63.5834 35.9583 64.0001 35.9583 64.5001 36V22.8333C64.5001 22.5417 64.6251 22.375 64.9168 22.375H73.3751C73.5834 22.3333 73.7501 22.5 73.7918 22.6667V22.75V62.4167C73.7918 63.1667 73.8334 64 73.8751 64.9167C73.9584 65.7917 74.0001 66.625 74.0418 67.3333C74.0418 67.625 73.9168 67.875 73.6251 68C71.4584 68.9167 69.1668 69.5833 66.8334 70C64.7501 70.375 62.5834 70.5833 60.4168 70.5833ZM64.5001 62.25V43.9167C64.1251 43.8333 63.7501 43.75 63.3751 43.7083C62.9168 43.6667 62.4584 43.625 62.0001 43.625C60.3751 43.625 58.7501 43.9583 57.2918 44.7083C55.8751 45.4167 54.6668 46.4583 53.7501 47.7917C52.8334 49.125 52.3751 50.9167 52.3751 53.0833C52.3334 54.5417 52.5834 56 53.0834 57.375C53.5001 58.5 54.1251 59.5 54.9584 60.3333C55.7501 61.0833 56.7084 61.6667 57.7918 62C58.9168 62.375 60.0834 62.5417 61.2501 62.5417C61.8751 62.5417 62.4584 62.5 63.0001 62.4583C63.5418 62.5 64.0418 62.4167 64.5001 62.25Z" fill="#FF3366"/>
</g>
</g>
</svg>
