<svg width="100" height="100" viewBox="0 0 100 100" fill="none" xmlns="http://www.w3.org/2000/svg">
<g clip-path="url(#clip0_820_2570)">
<path d="M86.3042 27.7292C84.5792 21.7875 79.0208 17.4292 72.3167 17.4292C69.8469 17.4279 67.4145 18.0331 65.2333 19.1917C60.9167 12.6917 53.35 8.33337 44.7292 8.33337C32.375 8.33337 22.125 17.3334 20.5958 28.9334C8.90833 30.7917 0 40.5334 0 52.4167C0 65.5 10.9167 76.0834 24.425 76.0834C31.1333 76.0834 37.2583 73.3917 41.6667 69.1209C42.8167 68.0084 43.8708 66.8 44.7333 65.4125C43.8757 66.692 42.8794 67.8727 41.7625 68.9334C36.9468 75.4284 34.3598 83.3062 34.3875 91.3917V91.6667C45.145 84.6264 57.6444 80.7075 70.4958 80.3459H70.6875C83.3333 80.3459 94.1583 72.55 98.275 61.6C99.4348 58.4825 100.019 55.1804 100 51.8542C100 41.7417 94.5417 32.8334 86.3042 27.7292ZM29.025 53.6209C29.0185 54.0794 28.9215 54.5321 28.7396 54.9531C28.5577 55.374 28.2945 55.7549 27.9651 56.0739C27.6356 56.3929 27.2465 56.6437 26.8199 56.8119C26.3933 56.9801 25.9377 57.0625 25.4792 57.0542C25.0328 57.0515 24.5913 56.9603 24.1804 56.7858C23.7695 56.6113 23.3973 56.3571 23.0853 56.0378C22.7734 55.7184 22.5279 55.3404 22.363 54.9255C22.1982 54.5107 22.1173 54.0672 22.125 53.6209V44.525C22.1173 44.0787 22.1982 43.6353 22.363 43.2204C22.5279 42.8055 22.7734 42.4275 23.0853 42.1082C23.3973 41.7888 23.7695 41.5346 24.1804 41.3601C24.5913 41.1856 25.0328 41.0944 25.4792 41.0917C27.3958 41.0917 29.0208 42.6709 29.0208 44.525L29.025 53.6209ZM41.5708 58.075C41.5632 58.5456 41.463 59.0101 41.2759 59.442C41.0887 59.8738 40.8184 60.2646 40.4802 60.5919C40.142 60.9192 39.7427 61.1768 39.305 61.3497C38.8672 61.5227 38.3997 61.6078 37.9292 61.6C36.9795 61.6145 36.0629 61.2514 35.3808 60.5904C34.6988 59.9294 34.307 59.0247 34.2917 58.075V37.6584C34.307 36.7087 34.6988 35.804 35.3808 35.143C36.0629 34.482 36.9795 34.1189 37.9292 34.1334C38.3997 34.1257 38.8672 34.2107 39.305 34.3837C39.7427 34.5567 40.142 34.8142 40.4802 35.1415C40.8184 35.4689 41.0887 35.8596 41.2759 36.2915C41.463 36.7233 41.5632 37.1878 41.5708 37.6584V58.075ZM54.5042 53.7125C54.5042 55.5667 52.7792 57.1459 50.8625 57.1459C48.9458 57.1459 47.3208 55.5667 47.3208 53.7125V44.4334C47.3208 42.575 48.85 41 50.8625 41C52.7792 41 54.5 42.575 54.5 44.4334V53.7125H54.5042ZM67.625 58.1667C67.6174 58.6373 67.5172 59.1018 67.33 59.5336C67.1429 59.9655 66.8725 60.3562 66.5344 60.6836C66.1962 61.0109 65.7968 61.2684 65.3591 61.4414C64.9214 61.6144 64.4539 61.6994 63.9833 61.6917C63.0336 61.7062 62.1171 61.343 61.435 60.6821C60.7529 60.0211 60.3612 59.1164 60.3458 58.1667V37.75C60.3612 36.8004 60.7529 35.8957 61.435 35.2347C62.1171 34.5737 63.0336 34.2106 63.9833 34.225C64.4539 34.2173 64.9214 34.3024 65.3591 34.4754C65.7968 34.6483 66.1962 34.9058 66.5344 35.2332C66.8725 35.5605 67.1429 35.9513 67.33 36.3831C67.5172 36.815 67.6174 37.2795 67.625 37.75V58.1667ZM80.4583 53.6209C80.4518 54.079 80.355 54.5314 80.1733 54.9521C79.9917 55.3728 79.7289 55.7535 79.3999 56.0724C79.0709 56.3913 78.6822 56.6422 78.2561 56.8107C77.83 56.9792 77.3748 57.0619 76.9167 57.0542C76.4703 57.0515 76.0288 56.9603 75.6179 56.7858C75.207 56.6113 74.8348 56.3571 74.5228 56.0378C74.2109 55.7184 73.9654 55.3404 73.8005 54.9255C73.6357 54.5107 73.5548 54.0672 73.5625 53.6209V44.525C73.5548 44.0787 73.6357 43.6353 73.8005 43.2204C73.9654 42.8055 74.2109 42.4275 74.5228 42.1082C74.8348 41.7888 75.207 41.5346 75.6179 41.3601C76.0288 41.1856 76.4703 41.0944 76.9167 41.0917C78.8333 41.0917 80.4583 42.6709 80.4583 44.525V53.6209Z" fill="#2A80E2"/>
</g>
<defs>
<clipPath id="clip0_820_2570">
<rect width="100" height="100" fill="white"/>
</clipPath>
</defs>
</svg>
