<svg width="114" height="112" viewBox="0 0 114 112" fill="none" xmlns="http://www.w3.org/2000/svg">
<g id="inkspace">
<g id="inkspace_2">
<g id="g6035" opacity="0.783251">
<g id="path5987" filter="url(#filter0_f_790_985)">
<path d="M48.0874 9.21153L11.3791 46.8108C-2.52019 60.7101 20.378 59.5518 28.6641 64.8086C32.4953 67.3033 16.3686 70.5108 19.6652 73.8075C22.8727 77.1041 38.9994 80.1334 42.2069 83.341C45.4145 86.6376 35.7028 90.1124 38.9103 93.409C42.0287 96.7056 49.513 93.5872 50.8494 101.071C51.8295 106.595 64.5705 103.833 70.2728 99.1113C73.8367 96.0819 64.125 96.0819 67.3325 92.7853C75.3513 84.6774 82.4792 89.1323 85.4194 81.6481C87.0232 77.6387 73.3021 74.7876 76.9551 72.2037C85.6867 66.056 117.762 62.9375 102.972 48.1473L64.9269 9.21153C60.2047 4.75664 52.4532 4.75664 48.0874 9.21153ZM90.2307 81.6481C90.2307 83.5191 104.754 84.5883 103.952 81.2026C102.793 75.5003 91.8344 75.9458 90.2307 81.6481ZM28.3077 91.538C31.6043 94.3891 36.5938 90.9143 38.1975 86.9049C34.99 82.7173 23.14 87.1722 28.3077 91.538ZM88.4487 85.5684C84.3502 89.3105 89.1615 93.2308 93.1709 90.647C94.2401 89.9342 93.0818 86.4594 88.4487 85.5684Z" fill="black"/>
</g>
<g id="path6021" opacity="0.576355" filter="url(#filter1_f_790_985)">
<path d="M48.0874 10.0816L11.3791 47.6809C-2.52019 61.5802 20.378 60.4219 28.6641 65.6787C32.4953 68.1735 16.3686 71.381 19.6652 74.6776C22.8727 77.9742 38.9994 81.0036 42.2069 84.2111C45.4145 87.5077 35.7028 90.9825 38.9103 94.2791C42.0287 97.5758 49.513 94.4573 50.8494 101.942C51.8295 107.466 64.5705 104.704 70.2728 99.9814C73.8367 96.9521 64.125 96.9521 67.3325 93.6555C75.3513 85.5475 82.4792 90.0024 85.4194 82.5182C87.0232 78.5088 73.3021 75.6577 76.9551 73.0738C85.6867 66.9261 117.762 63.8077 102.972 49.0174L64.9269 10.0816C60.2047 5.62675 52.4532 5.62675 48.0874 10.0816ZM90.2307 82.5182C90.2307 84.3893 104.754 85.4584 103.952 82.0727C102.793 76.3705 91.8344 76.8159 90.2307 82.5182ZM28.3077 92.4081C31.6043 95.2592 36.5938 91.7844 38.1975 87.775C34.99 83.5874 23.14 88.0423 28.3077 92.4081ZM88.4487 86.4385C84.3502 90.1806 89.1615 94.1009 93.1709 91.5171C94.2401 90.8043 93.0818 87.3295 88.4487 86.4385Z" fill="black"/>
</g>
</g>
<path id="use7631" d="M48.0874 8.34031L11.3791 45.9396C-2.52019 59.8389 20.378 58.6806 28.6641 63.9374C32.4953 66.4321 16.3686 69.6396 19.6652 72.9363C22.8727 76.2329 38.9994 79.2622 42.2069 82.4697C45.4145 85.7663 35.7028 89.2412 38.9103 92.5378C42.0287 95.8344 49.513 92.716 50.8494 100.2C51.8295 105.724 64.5705 102.962 70.2728 98.2401C73.8367 95.2107 64.125 95.2107 67.3325 91.9141C75.3513 83.8062 82.4792 88.2611 85.4194 80.7769C87.0232 76.7675 73.3021 73.9163 76.9551 71.3325C85.6867 65.1847 117.762 62.0663 102.972 47.2761L64.9269 8.34031C60.2047 3.88542 52.4532 3.88542 48.0874 8.34031ZM90.2307 80.7769C90.2307 82.6479 104.754 83.7171 103.952 80.3314C102.793 74.6291 91.8344 75.0746 90.2307 80.7769ZM28.3077 90.6667C31.6043 93.5179 36.5938 90.043 38.1975 86.0336C34.99 81.846 23.14 86.3009 28.3077 90.6667ZM88.4487 84.6972C84.3502 88.4393 89.1615 92.3596 93.1709 89.7757C94.2401 89.063 93.0818 85.5882 88.4487 84.6972Z" fill="black"/>
<g id="Clip path group">
<mask id="mask0_790_985" style="mask-type:luminance" maskUnits="userSpaceOnUse" x="7" y="5" width="100" height="98">
<g id="clipPath9086-1">
<path id="use9088-0" d="M48.1708 8.77369L11.8096 46.0175C-1.95824 59.7853 20.7234 58.638 28.9311 63.845C32.7261 66.3162 16.7519 69.4934 20.0173 72.7588C23.1945 76.0243 39.1688 79.025 42.346 82.2021C45.5231 85.4676 35.9033 88.9096 39.0805 92.175C42.1694 95.4405 49.5829 92.3515 50.9067 99.765C51.8775 105.237 64.498 102.501 70.1464 97.8233C73.6766 94.8227 64.0568 94.8227 67.234 91.5572C75.1769 83.526 82.2374 87.9388 85.1498 80.5253C86.7384 76.5538 73.1471 73.7296 76.7655 71.1702C85.4146 65.0806 117.186 61.9917 102.536 47.3413L64.8511 8.77369C60.1735 4.36092 52.4953 4.36092 48.1708 8.77369ZM39.4335 65.8749C40.2278 65.8749 66.6162 69.4051 56.4668 72.141C52.5836 73.2001 34.756 65.8749 39.4335 65.8749ZM89.9156 80.5253C89.9156 82.3787 104.301 83.4377 103.507 80.084C102.36 74.4357 91.5042 74.877 89.9156 80.5253ZM28.5781 90.3216C31.8436 93.1458 36.7859 89.7038 38.3745 85.7324C35.1973 81.5844 23.4593 85.9971 28.5781 90.3216ZM88.1505 84.4085C84.0907 88.1153 88.8565 91.9985 92.828 89.4391C93.8871 88.733 92.7398 85.2911 88.1505 84.4085Z" fill="white"/>
</g>
</mask>
<g mask="url(#mask0_790_985)">
<path id="use7641" d="M48.1708 8.77369L11.8096 46.0175C-1.95824 59.7853 20.7234 58.638 28.9311 63.845C32.7261 66.3162 16.7519 69.4934 20.0173 72.7588C23.1945 76.0243 39.1688 79.025 42.346 82.2021C45.5231 85.4676 35.9033 88.9096 39.0805 92.175C42.1694 95.4405 49.5829 92.3515 50.9067 99.765C51.8775 105.237 64.498 102.501 70.1464 97.8233C73.6766 94.8227 64.0568 94.8227 67.234 91.5572C75.1769 83.526 82.2374 87.9388 85.1498 80.5253C86.7384 76.5538 73.1471 73.7296 76.7655 71.1702C85.4146 65.0806 117.186 61.9917 102.536 47.3413L64.8511 8.77369C60.1735 4.36092 52.4953 4.36092 48.1708 8.77369ZM39.4335 65.8749C40.2278 65.8749 66.6162 69.4051 56.4668 72.141C52.5836 73.2001 34.756 65.8749 39.4335 65.8749ZM89.9156 80.5253C89.9156 82.3787 104.301 83.4377 103.507 80.084C102.36 74.4357 91.5042 74.877 89.9156 80.5253ZM28.5781 90.3216C31.8436 93.1458 36.7859 89.7038 38.3745 85.7324C35.1973 81.5844 23.4593 85.9971 28.5781 90.3216ZM88.1505 84.4085C84.0907 88.1153 88.8565 91.9985 92.828 89.4391C93.8871 88.733 92.7398 85.2911 88.1505 84.4085Z" fill="url(#paint0_linear_790_985)"/>
</g>
</g>
<path id="path7643" opacity="0.505263" d="M14.6448 48.0243C4.6641 57.915 22.1977 55.1276 35.6852 60.4327L63.5592 11.4284C59.3331 7.11243 53.9381 7.47209 50.0717 11.4284L14.6448 48.0243Z" fill="url(#paint1_linear_790_985)"/>
<path id="icecap" d="M62.6994 11.0135L77.2224 25.8038C78.5588 27.1402 78.5588 29.9023 77.757 30.7041L70.54 24.8237L69.1145 33.4662L63.1449 30.2586L53.4333 36.4064L50.2257 23.4872L45.0581 34.7135L32.1389 34.6244C29.6441 34.6244 30.0005 32.0406 32.5844 29.4568C37.6629 23.8436 47.5528 14.3101 50.6712 11.0135C53.8787 7.71689 59.4919 7.80599 62.6994 11.0135Z" fill="url(#paint2_linear_790_985)"/>
<path id="path8566" opacity="0.216749" fill-rule="evenodd" clip-rule="evenodd" d="M42.7665 80.8832C42.7665 80.8832 44.3429 83.2902 44.1823 84.4225C43.8669 86.6445 39.0812 87.7534 40.1416 89.7314C41.1892 91.6856 44.9651 90.578 48.1345 92.6218C51.2903 94.6569 50.4418 98.8045 52.7355 99.8479C57.2089 101.883 68.9573 96.3381 68.3674 96.4561C67.7775 96.574 56.7726 98.8606 54.2951 96.855C51.4703 94.5683 50.6604 92.9711 48.5769 91.619C46.6244 90.352 43.8816 89.8351 43.2432 88.7977C42.6048 87.7603 44.5217 86.4218 44.6542 84.4225C44.7337 83.2217 42.7665 80.8832 42.7665 80.8832Z" fill="url(#paint3_radial_790_985)"/>
<g id="path8718" opacity="0.275862" filter="url(#filter2_f_790_985)">
<path fill-rule="evenodd" clip-rule="evenodd" d="M42.7665 80.8832C42.7665 80.8832 44.3429 83.2902 44.1823 84.4225C43.8669 86.6445 39.0812 87.7534 40.1416 89.7314C41.1892 91.6856 44.9651 90.578 48.1345 92.6218C51.2903 94.6569 50.4418 98.8045 52.7355 99.8479C57.2089 101.883 68.9573 96.3381 68.3674 96.4561C48.859 96.5303 52.4997 91.5036 44.9786 88.1977C43.8918 87.72 44.5217 86.4218 44.6542 84.4225C44.7337 83.2217 42.7665 80.8832 42.7665 80.8832Z" fill="url(#paint4_radial_790_985)"/>
</g>
<path id="path8736" opacity="0.453202" fill-rule="evenodd" clip-rule="evenodd" d="M75.9179 70.6195C93.4273 64.1759 99.0524 63.2906 104.822 57.5242C98.1396 63.1652 84.0118 66.1911 72.4966 71.2094L75.9179 70.6195Z" fill="url(#paint5_radial_790_985)"/>
<g id="path8746" opacity="0.512315" filter="url(#filter3_f_790_985)">
<path fill-rule="evenodd" clip-rule="evenodd" d="M75.9179 69.7931C104.753 59.5742 99.8782 59.6327 104.822 56.6978C95.6541 60.2072 78.5207 60.5814 72.4966 70.383L75.9179 69.7931Z" fill="url(#paint6_radial_790_985)"/>
</g>
<path id="path8864" opacity="0.285714" d="M101.106 77.963C101.106 78.2681 100.711 78.5607 100.009 78.7764C99.3062 78.9921 98.3534 79.1133 97.36 79.1133C96.3666 79.1133 95.4138 78.9921 94.7114 78.7764C94.0089 78.5607 93.6143 78.2681 93.6143 77.963C93.6143 77.6579 94.0089 77.3654 94.7114 77.1497C95.4138 76.9339 96.3666 76.8127 97.36 76.8127C98.3534 76.8127 99.3062 76.9339 100.009 77.1497C100.711 77.3654 101.106 77.6579 101.106 77.963Z" fill="url(#paint7_linear_790_985)"/>
<g id="path8874" opacity="0.620689" filter="url(#filter4_f_790_985)">
<path d="M102.404 79.2902C102.404 79.9473 101.872 80.5775 100.926 81.0421C99.9806 81.5067 98.6978 81.7678 97.3601 81.7678C96.0225 81.7678 94.7397 81.5067 93.7939 81.0421C92.848 80.5775 92.3167 79.9473 92.3167 79.2902C92.3167 78.6332 92.848 78.003 93.7939 77.5384C94.7397 77.0738 96.0225 76.8127 97.3601 76.8127C98.6978 76.8127 99.9806 77.0738 100.926 77.5384C101.872 78.003 102.404 78.6332 102.404 79.2902Z" fill="url(#paint8_linear_790_985)"/>
</g>
<g id="path8914" filter="url(#filter5_f_790_985)">
<path fill-rule="evenodd" clip-rule="evenodd" d="M90.488 80.6672C92.2669 82.3114 102.17 83.1552 103.79 80.1953C100.611 82.4529 93.5416 81.6595 90.488 80.6672Z" fill="url(#paint9_radial_790_985)"/>
</g>
<path id="path8984" opacity="0.285714" d="M90.5229 86.1555C90.6095 86.3259 90.6645 86.5102 90.685 86.6979C90.7054 86.8855 90.6908 87.0729 90.6419 87.2493C90.5931 87.4257 90.5109 87.5876 90.4003 87.7257C90.2896 87.8639 90.1525 87.9757 89.9968 88.0546C89.8412 88.1335 89.67 88.178 89.4932 88.1857C89.3163 88.1933 89.1372 88.1638 88.966 88.099C88.7949 88.0342 88.6351 87.9352 88.4957 87.8078C88.3564 87.6805 88.2403 87.5271 88.154 87.3565C88.0674 87.1862 88.0123 87.0019 87.9919 86.8142C87.9715 86.6265 87.9861 86.4391 88.035 86.2627C88.0838 86.0864 88.1659 85.9245 88.2766 85.7863C88.3873 85.6481 88.5244 85.5364 88.68 85.4574C88.8357 85.3785 89.0068 85.334 89.1837 85.3264C89.3606 85.3187 89.5397 85.3482 89.7109 85.413C89.882 85.4778 90.0418 85.5768 90.1811 85.7042C90.3205 85.8316 90.4366 85.9849 90.5229 86.1555Z" fill="url(#paint10_linear_790_985)"/>
<g id="path8986" opacity="0.620689" filter="url(#filter6_f_790_985)">
<path d="M91.2252 86.4736C91.3546 86.7284 91.4379 87.0034 91.4705 87.283C91.5031 87.5625 91.4843 87.8411 91.4152 88.1028C91.346 88.3645 91.2279 88.6041 91.0676 88.8081C90.9072 89.0121 90.7078 89.1763 90.4806 89.2915C90.2535 89.4066 90.0031 89.4704 89.7438 89.4792C89.4845 89.4881 89.2214 89.4417 88.9694 89.3428C88.7175 89.2439 88.4816 89.0945 88.2754 88.903C88.0692 88.7115 87.8966 88.4817 87.7675 88.2267C87.6381 87.9719 87.5548 87.6969 87.5222 87.4174C87.4896 87.1378 87.5084 86.8592 87.5775 86.5975C87.6466 86.3359 87.7648 86.0962 87.9251 85.8922C88.0855 85.6883 88.2849 85.524 88.512 85.4088C88.7392 85.2937 88.9896 85.2299 89.2489 85.2211C89.5082 85.2122 89.7713 85.2586 90.0233 85.3575C90.2752 85.4564 90.5111 85.6058 90.7173 85.7973C90.9235 85.9888 91.0961 86.2186 91.2252 86.4736Z" fill="url(#paint11_linear_790_985)"/>
</g>
<g id="path8988" filter="url(#filter7_f_790_985)">
<path fill-rule="evenodd" clip-rule="evenodd" d="M88.0588 89.4789C89.4884 90.5976 94.8689 90.7409 92.8276 87.4894C93.3599 90.036 89.6851 89.7668 88.0588 89.4789Z" fill="url(#paint12_radial_790_985)"/>
</g>
<path id="path8996" fill-rule="evenodd" clip-rule="evenodd" d="M21.6487 72.6248C21.6487 72.332 39.9804 78.2115 43.1204 81.3551C40.5385 78.8358 27.4721 73.0419 25.4829 72.9787C23.4937 72.9155 21.8846 72.7428 21.6487 72.6248Z" fill="url(#paint13_radial_790_985)"/>
<g id="g9018">
<path id="path9006" opacity="0.285714" d="M35.42 85.218C35.4914 85.4303 35.2129 85.71 34.6458 85.9957C34.0788 86.2814 33.2697 86.5497 32.3964 86.7414C31.5232 86.9331 30.6574 87.0326 29.9895 87.0181C29.3215 87.0035 28.9062 86.8761 28.8349 86.6638C28.7636 86.4515 29.042 86.1717 29.6091 85.886C30.1761 85.6003 30.9852 85.3321 31.8585 85.1404C32.7317 84.9486 33.5975 84.8491 34.2655 84.8637C34.9334 84.8782 35.3487 85.0057 35.42 85.218Z" fill="url(#paint14_linear_790_985)"/>
<g id="path9008" opacity="0.620689" filter="url(#filter8_f_790_985)">
<path d="M36.8712 85.8912C37.0249 86.3485 36.7051 86.8896 35.9824 87.3955C35.2596 87.9013 34.193 88.3306 33.0172 88.5887C31.8415 88.8469 30.6528 88.9128 29.7127 88.772C28.7727 88.6312 28.1583 88.2952 28.0046 87.8379C27.851 87.3807 28.1707 86.8396 28.8935 86.3337C29.6162 85.8278 30.6828 85.3986 31.8586 85.1404C33.0344 84.8822 34.223 84.8163 35.1631 84.9571C36.1031 85.0979 36.7176 85.4339 36.8712 85.8912Z" fill="url(#paint15_linear_790_985)"/>
</g>
</g>
<g id="path9038" opacity="0.615764" filter="url(#filter9_f_790_985)">
<path fill-rule="evenodd" clip-rule="evenodd" d="M27.5181 88.198C27.5181 88.198 28.5107 90.8647 31.2343 91C33.9897 91.1369 37.1347 87.6933 37.3986 86.4579C36.9267 87.5197 34.2886 90.7207 30.8804 90.6755C28.9456 90.6499 27.5181 88.198 27.5181 88.198Z" fill="url(#paint16_radial_790_985)"/>
</g>
<g id="87235" filter="url(#filter10_f_790_985)">
<path d="M56.379 6.30786C53.6186 6.30786 50.9132 7.30758 49.0006 9.25923L12.3034 46.8474C8.94831 50.2025 8.14232 52.3988 8.34968 53.6411C8.45337 54.2622 8.75828 54.8021 9.40772 55.3674C10.0572 55.9327 11.0395 56.4868 12.2199 56.9823C14.5805 57.9732 17.7599 58.7714 20.8791 59.6274C23.9982 60.4833 27.0534 61.3867 29.3712 62.8572C29.7246 63.0873 30.0564 63.3708 30.29 63.776C30.5236 64.1812 30.6056 64.7169 30.5128 65.1681C30.3271 66.0705 29.7715 66.5465 29.2041 66.9779C28.0695 67.8409 26.5105 68.5578 24.9442 69.3167C23.3778 70.0757 21.8035 70.8521 21.0183 71.4885C20.6257 71.8067 20.4836 72.0927 20.4893 72.0732C20.495 72.0537 20.3852 71.8299 20.5728 72.0175C21.0644 72.5228 22.5989 73.388 24.5544 74.1614C26.5098 74.9349 28.9029 75.7168 31.3202 76.5003C33.7375 77.2838 36.1827 78.0594 38.2532 78.8669C40.3236 79.6744 42.011 80.4252 43.1257 81.5399C43.6805 82.1101 44.0725 82.8193 44.1559 83.5446C44.2393 84.2699 44.0429 84.9506 43.7661 85.5214C43.2124 86.6632 42.3224 87.5414 41.5108 88.3893C40.6992 89.2371 39.9639 90.0468 39.701 90.5889C39.5696 90.8599 39.5492 91.0365 39.5618 91.1457C39.5743 91.2549 39.5931 91.3651 39.8402 91.6191C39.8496 91.6282 39.8589 91.6375 39.868 91.6469C40.9315 92.7711 43.2422 92.9292 45.8543 93.5402C47.1604 93.8457 48.5263 94.3082 49.6967 95.3222C50.867 96.3362 51.7454 97.8798 52.119 99.972C52.2762 100.858 52.7451 101.29 53.8731 101.643C55.0011 101.996 56.7192 102.057 58.6064 101.782C62.3809 101.231 66.8569 99.3803 69.4374 97.2434C69.5978 97.107 69.5532 97.1431 69.6045 97.0763C69.4309 96.9521 69.0239 96.6874 68.3515 96.3524C67.5572 95.9566 66.6188 95.5865 65.9013 94.6818C65.5426 94.2294 65.2956 93.5152 65.4001 92.8163C65.5047 92.1174 65.8874 91.536 66.4025 91.0065C70.6309 86.7312 74.7972 85.7104 77.9295 84.881C79.4957 84.4663 80.8068 84.087 81.7997 83.461C82.7927 82.8351 83.5684 81.9787 84.2221 80.3148C84.2941 80.1346 84.2921 80.0824 84.1942 79.8693C84.0964 79.6562 83.8339 79.3153 83.4146 78.9505C82.5761 78.2207 81.1779 77.4365 79.795 76.6673C78.4122 75.8981 77.0682 75.181 76.0919 74.2728C75.6037 73.8187 75.0922 73.2467 75.0339 72.3795C74.9755 71.5122 75.544 70.7297 76.2033 70.2634C78.6496 68.541 82.3477 67.2297 86.366 65.8364C90.3843 64.443 94.7066 63.0012 98.2271 61.3536C101.748 59.7061 104.337 57.8087 105.16 55.8964C105.572 54.9402 105.647 53.9731 105.216 52.7223C104.784 51.4714 103.799 49.9417 102.042 48.1839L64.0358 9.28707C64.0263 9.27807 64.0176 9.26819 64.008 9.25923C61.9073 7.29218 59.1269 6.30786 56.379 6.30786ZM97.3083 77.5861C94.9604 77.6709 92.8004 78.7457 91.8789 80.4261C92.1407 80.5246 92.3764 80.6355 92.7977 80.7324C94.0234 81.0144 95.7339 81.1964 97.4197 81.2336C99.1055 81.2708 100.791 81.1289 101.819 80.8438C102.269 80.719 102.507 80.5927 102.626 80.5097C102.398 79.5375 101.856 78.8506 100.928 78.3379C99.9669 77.8069 98.65 77.5377 97.3083 77.5861ZM34.4943 85.6606C32.6323 85.5311 30.292 86.2723 29.1485 87.192C28.5767 87.6518 28.3348 88.078 28.3132 88.3614C28.2916 88.6448 28.382 89.0225 29.1485 89.67C29.1486 89.6793 29.1486 89.6886 29.1485 89.6978C30.3538 90.7403 31.7165 90.6316 33.2692 89.7813C34.5709 89.0686 35.7258 87.7314 36.499 86.3288C35.9778 85.9926 35.3545 85.7205 34.4943 85.6606ZM88.844 86.2175C88.4455 86.7241 88.2284 87.1958 88.2036 87.5261C88.1694 87.9821 88.2986 88.3344 88.6491 88.6677C89.306 89.2923 90.7332 89.5611 92.1852 88.7791C92.1565 88.6106 92.1021 88.355 91.8789 88.0273C91.4335 87.3732 90.3922 86.6685 88.844 86.2175Z" stroke="url(#paint17_radial_790_985)" stroke-width="0.435071"/>
</g>
<g id="path5897" opacity="0.325123" filter="url(#filter11_f_790_985)">
<path fill-rule="evenodd" clip-rule="evenodd" d="M36.2577 65.1709C34.0429 65.8243 26.8636 68.5371 27.8826 70.6093C28.8587 72.5944 45.5514 73.3943 48.1134 79.3107C49.2306 81.8907 45.5498 83.8369 46.4819 86.4894C47.1996 88.5319 52.7521 93.664 56.2649 96.0904C59.0202 97.9936 62.6391 94.5579 61.1655 91.7102C58.8179 87.1735 69.1894 81.617 73.8913 79.0932C76.6345 77.6207 68.2354 70.3917 68.2354 70.3917L36.2577 65.1709Z" fill="url(#paint18_linear_790_985)"/>
</g>
<path id="path5783" fill-rule="evenodd" clip-rule="evenodd" d="M37.0768 67.1744C39.0654 68.6349 42.99 67.754 45.347 68.8153C51.0043 71.3629 57.9588 74.2017 56.679 69.1758L55.2394 70.3715L55.2113 68.0928L51.8683 68.9092C51.8683 68.9092 49.279 66.8308 48.0919 66.1454C47.8439 66.0022 46.5704 67.2973 46.5704 67.2973L46.3414 65.9218C44.6865 65.7457 43.0482 65.668 41.6057 65.6796C38.1479 65.7073 35.8152 66.2478 37.0768 67.1744Z" fill="url(#paint19_linear_790_985)"/>
<g id="path5803" opacity="0.477832" filter="url(#filter12_f_790_985)">
<path fill-rule="evenodd" clip-rule="evenodd" d="M74.2177 71.8054C73.4521 74.6239 83.6273 78.4533 82.8647 80.3981C81.1858 84.6799 71.9984 81.7631 64.9725 90.731C63.9661 92.0155 66.3864 96.6045 66.0601 96.0606C65.7338 95.5168 63.2474 91.7261 63.8848 89.8609C65.8836 84.0112 85.2088 81.8305 81.6683 79.0385C79.6322 77.4328 72.3119 72.9966 74.2177 71.8054Z" fill="url(#paint20_radial_790_985)"/>
</g>
<path id="path6041" opacity="0.586207" d="M97.1133 77.598C97.1133 77.7206 96.9958 77.8382 96.7867 77.9249C96.5777 78.0116 96.2941 78.0603 95.9984 78.0603C95.7027 78.0603 95.4192 78.0116 95.2101 77.9249C95.001 77.8382 94.8835 77.7206 94.8835 77.598C94.8835 77.4754 95.001 77.3578 95.2101 77.2711C95.4192 77.1844 95.7027 77.1357 95.9984 77.1357C96.2941 77.1357 96.5777 77.1844 96.7867 77.2711C96.9958 77.3578 97.1133 77.4754 97.1133 77.598Z" fill="white"/>
<path id="path6043" opacity="0.586207" d="M89.6628 86.136C89.6628 86.2586 89.5883 86.3761 89.4557 86.4628C89.3231 86.5495 89.1433 86.5982 88.9558 86.5982C88.7683 86.5982 88.5884 86.5495 88.4559 86.4628C88.3233 86.3761 88.2488 86.2586 88.2488 86.136C88.2488 86.0134 88.3233 85.8958 88.4559 85.8091C88.5884 85.7224 88.7683 85.6737 88.9558 85.6737C89.1433 85.6737 89.3231 85.7224 89.4557 85.8091C89.5883 85.8958 89.6628 86.0134 89.6628 86.136Z" fill="white"/>
<path id="path6045" opacity="0.586207" d="M33.2668 85.7279C33.2668 85.8505 33.135 85.9681 32.9004 86.0548C32.6659 86.1414 32.3477 86.1902 32.016 86.1902C31.6842 86.1902 31.3661 86.1414 31.1315 86.0548C30.8969 85.9681 30.7651 85.8505 30.7651 85.7279C30.7651 85.6053 30.8969 85.4877 31.1315 85.401C31.3661 85.3143 31.6842 85.2656 32.016 85.2656C32.3477 85.2656 32.6659 85.3143 32.9004 85.401C33.135 85.4877 33.2668 85.6053 33.2668 85.7279Z" fill="white"/>
<path id="path5049" opacity="0.251232" d="M32.5598 65.3887C26.1866 69.3305 16.278 70.765 27.1214 73.3831C25.8297 70.5069 29.9178 70.8242 32.5598 65.3887Z" fill="url(#paint21_linear_790_985)"/>
<g id="path10207" opacity="0.363158" filter="url(#filter13_f_790_985)">
<path d="M55.1835 101.282C55.1835 101.282 65.0125 100.356 67.2863 97.5205C68.6165 95.8613 61.9995 93.9251 63.4279 92.2996C68.8011 86.1851 73.3174 86.4404 79.5474 83.8795C85.7774 81.3185 83.4785 80.0643 81.4634 78.9399C78.0122 77.0141 70.3311 74.9623 72.8721 70.3923C75.4289 65.7936 97.8204 59.4067 97.8204 59.4067C104.606 57.0885 103.754 52.8961 100.431 49.4001L80.4176 29.4956C80.4176 29.4956 81.4108 48.3727 77.3721 56.47C72.3812 66.4763 45.8103 77.6413 56.9237 78.8761C60.8394 79.3112 62.7192 80.6471 64.3199 83.6619C67.6162 89.8699 55.1835 101.282 55.1835 101.282Z" fill="url(#paint22_linear_790_985)"/>
</g>
</g>
</g>
<defs>
<filter id="filter0_f_790_985" x="5.5647" y="4.43506" width="102.684" height="101.129" filterUnits="userSpaceOnUse" color-interpolation-filters="sRGB">
<feFlood flood-opacity="0" result="BackgroundImageFix"/>
<feBlend mode="normal" in="SourceGraphic" in2="BackgroundImageFix" result="shape"/>
<feGaussianBlur stdDeviation="0.717652" result="effect1_foregroundBlur_790_985"/>
</filter>
<filter id="filter1_f_790_985" x="0.78035" y="0.520829" width="112.253" height="110.698" filterUnits="userSpaceOnUse" color-interpolation-filters="sRGB">
<feFlood flood-opacity="0" result="BackgroundImageFix"/>
<feBlend mode="normal" in="SourceGraphic" in2="BackgroundImageFix" result="shape"/>
<feGaussianBlur stdDeviation="3.10982" result="effect1_foregroundBlur_790_985"/>
</filter>
<filter id="filter2_f_790_985" x="38.1406" y="79.0353" width="32.0962" height="23.1097" filterUnits="userSpaceOnUse" color-interpolation-filters="sRGB">
<feFlood flood-opacity="0" result="BackgroundImageFix"/>
<feBlend mode="normal" in="SourceGraphic" in2="BackgroundImageFix" result="shape"/>
<feGaussianBlur stdDeviation="0.923947" result="effect1_foregroundBlur_790_985"/>
</filter>
<filter id="filter3_f_790_985" x="70.4961" y="54.6973" width="36.3264" height="17.6862" filterUnits="userSpaceOnUse" color-interpolation-filters="sRGB">
<feFlood flood-opacity="0" result="BackgroundImageFix"/>
<feBlend mode="normal" in="SourceGraphic" in2="BackgroundImageFix" result="shape"/>
<feGaussianBlur stdDeviation="1.00023" result="effect1_foregroundBlur_790_985"/>
</filter>
<filter id="filter4_f_790_985" x="91.4083" y="75.9044" width="11.9036" height="6.77168" filterUnits="userSpaceOnUse" color-interpolation-filters="sRGB">
<feFlood flood-opacity="0" result="BackgroundImageFix"/>
<feBlend mode="normal" in="SourceGraphic" in2="BackgroundImageFix" result="shape"/>
<feGaussianBlur stdDeviation="0.454181" result="effect1_foregroundBlur_790_985"/>
</filter>
<filter id="filter5_f_790_985" x="89.7136" y="79.4209" width="14.8506" height="3.51417" filterUnits="userSpaceOnUse" color-interpolation-filters="sRGB">
<feFlood flood-opacity="0" result="BackgroundImageFix"/>
<feBlend mode="normal" in="SourceGraphic" in2="BackgroundImageFix" result="shape"/>
<feGaussianBlur stdDeviation="0.38721" result="effect1_foregroundBlur_790_985"/>
</filter>
<filter id="filter6_f_790_985" x="86.9093" y="84.6227" width="5.17408" height="5.45496" filterUnits="userSpaceOnUse" color-interpolation-filters="sRGB">
<feFlood flood-opacity="0" result="BackgroundImageFix"/>
<feBlend mode="normal" in="SourceGraphic" in2="BackgroundImageFix" result="shape"/>
<feGaussianBlur stdDeviation="0.298647" result="effect1_foregroundBlur_790_985"/>
</filter>
<filter id="filter7_f_790_985" x="87.5496" y="86.9802" width="6.24378" height="3.72828" filterUnits="userSpaceOnUse" color-interpolation-filters="sRGB">
<feFlood flood-opacity="0" result="BackgroundImageFix"/>
<feBlend mode="normal" in="SourceGraphic" in2="BackgroundImageFix" result="shape"/>
<feGaussianBlur stdDeviation="0.25461" result="effect1_foregroundBlur_790_985"/>
</filter>
<filter id="filter8_f_790_985" x="27.2284" y="84.1463" width="10.4188" height="5.43655" filterUnits="userSpaceOnUse" color-interpolation-filters="sRGB">
<feFlood flood-opacity="0" result="BackgroundImageFix"/>
<feBlend mode="normal" in="SourceGraphic" in2="BackgroundImageFix" result="shape"/>
<feGaussianBlur stdDeviation="0.369177" result="effect1_foregroundBlur_790_985"/>
</filter>
<filter id="filter9_f_790_985" x="26.8908" y="85.8306" width="11.1351" height="5.80051" filterUnits="userSpaceOnUse" color-interpolation-filters="sRGB">
<feFlood flood-opacity="0" result="BackgroundImageFix"/>
<feBlend mode="normal" in="SourceGraphic" in2="BackgroundImageFix" result="shape"/>
<feGaussianBlur stdDeviation="0.313621" result="effect1_foregroundBlur_790_985"/>
</filter>
<filter id="filter10_f_790_985" x="7.5207" y="5.50922" width="98.7838" height="97.2433" filterUnits="userSpaceOnUse" color-interpolation-filters="sRGB">
<feFlood flood-opacity="0" result="BackgroundImageFix"/>
<feBlend mode="normal" in="SourceGraphic" in2="BackgroundImageFix" result="shape"/>
<feGaussianBlur stdDeviation="0.290554" result="effect1_foregroundBlur_790_985"/>
</filter>
<filter id="filter11_f_790_985" x="24.5761" y="61.9628" width="53.0739" height="37.8843" filterUnits="userSpaceOnUse" color-interpolation-filters="sRGB">
<feFlood flood-opacity="0" result="BackgroundImageFix"/>
<feBlend mode="normal" in="SourceGraphic" in2="BackgroundImageFix" result="shape"/>
<feGaussianBlur stdDeviation="1.60403" result="effect1_foregroundBlur_790_985"/>
</filter>
<filter id="filter12_f_790_985" x="62.701" y="70.7256" width="21.2843" height="26.4594" filterUnits="userSpaceOnUse" color-interpolation-filters="sRGB">
<feFlood flood-opacity="0" result="BackgroundImageFix"/>
<feBlend mode="normal" in="SourceGraphic" in2="BackgroundImageFix" result="shape"/>
<feGaussianBlur stdDeviation="0.539895" result="effect1_foregroundBlur_790_985"/>
</filter>
<filter id="filter13_f_790_985" x="51.8219" y="27.0856" width="53.5336" height="76.6066" filterUnits="userSpaceOnUse" color-interpolation-filters="sRGB">
<feFlood flood-opacity="0" result="BackgroundImageFix"/>
<feBlend mode="normal" in="SourceGraphic" in2="BackgroundImageFix" result="shape"/>
<feGaussianBlur stdDeviation="1.205" result="effect1_foregroundBlur_790_985"/>
</filter>
<linearGradient id="paint0_linear_790_985" x1="72.8987" y1="15.3928" x2="53.3779" y2="33.0439" gradientUnits="userSpaceOnUse">
<stop stop-color="#C0CDF9"/>
<stop offset="1" stop-color="#07092D" stop-opacity="0.288043"/>
</linearGradient>
<linearGradient id="paint1_linear_790_985" x1="29.2112" y1="28.3326" x2="51.6902" y2="50.8117" gradientUnits="userSpaceOnUse">
<stop stop-color="white"/>
<stop offset="1" stop-color="white" stop-opacity="0"/>
</linearGradient>
<linearGradient id="paint2_linear_790_985" x1="53.3442" y1="15.0229" x2="80.0735" y2="41.7523" gradientUnits="userSpaceOnUse">
<stop stop-color="white"/>
<stop offset="1" stop-color="white" stop-opacity="0"/>
</linearGradient>
<radialGradient id="paint3_radial_790_985" cx="0" cy="0" r="1" gradientUnits="userSpaceOnUse" gradientTransform="translate(39.9885 98.8532) scale(22.6717 15.1755)">
<stop stop-color="white"/>
<stop offset="1" stop-color="white" stop-opacity="0"/>
</radialGradient>
<radialGradient id="paint4_radial_790_985" cx="0" cy="0" r="1" gradientUnits="userSpaceOnUse" gradientTransform="translate(51.9424 99.397) scale(28.9272 19.3627)">
<stop stop-color="white"/>
<stop offset="1" stop-color="white" stop-opacity="0"/>
</radialGradient>
<radialGradient id="paint5_radial_790_985" cx="0" cy="0" r="1" gradientUnits="userSpaceOnUse" gradientTransform="translate(88.6593 64.3668) scale(16.1628 6.84263)">
<stop stop-color="white"/>
<stop offset="1" stop-color="white" stop-opacity="0"/>
</radialGradient>
<radialGradient id="paint6_radial_790_985" cx="0" cy="0" r="1" gradientUnits="userSpaceOnUse" gradientTransform="translate(92.0807 66.2538) scale(16.1628 6.84263)">
<stop stop-color="white"/>
<stop offset="1" stop-color="white" stop-opacity="0"/>
</radialGradient>
<linearGradient id="paint7_linear_790_985" x1="98.1563" y1="76.1344" x2="98.2153" y2="79.1133" gradientUnits="userSpaceOnUse">
<stop stop-color="white"/>
<stop offset="1" stop-color="white" stop-opacity="0"/>
</linearGradient>
<linearGradient id="paint8_linear_790_985" x1="98.2745" y1="75.7926" x2="98.2745" y2="80.3157" gradientUnits="userSpaceOnUse">
<stop stop-color="white"/>
<stop offset="1" stop-color="white" stop-opacity="0"/>
</linearGradient>
<radialGradient id="paint9_radial_790_985" cx="0" cy="0" r="1" gradientUnits="userSpaceOnUse" gradientTransform="translate(97.139 81.178) scale(6.65092 0.982643)">
<stop stop-color="white"/>
<stop offset="1" stop-color="white" stop-opacity="0"/>
</radialGradient>
<linearGradient id="paint10_linear_790_985" x1="88.8186" y1="84.9693" x2="90.2849" y2="87.5601" gradientUnits="userSpaceOnUse">
<stop stop-color="white"/>
<stop offset="1" stop-color="white" stop-opacity="0"/>
</linearGradient>
<linearGradient id="paint11_linear_790_985" x1="88.2672" y1="84.0518" x2="90.3127" y2="88.086" gradientUnits="userSpaceOnUse">
<stop stop-color="white"/>
<stop offset="1" stop-color="white" stop-opacity="0"/>
</linearGradient>
<radialGradient id="paint12_radial_790_985" cx="0" cy="0" r="1" gradientUnits="userSpaceOnUse" gradientTransform="translate(90.7072 89.6663) rotate(-26.8861) scale(2.87567 0.982642)">
<stop stop-color="white"/>
<stop offset="1" stop-color="white" stop-opacity="0"/>
</radialGradient>
<radialGradient id="paint13_radial_790_985" cx="0" cy="0" r="1" gradientUnits="userSpaceOnUse" gradientTransform="translate(31.8536 75.5689) scale(10.7358 4.3704)">
<stop stop-color="white" stop-opacity="0.330049"/>
<stop offset="1" stop-color="white" stop-opacity="0"/>
</radialGradient>
<linearGradient id="paint14_linear_790_985" x1="32.3999" y1="84.5146" x2="32.9012" y2="86.6347" gradientUnits="userSpaceOnUse">
<stop stop-color="white"/>
<stop offset="1" stop-color="white" stop-opacity="0"/>
</linearGradient>
<linearGradient id="paint15_linear_790_985" x1="32.4237" y1="84.254" x2="33.1317" y2="87.4785" gradientUnits="userSpaceOnUse">
<stop stop-color="white"/>
<stop offset="1" stop-color="white" stop-opacity="0"/>
</linearGradient>
<radialGradient id="paint16_radial_790_985" cx="0" cy="0" r="1" gradientUnits="userSpaceOnUse" gradientTransform="translate(32.1339 90.825) rotate(-15.4869) scale(6.07516 2.27303)">
<stop stop-color="white"/>
<stop offset="1" stop-color="white" stop-opacity="0"/>
</radialGradient>
<radialGradient id="paint17_radial_790_985" cx="0" cy="0" r="1" gradientUnits="userSpaceOnUse" gradientTransform="translate(60.8283 16.7148) scale(84.0597 82.7332)">
<stop stop-color="white"/>
<stop offset="1" stop-color="white" stop-opacity="0"/>
</radialGradient>
<linearGradient id="paint18_linear_790_985" x1="36.2577" y1="80.905" x2="61.4918" y2="87.577" gradientUnits="userSpaceOnUse">
<stop stop-color="white"/>
<stop offset="1" stop-color="white" stop-opacity="0"/>
</linearGradient>
<linearGradient id="paint19_linear_790_985" x1="49.6344" y1="65.5652" x2="46.7999" y2="72.0597" gradientUnits="userSpaceOnUse">
<stop stop-color="#EEEEEC"/>
<stop offset="1" stop-color="#EEEEEC" stop-opacity="0"/>
</linearGradient>
<radialGradient id="paint20_radial_790_985" cx="0" cy="0" r="1" gradientUnits="userSpaceOnUse" gradientTransform="translate(73.5552 83.6834) scale(13.2104 16.7883)">
<stop stop-color="white"/>
<stop offset="1" stop-color="white" stop-opacity="0"/>
</radialGradient>
<linearGradient id="paint21_linear_790_985" x1="26.9039" y1="67.7816" x2="30.8739" y2="70.9358" gradientUnits="userSpaceOnUse">
<stop stop-color="white"/>
<stop offset="1" stop-color="white" stop-opacity="0"/>
</linearGradient>
<linearGradient id="paint22_linear_790_985" x1="73.375" y1="84.9671" x2="61.5792" y2="53.207" gradientUnits="userSpaceOnUse">
<stop stop-color="#729FCF"/>
<stop offset="1" stop-color="#729FCF" stop-opacity="0"/>
</linearGradient>
</defs>
</svg>
