<svg width="100" height="100" viewBox="0 0 100 100" fill="none" xmlns="http://www.w3.org/2000/svg">
<mask id="mask0_823_9" style="mask-type:alpha" maskUnits="userSpaceOnUse" x="2" y="0" width="97" height="93">
<path d="M20.9813 4.68541C36.4614 26.4366 61.4373 38.3897 86.2737 33.7697C88.0333 33.4441 89.9402 32.8628 91.9247 32.0953C95.692 30.6458 100.63 36.5526 97.7694 39.4052C95.878 41.2966 94.0641 43.0252 92.444 44.4593C81.2583 54.3892 68.9099 63.3423 55.453 71.1095C41.9108 78.931 27.8881 85.1788 13.6095 89.9073C11.6095 90.5662 9.29179 91.2484 6.788 91.9228C2.8889 92.977 0.245582 85.7524 3.39276 83.2176C5.06712 81.8689 6.53994 80.4968 7.71045 79.1325C24.1207 59.9316 25.5781 32.762 14.1908 8.60776C13.6947 7.56129 13.1521 6.29001 12.5862 4.90246C11.0049 1.04213 15.6249 -1.81049 18.3302 1.3677C19.4 2.62347 20.3302 3.77072 20.9813 4.68541Z" fill="#FFB000"/>
</mask>
<g mask="url(#mask0_823_9)">
<g clip-path="url(#paint0_diamond_823_9_clip_path)" data-figma-skip-parse="true"><g transform="matrix(0.0472425 0.0814119 -0.105663 0.0613154 59.7905 80.9891)"><rect x="0" y="0" width="1712.78" height="1273.78" fill="url(#paint0_diamond_823_9)" opacity="1" shape-rendering="crispEdges"/><rect x="0" y="0" width="1712.78" height="1273.78" transform="scale(1 -1)" fill="url(#paint0_diamond_823_9)" opacity="1" shape-rendering="crispEdges"/><rect x="0" y="0" width="1712.78" height="1273.78" transform="scale(-1 1)" fill="url(#paint0_diamond_823_9)" opacity="1" shape-rendering="crispEdges"/><rect x="0" y="0" width="1712.78" height="1273.78" transform="scale(-1)" fill="url(#paint0_diamond_823_9)" opacity="1" shape-rendering="crispEdges"/></g></g><path d="M167.969 124.643L40.4927 204.609L-48.3882 37.3431L79.0883 -42.6309L167.969 124.643Z" data-figma-gradient-fill="{&#34;type&#34;:&#34;GRADIENT_DIAMOND&#34;,&#34;stops&#34;:[{&#34;color&#34;:{&#34;r&#34;:0.15294118225574493,&#34;g&#34;:0.69803923368453979,&#34;b&#34;:0.94117647409439087,&#34;a&#34;:1.0},&#34;position&#34;:0.0},{&#34;color&#34;:{&#34;r&#34;:0.14901961386203766,&#34;g&#34;:0.87450981140136719,&#34;b&#34;:0.98431372642517090,&#34;a&#34;:1.0},&#34;position&#34;:0.20000000298023224},{&#34;color&#34;:{&#34;r&#34;:0.18823529779911041,&#34;g&#34;:0.96078431606292725,&#34;b&#34;:0.99607843160629272,&#34;a&#34;:1.0},&#34;position&#34;:0.40999999642372131},{&#34;color&#34;:{&#34;r&#34;:0.94117647409439087,&#34;g&#34;:0.99607843160629272,&#34;b&#34;:0.98823529481887817,&#34;a&#34;:1.0},&#34;position&#34;:0.64999997615814209},{&#34;color&#34;:{&#34;r&#34;:0.98431372642517090,&#34;g&#34;:0.77647060155868530,&#34;b&#34;:0.062745101749897003,&#34;a&#34;:1.0},&#34;position&#34;:0.86000001430511475},{&#34;color&#34;:{&#34;r&#34;:0.99215686321258545,&#34;g&#34;:0.61176472902297974,&#34;b&#34;:0.13333334028720856,&#34;a&#34;:1.0},&#34;position&#34;:1.0}],&#34;stopsVar&#34;:[{&#34;color&#34;:{&#34;r&#34;:0.15294118225574493,&#34;g&#34;:0.69803923368453979,&#34;b&#34;:0.94117647409439087,&#34;a&#34;:1.0},&#34;position&#34;:0.0},{&#34;color&#34;:{&#34;r&#34;:0.14901961386203766,&#34;g&#34;:0.87450981140136719,&#34;b&#34;:0.98431372642517090,&#34;a&#34;:1.0},&#34;position&#34;:0.20000000298023224},{&#34;color&#34;:{&#34;r&#34;:0.18823529779911041,&#34;g&#34;:0.96078431606292725,&#34;b&#34;:0.99607843160629272,&#34;a&#34;:1.0},&#34;position&#34;:0.40999999642372131},{&#34;color&#34;:{&#34;r&#34;:0.94117647409439087,&#34;g&#34;:0.99607843160629272,&#34;b&#34;:0.98823529481887817,&#34;a&#34;:1.0},&#34;position&#34;:0.64999997615814209},{&#34;color&#34;:{&#34;r&#34;:0.98431372642517090,&#34;g&#34;:0.77647060155868530,&#34;b&#34;:0.062745101749897003,&#34;a&#34;:1.0},&#34;position&#34;:0.86000001430511475},{&#34;color&#34;:{&#34;r&#34;:0.99215686321258545,&#34;g&#34;:0.61176472902297974,&#34;b&#34;:0.13333334028720856,&#34;a&#34;:1.0},&#34;position&#34;:1.0}],&#34;transform&#34;:{&#34;m00&#34;:94.484909057617188,&#34;m01&#34;:-211.3269042968750,&#34;m02&#34;:118.21147155761719,&#34;m10&#34;:162.82380676269531,&#34;m11&#34;:122.63072967529297,&#34;m12&#34;:-61.738204956054688},&#34;opacity&#34;:1.0,&#34;blendMode&#34;:&#34;NORMAL&#34;,&#34;visible&#34;:true}"/>
</g>
<path d="M83.9173 57.1022C73.6696 69.7297 71.5069 83.3106 73.4371 94.9536C73.4758 95.1629 73.5068 95.4032 73.5456 95.659C74.0572 99.1473 69.941 101.294 67.1582 99.1318C67.0187 99.0232 66.8791 98.9147 66.7474 98.8139C57.3988 91.6979 46.3759 86.3415 31.702 88.0314C40.5854 85.4268 49.6704 81.5742 58.5383 76.4504C68.2822 70.8226 76.8245 64.2182 83.9173 57.1099V57.1022Z" fill="url(#paint1_linear_823_9)"/>
<defs>
<clipPath id="paint0_diamond_823_9_clip_path"><path d="M167.969 124.643L40.4927 204.609L-48.3882 37.3431L79.0883 -42.6309L167.969 124.643Z"/></clipPath><linearGradient id="paint0_diamond_823_9" x1="0" y1="0" x2="500" y2="500" gradientUnits="userSpaceOnUse">
<stop stop-color="#27B2F0"/>
<stop offset="0.2" stop-color="#26DFFB"/>
<stop offset="0.41" stop-color="#30F5FE"/>
<stop offset="0.65" stop-color="#F0FEFC"/>
<stop offset="0.86" stop-color="#FBC610"/>
<stop offset="1" stop-color="#FD9C22"/>
</linearGradient>
<linearGradient id="paint1_linear_823_9" x1="31.6943" y1="78.5511" x2="83.9173" y2="78.5511" gradientUnits="userSpaceOnUse">
<stop stop-color="#1C6FFF"/>
<stop offset="1" stop-color="#24B5EF"/>
</linearGradient>
</defs>
</svg>
