<svg width="100" height="100" viewBox="0 0 100 100" fill="none" xmlns="http://www.w3.org/2000/svg">
<path d="M7.53804 70.7239C11.054 70.7239 13.9042 67.8739 13.9042 64.3581C13.9042 60.8418 11.054 57.9918 7.53804 57.9918C4.02211 57.9918 1.17188 60.8418 1.17188 64.3581C1.17188 67.8739 4.02211 70.7239 7.53804 70.7239Z" fill="#EB6161"/>
<path d="M27.5937 44.3041C28.4259 44.3041 29.0916 44.9699 29.0916 45.802L29.0084 57.9937C29.0084 64.9424 23.4328 70.6012 16.4841 70.7258H16.2761V58.0354H16.3177L16.3593 45.8437C16.3593 45.0116 17.025 44.3458 17.8572 44.3458H27.5937V44.3041ZM47.15 44.3041C47.9821 44.3041 48.6479 44.9699 48.6479 45.802V62.862C48.6479 63.6941 47.9821 64.3599 47.15 64.3599H37.4134C36.5812 64.3599 35.9155 63.6941 35.9155 62.862V45.802C35.9155 44.9699 36.5812 44.3041 37.4134 44.3041H47.15ZM62.4621 44.2629H62.67C68.9113 44.3458 73.9875 49.3804 74.1542 55.622V62.8204C74.1542 63.6524 73.4884 64.3183 72.6563 64.3183H56.9279C56.0959 64.3183 55.43 63.6524 55.43 62.8204V45.7608C55.43 44.9283 56.0959 44.2629 56.9279 44.2629H62.4621ZM88.2179 64.1516C82.9754 63.8187 78.7729 59.4499 78.7729 54.1241C78.7729 48.5899 83.2667 44.0962 88.8004 44.0962C94.1263 44.0962 98.4954 48.257 98.8284 53.5416V62.6537C98.8284 63.4862 98.1625 64.1516 97.3304 64.1516H88.2179Z" fill="#009191"/>
<path d="M42.2608 41.932C45.7771 41.932 48.6271 39.0817 48.6271 35.5658C48.6271 32.0498 45.7771 29.1996 42.2608 29.1996C38.745 29.1996 35.8948 32.0498 35.8948 35.5658C35.8948 39.0817 38.745 41.932 42.2608 41.932Z" fill="#FBCB67"/>
</svg>
