<svg width="100" height="100" viewBox="0 0 100 100" fill="none" xmlns="http://www.w3.org/2000/svg">
<g id="jslint">
<g id="jslint_2">
<path id="Vector" d="M81.2499 -0.000488281H18.7499C8.39454 -0.000488281 -0.00012207 8.39417 -0.00012207 18.7495V81.2495C-0.00012207 91.6049 8.39454 99.9995 18.7499 99.9995H81.2499C91.6052 99.9995 99.9999 91.6049 99.9999 81.2495V18.7495C99.9999 8.39417 91.6052 -0.000488281 81.2499 -0.000488281Z" fill="#FAEBD7"/>
<path id="Vector_2" d="M15.5272 0.312012C11.6991 0.995605 8.49597 2.63623 5.703 5.35107C3.22253 7.75342 1.54285 10.644 0.546753 14.2573L0.0975342 15.9175V49.9995V84.0815L0.527222 85.7222C2.38269 92.6167 7.3241 97.5581 14.2577 99.4526L15.9178 99.9019H49.9999H84.0819L85.7421 99.4526C92.6171 97.5776 97.6171 92.5776 99.453 85.7417L99.9022 84.0815V49.9995C99.9022 12.1479 99.9999 15.2144 98.6132 11.7378C96.6014 6.6792 92.0116 2.46045 86.7186 0.800293C84.121 -0.000488281 84.121 -0.000488281 49.8241 0.019043C22.3632 0.0385742 16.8358 0.0776367 15.5272 0.312012ZM84.1405 4.99951C84.9999 5.17529 86.4257 5.68311 87.4999 6.19092C89.0624 6.95264 89.6093 7.34326 91.1327 8.8667C92.6561 10.3901 93.0468 10.937 93.8085 12.4995C95.4296 15.8589 95.3319 13.2222 95.2733 50.6831C95.1952 87.8511 95.3319 84.4331 93.7499 87.6167C92.4218 90.3511 89.453 93.105 86.621 94.2769C84.0624 95.3511 85.3319 95.312 49.9999 95.312C14.6678 95.312 15.9374 95.3511 13.3788 94.2769C10.5468 93.105 7.578 90.3511 6.24988 87.6167C4.66785 84.4331 4.80457 87.8511 4.72644 50.6831C4.66785 13.2026 4.57019 15.8198 6.19128 12.4995C6.953 10.937 7.36316 10.3706 8.86707 8.8667C10.3905 7.34326 10.9374 6.95264 12.4999 6.19092C15.7616 4.60889 13.1444 4.72607 49.8632 4.70654C78.828 4.68701 82.8124 4.72607 84.1405 4.99951Z" fill="#2F4F4F"/>
<path id="Vector_3" d="M34.1405 31.6792L34.0819 48.3394L29.9413 48.3979L25.7811 48.437V42.187V35.937H21.5819H17.3827V41.269V46.5815L20.371 49.5698L23.3397 52.5386H29.9803H36.621L39.5116 49.6479L42.3827 46.7769V30.8979V15.0386H38.2811H34.1796L34.1405 31.6792Z" fill="#2F4F4F"/>
<path id="Vector_4" d="M53.7499 18.0269L50.7811 20.9956V25.2925V29.5894L57.0311 35.8394L63.2811 42.0894V45.2534V48.437H61.328H59.3749L55.2733 46.3862C53.0272 45.2534 51.0936 44.3354 50.9764 44.3354C50.8593 44.3354 50.7811 44.8433 50.7811 45.4683V46.5815L53.7694 49.5698L56.7382 52.5386H61.2303H65.7225L68.7108 49.5503L71.6796 46.5815V42.2847V37.9878L65.4296 31.7378L59.1796 25.4878V22.3237V19.1401H61.2303H63.2811L67.3827 21.1909C69.6288 22.3237 71.5233 23.2417 71.5819 23.2417C71.6405 23.2417 71.6796 22.7339 71.6796 22.1089V20.9956L68.6913 18.0073L65.7225 15.0386H61.2303H56.7382L53.7499 18.0269Z" fill="#2F4F4F"/>
<path id="Vector_5" d="M16.4061 73.4369V87.4994H24.2186H32.0311V85.9369V84.3744H27.3436H22.6561V71.8744V59.3744H19.5311H16.4061V73.4369Z" fill="#2F4F4F"/>
<path id="Vector_6" d="M38.281 60.937V62.4995H41.406H44.531V60.937V59.3745H41.406H38.281V60.937Z" fill="#2F4F4F"/>
<path id="Vector_7" d="M75.7811 62.4994V65.6244H74.2186H72.6561V67.1869V68.7494H74.2186H75.7811V75.9369V83.1049L77.9882 85.3119L80.1757 87.4994H82.6757H85.1561V85.9369V84.3744H83.5936H82.0311V76.5619V68.7494H83.5936H85.1561V67.1869V65.6244H83.5936H82.0311V62.4994V59.3744H78.9061H75.7811V62.4994Z" fill="#2F4F4F"/>
<path id="Vector_8" d="M38.281 76.5619V87.4994H41.406H44.531V76.5619V65.6244H41.406H38.281V76.5619Z" fill="#2F4F4F"/>
<path id="Vector_9" d="M50.7811 76.5619V87.4994H53.9061H57.0311V78.1244V68.7494H60.1561H63.2811V78.1244V87.4994H66.4061H69.5311V78.7494V70.0189L67.3241 67.8119L65.1366 65.6244H57.9491H50.7811V76.5619Z" fill="#2F4F4F"/>
</g>
</g>
</svg>
