<svg width="100" height="100" viewBox="0 0 100 100" fill="none" xmlns="http://www.w3.org/2000/svg">
<path fill-rule="evenodd" clip-rule="evenodd" d="M82.2415 24.0674C82.9206 23.1966 83.5164 22.4008 84.1456 21.6299C84.4373 21.2674 84.4123 20.9924 84.1289 20.6133C81.3998 17.0258 81.1414 13.0424 82.7123 9.00077C83.8914 5.9591 86.4998 4.5341 89.6873 4.22994C91.6748 4.04244 93.6248 4.2466 95.4331 5.21327C97.8081 6.4841 99.1914 8.4216 99.6414 11.0966C99.9998 13.2299 99.9331 15.3133 99.3289 17.3799C98.2581 21.0383 95.6289 22.9341 92.0248 23.4133C89.0331 23.8133 85.9998 23.8633 82.9831 24.0674C82.7498 24.0841 82.5123 24.0674 82.2415 24.0674Z" fill="#027AFF"/>
<path fill-rule="evenodd" clip-rule="evenodd" d="M74.8417 7.68262H56.8167L42.5458 40.2243H22.3708V7.82428H6.25V91.666H22.375V56.3451H50.8083C53.2101 56.345 55.5619 55.6586 57.5868 54.3668C59.6116 53.075 61.2252 51.2315 62.2375 49.0535V91.666H78.3625V56.3451C78.3628 52.2717 76.8214 48.3491 74.0481 45.3655C71.2748 42.382 67.4751 40.5586 63.4125 40.2618V40.2201H54.5583C56.6918 39.4913 58.6522 38.3308 60.3175 36.8111C61.9827 35.2913 63.3171 33.4449 64.2375 31.3868L74.8417 7.68262Z" fill="black"/>
</svg>
