<svg width="100" height="100" viewBox="0 0 100 100" fill="none" xmlns="http://www.w3.org/2000/svg">
<g clip-path="url(#clip0_820_2598)">
<path d="M22.5502 57.3962C24.6644 50.933 27.4549 44.7111 30.8752 38.8337C44.0836 15.9504 63.3544 2.34621 73.9169 8.44205C50.1586 -5.27462 19.1586 3.93372 4.67523 29.017C2.94667 32.0097 1.50016 35.1565 0.354396 38.417C-0.72477 41.4962 0.73773 44.8087 3.56273 46.442L22.5502 57.4004V57.3962Z" fill="url(#paint0_radial_820_2598)"/>
<path d="M77.4502 42.3506C75.3348 48.814 72.543 55.036 69.121 60.9131C55.9127 83.7964 36.6418 97.4048 26.0793 91.3048C49.8418 105.026 80.8418 95.8131 95.3252 70.7298C97.0532 67.7383 98.4997 64.5929 99.646 61.3339C100.725 58.2589 99.2627 54.9423 96.4377 53.3131L77.4502 42.3548V42.3506Z" fill="url(#paint1_radial_820_2598)"/>
<path d="M69.1252 60.9171C82.3336 38.0338 84.4836 14.5421 73.9169 8.44214C63.3627 2.3463 44.0919 15.9588 30.8752 38.8338C39.5169 23.8755 55.0794 16.688 65.6419 22.7838C76.2002 28.8838 77.7586 45.9505 69.1211 60.913L69.1252 60.9171Z" fill="url(#paint2_linear_820_2598)"/>
<path d="M30.8749 38.835C17.6665 61.7183 15.5165 85.21 26.0832 91.3058C36.6415 97.4058 55.9123 83.7975 69.1249 60.9141C60.4832 75.8766 44.9207 83.0641 34.3582 76.9641C23.7999 70.8683 22.2415 53.7975 30.879 38.8391L30.8749 38.835Z" fill="url(#paint3_linear_820_2598)"/>
</g>
<defs>
<radialGradient id="paint0_radial_820_2598" cx="0" cy="0" r="1" gradientUnits="userSpaceOnUse" gradientTransform="translate(21.5544 56.8212) rotate(-59.132) scale(60.7279 83.22)">
<stop offset="0.095" stop-color="#FFF959"/>
<stop offset="0.326" stop-color="#0DF35E"/>
<stop offset="0.64" stop-color="#0BF2F9"/>
<stop offset="1" stop-color="#04A6F0"/>
</radialGradient>
<radialGradient id="paint1_radial_820_2598" cx="0" cy="0" r="1" gradientUnits="userSpaceOnUse" gradientTransform="translate(78.4429 42.9255) rotate(120.868) scale(60.7279 83.22)">
<stop offset="0.095" stop-color="#FFF959"/>
<stop offset="0.326" stop-color="#0DF35E"/>
<stop offset="0.64" stop-color="#0BF2F9"/>
<stop offset="1" stop-color="#04A6F0"/>
</radialGradient>
<linearGradient id="paint2_linear_820_2598" x1="64.9086" y1="7.49213" x2="75.2586" y2="41.088" gradientUnits="userSpaceOnUse">
<stop stop-color="#003EFF"/>
<stop offset="1" stop-color="#0BFFE7"/>
</linearGradient>
<linearGradient id="paint3_linear_820_2598" x1="35.0915" y1="92.26" x2="24.7415" y2="58.6641" gradientUnits="userSpaceOnUse">
<stop stop-color="#003EFF"/>
<stop offset="1" stop-color="#0BFFE7"/>
</linearGradient>
<clipPath id="clip0_820_2598">
<rect width="100" height="100" fill="white"/>
</clipPath>
</defs>
</svg>
