<svg width="100" height="100" viewBox="0 0 100 100" fill="none" xmlns="http://www.w3.org/2000/svg">
<path d="M23.4625 8.33362C23.5503 8.36378 23.6456 8.36378 23.7333 8.33362H27.3458C27.425 8.36695 27.4625 8.36695 27.4708 8.33362H27.575L30.8833 8.81278C30.9 8.81278 30.9125 8.82112 30.9208 8.83362C30.9314 8.84496 30.9373 8.85981 30.9375 8.87529V14.5128C30.9368 14.5217 30.9337 14.5303 30.9286 14.5376C30.9235 14.5449 30.9165 14.5508 30.9083 14.5545L30.8875 14.5628C28.8667 14.5499 26.8458 14.5513 24.825 14.567C23.3967 14.5701 21.9822 14.8473 20.6583 15.3836C19.6397 15.7709 18.7311 16.4012 18.0115 17.2196C17.2919 18.0379 16.783 19.0197 16.5292 20.0795C16.2625 21.0795 16.125 21.9586 16.125 22.7253L16.1167 36.6211C16.1125 37.9753 15.9583 39.2711 15.6583 40.5003C14.7917 44.0211 12.6167 46.2753 9.13333 47.2628C9.12501 47.2664 9.11781 47.2721 9.1125 47.2795C9.10604 47.287 9.1025 47.2966 9.1025 47.3065C9.1025 47.3165 9.10604 47.3261 9.1125 47.3336C9.11743 47.3413 9.12475 47.3472 9.13333 47.3503C12.9792 48.3836 15.1917 51.1753 15.8333 55.0378C16.0208 56.1711 16.1167 57.0253 16.1167 57.6086L16.125 74.0045C16.125 75.3545 16.3375 76.5961 16.7667 77.7378C18.0792 81.2128 21.5167 82.5378 24.975 82.5753C26.9528 82.5833 28.9306 82.586 30.9083 82.5836C30.9171 82.5864 30.9247 82.592 30.93 82.5995C30.9353 82.607 30.9379 82.6161 30.9375 82.6253V88.267C30.9377 88.2789 30.9336 88.2905 30.9259 88.2997C30.9183 88.3088 30.9076 88.315 30.8958 88.317C28.8 88.6086 26.6875 88.7836 24.5667 88.842H23.5042C19.975 88.6878 16.5375 87.8211 13.7833 85.6836C10.1917 82.892 8.82917 78.5336 8.80417 74.117C8.79583 72.917 8.79583 67.7211 8.79583 58.5253C8.79583 56.0336 8.50417 53.292 6.31667 51.7378C4.9875 50.7961 3.24167 50.3628 1.64167 50.3711C1.09432 50.3797 0.546833 50.3714 0 50.3461L0 44.367C2.2375 44.3753 4.29167 44.3253 6.20833 43.0586C7.67917 42.0878 8.46667 40.2503 8.69583 38.4628C8.76667 37.9211 8.8 37.1378 8.8 36.1211C8.79167 28.9003 8.79583 24.5461 8.80417 23.0586C8.825 20.1753 9.40833 17.2211 10.8667 14.792C13.1167 11.0461 17.1 9.02112 21.4333 8.52528C22.075 8.45445 22.7208 8.38778 23.3708 8.33362H23.4625ZM72.525 8.33362C72.6083 8.36695 72.65 8.36695 72.6333 8.33362H76.3917C79 8.48778 81.4417 8.89195 83.7792 10.0003C85.9042 11.0086 87.5792 12.4378 88.7958 14.292C90.4292 16.7795 91.1792 19.8836 91.1833 22.867L91.1917 36.8461C91.1917 40.2628 92.4625 43.2003 96.0458 44.0545C97.3375 44.3586 98.5208 44.367 99.95 44.3545C99.9625 44.3545 99.975 44.3628 99.9833 44.3711C99.9886 44.3758 99.9928 44.3816 99.9957 44.3881C99.9986 44.3945 100 44.4015 100 44.4086V50.2836C99.9989 50.3083 99.9883 50.3316 99.9705 50.3487C99.9526 50.3658 99.9289 50.3753 99.9042 50.3753C97.8417 50.3503 95.7125 50.3795 93.9208 51.5711C91.7667 53.0003 91.1917 55.5295 91.1875 58.017C91.1811 62.9281 91.1811 67.8392 91.1875 72.7503C91.1958 75.3753 91.0667 77.3545 90.3667 79.6045C89.5542 82.2295 88.0375 84.3545 85.8208 85.9753C83.1542 87.9211 79.8 88.692 76.4625 88.842H76.4208C76.3375 88.8086 76.3 88.8086 76.3083 88.842H75.425C73.3057 88.7854 71.1913 88.6101 69.0917 88.317C69.0789 88.3155 69.0671 88.3096 69.0583 88.3003C69.0502 88.2911 69.0458 88.2792 69.0458 88.267V82.6211C69.0447 82.6156 69.0447 82.61 69.0458 82.6045C69.0483 82.5983 69.0523 82.5928 69.0574 82.5884C69.0624 82.584 69.0685 82.581 69.075 82.5795H69.0917C71.0819 82.5881 73.0723 82.5854 75.0625 82.5711C76.5602 82.5761 78.0432 82.2755 79.4208 81.6878C82.5 80.3378 83.8292 77.4461 83.85 74.192C83.8625 72.1503 83.8667 66.6378 83.8667 57.6586C83.8935 56.5742 84.0289 55.4952 84.2708 54.4378C85.0208 50.8378 87.2667 48.3045 90.8542 47.3545C90.8618 47.3518 90.8684 47.3466 90.8729 47.3399C90.8774 47.3331 90.8796 47.3251 90.8792 47.317L90.875 47.2961C90.8701 47.2884 90.8627 47.2826 90.8542 47.2795C87.7708 46.3753 85.5667 44.4461 84.5708 41.3461C84.119 39.9143 83.8858 38.4225 83.8792 36.9211C83.8625 35.6253 83.8542 30.942 83.8583 22.8711C83.8583 21.6086 83.625 20.3795 83.1625 19.1795C81.8417 15.7545 78.2333 14.5586 74.8042 14.5545H69.1333C69.1217 14.5549 69.1102 14.5528 69.0994 14.5485C69.0887 14.5442 69.0789 14.5377 69.0708 14.5295C69.0627 14.5212 69.0564 14.5114 69.0521 14.5007C69.0478 14.49 69.0457 14.4785 69.0458 14.467V8.92112C69.0456 8.89883 69.0536 8.87722 69.0681 8.86035C69.0827 8.84347 69.1029 8.83249 69.125 8.82945L72.4 8.33362H72.525Z" fill="#6525F7"/>
<path d="M54.8665 48.3662L65.8456 64.5954C65.8517 64.6025 65.8554 64.6113 65.8563 64.6206C65.8572 64.6299 65.8553 64.6392 65.8508 64.6473C65.8462 64.6555 65.8393 64.6621 65.831 64.6662C65.8226 64.6703 65.8132 64.6718 65.804 64.6704H57.2915C57.2831 64.6704 57.2748 64.6704 57.2665 64.6621C57.26 64.6592 57.2543 64.655 57.2498 64.6496L48.8956 52.2996C48.8907 52.2919 48.8834 52.286 48.8748 52.2829C48.8683 52.2799 48.8611 52.2785 48.854 52.2787H41.2331C41.227 52.2785 41.2209 52.2795 41.2152 52.2816C41.2095 52.2838 41.2042 52.287 41.1998 52.2912C41.1956 52.2957 41.1923 52.3009 41.1902 52.3067C41.188 52.3124 41.1871 52.3185 41.1873 52.3246V64.6204C41.1862 64.6333 41.1803 64.6452 41.1706 64.6537C41.1621 64.6634 41.1501 64.6694 41.1373 64.6704H34.0206C34.0078 64.6694 33.9958 64.6634 33.9873 64.6537C33.9792 64.6445 33.9747 64.6327 33.9748 64.6204V32.5537C33.9742 32.5474 33.975 32.541 33.977 32.5349C33.9791 32.5289 33.9823 32.5233 33.9867 32.5186C33.991 32.5139 33.9962 32.5101 34.0021 32.5076C34.0079 32.505 34.0142 32.5037 34.0206 32.5037H41.1373C41.144 32.5031 41.1508 32.504 41.1572 32.5062C41.1635 32.5085 41.1693 32.5122 41.1741 32.517C41.1789 32.5217 41.1825 32.5275 41.1848 32.5339C41.1871 32.5402 41.1879 32.547 41.1873 32.5537V45.2204C41.1873 45.2371 41.1873 45.2454 41.1998 45.2537C41.2039 45.2587 41.209 45.2628 41.2147 45.2656C41.2204 45.2685 41.2267 45.2701 41.2331 45.2704H48.804C48.8121 45.2706 48.8201 45.2688 48.8274 45.2651C48.8346 45.2615 48.8409 45.2562 48.8456 45.2496L57.3706 32.5246C57.3751 32.5177 57.3813 32.5121 57.3886 32.5085C57.396 32.5048 57.4041 32.5032 57.4123 32.5037H65.9248C65.9373 32.5037 65.9456 32.5037 65.9498 32.5121C65.9567 32.5165 65.9622 32.5227 65.9659 32.5301C65.9696 32.5374 65.9712 32.5456 65.9706 32.5537L65.9665 32.5787L54.8665 48.3121C54.8607 48.3207 54.8578 48.3309 54.8581 48.3412C54.8581 48.3496 54.8581 48.3621 54.8665 48.3662Z" fill="black"/>
</svg>
