<svg width="100" height="100" viewBox="0 0 100 100" fill="none" xmlns="http://www.w3.org/2000/svg">
<path fill-rule="evenodd" clip-rule="evenodd" d="M25.4125 25.0004H74.5833C88.6 25.0004 100 36.217 100 50.0004C100 63.7837 88.6 75.0004 74.5875 75.0004H25.4167C11.4 75.0004 0 63.7837 0 50.0004C0 36.217 11.4 25.0004 25.4125 25.0004ZM47.9917 63.7504C48.6083 64.392 49.5208 64.3587 50.3292 64.192L50.3375 64.1962C50.7125 63.8962 50.1792 63.517 49.6708 63.1545C49.3625 62.9379 49.0667 62.7295 48.9792 62.542C49.2625 62.2087 48.425 61.4379 47.775 60.842C47.5526 60.6512 47.3438 60.4451 47.15 60.2254C46.6917 59.7295 46.5042 59.1087 46.3167 58.4837C46.1917 58.067 46.0667 57.6504 45.8583 57.267C44.5917 54.3754 43.1375 51.5045 41.0958 49.0587C39.7833 47.4337 38.2875 45.9754 36.7917 44.517C35.8193 43.5854 34.8704 42.6295 33.9458 41.6504C33.0042 40.6962 32.4375 39.5212 31.8667 38.342C31.3917 37.3587 30.9167 36.3712 30.2167 35.5087C28.1042 32.4462 21.4375 31.6087 20.4583 35.942C20.4583 36.0754 20.4167 36.1587 20.2958 36.2462C19.7542 36.6379 19.275 37.0795 18.8708 37.6087C17.8792 38.967 17.7292 41.2629 18.9625 42.4837L18.9667 42.4045C19.0083 41.792 19.05 41.2129 19.5458 40.7754C20.4958 41.5795 21.9458 41.867 23.05 41.2629C24.3833 43.1379 24.8083 45.4087 25.2375 47.6795C25.5917 49.5795 25.9458 51.4795 26.8292 53.1629L26.8875 53.2545C27.4042 54.1004 27.9292 54.9629 28.5958 55.7004C28.8417 56.0712 29.3375 56.467 29.8333 56.8629C30.4875 57.3837 31.1417 57.9045 31.2042 58.3587V58.9545C31.2 60.142 31.1958 61.3712 31.9708 62.342C32.4 63.1962 31.3458 64.0504 30.5042 63.9462C30.0375 64.0087 29.5333 63.8879 29.0292 63.7712C28.3417 63.6045 27.6583 63.4462 27.1042 63.7587C26.9458 63.9254 26.725 63.9254 26.5 63.9337C26.2333 63.942 25.9625 63.9504 25.8042 64.2254C25.7708 64.3045 25.6958 64.392 25.6167 64.4879C25.4417 64.6962 25.2542 64.9254 25.4792 65.0962L25.5417 65.0545C25.8833 64.7962 26.2083 64.5545 26.6667 64.7045C26.6083 65.0379 26.8292 65.1295 27.05 65.217L27.1625 65.267C27.1578 65.3456 27.1467 65.4236 27.1292 65.5004C27.0917 65.6879 27.0583 65.867 27.2042 66.0295C27.2724 65.9584 27.3365 65.8833 27.3958 65.8045C27.55 65.6129 27.7 65.4212 27.975 65.3462C28.575 66.1379 29.1792 65.8087 29.9375 65.4004C30.7958 64.9379 31.85 64.367 33.3125 65.1712C32.75 65.1462 32.25 65.2129 31.875 65.6712C31.7792 65.7712 31.7 65.8879 31.8667 66.0212C32.7292 65.4712 33.0917 65.667 33.4292 65.8545C33.6792 65.9879 33.9083 66.117 34.3125 65.9545L34.6042 65.8045C35.25 65.4587 35.9125 65.1129 36.6833 65.2337C36.1042 65.3962 35.9 65.7545 35.675 66.142C35.5667 66.3379 35.45 66.5379 35.2833 66.7254C35.1958 66.8129 35.1583 66.917 35.2542 67.0587C36.4625 66.9629 36.9208 66.6629 37.5375 66.2587C37.8292 66.067 38.1625 65.8462 38.625 65.617C39.1417 65.3045 39.6583 65.5045 40.1583 65.7004C40.7 65.9087 41.2208 66.1087 41.7042 65.642C41.8583 65.5045 42.05 65.5004 42.2417 65.5004C42.3083 65.5004 42.3792 65.5004 42.45 65.492C42.2958 64.7004 41.45 64.7087 40.5833 64.717C39.5833 64.7295 38.5708 64.742 38.6042 63.5129C39.5292 62.892 39.5375 61.817 39.5458 60.8004C39.5458 60.5504 39.5458 60.3129 39.5667 60.0795C40.2458 60.4545 40.9667 60.7462 41.6833 61.0337C42.3583 61.3045 43.0292 61.5754 43.6583 61.9087C44.3167 62.9504 45.3417 64.3254 46.7083 64.2337C46.7417 64.1254 46.775 64.0379 46.8167 63.9295C46.8958 63.9462 46.9792 63.9629 47.0625 63.9879C47.4208 64.0712 47.8042 64.167 47.9917 63.7504ZM74.7792 51.9629C75.5708 52.7379 76.6417 53.1712 77.7625 53.1712C78.8833 53.1712 79.9542 52.7379 80.7458 51.9629C81.136 51.5837 81.4465 51.1303 81.659 50.6294C81.8715 50.1286 81.9818 49.5903 81.9833 49.0462C81.9818 48.5021 81.8715 47.9638 81.659 47.4629C81.4465 46.9621 81.136 46.5087 80.7458 46.1295C80.163 45.5607 79.4296 45.1706 78.6322 45.0052C77.8348 44.8398 77.0068 44.9061 76.2458 45.1962L73.8292 41.7337L72.1417 42.867L74.5708 46.3462C73.8778 47.1301 73.5129 48.1506 73.5517 49.1962C73.5905 50.2418 74.03 51.2324 74.7792 51.9629ZM67.2083 40.7545C67.9087 41.0937 68.6881 41.236 69.4632 41.1663C70.2382 41.0965 70.9797 40.8174 71.6083 40.3587C72.3267 39.8356 72.8571 39.0948 73.1208 38.2462C73.3819 37.401 73.3585 36.4935 73.0542 35.6629C72.7451 34.8281 72.1753 34.1151 71.4292 33.6295C70.5996 33.0854 69.6069 32.8461 68.6205 32.9525C67.6341 33.0589 66.7153 33.5043 66.0208 34.2129C65.5699 34.6789 65.2356 35.2449 65.0451 35.8648C64.8547 36.4846 64.8135 37.1407 64.925 37.7795C65.0423 38.4164 65.3093 39.0162 65.7042 39.5295C66.1 40.0504 66.6167 40.467 67.2083 40.7545ZM67.2083 64.7212C67.9089 65.0594 68.6882 65.2012 69.4631 65.1315C70.2379 65.0618 70.9793 64.7832 71.6083 64.3254C72.3267 63.8023 72.8571 63.0614 73.1208 62.2129C73.3819 61.3677 73.3585 60.4601 73.0542 59.6295C72.7451 58.7947 72.1753 58.0817 71.4292 57.5962C70.5999 57.0513 69.607 56.8115 68.6204 56.9179C67.6338 57.0243 66.7149 57.4703 66.0208 58.1795C65.5696 58.6454 65.2351 59.2114 65.0447 59.8313C64.8542 60.4512 64.8132 61.1074 64.925 61.7462C65.0423 62.3831 65.3093 62.9829 65.7042 63.4962C66.1 64.017 66.6167 64.4337 67.2083 64.7212ZM71.0833 50.0712V48.0212H64.625C64.4614 47.3963 64.1515 46.8193 63.7208 46.3379L66.1542 42.8087L64.3833 41.6587L61.9542 45.1879C61.2095 44.9285 60.4075 44.8807 59.6373 45.0499C58.8672 45.2191 58.159 45.5986 57.5917 46.1462C57.2029 46.5228 56.8935 46.9734 56.6817 47.4715C56.4699 47.9695 56.3599 48.505 56.3583 49.0462C56.3583 50.1337 56.8042 51.1795 57.5917 51.9462C58.159 52.4938 58.8672 52.8733 59.6373 53.0425C60.4075 53.2117 61.2095 53.1639 61.9542 52.9045L64.3833 56.4337L66.1333 55.2837L63.7208 51.7545C64.1515 51.2731 64.4614 50.6961 64.625 50.0712H71.0833Z" fill="#1C3C3C"/>
</svg>
