<svg width="100" height="100" viewBox="0 0 100 100" fill="none" xmlns="http://www.w3.org/2000/svg">
<g clip-path="url(#clip0_820_2618)">
<mask id="mask0_820_2618" style="mask-type:luminance" maskUnits="userSpaceOnUse" x="0" y="0" width="101" height="101">
<path d="M0.000162772 0.000366211H100V100H0.000162772V0.000366211Z" fill="white"/>
</mask>
<g mask="url(#mask0_820_2618)">
<path fill-rule="evenodd" clip-rule="evenodd" d="M89.4712 54.5841V41.405C89.4712 39.0716 89.4712 37.7591 89.4129 36.7966C89.4092 36.5223 89.3799 36.2489 89.3254 35.98C89.2049 35.6643 89.0362 35.3691 88.8254 35.105C88.6205 34.9261 88.397 34.7697 88.1587 34.6383C86.8561 33.8147 85.5321 33.0255 84.1879 32.2716L72.7546 25.68C70.7421 24.5133 69.6046 23.8716 68.7296 23.4383C68.5023 23.2986 68.257 23.1907 68.0004 23.1175C67.6626 23.0593 67.3174 23.0593 66.9796 23.1175C66.8921 23.1175 66.6879 23.23 66.2504 23.4383C65.3754 23.8716 64.2671 24.5133 62.2212 25.68L50.7921 32.2675C48.7796 33.4341 47.6421 34.0758 46.8254 34.6341C46.4171 34.8966 46.2421 35.0425 46.1546 35.1008C45.9218 35.3494 45.7506 35.6491 45.6546 35.9758C45.6546 36.0633 45.6004 36.2966 45.5712 36.7925C45.5129 37.7508 45.5129 39.0675 45.5129 41.4008V54.5883C45.5129 56.9216 45.5129 58.2341 45.5712 59.1966C45.6004 59.6925 45.6296 59.9258 45.6546 60.0091C45.7754 60.3341 45.9504 60.6258 46.1546 60.8841C46.2087 60.9466 46.3837 61.0925 46.8212 61.355C47.6421 61.88 48.7504 62.5508 50.7921 63.7175L62.2254 70.3091C64.2379 71.4758 65.3754 72.1175 66.2504 72.5591C66.4791 72.6979 66.7259 72.8045 66.9837 72.8758C67.3215 72.9341 67.6668 72.9341 68.0046 72.8758C68.0879 72.8758 68.2962 72.7591 68.7337 72.555C69.6087 72.1175 70.7171 71.4758 72.7587 70.3091L84.1921 63.7175C86.2046 62.5508 87.3421 61.9091 88.1629 61.355C88.5712 61.0925 88.7462 60.9466 88.8296 60.8883C89.0623 60.6397 89.2336 60.34 89.3296 60.0133C89.3296 59.9216 89.3879 59.6925 89.4129 59.1966C89.4754 58.2341 89.4754 56.9216 89.4754 54.5883L89.4712 54.5841ZM96.6171 28.0133C95.2171 26.4675 93.2921 25.355 89.4712 23.1383L78.0337 16.5466C74.1837 14.33 72.2837 13.2216 70.2421 12.7841C68.4339 12.4055 66.5669 12.4055 64.7587 12.7841C62.7171 13.2216 60.7921 14.33 56.9712 16.5466L45.5421 23.1383C41.6879 25.355 39.7921 26.4675 38.3962 28.0133C37.1712 29.3841 36.2337 30.9883 35.6504 32.7383C35.0087 34.7175 35.0087 36.9383 35.0087 41.3716V54.555C35.0087 58.9925 35.0087 61.2091 35.6504 63.1925C36.2337 64.9425 37.1712 66.5758 38.3962 67.9175C39.7921 69.4591 41.7212 70.5716 45.5421 72.7883L56.9754 79.38C60.8296 81.5966 62.7254 82.705 64.7671 83.1425C66.5754 83.5175 68.4379 83.5175 70.2504 83.1425C72.2921 82.705 74.2171 81.5966 78.0421 79.38L89.4754 72.7883C93.3254 70.5716 95.2254 69.4633 96.6212 67.9133C97.8462 66.5466 98.7796 64.9425 99.3629 63.1925C100.005 61.2091 100.005 58.9925 100.005 54.555V41.3758C100.005 36.9425 100.005 34.7216 99.3629 32.7425C98.7932 30.9902 97.8547 29.3784 96.6171 28.0133Z" fill="#2D9CDB"/>
<path fill-rule="evenodd" clip-rule="evenodd" d="M54.4626 54.5843V41.4051C54.4626 39.0718 54.4626 37.7593 54.4042 36.7968C54.4022 36.5225 54.3743 36.2491 54.3209 35.9801C54.2004 35.6644 54.0317 35.3692 53.8209 35.1051C53.616 34.9262 53.3925 34.7698 53.1542 34.6384C51.8516 33.8148 50.5276 33.0257 49.1834 32.2718L37.7459 25.6759C35.7334 24.5093 34.6001 23.8676 33.7209 23.4343C33.4937 23.2945 33.2483 23.1865 32.9917 23.1134C32.654 23.0553 32.3087 23.0553 31.9709 23.1134C31.8876 23.1134 31.6792 23.2259 31.2417 23.4343C30.3667 23.8676 29.2584 24.5093 27.2167 25.6759L15.7834 32.2676C13.7709 33.4343 12.6334 34.0759 11.8126 34.6343C11.4042 34.8968 11.2292 35.0426 11.1459 35.1009C10.9132 35.3495 10.7419 35.6492 10.6459 35.9759C10.6459 36.0634 10.5876 36.2968 10.5626 36.7926C10.5001 37.7509 10.5001 39.0676 10.5001 41.4009V54.5884C10.5001 56.9218 10.5001 58.2343 10.5584 59.1968C10.5584 59.6926 10.6167 59.9259 10.6459 60.0093C10.7626 60.3343 10.9376 60.6259 11.1459 60.8843C11.3505 61.0647 11.5741 61.2226 11.8126 61.3551C12.6292 61.8801 13.7376 62.5509 15.7834 63.7176L27.2167 70.3093C29.2292 71.4759 30.3667 72.1176 31.2417 72.5593C31.4692 72.6976 31.7145 72.8042 31.9709 72.8759C32.3087 72.9342 32.654 72.9342 32.9917 72.8759C33.0792 72.8759 33.2834 72.7593 33.7209 72.5551C34.5959 72.1176 35.7042 71.4759 37.7459 70.3093L49.1834 63.7176C51.1959 62.5509 52.3334 61.9093 53.1501 61.3551C53.5584 61.0926 53.7334 60.9468 53.8209 60.8884C54.0538 60.6399 54.225 60.3402 54.3209 60.0134C54.3209 59.9218 54.3751 59.6926 54.4042 59.1968C54.4626 58.2343 54.4626 56.9176 54.4626 54.5843ZM61.6126 28.0134C60.2126 26.4676 58.2834 25.3551 54.4626 23.1384L43.0292 16.5468C39.1792 14.3301 37.2792 13.2218 35.2376 12.7843C33.4294 12.4056 31.5624 12.4056 29.7542 12.7843C27.7126 13.2218 25.7876 14.3301 21.9626 16.5468L10.5334 23.1384C6.68341 25.3551 4.78758 26.4676 3.38758 28.0134C2.16258 29.3843 1.22925 30.9884 0.645915 32.7384C8.14037e-05 34.7176 8.14037e-05 36.9384 8.14037e-05 41.3718V54.5551C8.14037e-05 58.9926 8.14037e-05 61.2093 0.641748 63.1926C1.22508 64.9426 2.15841 66.5759 3.38341 67.9176C4.78341 69.4593 6.70841 70.5718 10.5292 72.7884L21.9667 79.3801C25.8167 81.5968 27.7167 82.7051 29.7584 83.1426C31.5626 83.5176 33.4292 83.5176 35.2417 83.1426C37.2834 82.7051 39.2084 81.5968 43.0292 79.3801L54.4626 72.7884C58.3167 70.5718 60.2126 69.4634 61.6126 67.9134C62.8384 66.5429 63.7714 64.9365 64.3542 63.1926C64.9959 61.2093 64.9959 58.9926 64.9959 54.5551V41.3759C64.9959 36.9426 64.9959 34.7218 64.3542 32.7426C63.7842 30.9904 62.8499 29.3787 61.6126 28.0134Z" fill="#2F80ED"/>
<path d="M50.0296 63.2203C50.2921 63.3662 50.5588 63.512 50.8463 63.687L60.3296 69.1703C59.0463 70.1912 57.263 71.212 54.4963 72.8203L50.0296 75.3828L45.5713 72.8203C42.7963 71.2162 41.0171 70.1953 39.738 69.1703L49.2171 63.687C49.5088 63.512 49.7671 63.3662 50.0296 63.2203Z" fill="#2F80ED"/>
</g>
</g>
<defs>
<clipPath id="clip0_820_2618">
<rect width="100" height="100" fill="white"/>
</clipPath>
</defs>
</svg>
