<svg width="102" height="100" viewBox="0 0 102 100" fill="none" xmlns="http://www.w3.org/2000/svg">
<g id="less">
<g id="less_2">
<path id="path19" d="M95.8534 63.8079C95.8534 68.511 92.0054 72.3591 87.3023 72.3591H15.429C10.7259 72.3591 6.8779 68.511 6.8779 63.8079V36.5751C6.8779 31.8719 10.7259 28.0239 15.429 28.0239H87.3023C92.0054 28.0239 95.8534 31.8719 95.8534 36.5751V63.8079Z" fill="url(#paint0_linear_790_1095)"/>
<path id="path21" d="M80.8183 49.6098C84.5748 50.924 86.4522 53.1758 86.4522 56.3617C86.4522 58.4588 85.6736 60.1232 84.1198 61.3543C82.5676 62.5862 80.3533 63.3507 77.471 63.3507C74.5888 63.3507 71.9227 62.5156 69.4672 61.1447C69.4938 60.4176 69.6859 59.6199 70.0387 58.7541C70.3914 57.8882 70.8089 57.2003 71.2873 56.6978C73.5441 57.8706 75.508 58.458 77.175 58.458C77.9628 58.458 78.5724 58.3258 78.9967 58.0596C79.4217 57.7943 79.633 57.4382 79.633 56.9907C79.633 56.1498 78.9817 55.5208 77.6833 55.1017L75.3508 54.2207C71.8223 52.9347 70.0579 50.8394 70.0579 47.9288C70.0579 45.8035 70.7991 44.119 72.2814 42.8729C73.7638 41.6286 75.7618 40.5571 78.2739 40.5571C79.5167 40.5571 80.885 40.7318 82.3822 41.0812C83.8778 41.4315 85.1065 42.2941 86.0664 42.7681C86.123 43.5516 85.9658 44.4117 85.6007 45.3483C85.233 46.2858 84.7822 46.9495 84.244 47.3414C81.8709 46.2783 79.8961 45.7468 78.314 45.7468C77.7475 45.7468 77.3208 45.8724 77.0213 46.1253C76.7251 46.3774 76.5795 46.6983 76.5795 47.0902C76.5795 47.7615 77.1152 48.2922 78.1891 48.684L80.8183 49.6098Z" fill="#F6F6F6"/>
<path id="path23" d="M62.0557 49.6098C65.8122 50.924 67.6888 53.1758 67.6888 56.3617C67.6888 58.4588 66.9102 60.1232 65.3589 61.3543C63.8051 62.5862 61.59 63.3507 58.7086 63.3507C55.8288 63.3507 53.1594 62.5156 50.7047 61.1447C50.7313 60.4176 50.9235 59.6199 51.277 58.7541C51.6297 57.8882 52.0455 57.2003 52.5256 56.6978C54.7849 57.8706 56.7479 58.458 58.4141 58.458C59.2026 58.458 59.8123 58.3258 60.2349 58.0596C60.6584 57.7943 60.8713 57.4382 60.8713 56.9907C60.8713 56.1498 60.22 55.5208 58.9215 55.1017L56.5907 54.2207C53.0613 52.9347 51.2962 50.8394 51.2962 47.9288C51.2962 45.8035 52.0374 44.119 53.5213 42.8729C55.0028 41.6286 56.9999 40.5571 59.5121 40.5571C60.754 40.5571 62.1257 40.7318 63.6196 41.0812C65.1169 41.4315 66.3439 42.2941 67.3046 42.7681C67.3612 43.5516 67.2039 44.4117 66.8389 45.3483C66.472 46.2858 66.0204 46.9495 65.483 47.3414C63.1089 46.2783 61.1342 45.7468 59.5513 45.7468C58.9857 45.7468 58.5573 45.8724 58.2595 46.1253C57.9641 46.3774 57.817 46.6983 57.817 47.0902C57.817 47.7615 58.3534 48.2922 59.4273 48.684L62.0557 49.6098Z" fill="#F6F6F6"/>
<path id="path25" d="M48.3731 49.9058C48.3731 48.6198 48.1684 47.4311 47.7592 46.3397C47.3508 45.2484 46.7643 44.3125 46.0024 43.529C45.2395 42.7454 44.3154 42.1306 43.229 41.6831C42.1409 41.2364 40.9198 40.5626 39.5648 40.5626C37.9551 40.5626 36.5503 41.2913 35.3508 41.8511C34.1514 42.4102 33.1631 43.1787 32.387 44.1578C31.6092 45.1376 31.0303 46.2906 30.6493 47.619C30.2683 48.9474 30.0778 50.3947 30.0778 51.9602C30.0778 53.5807 30.2325 55.0795 30.5436 56.4495C30.8539 57.8179 31.3837 59.0057 32.1316 60.014C32.8802 61.0204 33.8543 61.8032 35.0546 62.3613C36.2549 62.9204 37.7447 63.3496 39.5231 63.3496C42.798 63.3496 45.5647 62.4013 47.8239 60.8084C47.6001 59.1879 47.0228 57.8994 46.0954 56.9486C44.9416 57.3819 43.9209 57.6922 43.0359 57.8828C42.15 58.0709 41.3689 58.1657 40.6944 58.1657C39.3443 58.1657 38.3727 57.8221 37.783 57.1285C37.194 56.4372 36.8708 55.6196 36.8136 54.3776H47.8255C48.1893 53.2015 48.3731 51.6119 48.3731 49.9058ZM36.7717 50.1962C36.8556 48.7688 37.116 47.2415 37.5494 46.6127C37.9837 45.9831 38.6483 45.6686 39.5457 45.6686C40.47 45.6686 41.1637 46.003 41.6253 46.6743C42.0879 47.3456 42.319 48.6981 42.319 49.7329L42.3198 50.1962H36.7717Z" fill="#F6F6F6"/>
<path id="path27" d="M98.0704 52.9869C96.8734 54.0325 96.1788 55.5372 96.1788 57.5045V64.8312C96.1788 67.2668 95.4301 69.1192 93.739 70.3927C92.0496 71.6646 90.0798 72.2943 87.8314 72.3549L86.4989 72.3449V68.6941C87.6735 68.3514 88.1558 67.953 88.6233 67.5005C89.4702 66.7352 90.119 65.4899 90.119 63.7606V57.8456C90.1505 55.835 90.3053 54.2596 91.0372 53.1216C91.7718 51.9837 93.2016 50.9888 95.3269 50.1295C92.9796 49.0548 91.4032 47.6515 90.5996 45.9205C90.1272 44.8924 90.118 43.5049 90.118 41.7597V36.3354C90.118 34.5436 89.5316 33.2885 88.8104 32.5722C88.3413 32.1047 87.7955 31.7312 86.4971 31.4493V28.0221C88.0851 28.0387 88.8869 28.0205 89.8119 28.0221C91.236 28.0105 92.4289 28.7891 93.4669 29.6001C94.5975 30.4893 95.4009 31.6913 95.8717 33.2043C96.1396 34.0786 96.1778 34.9138 96.1778 35.7089V41.9826C96.1778 44.1985 96.8325 45.8456 97.9513 46.9211C98.5819 47.545 99.4719 48.1155 101 48.6305V51.4646C99.6459 51.839 98.7957 52.3463 98.0704 52.9869Z" fill="#F6F6F6" stroke="#404040" stroke-width="0.538843" stroke-miterlimit="10"/>
<path id="path29" d="M13.8374 28.024V28.0289C13.3824 28.0264 12.9706 28.0247 12.6413 28.0256C11.2163 28.0131 10.0236 28.7917 8.98635 29.6035C7.85424 30.4927 6.88523 31.6532 6.58165 33.2078C6.40862 34.1195 6.44523 34.9163 6.44523 35.7124V41.9861C6.44523 44.2012 5.62089 45.8474 4.50291 46.9247C3.87315 47.5485 2.5289 48.1182 1 48.6331V51.467C2.35503 51.8406 3.65943 52.3463 4.38303 52.9885C5.58083 54.0349 6.44419 55.5406 6.44419 57.5077V64.8343C6.44419 67.2683 7.02488 69.1225 8.71425 70.3942C10.4037 71.6652 12.3726 72.2974 14.621 72.3589L16.1258 72.3489V68.6955C14.952 68.352 14.3 67.9535 13.83 67.5027C12.984 66.7365 12.5048 65.4921 12.5048 63.7636V57.8478C12.4724 55.8357 12.148 54.2618 11.4152 53.123C10.6824 51.9867 9.25248 50.9902 7.12468 50.1317C9.473 49.0562 11.0484 47.6537 11.852 45.9235C12.3253 44.8946 12.505 43.5071 12.505 41.762V36.3377C12.505 34.5459 12.9208 33.2908 13.6412 32.5738C14.0322 32.1845 14.7275 31.8642 15.6934 31.6047L17.2206 31.6154C17.2206 30.3009 17.2206 29.478 17.2206 28.0237H13.8376V28.024H13.8374Z" fill="#F6F6F6" stroke="#404040" stroke-width="0.538843" stroke-miterlimit="10"/>
<path id="path31" d="M27.9178 57.7482H26.774C25.5305 57.7482 25.0622 57.0944 25.0622 55.781V31.6424C25.0622 30.191 24.643 29.1719 24.1063 28.5848C23.5698 27.9991 22.6382 28.005 21.3114 28.005H18.7286L18.4242 27.9991V28.024L18.4217 31.6167V56.949C18.4217 58.9636 18.8742 60.4377 19.6793 61.3759C20.4853 62.3125 21.8471 62.78 23.7669 62.78C25.0945 62.78 26.6051 62.6403 28.2986 62.3599C28.3835 62.077 28.426 61.4715 28.426 60.5424C28.426 59.6107 28.2564 58.6816 27.9178 57.7482Z" fill="#F6F6F6"/>
</g>
</g>
<defs>
<linearGradient id="paint0_linear_790_1095" x1="51.3657" y1="28.0239" x2="51.3657" y2="72.3591" gradientUnits="userSpaceOnUse">
<stop offset="0.1497" stop-color="#2A4F84"/>
<stop offset="0.3884" stop-color="#294E82"/>
<stop offset="1" stop-color="#172E4E"/>
</linearGradient>
</defs>
</svg>
