<svg width="100" height="100" viewBox="0 0 100 100" fill="none" xmlns="http://www.w3.org/2000/svg">
<g clip-path="url(#clip0_820_2631)">
<path d="M58.2339 49.6273C58.2339 49.6273 58.0048 40.1106 62.8173 34.444C67.6256 28.7815 73.8089 24.4731 77.7006 21.7565C81.5964 19.0398 87.0923 15.6356 86.4048 10.769C85.7173 5.89396 81.8714 2.66479 65.1548 2.66479C48.4381 2.66479 36.9464 4.2023 26.2923 9.74813C15.6423 15.2981 20.1589 22.4731 24.6923 23.6856C28.6923 24.7565 33.7881 25.1856 37.8256 29.4481C45.1506 37.169 44.3798 49.0606 44.3798 49.0606L58.2339 49.6273Z" fill="url(#paint0_radial_820_2631)"/>
<path d="M30.7503 53.4767C30.7503 53.4767 17.7003 71.3809 14.2587 75.8017C10.817 80.2184 3.72533 87.4684 4.18783 88.3726C4.64616 89.2767 10.0295 91.4309 10.0295 91.4309C10.0295 91.4309 37.2795 95.2809 39.4503 95.2809C41.6253 95.2809 86.2795 82.7101 86.2795 82.7101C86.2795 82.7101 70.5962 49.5101 65.5503 51.4351C60.5087 53.3642 30.7503 53.4767 30.7503 53.4767Z" fill="#717578"/>
<path d="M52.0463 64.1258C52.0463 64.1258 48.1546 67.5216 46.3255 69.3383C44.4921 71.1591 39.3671 75.2341 40.0338 75.9091C40.5755 76.4633 48.313 72.9841 49.1171 72.5841C49.8088 72.2466 58.3505 69.1049 58.9213 69.9049C59.4921 70.7008 57.0046 72.5841 56.1755 73.7549C55.4046 74.8424 41.7671 88.4383 38.5463 89.2758C36.2296 89.8841 22.1713 90.6383 21.713 89.5008C21.2505 88.3758 26.7463 80.6674 25.3796 79.5299C24.0046 78.3966 18.388 82.0424 15.0713 83.9716C11.7588 85.8966 6.60462 88.3633 5.80046 88.4799C4.99629 88.5966 4.19629 88.3633 4.19629 88.3633C4.19629 88.3633 3.95462 89.7799 11.0713 93.0049C16.6755 95.5466 21.2588 97.8799 36.6088 99.3508C51.9546 100.822 62.9421 99.4674 69.3504 98.5549C75.7671 97.6466 87.5546 94.0174 90.6505 92.6633C93.738 91.3049 96.1296 89.9008 95.8046 88.9299C95.688 88.5883 77.8296 65.1383 77.8296 65.1383L68.1921 50.9883L52.0463 64.1216V64.1258Z" fill="#474B4E"/>
<path d="M40.7919 40.9556C37.2294 41.4806 35.9585 45.4806 32.2502 50.1473C30.1127 52.8389 28.2835 54.6639 27.2669 55.8973C26.1252 57.2806 24.6127 60.1389 26.1252 60.9431C27.6335 61.7473 29.9669 59.3431 30.6044 58.0139C31.2377 56.6931 32.1752 55.3389 33.0585 56.2681C33.9377 57.1973 33.996 58.8181 31.7377 60.6848C29.4752 62.5556 26.8294 64.7306 27.0835 66.6639C27.3335 68.6014 28.6502 69.1556 30.1627 68.7181C31.671 68.2848 35.321 64.1098 36.7044 62.0556C38.0919 60.0056 40.2877 56.4514 41.8002 56.4514C43.3127 56.4514 43.2877 59.5639 40.2919 63.0514C36.8335 67.0806 35.146 68.4764 31.0419 72.1473C26.7794 75.9514 27.3335 77.3139 28.0877 78.0598C28.846 78.8098 30.9835 78.9889 34.0627 76.3806C37.146 73.7639 41.4919 68.8514 43.3794 66.6639C45.2669 64.4889 46.9627 62.1223 48.921 62.2473C50.871 62.3723 50.3627 64.2973 50.6127 65.2389C50.8627 66.1681 50.8627 67.9098 53.1877 67.9098C55.5127 67.9098 56.771 65.5431 57.5294 63.6764C58.2794 61.8056 58.2169 59.3181 59.7252 59.0681C61.2377 58.8181 61.421 60.3139 62.621 62.6806C63.8127 65.0473 68.4127 74.8764 69.546 76.6223C70.6794 78.3681 71.9377 81.6639 75.646 80.5389C79.3544 79.4223 74.5794 72.6348 73.446 70.9514C72.3127 69.2723 69.0419 63.6014 67.7794 59.8056C66.5252 56.0139 66.5252 54.8223 67.346 54.2014C68.1585 53.5764 69.546 55.3223 71.3752 58.6848C73.196 62.0473 74.7752 65.1639 76.2169 66.4098C77.6585 67.6556 78.9169 67.5306 79.5502 66.9639C80.1752 66.4098 80.4294 64.2889 78.7919 62.6723C76.8549 60.699 75.0993 58.5557 73.546 56.2681C71.3701 53.0094 69.3023 49.6799 67.346 46.2848C65.8377 43.6723 64.971 41.8764 62.9169 41.5598C60.2544 41.1556 58.3419 43.1223 56.8335 44.1764C55.321 45.2306 53.2502 45.7973 51.1669 45.6723C49.0919 45.5473 46.3252 43.3056 45.1919 42.3098C44.0669 41.3306 42.9335 40.6473 40.796 40.9556H40.7919Z" fill="url(#paint1_radial_820_2631)"/>
<path d="M42.6505 44.3274C42.6505 44.3274 44.0755 44.6274 45.1172 45.3982C46.1588 46.1732 48.7172 48.2399 52.0463 48.1899C55.3797 48.1482 57.2338 46.5649 58.5755 45.7899C59.9213 45.0191 61.1713 45.1482 61.1713 45.1482C61.1713 45.1482 58.913 53.8607 52.2088 54.1191C43.438 54.4607 42.6505 44.3274 42.6505 44.3274Z" fill="#EC5F32"/>
<path d="M84.3421 45.5075C83.1171 45.6825 83.7546 47.42 83.9254 51.52C84.1046 55.6242 84.0629 57.3534 86.0338 57.3575C88.5046 57.3659 87.7296 52.2117 87.2588 50.6492C86.8004 49.0867 85.8171 45.2992 84.3421 45.5075Z" fill="url(#paint2_radial_820_2631)"/>
<path d="M84.046 25.5016C83.5085 26.5641 85.2127 27.7599 86.7918 29.6058C87.8543 30.8558 89.4168 33.9391 91.5835 34.1724C93.7502 34.4016 94.0002 31.8308 92.9252 30.3516C91.8752 28.9058 90.0627 27.4599 88.0168 26.4224C85.9752 25.3849 84.4585 24.6891 84.046 25.5016Z" fill="url(#paint3_radial_820_2631)"/>
<path d="M56.4129 15.2056C57.0587 15.4972 57.6962 15.0889 57.9295 14.2222C58.0837 13.6514 60.667 9.49725 64.4754 6.94308C67.5712 4.85975 69.0337 4.85975 70.6129 4.22642C71.5712 3.83475 72.4254 2.37225 71.9545 1.27642C71.5087 0.23475 70.5504 -0.16525 68.9754 0.0680838C67.9754 0.213917 64.3337 1.13475 60.7337 4.98475C56.2962 9.72225 56.0587 13.0181 55.942 13.5931C55.8254 14.1681 55.792 14.9222 56.4129 15.2056Z" fill="url(#paint4_radial_820_2631)"/>
<path d="M47.8753 15.727C46.6753 16.0437 45.6545 14.3395 43.5003 12.1437C41.3337 9.93951 39.4087 9.65617 38.3503 8.31868C37.2962 6.98534 37.4795 5.48534 38.4128 4.67701C39.342 3.86867 40.9795 3.75201 42.4378 4.84784C43.8962 5.94367 45.7712 8.03117 47.1128 10.9187C47.842 12.4812 48.992 15.4353 47.8753 15.727Z" fill="url(#paint5_radial_820_2631)"/>
<path d="M19.5003 24.5423C18.6545 23.7548 15.2837 25.1507 12.6962 27.3007C11.4628 28.3257 10.2212 29.5382 9.70866 30.809C9.28366 31.8882 9.30033 33.2548 10.3045 33.9215C11.2128 34.5173 12.3212 34.2382 13.0962 33.6465C14.1587 32.8257 14.8962 31.1715 15.517 30.259C16.6087 28.6632 18.4212 27.1465 19.017 26.6382C19.5587 26.1632 20.142 25.1382 19.5045 24.5465L19.5003 24.5423Z" fill="url(#paint6_radial_820_2631)"/>
<path d="M22.3004 46.3754C21.3254 46.0795 19.8629 47.1337 18.6379 51.767C17.5545 55.867 17.2212 59.5629 19.9504 59.6295C22.817 59.7045 21.6254 55.5712 21.9629 51.8379C22.2962 48.1129 23.2712 46.6712 22.2962 46.3795L22.3004 46.3754Z" fill="url(#paint7_radial_820_2631)"/>
<path d="M22.0421 40.9977C23.6421 41.3143 24.4796 40.1102 24.8088 39.006C25.0671 38.1227 26.1671 33.5393 31.8921 33.0268C37.4296 32.5268 41.3921 38.0393 41.9629 38.6477C42.5379 39.2518 43.2963 39.3602 43.7213 38.931C44.1004 38.556 44.0254 37.8685 43.6463 36.9352C43.2546 35.9393 38.6796 28.1602 30.5546 29.181C22.8588 30.1435 20.2004 36.0143 20.2671 38.256C20.3254 39.8268 20.7838 40.7477 22.0421 40.9977Z" fill="url(#paint8_radial_820_2631)"/>
<path d="M58.5251 39.9942C59.5668 40.3359 60.0543 39.1859 60.4293 38.6484C60.8085 38.1067 62.8126 34.3067 66.3793 32.4859C69.9543 30.6692 72.6418 30.4692 76.0043 31.9817C77.796 32.7859 79.0543 34.9609 79.8168 36.2901C80.8418 38.0734 82.2668 38.5484 83.6251 37.8026C84.9876 37.0609 85.1876 34.8359 83.1835 32.1776C81.5585 30.0276 77.9335 26.3567 71.5085 26.9984C61.271 28.0109 58.5085 36.8859 58.2418 37.7359C57.9501 38.7151 57.8126 39.7609 58.5251 39.9942Z" fill="url(#paint9_radial_820_2631)"/>
<path d="M53.5918 41.9089C54.6585 42.0173 54.9335 41.5506 55.2293 39.7256C55.896 35.6131 56.9335 27.8506 62.4377 21.5714C66.7835 16.6131 71.6752 17.2131 73.8335 18.5423C75.721 19.7048 76.1835 20.8173 76.946 21.6256C77.7085 22.4298 79.246 23.3923 80.621 22.4298C81.771 21.6298 82.0585 19.5964 80.0585 17.3714C78.0627 15.1464 76.0252 13.3298 71.0168 12.9214C66.0043 12.5131 61.0543 15.7006 58.3918 19.5464C55.7335 23.3923 53.7918 28.8464 53.1835 32.5464C52.5668 36.2381 52.5168 39.5173 52.5168 40.2839C52.5168 41.0339 52.721 41.8173 53.5918 41.9089Z" fill="url(#paint10_radial_820_2631)"/>
<path d="M49.3211 41.9167C50.4377 41.75 50.5961 40.9042 50.4461 39.5917C50.2919 38.2792 49.2961 31.0625 47.2961 25.45C45.3086 19.8375 42.2961 14.6042 36.4127 13.5167C30.5377 12.4292 25.8669 16.5167 25.2086 17.1875C24.1877 18.2417 23.1211 20.0042 24.3961 21.4209C25.6711 22.8417 27.7377 21.7375 29.0627 20.3167C30.3877 18.9 32.6211 16.9625 36.2544 18.075C39.8794 19.1875 41.6002 22.55 43.1877 25.7417C44.7711 28.9292 46.0294 33.5209 46.6919 35.95C47.3586 38.3709 47.7752 40.2917 48.0377 41.0042C48.2961 41.6709 48.8086 41.9875 49.3211 41.9167Z" fill="url(#paint11_radial_820_2631)"/>
</g>
<defs>
<radialGradient id="paint0_radial_820_2631" cx="0" cy="0" r="1" gradientUnits="userSpaceOnUse" gradientTransform="translate(2282.59 4804.96) scale(4440.1 4440.21)">
<stop offset="0.1743" stop-color="#E79F68"/>
<stop offset="0.2776" stop-color="#E6A272"/>
<stop offset="0.4528" stop-color="#E3AB8D"/>
<stop offset="0.5312" stop-color="#E2AF9B"/>
<stop offset="0.7833" stop-color="#E1D1CC"/>
<stop offset="0.8828" stop-color="#E0E0E0"/>
</radialGradient>
<radialGradient id="paint1_radial_820_2631" cx="0" cy="0" r="1" gradientUnits="userSpaceOnUse" gradientTransform="translate(468.018 2563.05) rotate(90) scale(5695.69 3046.13)">
<stop offset="0.3896" stop-color="#CB2D30"/>
<stop offset="0.4916" stop-color="#D23730"/>
<stop offset="0.6646" stop-color="#E45231"/>
<stop offset="0.7153" stop-color="#EA5B31"/>
<stop offset="0.7921" stop-color="#EA6032"/>
<stop offset="0.887" stop-color="#EC6F36"/>
<stop offset="0.9672" stop-color="#ED823A"/>
</radialGradient>
<radialGradient id="paint2_radial_820_2631" cx="0" cy="0" r="1" gradientUnits="userSpaceOnUse" gradientTransform="translate(-30.5241 -72.8896) scale(1027.37 1027.75)">
<stop offset="0.0448" stop-color="#CB2D30"/>
<stop offset="0.3439" stop-color="#D23730"/>
<stop offset="0.8512" stop-color="#E45231"/>
<stop offset="1" stop-color="#EA5B31"/>
</radialGradient>
<radialGradient id="paint3_radial_820_2631" cx="0" cy="0" r="1" gradientUnits="userSpaceOnUse" gradientTransform="translate(-188.152 -103.251) scale(1319.95 1319.8)">
<stop offset="0.2939" stop-color="#CB2D30"/>
<stop offset="0.5149" stop-color="#D23730"/>
<stop offset="0.89" stop-color="#E45231"/>
<stop offset="1" stop-color="#EA5B31"/>
</radialGradient>
<radialGradient id="paint4_radial_820_2631" cx="0" cy="0" r="1" gradientUnits="userSpaceOnUse" gradientTransform="translate(36.0239 2017.1) scale(1988.8 1988.74)">
<stop offset="0.0448" stop-color="#CB2D30"/>
<stop offset="0.3439" stop-color="#D23730"/>
<stop offset="0.8512" stop-color="#E45231"/>
<stop offset="1" stop-color="#EA5B31"/>
</radialGradient>
<radialGradient id="paint5_radial_820_2631" cx="0" cy="0" r="1" gradientUnits="userSpaceOnUse" gradientTransform="translate(1403.24 1416.68) scale(1599.11 1599.36)">
<stop offset="0.4232" stop-color="#CB2D30"/>
<stop offset="0.6038" stop-color="#D23730"/>
<stop offset="0.9102" stop-color="#E45231"/>
<stop offset="1" stop-color="#EA5B31"/>
</radialGradient>
<radialGradient id="paint6_radial_820_2631" cx="0" cy="0" r="1" gradientUnits="userSpaceOnUse" gradientTransform="translate(1294.71 -223.122) scale(1389.54 1390)">
<stop offset="0.3406" stop-color="#CB2D30"/>
<stop offset="0.547" stop-color="#D23730"/>
<stop offset="0.8973" stop-color="#E45231"/>
<stop offset="1" stop-color="#EA5B31"/>
</radialGradient>
<radialGradient id="paint7_radial_820_2631" cx="0" cy="0" r="1" gradientUnits="userSpaceOnUse" gradientTransform="translate(482.677 -180.984) scale(1601.46 1601.34)">
<stop offset="0.4833" stop-color="#CB2D30"/>
<stop offset="0.6451" stop-color="#D23730"/>
<stop offset="0.9195" stop-color="#E45231"/>
<stop offset="1" stop-color="#EA5B31"/>
</radialGradient>
<radialGradient id="paint8_radial_820_2631" cx="0" cy="0" r="1" gradientUnits="userSpaceOnUse" gradientTransform="translate(609.612 627.352) scale(940.554 940.637)">
<stop offset="0.0448" stop-color="#CB2D30"/>
<stop offset="0.3439" stop-color="#D23730"/>
<stop offset="0.8512" stop-color="#E45231"/>
<stop offset="1" stop-color="#EA5B31"/>
</radialGradient>
<radialGradient id="paint9_radial_820_2631" cx="0" cy="0" r="1" gradientUnits="userSpaceOnUse" gradientTransform="translate(686.531 683.634) scale(1053.29 1053.33)">
<stop offset="0.0448" stop-color="#CB2D30"/>
<stop offset="0.3439" stop-color="#D23730"/>
<stop offset="0.8512" stop-color="#E45231"/>
<stop offset="1" stop-color="#EA5B31"/>
</radialGradient>
<radialGradient id="paint10_radial_820_2631" cx="0" cy="0" r="1" gradientUnits="userSpaceOnUse" gradientTransform="translate(-1289.96 1309.99) scale(3532 3531.54)">
<stop offset="0.3943" stop-color="#CB2D30"/>
<stop offset="0.5839" stop-color="#D23730"/>
<stop offset="0.9057" stop-color="#E45231"/>
<stop offset="1" stop-color="#EA5B31"/>
</radialGradient>
<radialGradient id="paint11_radial_820_2631" cx="0" cy="0" r="1" gradientUnits="userSpaceOnUse" gradientTransform="translate(3686.62 2121.36) scale(3382.04 3382.39)">
<stop offset="0.4205" stop-color="#CB2D30"/>
<stop offset="0.6019" stop-color="#D23730"/>
<stop offset="0.9097" stop-color="#E45231"/>
<stop offset="1" stop-color="#EA5B31"/>
</radialGradient>
<clipPath id="clip0_820_2631">
<rect width="100" height="100" fill="white"/>
</clipPath>
</defs>
</svg>
