<svg width="100" height="100" viewBox="0 0 100 100" fill="none" xmlns="http://www.w3.org/2000/svg">
<g id="logrocket">
<g id="logrocket_2">
<path id="Vector" fill-rule="evenodd" clip-rule="evenodd" d="M39.0941 11.2693C41.898 6.78711 45.6173 2.94699 50.0057 -0.000854492C54.3378 2.87818 58.009 6.64535 60.7776 11.0484C68.0868 21.1844 71.7725 33.4824 71.2453 45.968C73.5175 47.8006 75.8587 49.56 78.0936 51.428C81.2978 54.2842 82.7884 58.5954 82.0358 62.8192C80.956 68.0248 79.9219 73.2408 78.7816 78.434C78.0248 80.7042 75.5669 81.9322 73.2945 81.1732C72.8984 81.0398 72.5253 80.8521 72.1812 80.6124C68.514 77.6668 64.9409 74.6189 61.2864 71.6709C58.4655 74.3122 54.8172 75.8967 50.9625 76.1531C46.5137 76.3699 42.1629 74.8024 38.8751 71.7961C36.2484 73.7285 33.8071 76.051 31.2387 78.1253C30.113 79.2303 28.86 80.1954 27.5028 81.0022C25.2701 81.8675 22.7579 80.7605 21.8907 78.5276C21.849 78.4193 21.8114 78.3108 21.7781 78.2005C20.6044 73.1219 19.3765 68.0601 18.2403 62.9755C17.3563 58.56 18.9491 54.0111 22.3973 51.1133C24.3924 49.5037 26.4125 47.9235 28.4472 46.36C29.0122 46.0723 28.7287 45.426 28.7579 44.9277C28.4868 32.8902 32.1206 21.0865 39.1128 11.286M42.7111 27.005C40.0552 30.4261 40.3741 35.2961 43.4596 38.3398C47.0098 41.8048 52.6388 41.9216 56.3287 38.6046C58.9534 36.2385 59.856 32.5026 58.5989 29.1983C57.3252 26.019 54.3711 23.8217 50.9583 23.5173C47.7937 23.188 44.6813 24.5033 42.7091 27.0008" fill="#754ABC"/>
<path id="Vector_2" d="M37.8268 82.4359C37.9123 81.2475 38.9442 80.3531 40.1326 80.4365C40.4453 80.4594 40.7497 80.5491 41.0248 80.7014C46.6974 83.4448 53.3144 83.4448 58.9892 80.7014C60.0442 80.1239 61.368 80.5117 61.9452 81.5687C62.0724 81.7979 62.1558 82.0481 62.1914 82.3087C62.2081 85.4878 62.2081 88.6671 62.1914 91.8464C62.0724 93.0286 61.0177 93.8916 59.8356 93.7707C59.4749 93.7353 59.1309 93.6081 58.8329 93.4037C57.88 92.595 57.0212 91.6859 56.1059 90.8353C54.6509 93.5558 53.2873 96.314 51.8238 99.0263C51.1589 100.029 49.8057 100.3 48.803 99.6352C48.5695 99.4788 48.3674 99.2807 48.2088 99.0492C46.7412 96.3307 45.384 93.5558 43.9019 90.8395C42.999 91.6943 42.138 92.6012 41.1833 93.408C40.1993 94.0771 38.8588 93.8207 38.1895 92.8367C37.9873 92.5385 37.8622 92.1925 37.8268 91.8318C37.8018 88.6963 37.8268 85.5588 37.8268 82.4232" fill="#754ABC"/>
<path id="Vector_3" d="M49.9362 36.6372C52.3443 36.6935 54.3392 34.7859 54.3955 32.3801V32.3529C54.3559 29.947 52.3734 28.027 49.9675 28.0646L49.9362 28.0666C47.5305 28.0126 45.5353 29.9201 45.4833 32.3258L45.4811 32.3529C45.5229 34.7608 47.5076 36.6788 49.9133 36.6372H49.9362Z" fill="#754ABC"/>
</g>
</g>
</svg>
