<svg width="100" height="100" viewBox="0 0 100 100" fill="none" xmlns="http://www.w3.org/2000/svg">
<g id="lua">
<g id="lua_2">
<path id="Vector" d="M93.1626 27.6106C98.5305 38.1459 99.8854 50.2734 96.9748 61.7336C94.0642 73.1938 87.0867 83.2051 77.3422 89.9023C67.5976 96.5994 55.7507 99.5257 44.0087 98.1359C32.2666 96.7461 21.4302 91.135 13.5184 82.3481C5.60657 73.5611 1.15895 62.1975 1.00418 50.3745C0.849406 38.5515 4.99803 27.0753 12.6771 18.0843C20.3562 9.09318 31.042 3.20035 42.7437 1.50365C54.4453 -0.193045 66.3648 2.42212 76.2813 8.86191" stroke="#808080" stroke-width="1.1309" stroke-dasharray="4.25 4.25"/>
<path id="Vector_2" d="M49.7372 87.4328C70.5562 87.4328 87.4333 70.5557 87.4333 49.7367C87.4333 28.9177 70.5562 12.0405 49.7372 12.0405C28.9182 12.0405 12.041 28.9177 12.041 49.7367C12.041 70.5557 28.9182 87.4328 49.7372 87.4328Z" fill="#000080"/>
<path id="Vector_3" d="M65.3515 45.1633C71.4493 45.1633 76.3925 40.22 76.3925 34.1223C76.3925 28.0245 71.4493 23.0813 65.3515 23.0813C59.2538 23.0813 54.3105 28.0245 54.3105 34.1223C54.3105 40.22 59.2538 45.1633 65.3515 45.1633Z" fill="white"/>
<path id="Vector_4" d="M87.4332 23.0817C93.531 23.0817 98.4743 18.1384 98.4743 12.0406C98.4743 5.94278 93.531 0.999512 87.4332 0.999512C81.3354 0.999512 76.3921 5.94278 76.3921 12.0406C76.3921 18.1384 81.3354 23.0817 87.4332 23.0817Z" fill="#000080"/>
<path id="Vector_5" d="M39.5256 68.5843V65.8023H27.3119V43.8516H24.1567V68.5843H39.5256Z" fill="white"/>
<path id="Vector_6" d="M56.4815 68.5842V50.8065H53.6656V60.6114C53.6656 64.2416 51.7657 66.6165 48.814 66.6165C46.5749 66.6165 45.1499 65.2594 45.1499 63.122V50.8065H42.334V64.2416C42.334 67.1932 44.5392 69.0931 47.9998 69.0931C50.6122 69.0931 52.2746 68.1771 53.937 65.8362V68.5842H56.4815Z" fill="white"/>
<path id="Vector_7" d="M77.1649 68.5164V66.379C76.8596 66.4468 76.7239 66.4468 76.5543 66.4468C75.5704 66.4468 75.0275 65.9379 75.0275 65.0558V55.1492C75.0275 51.994 72.7205 50.2976 68.3439 50.2976C64.0352 50.2976 61.3889 51.96 61.2193 56.0652H64.0691C64.3066 53.8939 65.5959 52.91 68.2422 52.91C70.7867 52.91 72.2116 53.8599 72.2116 55.5563V56.3027C72.2116 57.4901 71.4991 57.999 69.26 58.2704C65.2566 58.7793 64.6459 58.915 63.5602 59.3561C61.4907 60.2043 60.439 61.7988 60.439 63.9702C60.439 67.1932 62.6781 69.0931 66.2744 69.0931C68.5475 69.0931 70.7528 68.1432 72.3134 66.4807C72.6187 67.8378 73.8401 68.8217 75.2311 68.8217C75.8079 68.8217 76.2489 68.7539 77.1649 68.5164ZM72.2116 62.4434C72.2116 64.988 69.6332 66.6165 66.8851 66.6165C64.6798 66.6165 63.3906 65.8361 63.3906 63.9023C63.3906 62.0363 64.6459 61.2221 67.6654 60.781C70.651 60.3739 71.2617 60.2382 72.2116 59.7971V62.4434Z" fill="white"/>
</g>
</g>
</svg>
