<svg width="100" height="100" viewBox="0 0 100 100" fill="none" xmlns="http://www.w3.org/2000/svg">
<g id="lunacy">
<g id="lunacy_2">
<path id="Vector" d="M0 39.9991C0 25.9981 0 18.9971 2.725 13.6491C5.1218 8.9453 8.94616 5.12094 13.65 2.72415C18.998 -0.000854492 26 -0.000854492 40 -0.000854492H60C74.001 -0.000854492 81.002 -0.000854492 86.35 2.72415C91.0538 5.12094 94.8782 8.9453 97.275 13.6491C100 18.9971 100 25.9991 100 39.9991V59.9991C100 74.0001 100 81.0011 97.275 86.3491C94.8782 91.053 91.0538 94.8773 86.35 97.2741C81.002 99.9991 74 99.9991 60 99.9991H40C25.999 99.9991 18.998 99.9991 13.65 97.2741C8.94616 94.8773 5.1218 91.053 2.725 86.3491C0 81.0011 0 73.9991 0 59.9991V39.9991Z" fill="#179DE3"/>
<path id="Vector_2" d="M77.48 34.6182C75.2168 33.7782 73.1614 32.4598 71.4544 30.7527C69.7474 29.0457 68.4289 26.9904 67.589 24.7272C66.7481 26.9898 65.4293 29.0445 63.7224 30.7512C62.0155 32.4579 59.9607 33.7765 57.698 34.6172C59.9605 35.4585 62.0151 36.7776 63.7218 38.4846C65.4285 40.1917 66.7471 42.2465 67.588 44.5092C68.4288 42.2463 69.7478 40.1913 71.4549 38.4844C73.1619 36.7775 75.217 35.4588 77.48 34.6182Z" fill="white"/>
<path id="Vector_3" d="M50.1221 24.9991H25.1221V74.9991H75.1121V49.9991L50.1221 74.9891V24.9991Z" fill="white"/>
</g>
</g>
</svg>
