<svg width="100" height="100" viewBox="0 0 100 100" fill="none" xmlns="http://www.w3.org/2000/svg">
<g clip-path="url(#clip0_820_2670)">
<path d="M29.1211 16.8144L0.258626 74.2394C-0.0266721 74.8091 -0.0741427 75.4688 0.126644 76.0735C0.32743 76.6782 0.76005 77.1784 1.32946 77.4644L16.8836 85.281C17.1657 85.4231 17.473 85.5082 17.7879 85.5315C18.1029 85.5547 18.4193 85.5157 18.7192 85.4167C19.0191 85.3176 19.2965 85.1605 19.5356 84.9542C19.7747 84.7479 19.9709 84.4965 20.1128 84.2144L48.9711 26.7894C49.113 26.5071 49.1979 26.1995 49.2209 25.8844C49.2439 25.5693 49.2045 25.2527 49.1051 24.9528C49.0056 24.6529 48.848 24.3755 48.6413 24.1366C48.4346 23.8976 48.1828 23.7018 47.9003 23.5602L32.3461 15.7477C32.0642 15.6053 31.757 15.5201 31.442 15.4968C31.1271 15.4736 30.8106 15.5129 30.5109 15.6124C30.2112 15.7119 29.9341 15.8697 29.6956 16.0767C29.4571 16.2837 29.2619 16.5358 29.1211 16.8185V16.8144Z" fill="url(#paint0_linear_820_2670)"/>
<path d="M80.1874 15.9664H97.5999C98.9249 15.9664 100.004 17.0498 100.004 18.3706V82.6414C100.004 83.2794 99.7509 83.8914 99.3001 84.3429C98.8494 84.7944 98.2379 85.0487 97.5999 85.0498H80.1874C79.5494 85.0487 78.9379 84.7944 78.4871 84.3429C78.0364 83.8914 77.7832 83.2794 77.7832 82.6414V18.3748C77.7832 17.0498 78.8624 15.9664 80.1874 15.9664Z" fill="url(#paint1_linear_820_2670)"/>
<path d="M53.3958 17.0225L41.0417 79.6183C40.9179 80.2427 41.0472 80.8906 41.4012 81.4196C41.7552 81.9486 42.3048 82.3154 42.9292 82.4391L59.9917 85.8808C61.3 86.1433 62.575 85.2975 62.8292 83.9891L75.1792 21.3975C75.3018 20.7732 75.172 20.1258 74.8182 19.5971C74.4644 19.0684 73.9155 18.7014 73.2917 18.5766L56.225 15.1308C55.9147 15.0683 55.5951 15.0677 55.2846 15.1291C54.9741 15.1904 54.6787 15.3124 54.4154 15.4882C54.1522 15.6639 53.9262 15.8899 53.7506 16.1532C53.5749 16.4165 53.4571 16.7119 53.3958 17.0225Z" fill="url(#paint2_linear_820_2670)"/>
</g>
<defs>
<linearGradient id="paint0_linear_820_2670" x1="6.25029" y1="81.2477" x2="50.0003" y2="-0.00230622" gradientUnits="userSpaceOnUse">
<stop stop-color="#FF00FF"/>
<stop offset="0.17" stop-color="#E90CF9"/>
<stop offset="0.54" stop-color="#C023ED"/>
<stop offset="0.73" stop-color="#B02DE9"/>
<stop offset="1" stop-color="#B02DE9"/>
</linearGradient>
<linearGradient id="paint1_linear_820_2670" x1="-0.000135094" y1="99.9998" x2="99.9999" y2="-0.000236697" gradientUnits="userSpaceOnUse">
<stop stop-color="#B02DE9"/>
<stop offset="0.02" stop-color="#B02DE9"/>
<stop offset="0.8" stop-color="#6D00CC"/>
<stop offset="1" stop-color="#6D00CC"/>
</linearGradient>
<linearGradient id="paint2_linear_820_2670" x1="-2.10271e-06" y1="100.002" x2="100" y2="0.00164505" gradientUnits="userSpaceOnUse">
<stop stop-color="#FF00FF"/>
<stop offset="0.02" stop-color="#FF00FF"/>
<stop offset="0.09" stop-color="#E90CF9"/>
<stop offset="0.23" stop-color="#C023ED"/>
<stop offset="0.3" stop-color="#B02DE9"/>
<stop offset="0.42" stop-color="#A42BE3"/>
<stop offset="0.63" stop-color="#8626D5"/>
<stop offset="0.85" stop-color="#6021C3"/>
<stop offset="1" stop-color="#6021C3"/>
</linearGradient>
<clipPath id="clip0_820_2670">
<rect width="100" height="100" fill="white"/>
</clipPath>
</defs>
</svg>
