<svg width="100" height="100" viewBox="0 0 100 100" fill="none" xmlns="http://www.w3.org/2000/svg">
<g id="marionette">
<g id="marionette_2">
<path id="Shape" d="M57 45.3651L65.984 24.1151C66.0904 23.8598 66.3883 23.7391 66.6457 23.846C66.9021 23.9523 67.025 24.246 66.917 24.5018L58.9995 43.2263L57 45.3651Z" fill="#939598"/>
<path id="Shape_1_" d="M64.7499 34.5508C64.7499 34.5508 60.4505 40.1854 57.4159 43.4407C54.3787 46.6971 49.9531 51.8311 49.9531 51.8311V63.3098C49.985 63.3077 50.0143 63.3013 50.0462 63.3013C50.7803 63.3013 51.3749 63.8891 51.3749 64.6151C51.3749 65.3417 50.7797 65.9306 50.0462 65.9306C50.0143 65.9306 49.985 65.9231 49.9531 65.9205V77.5013C49.9531 77.5013 55.5265 73.7141 59.5638 70.0502C64.1159 65.9189 69.1749 59.4678 69.1749 59.4678L64.7499 34.5513V34.5508Z" fill="#931A2B"/>
<path id="Shape_2_" d="M46.7973 13.547L46.7559 18.022L30.5149 24.5273L30.8005 20.5512L46.7979 13.5459L46.7973 13.547Z" fill="#A7A9AC"/>
<path id="Shape_3_" d="M69.36 20.3949L69.6764 24.3694L53.3536 17.9949L53.2764 13.5215L69.36 20.3949ZM50.0302 12.1321L50.0472 16.7029L26.2892 7.42363L26.7823 2.19385L50.0302 12.1321ZM26.7823 2.19385L26.2892 7.42363L23.1387 9.28268L23.6834 4.17629L26.7823 2.19385Z" fill="#BCBEC0"/>
<path id="Shape_4_" d="M73.1723 1.99915L73.7043 7.22574L50.0473 16.7029L50.0298 12.1316L73.1723 1.99915Z" fill="#A7A9AC"/>
<path id="Shape_5_" d="M76.2947 3.95667L76.8792 9.05933L73.7048 7.22582L73.1729 1.99976L76.2947 3.95667Z" fill="#BCBEC0"/>
<path id="Shape_6_" d="M33.7482 25.4417L30.5142 24.5278L46.7557 18.0225L23.1387 9.28315L26.2892 7.42358L50.0472 16.7028L73.7046 7.22571L76.8791 9.05922L53.3536 17.9954L69.6764 24.3693L66.4504 25.3098L50.0621 19.2459L33.7482 25.4406V25.4417Z" fill="#808285"/>
<path id="Shape_7_" d="M23.3952 38.5667C23.3781 38.5667 23.3611 38.5667 23.3446 38.5641C23.067 38.5364 22.8638 38.2928 22.8914 38.0162L25.7866 9.1279C25.8143 8.85396 26.0558 8.65184 26.3398 8.6795C26.6175 8.70609 26.8207 8.95184 26.793 9.2263L23.8984 38.1146C23.8718 38.3731 23.6537 38.5667 23.3962 38.5667H23.3952ZM75.4532 38.5667C75.1888 38.5667 74.9649 38.3614 74.9494 38.096L73.1994 9.00928C73.1824 8.73269 73.3946 8.49492 73.6739 8.47843C73.9595 8.45982 74.193 8.67205 74.2101 8.94864L75.9585 38.0338C75.976 38.3103 75.7643 38.5476 75.4851 38.5646C75.4739 38.5662 75.4638 38.5662 75.4532 38.5667ZM41.6579 44.38L33.2829 24.6353C33.1749 24.38 33.2962 24.0853 33.5526 23.9784C33.8111 23.872 34.1074 23.9923 34.2154 24.247L43.5111 46.1619L41.6579 44.38Z" fill="#939598"/>
<path id="Shape_8_" d="M48.7196 64.6162C48.7196 63.9215 49.2643 63.3588 49.9536 63.3104V51.8316C49.9536 51.8316 45.5265 46.6971 42.4909 43.4407C39.4558 40.1854 35.1558 34.5508 35.1558 34.5508L30.7302 59.4699C30.7302 59.4699 35.7887 65.9205 40.3409 70.0518C44.3781 73.7157 49.9526 77.5024 49.9526 77.5024V65.921C49.2648 65.8726 48.7196 65.3093 48.7196 64.6162Z" fill="#A81E2C"/>
<path id="Shape_9_" d="M50.0461 65.3668C49.9238 65.3668 49.7993 65.3231 49.7025 65.2338L32.2717 49.2088L32.2664 47.8375L50.043 64.1779L67.594 47.6428L67.6648 48.9577L50.3946 65.2279C50.2967 65.3215 50.1711 65.3673 50.0451 65.3673L50.0461 65.3668Z" fill="#939598"/>
<path id="Shape_10_" d="M86.5043 38.0566L64.7505 34.5513C64.7505 34.5513 66.7739 46.071 66.7739 65.3545C66.7739 84.6401 64.1181 97.788 64.1181 97.788L86.125 95.4082C86.125 95.4082 88.9064 84.887 88.9064 66.7306C88.9053 48.5747 86.5032 38.0561 86.5032 38.0561L86.5043 38.0566ZM76.4484 88.8971C75.8548 88.8971 75.3734 88.4215 75.3734 87.8332C75.3734 87.2471 75.8543 86.7694 76.4484 86.7694C77.0426 86.7694 77.5229 87.2471 77.5229 87.8332C77.5229 88.4205 77.0431 88.8971 76.4484 88.8971ZM33.1325 65.354C33.1325 46.0705 35.1559 34.5508 35.1559 34.5508L13.4027 38.0561C13.4027 38.0561 11 48.5753 11 66.7316C11 84.8902 13.7819 95.4093 13.7819 95.4093L35.7883 97.7901C35.7883 97.7875 33.1325 84.6407 33.1325 65.354ZM23.0537 88.8274C22.5005 88.8274 22.0511 88.3822 22.0511 87.8343C22.0511 87.2859 22.4995 86.8412 23.0532 86.8412C23.6064 86.8412 24.0553 87.2859 24.0553 87.8332C24.0553 88.38 23.6069 88.8258 23.0532 88.8258L23.0537 88.8274Z" fill="#CE2227"/>
<path id="Oval" d="M76.4483 45.3646C76.9973 45.3646 77.4424 44.924 77.4424 44.3805C77.4424 43.8371 76.9973 43.3965 76.4483 43.3965C75.8992 43.3965 75.4541 43.8371 75.4541 44.3805C75.4541 44.924 75.8992 45.3646 76.4483 45.3646Z" fill="#A51724"/>
<path id="Shape_11_" d="M76.4495 88.3342C76.4107 88.3342 76.3708 88.3289 76.3309 88.3193C76.0596 88.256 75.8915 87.9879 75.9559 87.7161C75.9713 87.6544 77.4596 81.2539 77.4596 66.4305C77.4596 51.5784 75.9681 44.5539 75.9537 44.4858C75.8958 44.2145 76.0692 43.9486 76.3415 43.8901C76.6128 43.8316 76.8846 44.0039 76.9426 44.2746C76.958 44.3438 78.4713 51.4741 78.4713 66.4305C78.4713 81.3954 77.0027 87.6863 76.9404 87.947C76.8846 88.1805 76.6771 88.3347 76.449 88.3347L76.4495 88.3342Z" fill="#939598"/>
<path id="Vector" d="M23.0537 45.5348C23.6976 45.5348 24.2196 45.0181 24.2196 44.3806C24.2196 43.7431 23.6976 43.2263 23.0537 43.2263C22.4097 43.2263 21.8877 43.7431 21.8877 44.3806C21.8877 45.0181 22.4097 45.5348 23.0537 45.5348Z" fill="#A51724"/>
<path id="Shape_12_" d="M23.0524 88.3342C22.8062 88.3342 22.5907 88.155 22.5524 87.9066C22.5402 87.8236 21.2822 79.3896 21.2822 66.1693C21.2822 52.9486 22.5402 44.3927 22.5524 44.3076C22.5939 44.0337 22.8503 43.8449 23.1269 43.8858C23.4035 43.9257 23.595 44.181 23.554 44.4539C23.5407 44.539 22.2945 53.0284 22.2945 66.1704C22.2945 79.3177 23.5418 87.6784 23.5535 87.7587C23.5961 88.03 23.4046 88.288 23.128 88.3289C23.1024 88.331 23.0769 88.3342 23.0524 88.3342Z" fill="#939598"/>
</g>
</g>
</svg>
