<svg width="100" height="100" viewBox="0 0 100 100" fill="none" xmlns="http://www.w3.org/2000/svg">
<g id="mariadb">
<g id="mariadb_2">
<path id="path4449-4_3_" fill-rule="evenodd" clip-rule="evenodd" d="M97.8111 17.0009C96.2761 17.0515 96.7203 17.7431 93.3971 18.5641C90.0403 19.3907 85.9805 18.8846 82.3706 20.4028C72.924 24.3613 71.3945 39.667 60.143 45.588C52.7657 49.7546 45.2422 50.7105 38.5172 52.8191C33.1192 54.9839 29.7623 56.4178 25.8037 59.8309C22.7336 62.4793 21.9857 65.049 18.775 68.3722C15.5193 72.7974 3.17697 68.867 0 74.4168C1.67564 75.5021 2.64275 75.8001 5.58355 75.4121C4.97627 76.5648 1.1077 78.083 1.81057 79.7811C1.81057 79.7811 11.1615 81.4849 19.0449 76.7279C22.7223 75.2322 26.1692 72.0664 31.8821 71.3073C39.2819 70.3233 47.6207 72.8593 56.5668 73.5734C54.7169 77.2283 52.8107 79.3875 50.7696 82.4014C50.1398 83.0818 51.3094 83.6834 53.4798 83.273C57.3822 82.3058 60.2105 81.26 63.0163 79.32C66.6769 76.7953 68.2513 74.4843 71.3383 70.8238C74.0205 75.1253 83.4783 76.07 85.4182 72.3532C81.8083 70.8238 81.0379 62.8673 82.2749 59.4317C83.7369 56.1591 84.7884 51.5314 85.9693 47.2299C87.032 43.3557 87.6898 37.4459 88.9606 34.4208C90.4788 30.659 93.4309 29.4838 95.6463 27.4877C97.8618 25.4916 100.066 23.8272 99.9985 19.2613C99.976 17.7769 99.2113 16.9559 97.8111 17.0009Z" fill="#1F305F"/>
<path id="path4451-9_3_" d="M2.8225 78.9938C8.61976 79.1681 10.1942 79.0163 14.7769 77.0257C18.6736 75.3332 23.886 70.773 28.4912 69.2998C35.25 67.1293 42.498 67.4555 49.6898 68.3045C52.0964 68.5913 54.5143 68.9905 56.2405 68.805C58.9339 67.1518 59.0632 62.6647 60.7332 62.3049C60.2778 70.9867 56.5554 76.5422 52.833 81.5803C60.677 80.1971 65.9176 75.2995 69.0889 69.2379C70.0505 67.3992 71.6474 64.391 72.3783 62.3217C72.9575 63.6937 71.6249 64.5653 72.249 66.061C77.2984 61.8944 79.6826 57.1486 81.7293 50.1986C84.1022 42.1578 86.5369 35.2472 88.0664 32.8687C89.5565 30.5464 91.8787 29.1126 93.9986 27.6281C96.4052 25.9356 98.5588 24.1756 98.9299 20.9537C96.3883 20.7175 95.8035 20.1327 95.4268 18.8507C94.156 19.5648 92.9865 19.7223 91.6651 19.7616C90.518 19.7954 89.2585 19.7448 87.7178 19.9022C74.993 21.2067 74.4026 33.6447 65.1529 42.7764C64.5568 43.3555 63.539 44.2102 62.8643 44.7163C60.0078 46.8474 56.9489 48.0169 53.727 49.2484C48.5089 51.2389 43.5608 51.8181 38.6688 53.5387C35.0757 54.7982 31.7357 56.2433 28.7836 58.262C28.047 58.768 27.0461 59.6677 26.4051 60.1906C24.6732 61.6076 23.5374 63.1764 22.4353 64.7958C21.2995 66.4602 20.2086 68.1752 18.5386 69.8115C15.834 72.4655 5.73517 70.5875 2.17585 73.0503C1.78224 73.3258 1.46172 73.652 1.24805 74.0456C3.18796 74.9284 4.48685 74.3886 6.71916 74.6304C6.99469 76.7615 2.09714 78.021 2.8225 78.9938Z" fill="#C0765A"/>
<path id="path4457-3_3_" fill-rule="evenodd" clip-rule="evenodd" d="M83.4783 25.1656C85.2776 26.7288 89.0562 25.4749 88.3815 22.3654C85.5812 22.1292 83.9618 23.0795 83.4783 25.1656Z" fill="#1F305F"/>
<path id="path4459-4_3_" d="M96.0344 21.5275C95.5565 22.534 94.6399 23.8272 94.6399 26.3857C94.6342 26.8243 94.3081 27.1279 94.3025 26.4475C94.325 23.9453 94.9885 22.8657 95.6913 21.4487C96.0118 20.8696 96.2087 21.1057 96.0344 21.5275Z" fill="#1F305F"/>
<path id="path4461-6_3_" d="M95.5506 21.1506C94.9827 22.1065 93.6219 23.8553 93.4027 26.4081C93.3633 26.8467 93.0034 27.1166 93.0597 26.4418C93.3071 23.9565 94.3923 22.3989 95.2189 21.0438C95.59 20.4928 95.7643 20.7458 95.5506 21.1506Z" fill="#1F305F"/>
<path id="path4463-0_3_" d="M95.1123 20.6503C94.4657 21.5556 92.3739 23.6586 91.9353 26.1777C91.8566 26.6107 91.4799 26.8468 91.5923 26.1833C92.0478 23.7261 93.8527 21.7918 94.7861 20.5154C95.2022 19.9924 95.3597 20.2623 95.1123 20.6503Z" fill="#1F305F"/>
<path id="path4465-8_3_" d="M94.7186 20.0879C93.9539 20.8976 91.4573 23.5741 90.6701 26.0088C90.5295 26.4249 90.1247 26.6105 90.3271 25.9639C91.1199 23.591 93.3073 21.0382 94.415 19.9079C94.9042 19.4525 95.0166 19.7449 94.7186 20.0879Z" fill="#1F305F"/>
</g>
</g>
</svg>
