<svg width="106" height="100" viewBox="0 0 106 100" fill="none" xmlns="http://www.w3.org/2000/svg">
<g id="markdown">
<g id="markdown_2">
<path id="Vector" d="M8.0505 20H97.9495C99.289 20 100.574 20.5321 101.521 21.4793C102.468 22.4264 103 23.711 103 25.0505V74.5455C103 75.8849 102.468 77.1695 101.521 78.1167C100.574 79.0639 99.289 79.596 97.9495 79.596H8.0505C6.71103 79.596 5.42641 79.0639 4.47926 78.1167C3.53211 77.1695 3 75.8849 3 74.5455V25.0505C3 23.711 3.53211 22.4264 4.47926 21.4793C5.42641 20.5321 6.71103 20 8.0505 20Z" stroke="black" stroke-width="5.05051"/>
<path id="Vector_2" d="M15.6262 66.9697V32.6262H25.7272L35.8282 45.2525L45.9293 32.6262H56.0303V66.9697H45.9293V47.2727L35.8282 59.8989L25.7272 47.2727V66.9697H15.6262ZM78.7575 66.9697L63.606 50.303H73.707V32.6262H83.808V50.303H93.9091L78.7575 66.9697Z" fill="black"/>
</g>
</g>
</svg>
