<svg width="100" height="100" viewBox="0 0 100 100" fill="none" xmlns="http://www.w3.org/2000/svg">
<g clip-path="url(#clip0_820_2674)">
<path d="M28.7377 16.6663H28.6377L28.5085 27.5621H28.6002C35.746 27.5621 41.2919 33.2163 53.3502 53.5871L54.0794 54.8246L54.1294 54.9079L60.8794 44.7496L60.8294 44.6704C59.3543 42.2555 57.829 39.8716 56.2544 37.5204C54.7041 35.2001 53.0711 32.9362 51.3585 30.7329C43.3877 20.5496 36.721 16.6663 28.7377 16.6663Z" fill="url(#paint0_linear_820_2674)"/>
<path d="M28.6375 16.6663C20.625 16.7079 13.5292 21.9079 8.41667 29.8746C8.40272 29.8982 8.38884 29.9218 8.375 29.9454L17.7667 35.0746L17.8125 35.0038C20.8042 30.4913 24.5208 27.6121 28.5125 27.5663H28.6L28.7333 16.6663H28.6375Z" fill="url(#paint1_linear_820_2674)"/>
<path d="M8.41276 29.8743L8.36693 29.9451C5.00026 35.1951 2.49193 41.6451 1.14193 48.5993L1.12109 48.6909L11.6794 51.1909L11.6961 51.0993C12.8211 44.9868 14.9711 39.3159 17.7628 35.0784L17.8086 35.0076L8.41276 29.8743Z" fill="url(#paint2_linear_820_2674)"/>
<path d="M11.6958 51.0999L1.14167 48.5999L1.12083 48.6915C0.383333 52.5165 0.00833333 56.404 0 60.2999V60.3957L10.825 61.3665V61.2707C10.7856 57.8614 11.0787 54.4564 11.7 51.104L11.6958 51.0999Z" fill="url(#paint3_linear_820_2674)"/>
<path d="M11.1542 64.7361C10.9601 63.6168 10.85 62.4844 10.825 61.3486V61.257L2.46574e-05 60.282V60.382C-0.0121236 62.6904 0.19154 64.9948 0.608358 67.2653L11.1709 64.8278C11.1652 64.7973 11.1597 64.7667 11.1542 64.7361Z" fill="url(#paint4_linear_820_2674)"/>
<path d="M13.6249 70.3746C12.4416 69.0829 11.6082 67.2246 11.1707 64.8413L11.1541 64.7538L0.591553 67.1913L0.608219 67.2788C1.40822 71.4871 2.97489 74.9871 5.21655 77.6413L5.27489 77.7121L13.6832 70.4413C13.6623 70.4192 13.6456 70.3969 13.6249 70.3746Z" fill="url(#paint5_linear_820_2674)"/>
<path d="M44.9165 40.2258C38.5499 50.0175 34.6916 56.1633 34.6916 56.1633C26.2124 69.4967 23.2791 72.4842 18.5624 72.4842C17.6348 72.5083 16.713 72.3317 15.86 71.9664C15.0071 71.601 14.2432 71.0556 13.6207 70.3675L5.21655 77.6342L5.27489 77.705C8.37489 81.3258 12.7416 83.3342 18.1499 83.3342C26.3291 83.3342 32.2082 79.4675 42.6665 61.1258L50.0249 48.0842C48.3924 45.4188 46.6918 42.7983 44.9165 40.2258Z" fill="#0082FB"/>
<path d="M56.2586 24.7759L56.192 24.8426C54.5253 26.6342 52.917 28.6259 51.3586 30.7426C52.9336 32.7551 54.5586 35.0092 56.2545 37.5342C58.2545 34.4384 60.1211 31.9301 61.9503 30.0051L62.017 29.9384L56.2586 24.7759Z" fill="url(#paint6_linear_820_2674)"/>
<path d="M87.1583 23.8038C82.7208 19.3038 77.4292 16.6663 71.7708 16.6663C65.8042 16.6663 60.7833 19.9454 56.2583 24.7663L56.1917 24.8329L61.95 29.9996L62.0166 29.9288C64.9958 26.8163 67.8833 25.2621 71.0833 25.2621C74.525 25.2621 77.75 26.8871 80.5416 29.7413L80.6041 29.8079L87.225 23.8704L87.1583 23.8038Z" fill="#0082FB"/>
<path d="M99.9915 58.8532C99.7415 44.4074 94.6998 31.4949 87.2248 23.8699L87.1582 23.8032L80.5415 29.7366L80.604 29.8032C86.229 35.6032 90.0915 46.3866 90.4415 58.8491V58.9449H99.9915V58.8532Z" fill="url(#paint7_linear_820_2674)"/>
<path d="M99.9916 58.9576V58.8618H90.4416V58.9535C90.4583 59.5368 90.4666 60.1285 90.4666 60.7202C90.4666 64.116 89.9624 66.8618 88.9333 68.8452L88.8875 68.9368L96.0041 76.3618L96.0583 76.2785C98.6416 72.2785 100 66.7243 100 59.9868C100 59.641 99.9999 59.2993 99.9916 58.9576Z" fill="url(#paint8_linear_820_2674)"/>
<path d="M88.9333 68.8309L88.8875 68.9143C87.9958 70.5893 86.725 71.7059 85.0667 72.1934L88.3083 82.4518C88.9331 82.2406 89.5429 81.9873 90.1333 81.6934C92.4406 80.527 94.4027 78.7774 95.825 76.6184L96.0083 76.3476L96.0583 76.2643L88.9333 68.8309Z" fill="url(#paint9_linear_820_2674)"/>
<path d="M83.0003 72.47C81.9086 72.47 80.9503 72.3076 80.0086 71.8867L76.6836 82.3951C78.5544 83.0325 80.5461 83.3201 82.7669 83.3201C84.8169 83.3201 86.6961 83.0159 88.4003 82.4242L85.1503 72.1659C84.4544 72.3742 83.7336 72.4784 83.0003 72.47Z" fill="url(#paint10_linear_820_2674)"/>
<path d="M76.346 68.8896L76.2877 68.8187L68.6377 76.7937L68.7044 76.8646C71.3585 79.7062 73.896 81.4687 76.7752 82.4354L80.096 71.9354C78.8835 71.4146 77.7085 70.4646 76.346 68.8896Z" fill="url(#paint11_linear_820_2674)"/>
<path d="M76.2874 68.811C73.9958 66.136 71.1541 61.6777 66.6916 54.4777L60.8749 44.7443L60.8291 44.661L54.0791 54.8193L54.1291 54.9027L58.2499 61.8527C62.2458 68.561 65.4999 73.411 68.6374 76.7902L68.7041 76.8568L76.3458 68.8818C76.3262 68.8583 76.3068 68.8347 76.2874 68.811Z" fill="url(#paint12_linear_820_2674)"/>
</g>
<defs>
<linearGradient id="paint0_linear_820_2674" x1="2485.36" y1="3427.78" x2="478.008" y2="788.971" gradientUnits="userSpaceOnUse">
<stop offset="0.0006" stop-color="#0867DF"/>
<stop offset="0.4539" stop-color="#0668E1"/>
<stop offset="0.8591" stop-color="#0064E0"/>
</linearGradient>
<linearGradient id="paint1_linear_820_2674" x1="449.54" y1="1413.38" x2="1881.83" y2="323.264" gradientUnits="userSpaceOnUse">
<stop offset="0.1323" stop-color="#0064DF"/>
<stop offset="0.9988" stop-color="#0064E0"/>
</linearGradient>
<linearGradient id="paint2_linear_820_2674" x1="639.635" y1="1929.76" x2="1223.55" y2="455.418" gradientUnits="userSpaceOnUse">
<stop offset="0.0147" stop-color="#0072EC"/>
<stop offset="0.6881" stop-color="#0064DF"/>
</linearGradient>
<linearGradient id="paint3_linear_820_2674" x1="550.274" y1="1200.03" x2="621.507" y2="250.463" gradientUnits="userSpaceOnUse">
<stop offset="0.0731" stop-color="#007CF6"/>
<stop offset="0.9943" stop-color="#0072EC"/>
</linearGradient>
<linearGradient id="paint4_linear_820_2674" x1="582.641" y1="467.417" x2="562.17" y2="314.605" gradientUnits="userSpaceOnUse">
<stop offset="0.0731" stop-color="#007FF9"/>
<stop offset="1" stop-color="#007CF6"/>
</linearGradient>
<linearGradient id="paint5_linear_820_2674" x1="494.003" y1="226.759" x2="806.49" y2="891.693" gradientUnits="userSpaceOnUse">
<stop offset="0.0731" stop-color="#007FF9"/>
<stop offset="1" stop-color="#0082FB"/>
</linearGradient>
<linearGradient id="paint6_linear_820_2674" x1="422.354" y1="903.585" x2="799.195" y2="380.859" gradientUnits="userSpaceOnUse">
<stop offset="0.2799" stop-color="#007FF8"/>
<stop offset="0.9141" stop-color="#0082FB"/>
</linearGradient>
<linearGradient id="paint7_linear_820_2674" x1="931.712" y1="242.912" x2="1768.76" y2="3331.87" gradientUnits="userSpaceOnUse">
<stop stop-color="#0082FB"/>
<stop offset="0.9995" stop-color="#0081FA"/>
</linearGradient>
<linearGradient id="paint8_linear_820_2674" x1="756.249" y1="140.429" x2="265.17" y2="1136.08" gradientUnits="userSpaceOnUse">
<stop offset="0.0619" stop-color="#0081FA"/>
<stop offset="1" stop-color="#0080F9"/>
</linearGradient>
<linearGradient id="paint9_linear_820_2674" x1="417.916" y1="876.819" x2="814.153" y2="606.1" gradientUnits="userSpaceOnUse">
<stop stop-color="#027AF3"/>
<stop offset="1" stop-color="#0080F9"/>
</linearGradient>
<linearGradient id="paint10_linear_820_2674" x1="316.09" y1="643.565" x2="1038.76" y2="643.565" gradientUnits="userSpaceOnUse">
<stop stop-color="#0377EF"/>
<stop offset="0.9994" stop-color="#0279F1"/>
</linearGradient>
<linearGradient id="paint11_linear_820_2674" x1="530.443" y1="549.46" x2="937.324" y2="789.657" gradientUnits="userSpaceOnUse">
<stop offset="0.0019" stop-color="#0471E9"/>
<stop offset="1" stop-color="#0377EF"/>
</linearGradient>
<linearGradient id="paint12_linear_820_2674" x1="772.268" y1="679.531" x2="2101.33" y2="2355.67" gradientUnits="userSpaceOnUse">
<stop offset="0.2765" stop-color="#0867DF"/>
<stop offset="1" stop-color="#0471E9"/>
</linearGradient>
<clipPath id="clip0_820_2674">
<rect width="100" height="100" fill="white"/>
</clipPath>
</defs>
</svg>
