<svg width="100" height="100" viewBox="0 0 100 100" fill="none" xmlns="http://www.w3.org/2000/svg">
<g clip-path="url(#clip0_820_2691)">
<mask id="mask0_820_2691" style="mask-type:luminance" maskUnits="userSpaceOnUse" x="0" y="-1" width="100" height="101">
<path d="M-4.57764e-05 -0.000244141H100V99.9998H-4.57764e-05V-0.000244141Z" fill="white"/>
</mask>
<g mask="url(#mask0_820_2691)">
<g filter="url(#filter0_i_820_2691)">
<path fill-rule="evenodd" clip-rule="evenodd" d="M50 -0.000244141C77.6124 -0.000244141 100 22.3873 100 49.9998C100 77.6123 77.6124 99.9998 50 99.9998C22.3875 99.9998 -4.57764e-05 77.6123 -4.57764e-05 49.9998C-4.57764e-05 22.3873 22.3875 -0.000244141 50 -0.000244141ZM50 15.1123C40.7472 15.1123 31.8734 18.7879 25.3308 25.3306C18.7881 31.8732 15.1125 40.747 15.1125 49.9998C15.1125 59.2525 18.7881 68.1263 25.3308 74.6689C31.8734 81.2116 40.7472 84.8873 50 84.8873C59.2527 84.8873 68.1265 81.2116 74.6691 74.6689C81.2118 68.1263 84.8875 59.2525 84.8875 49.9998C84.8875 40.747 81.2118 31.8732 74.6691 25.3306C68.1265 18.7879 59.2527 15.1123 50 15.1123Z" fill="url(#paint0_linear_820_2691)"/>
</g>
</g>
</g>
<defs>
<filter id="filter0_i_820_2691" x="-4.57764e-05" y="-0.000244141" width="100" height="100" filterUnits="userSpaceOnUse" color-interpolation-filters="sRGB">
<feFlood flood-opacity="0" result="BackgroundImageFix"/>
<feBlend mode="normal" in="SourceGraphic" in2="BackgroundImageFix" result="shape"/>
<feColorMatrix in="SourceAlpha" type="matrix" values="0 0 0 0 0 0 0 0 0 0 0 0 0 0 0 0 0 0 127 0" result="hardAlpha"/>
<feOffset/>
<feGaussianBlur stdDeviation="3.125"/>
<feComposite in2="hardAlpha" operator="arithmetic" k2="-1" k3="1"/>
<feColorMatrix type="matrix" values="0 0 0 0 1 0 0 0 0 1 0 0 0 0 1 0 0 0 0.5 0"/>
<feBlend mode="normal" in2="shape" result="effect1_innerShadow_820_2691"/>
</filter>
<linearGradient id="paint0_linear_820_2691" x1="100" y1="-0.000244141" x2="-4.57764e-05" y2="99.9998" gradientUnits="userSpaceOnUse">
<stop offset="0.13" stop-color="#FF97E3"/>
<stop offset="0.18" stop-color="#D14FE1"/>
<stop offset="0.338" stop-color="#0050E2"/>
<stop offset="0.666" stop-color="#0050E2"/>
<stop offset="0.809" stop-color="#00DDF4"/>
<stop offset="0.858" stop-color="#23F8CC"/>
</linearGradient>
<clipPath id="clip0_820_2691">
<rect width="100" height="100" fill="white"/>
</clipPath>
</defs>
</svg>
