<svg width="100" height="100" viewBox="0 0 100 100" fill="none" xmlns="http://www.w3.org/2000/svg">
<g id="meta">
<g id="meta_2" clip-path="url(#clip0_790_2897)">
<path id="Vector" d="M10.8012 60.8031C10.8012 64.6215 11.6395 67.5531 12.7348 69.3266C14.1711 71.6496 16.3129 72.6336 18.4969 72.6336C21.3137 72.6336 23.8906 71.9344 28.8563 65.0664C32.8348 59.5617 37.5227 51.8344 40.6766 46.9902L46.0184 38.7832C49.7289 33.0836 54.0234 26.7477 58.948 22.4527C62.9672 18.9473 67.3039 17 71.668 17C78.9953 17 85.9746 21.2461 91.3164 29.2098C97.1621 37.9312 100 48.9168 100 60.2535C100 66.993 98.6719 71.9449 96.4113 75.8574C94.2273 79.641 89.9707 83.4211 82.8105 83.4211V72.6336C88.9414 72.6336 90.4715 67 90.4715 60.5527C90.4715 51.3652 88.3293 41.1688 83.6105 33.8836C80.2613 28.7156 75.9215 25.5582 71.1469 25.5582C65.9828 25.5582 61.827 29.4527 57.1566 36.398C54.6738 40.0875 52.1246 44.584 49.2629 49.6574L46.1121 55.2391C39.7828 66.4609 38.1797 69.0168 35.0152 73.2352C29.4684 80.6219 24.7324 83.4211 18.4969 83.4211C11.1004 83.4211 6.42266 80.218 3.52617 75.3914C1.16133 71.4582 0 66.2977 0 60.4172L10.8012 60.8031Z" fill="#0081FB"/>
<path id="Vector_2" d="M8.51641 29.9711C13.4688 22.3383 20.6148 17 28.8113 17C33.5586 17 38.2773 18.4051 43.2051 22.4285C48.5949 26.8273 54.3398 34.0711 61.507 46.0098L64.0773 50.2938C70.2809 60.6293 73.8106 65.9461 75.8762 68.4539C78.5332 71.6738 80.3938 72.6336 82.8106 72.6336C88.9414 72.6336 90.4715 67 90.4715 60.5527L100 60.2535C100 66.993 98.6719 71.9449 96.4113 75.8574C94.2274 79.641 89.9707 83.4211 82.8106 83.4211C78.3594 83.4211 74.416 82.4543 70.0551 78.3402C66.7027 75.1828 62.7836 69.5734 59.7684 64.5309L50.7996 49.5496C46.3 42.0313 42.1719 36.4258 39.7832 33.8867C37.2137 31.157 33.9098 27.8602 28.6379 27.8602C24.3711 27.8602 20.7473 30.8547 17.7148 35.4344L8.51641 29.9711Z" fill="url(#paint0_linear_790_2897)"/>
<path id="Vector_3" d="M28.6375 27.8602C24.3707 27.8602 20.7469 30.8547 17.7145 35.4344C13.427 41.9062 10.8012 51.5457 10.8012 60.8031C10.8012 64.6215 11.6395 67.5531 12.7348 69.3266L3.52617 75.3914C1.16133 71.4582 0 66.2977 0 60.4172C0 49.7234 2.93516 38.5781 8.51641 29.9711C13.4688 22.3383 20.6148 17 28.8113 17L28.6375 27.8602Z" fill="url(#paint1_linear_790_2897)"/>
</g>
</g>
<defs>
<linearGradient id="paint0_linear_790_2897" x1="1278.13" y1="3732.2" x2="8155.45" y2="4079.55" gradientUnits="userSpaceOnUse">
<stop stop-color="#0064E1"/>
<stop offset="0.4" stop-color="#0064E1"/>
<stop offset="0.83" stop-color="#0073EE"/>
<stop offset="1" stop-color="#0082FB"/>
</linearGradient>
<linearGradient id="paint1_linear_790_2897" x1="1564.89" y1="4850.76" x2="1564.89" y2="2312.19" gradientUnits="userSpaceOnUse">
<stop stop-color="#0082FB"/>
<stop offset="1" stop-color="#0064E0"/>
</linearGradient>
<clipPath id="clip0_790_2897">
<rect width="100" height="66.7969" fill="white" transform="translate(0 17)"/>
</clipPath>
</defs>
</svg>
