<svg width="100" height="100" viewBox="0 0 100 100" fill="none" xmlns="http://www.w3.org/2000/svg">
<g clip-path="url(#clip0_820_2702)">
<path d="M67.8249 8.33301C72.6415 8.33301 76.5457 12.1955 76.5457 16.958V69.0455C76.5792 69.8435 76.921 70.5975 77.4992 71.1485C78.0775 71.6995 78.847 72.0047 79.6457 71.9997C80.4437 72.0036 81.2122 71.698 81.7895 71.1471C82.3669 70.5961 82.7081 69.8428 82.7415 69.0455V37.9122C82.7475 36.785 82.9755 35.67 83.4124 34.6309C83.8493 33.5919 84.4866 32.649 85.2879 31.8562C86.0892 31.0634 87.0388 30.4363 88.0825 30.0105C89.1262 29.5847 90.2435 29.3686 91.3707 29.3747C92.4982 29.3686 93.6159 29.5848 94.6599 30.0109C95.7038 30.4369 96.6536 31.0645 97.455 31.8577C98.2563 32.6509 98.8935 33.5943 99.3302 34.6338C99.7669 35.6734 99.9944 36.7888 99.9999 37.9163V65.2538C99.9955 65.9703 99.7069 66.6557 99.1975 67.1596C98.6882 67.6635 97.9997 67.9447 97.2832 67.9413C96.9281 67.9435 96.576 67.8758 96.2471 67.7419C95.9182 67.608 95.6188 67.4107 95.3662 67.1611C95.1135 66.9115 94.9125 66.6147 94.7746 66.2874C94.6367 65.9602 94.5646 65.609 94.5624 65.2538V37.9163C94.5602 37.4994 94.4759 37.087 94.3143 36.7026C94.1527 36.3182 93.917 35.9694 93.6207 35.6761C93.3243 35.3829 92.9731 35.1508 92.587 34.9933C92.201 34.8358 91.7877 34.7558 91.3707 34.758C90.9538 34.7558 90.5405 34.8358 90.1544 34.9933C89.7684 35.1508 89.4171 35.3829 89.1208 35.6761C88.8244 35.9694 88.5887 36.3182 88.4271 36.7026C88.2655 37.087 88.1812 37.4994 88.179 37.9163V69.0497C88.173 70.1643 87.9475 71.2668 87.5155 72.2942C87.0834 73.3217 86.4531 74.254 85.6607 75.0378C84.8683 75.8217 83.9293 76.4419 82.8972 76.8628C81.8652 77.2838 80.7603 77.4974 79.6457 77.4913C78.5311 77.4974 77.4262 77.2838 76.3942 76.8628C75.3621 76.4419 74.4231 75.8217 73.6307 75.0378C72.8383 74.254 72.208 73.3217 71.776 72.2942C71.3439 71.2668 71.1184 70.1643 71.1124 69.0497V16.9663C71.0779 16.12 70.7164 15.3201 70.104 14.7349C69.4916 14.1497 68.6761 13.8249 67.829 13.8288C66.982 13.8238 66.166 14.1475 65.5528 14.7319C64.9397 15.3164 64.5771 16.1159 64.5415 16.9622L64.5374 83.2288C64.5242 85.4791 63.6178 87.6321 62.0176 89.2143C60.4174 90.7965 58.2544 91.6785 56.004 91.6663C54.8894 91.6724 53.7846 91.4588 52.7525 91.0378C51.7204 90.6169 50.7814 89.9967 49.989 89.2129C49.1966 88.429 48.5664 87.4967 48.1343 86.4692C47.7022 85.4418 47.4767 84.3393 47.4707 83.2247V75.1663C47.4707 73.683 48.6874 72.4788 50.1874 72.4788C51.6874 72.4788 52.904 73.683 52.904 75.1663V83.2247C52.904 84.3205 53.4957 85.333 54.454 85.883C55.4124 86.4288 56.5957 86.4288 57.554 85.883C58.0243 85.6164 58.4155 85.2299 58.6877 84.763C58.96 84.296 59.1037 83.7652 59.104 83.2247V16.958C59.104 12.1955 63.0082 8.33301 67.8249 8.33301ZM44.1832 8.33301C48.9999 8.33301 52.904 12.1955 52.904 16.958V64.9705C52.9024 65.3254 52.8308 65.6765 52.6933 66.0038C52.5559 66.331 52.3552 66.6279 52.1029 66.8775C51.8506 67.1271 51.5515 67.3246 51.2229 67.4585C50.8942 67.5924 50.5423 67.6602 50.1874 67.658C49.8325 67.6602 49.4806 67.5924 49.1519 67.4585C48.8232 67.3246 48.5241 67.1271 48.2718 66.8775C48.0195 66.6279 47.8189 66.331 47.6814 66.0038C47.5439 65.6765 47.4723 65.3254 47.4707 64.9705V16.958C47.4652 16.0912 47.1159 15.2621 46.4995 14.6527C45.8831 14.0434 45.05 13.7036 44.1832 13.708C43.3164 13.7036 42.4834 14.0434 41.867 14.6527C41.2505 15.2621 40.9012 16.0912 40.8957 16.958V75.3455C40.8825 77.6205 39.9666 79.7972 38.3493 81.3973C36.7321 82.9974 34.5457 83.8899 32.2707 83.8788C29.995 83.891 27.8076 82.999 26.1894 81.3988C24.5712 79.7986 23.6548 77.6212 23.6415 75.3455V37.9163C23.6394 37.4994 23.5551 37.087 23.3935 36.7026C23.2319 36.3182 22.9962 35.9694 22.6998 35.6761C22.4035 35.3829 22.0522 35.1508 21.6662 34.9933C21.2801 34.8358 20.8668 34.7558 20.4499 34.758C20.0329 34.7558 19.6196 34.8358 19.2336 34.9933C18.8475 35.1508 18.4963 35.3829 18.1999 35.6761C17.9035 35.9694 17.6678 36.3182 17.5063 36.7026C17.3447 37.087 17.2604 37.4994 17.2582 37.9163V53.7497C17.2522 54.8769 17.0242 55.9918 16.5873 57.0309C16.1504 58.07 15.5131 59.0128 14.7118 59.8056C13.9105 60.5984 12.9609 61.2256 11.9173 61.6514C10.8736 62.0772 9.75623 62.2932 8.62904 62.2872C7.50186 62.2932 6.38453 62.0772 5.34084 61.6514C4.29715 61.2256 3.34755 60.5984 2.54625 59.8056C1.74496 59.0128 1.10766 58.07 0.670752 57.0309C0.233844 55.9918 0.0058808 54.8769 -0.00012207 53.7497L-0.00012207 48.008C-0.00012207 46.5205 1.21654 45.3163 2.71654 45.3163C4.21654 45.3163 5.43738 46.5247 5.43738 48.008V53.7497C5.43738 55.4913 6.86654 56.9038 8.62904 56.9038C10.3915 56.9038 11.8207 55.4913 11.8207 53.7497V37.9122C11.8339 35.6372 12.7498 33.4605 14.3671 31.8604C15.9843 30.2603 18.1707 29.3678 20.4457 29.3788C22.7214 29.3666 24.9089 30.2587 26.527 31.8589C28.1452 33.4591 29.0617 35.6364 29.0749 37.9122V75.3455C29.0749 77.0913 30.504 78.5038 32.2707 78.5038C34.0332 78.5038 35.4624 77.0913 35.4624 75.3455V16.958C35.4624 12.1955 39.3665 8.33301 44.1832 8.33301Z" fill="url(#paint0_linear_820_2702)"/>
</g>
<defs>
<linearGradient id="paint0_linear_820_2702" x1="-0.00012207" y1="4179.76" x2="10018.2" y2="4179.76" gradientUnits="userSpaceOnUse">
<stop stop-color="#E2167E"/>
<stop offset="1" stop-color="#FE603C"/>
</linearGradient>
<clipPath id="clip0_820_2702">
<rect width="100" height="100" fill="white"/>
</clipPath>
</defs>
</svg>
