<svg width="100" height="100" viewBox="0 0 100 100" fill="none" xmlns="http://www.w3.org/2000/svg">
<g id="miro">
<g id="miro_2">
<path id="Vector" d="M21.6632 -0.000976562H78.3368C90.293 -0.000976562 100 9.70604 100 21.6622V78.3358C100 90.292 90.293 99.999 78.3368 99.999H21.6632C9.70702 99.999 0 90.292 0 78.3358V21.6622C0 9.70604 9.70702 -0.000976562 21.6632 -0.000976562Z" fill="#FFD02F"/>
<path id="Vector_2" d="M69.488 12.488H58.5085L67.6532 28.5579L47.5289 12.488H36.5493L46.6115 32.1388L25.5697 12.488H14.5901L25.5697 37.4954L14.5901 87.5102H25.5697L46.6115 33.9145L36.5493 87.5102H47.5289L67.6532 30.3631L58.5085 87.5102H69.488L89.6123 24.9769L69.488 12.488Z" fill="#050038"/>
</g>
</g>
</svg>
