<svg width="100" height="100" viewBox="0 0 100 100" fill="none" xmlns="http://www.w3.org/2000/svg">
<g clip-path="url(#clip0_820_2710)">
<path d="M0.00012207 33.1946H11.1126V44.3071H0.00012207V33.1946ZM33.3335 44.3029H44.446V55.4154H33.3335V44.3029Z" fill="#36CED0"/>
<path d="M0.00012207 44.3031H11.1126V55.4156H0.00012207V44.3031ZM11.1126 55.4156H22.221V66.5281H33.3335V77.6364H11.1126V55.4156ZM11.1126 22.0823H33.3335V33.1948H22.221V44.3031H11.1126V22.0823ZM44.446 55.4156H55.5585V66.5281H44.446V55.4156Z" fill="#624AFF"/>
<path d="M100 33.1946H88.8877V44.3071H100V33.1946ZM66.6668 44.3029H55.5543V55.4154H66.6668V44.3029Z" fill="#36CED0"/>
<path d="M100 44.3031H88.8877V55.4156H100V44.3031ZM88.8877 55.4156H77.7794V66.5281H66.6669V77.6364H88.8877V55.4156ZM88.8877 22.0823H66.6669V33.1948H77.7794V44.3031H88.8877V22.0823Z" fill="#624AFF"/>
</g>
<defs>
<clipPath id="clip0_820_2710">
<rect width="100" height="100" fill="white"/>
</clipPath>
</defs>
</svg>
