<svg version="1.1" id="Layer_1" xmlns="http://www.w3.org/2000/svg" xmlns:xlink="http://www.w3.org/1999/xlink" x="0px" y="0px"
	 width="100%" viewBox="0 0 350 350" enable-background="new 0 0 350 350" xml:space="preserve">
<path fill="#EA4B71" opacity="1.000000" stroke="none" 
	d="
M351.000000,47.999996 
	C351.000000,133.020889 351.000000,218.041794 350.656830,303.331848 
	C350.158447,303.893494 349.942169,304.169250 349.856720,304.480896 
	C343.406555,328.007172 328.755005,343.344910 304.935150,349.585815 
	C304.527863,349.692505 304.307556,350.512756 304.000000,351.000000 
	C218.979111,351.000000 133.958206,351.000000 48.723721,350.678192 
	C47.765301,350.027130 47.047871,349.599854 46.271656,349.382874 
	C23.675919,343.065948 9.093183,328.705566 2.658636,306.094147 
	C2.433453,305.302856 1.567370,304.693939 0.999999,304.000000 
	C1.000000,218.979111 1.000000,133.958206 1.343172,48.668079 
	C1.950218,47.794529 2.291291,47.211754 2.466812,46.582787 
	C8.802581,23.878830 23.143717,9.119140 45.914429,2.657485 
	C46.702908,2.433737 47.308933,1.567028 48.000000,1.000000 
	C133.020889,1.000000 218.041794,1.000000 303.331573,1.342340 
	C304.519470,2.051009 305.414703,2.500484 306.360992,2.771486 
	C328.705231,9.170396 342.942871,23.617361 349.343658,45.913044 
	C349.570190,46.702168 350.433502,47.308479 351.000000,47.999996 
M109.454834,168.602859 
	C108.449928,166.686615 107.536285,164.715591 106.424416,162.863571 
	C101.453041,154.582809 90.802345,150.016815 81.405212,152.072144 
	C70.378166,154.483948 62.306244,164.197037 62.143837,175.249680 
	C61.979645,186.424271 69.743225,196.529770 80.494263,199.135590 
	C91.290253,201.752304 102.540405,196.598297 107.641891,186.231354 
	C109.195030,183.075165 110.944984,181.517685 114.442589,181.929001 
	C118.004883,182.347946 121.893478,180.687759 124.240723,185.594925 
	C128.526871,194.555557 135.822128,199.669312 146.047546,199.638840 
	C156.455856,199.607834 163.557129,194.294479 168.254089,185.265533 
	C168.888336,184.046326 169.982117,182.608826 171.176086,182.210419 
	C180.824799,178.990967 188.930405,183.984756 190.685410,194.021072 
	C190.886276,195.169800 191.123306,196.312729 191.366974,197.453339 
	C193.846451,209.059891 201.930176,216.585785 213.730637,217.607956 
	C217.245010,217.912369 218.837921,219.191284 220.330582,222.312195 
	C225.054214,232.188538 236.810760,237.516235 247.192261,234.977554 
	C258.220917,232.280624 266.029266,222.529007 266.037201,211.442535 
	C266.044678,201.054657 257.937500,190.729248 247.900787,188.343658 
	C236.472137,185.627197 225.374725,190.733109 220.198944,201.089233 
	C217.712234,206.064896 215.088959,207.353882 210.515884,204.210861 
	C207.506165,202.142334 204.990509,198.595337 203.550797,195.165833 
	C200.852112,188.737427 199.094559,181.913925 196.542648,174.006256 
	C201.018875,170.258316 202.248901,163.244156 203.514526,156.103424 
	C204.713501,149.338730 208.924225,146.140488 215.746918,146.067337 
	C222.412476,145.995865 229.088287,146.255600 235.742493,145.970596 
	C240.168961,145.781021 242.769623,146.818863 244.950439,151.312408 
	C250.883881,163.538116 267.051880,167.535919 278.461914,160.252380 
	C287.261353,154.635284 291.415833,144.923050 289.347565,134.804260 
	C287.336212,124.963867 279.104401,117.541092 268.477661,115.985474 
	C259.084229,114.610397 249.161621,119.597374 244.621841,128.930710 
	C242.650925,132.982697 240.309952,134.090286 236.172516,133.886917 
	C230.021072,133.584518 223.843704,133.800919 217.677399,133.810593 
	C202.415802,133.834534 193.642029,141.257721 190.818100,156.438995 
	C190.394592,158.715759 189.994278,161.080933 189.044556,163.159042 
	C186.729568,168.224411 182.204971,169.693878 177.056427,169.580536 
	C173.751663,169.507767 170.096252,170.749268 168.077591,166.267654 
	C163.855637,156.894531 156.289673,151.748398 146.077438,151.648254 
	C135.759079,151.547058 128.618881,157.066315 123.917076,166.139206 
	C123.144341,167.630310 121.172104,169.209076 119.581337,169.415604 
	C116.509483,169.814407 113.314301,169.263336 109.454834,168.602859 
z"/>
<path fill="#030102" opacity="1.000000" stroke="none" 
	d="
M47.531342,1.000000 
	C47.308933,1.567028 46.702908,2.433737 45.914429,2.657485 
	C23.143717,9.119140 8.802581,23.878830 2.466812,46.582787 
	C2.291291,47.211754 1.950218,47.794529 1.343172,48.199421 
	C1.000000,32.406612 1.000000,16.813225 1.000000,1.000000 
	C16.353529,1.000000 31.708105,1.000000 47.531342,1.000000 
z"/>
<path fill="#030102" opacity="1.000000" stroke="none" 
	d="
M351.000000,47.531338 
	C350.433502,47.308479 349.570190,46.702168 349.343658,45.913044 
	C342.942871,23.617361 328.705231,9.170396 306.360992,2.771486 
	C305.414703,2.500484 304.519470,2.051009 303.800232,1.342340 
	C319.593384,1.000000 335.186768,1.000000 351.000000,1.000000 
	C351.000000,16.353529 351.000000,31.708105 351.000000,47.531338 
z"/>
<path fill="#030102" opacity="1.000000" stroke="none" 
	d="
M0.999999,304.468658 
	C1.567370,304.693939 2.433453,305.302856 2.658636,306.094147 
	C9.093183,328.705566 23.675919,343.065948 46.271656,349.382874 
	C47.047871,349.599854 47.765301,350.027130 48.255062,350.678192 
	C32.406609,351.000000 16.813219,351.000000 1.000000,351.000000 
	C1.000000,335.646484 1.000000,320.291901 0.999999,304.468658 
z"/>
<path fill="#030102" opacity="1.000000" stroke="none" 
	d="
M304.468658,351.000000 
	C304.307556,350.512756 304.527863,349.692505 304.935150,349.585815 
	C328.755005,343.344910 343.406555,328.007172 349.856720,304.480896 
	C349.942169,304.169250 350.158447,303.893494 350.656830,303.800507 
	C351.000000,319.593384 351.000000,335.186798 351.000000,351.000000 
	C335.646484,351.000000 320.291901,351.000000 304.468658,351.000000 
z"/>
<path fill="#FEF5F7" opacity="1.000000" stroke="none" 
	d="
M109.812546,168.854462 
	C113.314301,169.263336 116.509483,169.814407 119.581337,169.415604 
	C121.172104,169.209076 123.144341,167.630310 123.917076,166.139206 
	C128.618881,157.066315 135.759079,151.547058 146.077438,151.648254 
	C156.289673,151.748398 163.855637,156.894531 168.077591,166.267654 
	C170.096252,170.749268 173.751663,169.507767 177.056427,169.580536 
	C182.204971,169.693878 186.729568,168.224411 189.044556,163.159042 
	C189.994278,161.080933 190.394592,158.715759 190.818100,156.438995 
	C193.642029,141.257721 202.415802,133.834534 217.677399,133.810593 
	C223.843704,133.800919 230.021072,133.584518 236.172516,133.886917 
	C240.309952,134.090286 242.650925,132.982697 244.621841,128.930710 
	C249.161621,119.597374 259.084229,114.610397 268.477661,115.985474 
	C279.104401,117.541092 287.336212,124.963867 289.347565,134.804260 
	C291.415833,144.923050 287.261353,154.635284 278.461914,160.252380 
	C267.051880,167.535919 250.883881,163.538116 244.950439,151.312408 
	C242.769623,146.818863 240.168961,145.781021 235.742493,145.970596 
	C229.088287,146.255600 222.412476,145.995865 215.746918,146.067337 
	C208.924225,146.140488 204.713501,149.338730 203.514526,156.103424 
	C202.248901,163.244156 201.018875,170.258316 196.542648,174.006256 
	C199.094559,181.913925 200.852112,188.737427 203.550797,195.165833 
	C204.990509,198.595337 207.506165,202.142334 210.515884,204.210861 
	C215.088959,207.353882 217.712234,206.064896 220.198944,201.089233 
	C225.374725,190.733109 236.472137,185.627197 247.900787,188.343658 
	C257.937500,190.729248 266.044678,201.054657 266.037201,211.442535 
	C266.029266,222.529007 258.220917,232.280624 247.192261,234.977554 
	C236.810760,237.516235 225.054214,232.188538 220.330582,222.312195 
	C218.837921,219.191284 217.245010,217.912369 213.730637,217.607956 
	C201.930176,216.585785 193.846451,209.059891 191.366974,197.453339 
	C191.123306,196.312729 190.886276,195.169800 190.685410,194.021072 
	C188.930405,183.984756 180.824799,178.990967 171.176086,182.210419 
	C169.982117,182.608826 168.888336,184.046326 168.254089,185.265533 
	C163.557129,194.294479 156.455856,199.607834 146.047546,199.638840 
	C135.822128,199.669312 128.526871,194.555557 124.240723,185.594925 
	C121.893478,180.687759 118.004883,182.347946 114.442589,181.929001 
	C110.944984,181.517685 109.195030,183.075165 107.641891,186.231354 
	C102.540405,196.598297 91.290253,201.752304 80.494263,199.135590 
	C69.743225,196.529770 61.979645,186.424271 62.143837,175.249680 
	C62.306244,164.197037 70.378166,154.483948 81.405212,152.072144 
	C90.802345,150.016815 101.453041,154.582809 106.424416,162.863571 
	C107.536285,164.715591 108.449928,166.686615 109.812546,168.854462 
M147.232513,163.871552 
	C141.705811,163.677383 137.484299,165.757614 135.189667,170.977112 
	C133.077545,175.781479 134.128754,180.134033 137.524704,183.929352 
	C140.754333,187.538773 144.893280,188.250824 149.403488,187.034164 
	C154.381744,185.691238 157.835403,181.150497 157.970184,175.997147 
	C158.120987,170.231537 154.844513,166.254532 147.232513,163.871552 
M75.836067,181.448410 
	C79.768105,186.891205 83.459007,188.504227 88.963409,187.185379 
	C93.649803,186.062531 97.419128,182.042206 97.961403,177.588196 
	C98.585785,172.459808 96.290421,167.760513 91.982826,165.348343 
	C87.635826,162.914093 82.029243,163.330475 78.472481,166.681976 
	C74.294296,170.619019 73.144196,175.364517 75.836067,181.448410 
M274.509003,147.971146 
	C278.400360,142.221390 278.724091,137.824371 275.594818,133.222290 
	C272.839600,129.170319 267.850494,127.043686 263.481720,128.156662 
	C258.536804,129.416428 255.168594,132.546600 254.157455,137.510071 
	C253.146790,142.471252 254.802521,146.724594 259.194489,149.607681 
	C263.773041,152.613266 268.576324,152.228607 274.509003,147.971146 
M239.119080,200.134171 
	C230.283737,203.407974 227.182770,212.432037 232.617783,219.053497 
	C236.100220,223.296112 242.067093,224.580566 247.040955,222.158279 
	C252.045502,219.721054 254.870758,213.948624 253.494263,208.973129 
	C251.766724,202.728714 247.216171,199.698181 239.119080,200.134171 
z"/>
<path fill="#EB5478" opacity="1.000000" stroke="none" 
	d="
M147.641113,163.913589 
	C154.844513,166.254532 158.120987,170.231537 157.970184,175.997147 
	C157.835403,181.150497 154.381744,185.691238 149.403488,187.034164 
	C144.893280,188.250824 140.754333,187.538773 137.524704,183.929352 
	C134.128754,180.134033 133.077545,175.781479 135.189667,170.977112 
	C137.484299,165.757614 141.705811,163.677383 147.641113,163.913589 
z"/>
<path fill="#EB5478" opacity="1.000000" stroke="none" 
	d="
M75.673660,181.105972 
	C73.144196,175.364517 74.294296,170.619019 78.472481,166.681976 
	C82.029243,163.330475 87.635826,162.914093 91.982826,165.348343 
	C96.290421,167.760513 98.585785,172.459808 97.961403,177.588196 
	C97.419128,182.042206 93.649803,186.062531 88.963409,187.185379 
	C83.459007,188.504227 79.768105,186.891205 75.673660,181.105972 
z"/>
<path fill="#EB5478" opacity="1.000000" stroke="none" 
	d="
M274.241760,148.236710 
	C268.576324,152.228607 263.773041,152.613266 259.194489,149.607681 
	C254.802521,146.724594 253.146790,142.471252 254.157455,137.510071 
	C255.168594,132.546600 258.536804,129.416428 263.481720,128.156662 
	C267.850494,127.043686 272.839600,129.170319 275.594818,133.222290 
	C278.724091,137.824371 278.400360,142.221390 274.241760,148.236710 
z"/>
<path fill="#EB5478" opacity="1.000000" stroke="none" 
	d="
M239.521927,200.035233 
	C247.216171,199.698181 251.766724,202.728714 253.494263,208.973129 
	C254.870758,213.948624 252.045502,219.721054 247.040955,222.158279 
	C242.067093,224.580566 236.100220,223.296112 232.617783,219.053497 
	C227.182770,212.432037 230.283737,203.407974 239.521927,200.035233 
z"/>
</svg>