<svg width="100" height="100" viewBox="0 0 100 100" fill="none" xmlns="http://www.w3.org/2000/svg">
<g clip-path="url(#clip0_820_2725)">
<path d="M52.3209 9.40611C52.3211 9.10146 52.244 8.80174 52.0968 8.53502C51.9496 8.2683 51.7371 8.04331 51.4792 7.88111L39.25 0.264445C38.9725 0.0916103 38.652 0 38.325 0C37.9981 0 37.6776 0.0916103 37.4 0.264445L15.0042 14.1478L14.9125 14.2103C14.6793 14.3769 14.4895 14.5971 14.359 14.8523C14.2285 15.1075 14.1611 15.3903 14.1625 15.6769V30.0228L2.95421 36.6686C2.68795 36.8281 2.4677 37.0541 2.31505 37.3244C2.16239 37.5946 2.08256 37.8999 2.08338 38.2103V61.6186C2.10346 61.9117 2.19529 62.1953 2.35078 62.4445C2.50627 62.6937 2.72065 62.9009 2.97505 63.0478L14.1625 69.5478V84.1811C14.1604 84.4862 14.2362 84.7868 14.3827 85.0544C14.5293 85.322 14.7418 85.5478 15 85.7103L37.3917 99.7353C37.6676 99.9077 37.986 99.9998 38.3114 100.001C38.6367 100.003 38.956 99.9135 39.2334 99.7436L51.4625 92.2853C51.7251 92.1241 51.9417 91.8979 52.0913 91.6286C52.2409 91.3592 52.3185 91.0559 52.3167 90.7478V54.5478H48.7792V59.2894L25.3334 73.5436L27.15 76.6144L48.7792 63.4644V89.7353L38.3334 96.1103L29.6167 90.6519L38.7834 85.1269L36.975 82.0436L26.225 88.5269L17.6959 83.1853V68.9936L27.5875 63.0353L25.7834 59.9561L15.4667 66.1769L5.62088 60.4561V51.0186L16.3917 44.5186L14.5834 41.4436L5.62088 46.8478V39.2311L15.8917 33.1394L25.65 39.4394V48.4853L18.3584 53.2769L20.2792 56.2769L27.2375 51.7144L33.625 56.2478L35.65 53.3103L29.1917 48.7269V39.2686L39.8334 32.5728C40.0894 32.4093 40.3001 32.1838 40.4458 31.9172C40.5914 31.6506 40.6674 31.3516 40.6667 31.0478V19.7019H37.1334V30.0478L27.2917 36.2519L17.6959 30.0686V16.6811L25.5 11.8353V23.1353H29.0417V9.64778L38.3209 3.89361L48.775 10.4061V44.3228H52.3167V9.40611H52.3209Z" fill="url(#paint0_linear_820_2725)"/>
<path fill-rule="evenodd" clip-rule="evenodd" d="M78.9419 51.1385C79.3669 53.4378 80.6359 55.4953 82.4997 56.9073C84.3636 58.3192 86.6878 58.9836 89.0163 58.7702C91.3449 58.5568 93.5096 57.4809 95.0857 55.7537C96.6619 54.0265 97.5357 51.7726 97.5357 49.4343C97.5357 47.0961 96.6619 44.8422 95.0857 43.115C93.5096 41.3878 91.3449 40.3119 89.0163 40.0985C86.6878 39.8851 84.3636 40.5495 82.4997 41.9614C80.6359 43.3734 79.3669 45.4309 78.9419 47.7302H44.696V51.1385H78.946H78.9419ZM94.1294 49.4302C94.1504 50.2267 94.0117 51.0194 93.7214 51.7615C93.4312 52.5036 92.9952 53.18 92.4392 53.7508C91.8833 54.3216 91.2186 54.7753 90.4845 55.0851C89.7504 55.3949 88.9616 55.5545 88.1648 55.5545C87.368 55.5545 86.5792 55.3949 85.8451 55.0851C85.1109 54.7753 84.4463 54.3216 83.8903 53.7508C83.3344 53.18 82.8984 52.5036 82.6081 51.7615C82.3179 51.0194 82.1792 50.2267 82.2002 49.4302C82.2413 47.8756 82.8877 46.3984 84.0018 45.3134C85.1159 44.2284 86.6096 43.6212 88.1648 43.6212C89.7199 43.6212 91.2137 44.2284 92.3277 45.3134C93.4418 46.3984 94.0883 47.8756 94.1294 49.4302Z" fill="url(#paint1_linear_820_2725)"/>
<path fill-rule="evenodd" clip-rule="evenodd" d="M75.3791 61.3632H55.7749V57.9548H78.7874V75.0007H85.6082V92.0465H68.5624V75.0048H75.3791V61.3632ZM71.9707 88.6382V78.409H82.1957V88.6382H71.9707Z" fill="url(#paint2_linear_820_2725)"/>
<path fill-rule="evenodd" clip-rule="evenodd" d="M75.3791 37.5017H55.7749V40.9101H78.7874V23.8684H88.6832L77.0832 5.30591L65.4874 23.8601H75.3791V37.5017ZM77.0874 11.7392L71.6332 20.4601H82.5291L77.0874 11.7392Z" fill="url(#paint3_linear_820_2725)"/>
</g>
<defs>
<linearGradient id="paint0_linear_820_2725" x1="14.5834" y1="14.5853" x2="85.4167" y2="89.5853" gradientUnits="userSpaceOnUse">
<stop stop-color="#43E3E4"/>
<stop offset="0.25" stop-color="#4A9FFF"/>
<stop offset="0.5" stop-color="#AA4BFB"/>
<stop offset="0.75" stop-color="#FC5978"/>
<stop offset="1" stop-color="#FF6D32"/>
</linearGradient>
<linearGradient id="paint1_linear_820_2725" x1="14.5835" y1="14.5843" x2="85.4169" y2="89.5843" gradientUnits="userSpaceOnUse">
<stop stop-color="#43E3E4"/>
<stop offset="0.25" stop-color="#4A9FFF"/>
<stop offset="0.5" stop-color="#AA4BFB"/>
<stop offset="0.75" stop-color="#FC5978"/>
<stop offset="1" stop-color="#FF6D32"/>
</linearGradient>
<linearGradient id="paint2_linear_820_2725" x1="14.5832" y1="14.584" x2="85.4166" y2="89.584" gradientUnits="userSpaceOnUse">
<stop stop-color="#43E3E4"/>
<stop offset="0.25" stop-color="#4A9FFF"/>
<stop offset="0.5" stop-color="#AA4BFB"/>
<stop offset="0.75" stop-color="#FC5978"/>
<stop offset="1" stop-color="#FF6D32"/>
</linearGradient>
<linearGradient id="paint3_linear_820_2725" x1="14.5832" y1="14.5851" x2="85.4166" y2="89.5851" gradientUnits="userSpaceOnUse">
<stop stop-color="#43E3E4"/>
<stop offset="0.25" stop-color="#4A9FFF"/>
<stop offset="0.5" stop-color="#AA4BFB"/>
<stop offset="0.75" stop-color="#FC5978"/>
<stop offset="1" stop-color="#FF6D32"/>
</linearGradient>
<clipPath id="clip0_820_2725">
<rect width="100" height="100" fill="white"/>
</clipPath>
</defs>
</svg>
