<svg width="100" height="100" viewBox="0 0 100 100" fill="none" xmlns="http://www.w3.org/2000/svg">
<path d="M42.5499 37.4V31.75C43.0791 31.7084 43.6166 31.6792 44.1666 31.6625C59.1499 31.175 68.9874 44.9292 68.9874 44.9292C68.9874 44.9292 58.3707 60.125 46.9791 60.125C45.4723 60.1319 43.975 59.8854 42.5499 59.3959V42.275C48.3833 43 49.5541 45.6584 53.0624 51.6834L60.8666 44.9042C59.0253 42.5928 56.7048 40.7082 54.0648 39.3803C51.4248 38.0524 48.5283 37.3128 45.5749 37.2125C44.5598 37.2175 43.5457 37.2787 42.5374 37.3959M42.5374 18.7458V27.1834C43.0791 27.1417 43.6166 27.1042 44.1541 27.0834C64.9958 26.3583 78.5749 44.6917 78.5749 44.6917C78.5749 44.6917 62.9791 64.2334 46.7291 64.2334C45.3208 64.2334 43.9166 64.1042 42.5333 63.85V69.0583C43.6916 69.2167 44.8582 69.2959 46.0249 69.2959C61.1457 69.2959 72.0791 61.3375 82.6666 51.925C84.4208 53.3708 91.6082 56.8959 93.0874 58.4417C83.0207 67.1209 59.5541 74.1208 46.2541 74.1208C44.9707 74.1208 43.7416 74.0375 42.5291 73.9208V81.25H99.9999V18.75H42.5416L42.5374 18.7458ZM42.5374 59.3959V63.8459C28.5541 61.2792 24.6749 46.3042 24.6749 46.3042C29.4323 41.3755 35.7383 38.2305 42.5374 37.3959V42.2792H42.5166C40.5216 42.2602 38.548 42.6918 36.743 43.5416C34.938 44.3915 33.348 45.6377 32.0916 47.1875C32.0916 47.1875 34.6541 56.6667 42.5374 59.3959ZM17.6999 45.65C23.6833 37.5875 32.7166 32.5333 42.5374 31.75V27.1792C24.2082 28.6958 8.33325 44.6792 8.33325 44.6792C8.33325 44.6792 17.3249 71.4584 42.5416 73.9084V69.05C24.0416 66.6667 17.7083 45.6584 17.7083 45.6584H17.6999V45.65Z" fill="#74B71B"/>
</svg>
