<svg width="100" height="100" viewBox="0 0 100 100" fill="none" xmlns="http://www.w3.org/2000/svg">
<path d="M50.0002 95.5261C53.8669 95.5261 56.9961 92.3928 56.9961 88.5261V27.9011H43.0044V88.5345C43.0044 92.397 46.1336 95.5261 50.0002 95.5261Z" fill="#F9AB00"/>
<path d="M77.875 50.0227C74.2907 46.4412 69.6744 44.0726 64.6746 43.2498C59.6749 42.427 54.543 43.1912 50 45.4352L79.95 75.3852C81.1833 76.6185 83.3125 76.131 83.8375 74.4685C85.1774 70.2385 85.3299 65.7217 84.2784 61.4109C83.227 57.1001 81.012 53.1608 77.875 50.0227Z" fill="#5BB974"/>
<path d="M22.125 50.0227C25.7093 46.4412 30.3256 44.0726 35.3254 43.2498C40.3251 42.427 45.457 43.1912 50 45.4352L20.05 75.3852C19.7679 75.6698 19.4174 75.8773 19.0321 75.9877C18.6468 76.0982 18.2396 76.1079 17.8495 76.0159C17.4594 75.9239 17.0994 75.7333 16.804 75.4624C16.5087 75.1915 16.2878 74.8492 16.1625 74.4685C14.8227 70.2385 14.6701 65.7217 15.7216 61.4109C16.773 57.1001 18.988 53.1608 22.125 50.0227Z" fill="#129EAF"/>
<path d="M75.6542 26.7742C63.7375 26.7742 53.6208 34.5867 50 45.4325H97.3625C97.8088 45.4334 98.2479 45.3203 98.6382 45.104C99.0286 44.8876 99.3572 44.5752 99.593 44.1963C99.8287 43.8174 99.9639 43.3846 99.9855 42.9388C100.007 42.493 99.9146 42.0491 99.7167 41.6492C95.2167 32.8158 86.1333 26.7742 75.6542 26.7742Z" fill="#AF5CF7"/>
<path d="M54.9503 14.1008C46.5211 22.5341 44.892 35.2008 50.0003 45.4341L83.492 11.9383C83.8086 11.6235 84.0397 11.2331 84.1631 10.804C84.2865 10.3749 84.2983 9.92143 84.1973 9.48653C84.0963 9.05162 83.8859 8.64973 83.586 8.31898C83.2861 7.98822 82.9066 7.73956 82.4836 7.59659C73.0503 4.53409 62.3586 6.69243 54.9503 14.1008Z" fill="#FF8BCB"/>
<path d="M45.0498 14.1008C53.479 22.5341 55.1081 35.2008 49.9998 45.4341L16.5081 11.9383C16.1915 11.6235 15.9605 11.2331 15.837 10.804C15.7136 10.3749 15.7018 9.92143 15.8028 9.48653C15.9038 9.05162 16.1142 8.64973 16.4142 8.31898C16.7141 7.98822 17.0935 7.73956 17.5165 7.59659C26.9498 4.53409 37.6415 6.69243 45.0498 14.1008Z" fill="#FA7B17"/>
<path d="M24.3457 26.7742C36.2623 26.7742 46.379 34.5867 49.9998 45.4325H2.63733C2.19105 45.4334 1.75193 45.3203 1.3616 45.104C0.971259 44.8876 0.64263 44.5752 0.406853 44.1963C0.171076 43.8174 0.0359621 43.3846 0.0143157 42.9388C-0.00733073 42.493 0.0852075 42.0491 0.28316 41.6492C4.78316 32.8158 13.8665 26.7742 24.3457 26.7742Z" fill="#4285F4"/>
</svg>
