<svg width="100" height="100" viewBox="0 0 100 100" fill="none" xmlns="http://www.w3.org/2000/svg">
<path d="M82.4374 0V30.3H93.7499V73.4167H81.5207V100L52.1999 74.1917V99.7958H47.654V74.1625L18.2999 100V73.0625H6.24988V29.95H18.2665V0L47.654 27.0583V0.791667H52.1957V27.8333L82.4374 0ZM52.1999 37.6833V68.1792L76.9749 89.9875V60.1667L52.1999 37.6833ZM47.6207 37.35L22.8457 59.8417V89.9875L47.6207 68.1792V37.3542V37.35ZM81.5207 68.9333H89.204V34.7875H56.0832L81.5207 57.8708V68.9333ZM44.0957 34.4333H10.7915V68.5792H18.2915V57.8458L44.0915 34.4292L44.0957 34.4333ZM22.8124 10.3167V29.9417H44.1249L22.8124 10.3167ZM77.8915 10.3167L56.579 29.9417H77.8915V10.3167Z" fill="#22B8CD"/>
</svg>
