<svg width="100" height="100" viewBox="0 0 100 100" fill="none" xmlns="http://www.w3.org/2000/svg">
<path fill-rule="evenodd" clip-rule="evenodd" d="M11.2166 15.6333C8.33328 19.8708 8.33328 25.8041 8.33328 37.6666V62.3333C8.33328 74.1958 8.33328 80.1249 11.2166 84.3666C12.3973 86.104 13.8959 87.6025 15.6333 88.7833C19.8708 91.6666 25.8041 91.6666 37.6666 91.6666H62.3333C74.1958 91.6666 80.125 91.6666 84.3666 88.7833C86.104 87.6025 87.6026 86.104 88.7833 84.3666C91.6666 80.1291 91.6666 74.1958 91.6666 62.3333V37.6666C91.6666 25.8041 91.6666 19.8749 88.7833 15.6333C87.6026 13.8959 86.104 12.3973 84.3666 11.2166C80.1291 8.33325 74.1958 8.33325 62.3333 8.33325H37.6666C25.8041 8.33325 19.875 8.33325 15.6333 11.2166C13.8959 12.3973 12.3973 13.8959 11.2166 15.6333ZM80.2583 63.4583C80.2495 63.0451 80.1595 62.6378 79.9933 62.2595C79.8271 61.8812 79.5881 61.5393 79.2898 61.2533C78.6873 60.6759 77.8801 60.3614 77.0458 60.3791C76.2115 60.3968 75.4183 60.7452 74.8409 61.3476C74.2634 61.9501 73.9489 62.7573 73.9666 63.5916C74.0875 69.0291 72.7 71.5583 70.9458 72.7999C68.9958 74.1916 65.5791 74.7708 59.9666 73.9333C59.1533 73.8354 58.3339 74.0586 57.6827 74.5555C57.0314 75.0523 56.5996 75.7836 56.4791 76.5939C56.3586 77.4041 56.559 78.2294 57.0375 78.8943C57.516 79.5591 58.235 80.0111 59.0416 80.1541C65.0625 81.0499 70.5791 80.7791 74.5874 77.9291C78.7958 74.9374 80.3958 69.8458 80.2583 63.4583Z" fill="#FF4017"/>
</svg>
