<svg width="100" height="100" viewBox="0 0 100 100" fill="none" xmlns="http://www.w3.org/2000/svg">
<g id="php">
<g id="php_2">
<path id="Vector" fill-rule="evenodd" clip-rule="evenodd" d="M50 75.6773C77.6143 75.6773 100 64.3324 100 50.3386C100 36.3449 77.6143 25 50 25C22.3863 25 0 36.3449 0 50.3386C0 64.3324 22.3863 75.6773 50 75.6773Z" fill="#6E81B6"/>
<path id="Vector_2" fill-rule="evenodd" clip-rule="evenodd" d="M60.1331 58.5283L62.6133 45.7638C63.1731 42.8828 62.7076 40.734 61.2305 39.3761C59.7994 38.0623 57.3701 37.4232 53.8041 37.4232H49.5089L50.7375 31.099C50.7605 30.9813 50.7572 30.8599 50.7278 30.7436C50.6984 30.6274 50.6436 30.5191 50.5673 30.4265C50.4911 30.3339 50.3953 30.2593 50.2869 30.2081C50.1784 30.1569 50.06 30.1304 49.94 30.1304H44.0118C43.6225 30.1304 43.2881 30.4067 43.2137 30.7888L40.5795 44.3399C40.34 42.8151 39.7499 41.5043 38.8055 40.4226C37.0667 38.4323 34.3163 37.4232 30.63 37.4232H19.14C18.7506 37.4232 18.4163 37.6995 18.3419 38.081L13.0111 65.511C12.9645 65.7498 13.0268 65.9952 13.1816 66.1827C13.3357 66.3707 13.5655 66.4789 13.8092 66.4789H19.7839C20.1733 66.4789 20.5076 66.2026 20.582 65.8199L21.8716 59.1855H26.3191C28.6529 59.1855 30.6143 58.9328 32.1452 58.4346C33.7105 57.9255 35.1513 57.0621 36.421 55.8735C37.447 54.9309 38.2946 53.8752 38.947 52.7367L37.8823 58.2169C37.8357 58.4558 37.898 58.7024 38.0528 58.8887C38.207 59.0767 38.4373 59.1849 38.6804 59.1849H44.6086C44.9979 59.1849 45.3323 58.9086 45.4067 58.5271L48.3324 43.4705H52.4002C54.1336 43.4705 54.6415 43.8157 54.7799 43.9639C54.9051 44.0993 55.1651 44.5763 54.873 46.08L52.5151 58.2163C52.4925 58.334 52.4961 58.4552 52.5257 58.5713C52.5554 58.6874 52.6103 58.7955 52.6865 58.888C52.7627 58.9804 52.8584 59.0549 52.9667 59.1061C53.075 59.1574 53.1933 59.1841 53.3131 59.1843H59.3357C59.5241 59.1847 59.7068 59.1194 59.8523 58.9997C59.9979 58.88 60.0972 58.7133 60.1331 58.5283ZM32.6488 47.9815C32.2764 49.8951 31.575 51.2597 30.5629 52.0378C29.5351 52.8305 27.8911 53.2319 25.6764 53.2319H23.0282L24.943 43.378H28.3669C30.8821 43.378 31.8954 43.9155 32.3024 44.3659C32.8665 44.9911 32.9862 46.242 32.6488 47.9815ZM85.1041 40.4226C83.3659 38.4323 80.6155 37.4232 76.9292 37.4232H65.4392C65.0492 37.4232 64.7155 37.6995 64.6411 38.081L59.3109 65.511C59.2637 65.7498 59.326 65.9952 59.4808 66.1827C59.6355 66.3701 59.8659 66.4789 60.1077 66.4789H66.0831C66.4731 66.4789 66.8068 66.2026 66.8812 65.8199L68.1708 59.1855H72.6189C74.9533 59.1855 76.9129 58.9328 78.4444 58.4346C80.0103 57.9255 81.4511 57.0621 82.7201 55.8735C83.7794 54.9006 84.6507 53.8069 85.3109 52.6261C85.9711 51.4453 86.4445 50.1285 86.7209 48.7113C87.3998 45.216 86.8563 42.4275 85.1041 40.4226ZM79.2872 47.9815C78.9141 49.8951 78.2128 51.2597 77.2019 52.0378C76.1734 52.8305 74.5295 53.2319 72.3154 53.2319H69.6666L71.5808 43.378H75.0053C77.5205 43.378 78.5338 43.9155 78.9413 44.3659C79.5042 44.9911 79.6245 46.242 79.2872 47.9815Z" fill="white"/>
<path id="Vector_3" fill-rule="evenodd" clip-rule="evenodd" d="M28.197 42.565C30.4667 42.565 31.98 42.984 32.7364 43.822C33.4922 44.66 33.6723 46.099 33.2769 48.1371C32.8634 50.2599 32.0677 51.775 30.8887 52.6832C29.7097 53.5913 27.9152 54.0447 25.5065 54.0447H21.8715L24.1026 42.565H28.197ZM13.6385 65.6659H19.6133L21.0311 58.3737H26.1492C28.4074 58.3737 30.2654 58.1361 31.7237 57.6615C33.182 57.1869 34.5079 56.3918 35.7008 55.2751C36.702 54.3555 37.5122 53.3398 38.1326 52.2297C38.7523 51.1196 39.1924 49.8953 39.453 48.5561C40.0855 45.3045 39.6084 42.7718 38.0231 40.958C36.4384 39.1436 33.9166 38.2366 30.46 38.2366H18.97L13.6385 65.6659ZM43.8413 30.9438H49.7695L48.3523 38.2366H53.6342C56.9559 38.2366 59.2492 38.8159 60.5104 39.9749C61.7716 41.1339 62.1495 43.0124 61.6453 45.6092L59.1652 58.3737H53.1426L55.5006 46.2368C55.7685 44.8559 55.6705 43.9145 55.2044 43.4121C54.7382 42.9103 53.746 42.6588 52.2297 42.6588H47.4919L44.438 58.3737H38.5098L43.8413 30.9438ZM74.8355 42.565C77.1052 42.565 78.6179 42.984 79.3749 43.822C80.1307 44.66 80.3102 46.099 79.9148 48.1371C79.5025 50.2599 78.7068 51.775 77.5272 52.6832C76.3488 53.5913 74.5537 54.0447 72.1462 54.0447H68.5112L70.7416 42.565H74.8355ZM60.2758 65.6659H66.2512L67.6684 58.3737H72.7864C75.0453 58.3737 76.9033 58.1361 78.3616 57.6615C79.8199 57.1869 81.1458 56.3918 82.3387 55.2751C83.3399 54.3555 84.1501 53.3398 84.7698 52.2297C85.3896 51.1196 85.8303 49.8953 86.0915 48.5561C86.7233 45.3045 86.2463 42.7718 84.6616 40.958C83.0757 39.1436 80.5545 38.2366 77.0979 38.2366H65.6079L60.2758 65.6659Z" fill="black"/>
</g>
</g>
</svg>
