<svg width="100" height="100" viewBox="0 0 100 100" fill="none" xmlns="http://www.w3.org/2000/svg">
<g id="powershell">
<g id="powershell_2">
<path id="Vector" fill-rule="evenodd" clip-rule="evenodd" d="M58.6929 12.0146C69.9348 12.0107 81.1771 11.9765 92.419 12.0239C99.1022 12.0512 100.987 14.2844 99.5458 20.8846C95.3268 40.2143 91.0129 59.5244 86.641 78.8204C85.2584 84.9193 82.0819 87.4178 75.6659 87.4368C53.1817 87.5037 30.6974 87.5111 8.21374 87.4339C0.864588 87.408 -1.06858 84.9189 0.514792 77.9542C4.81104 59.0393 9.13024 40.1302 13.4841 21.2285C15.1427 14.0254 17.6353 12.0478 24.9659 12.0268C36.2082 11.9951 47.4506 12.0185 58.6929 12.0146Z" fill="#E0EAF5"/>
<path id="Vector_2" fill-rule="evenodd" clip-rule="evenodd" d="M41.7039 85.189C30.4606 85.1851 19.2168 85.2368 7.97394 85.1631C2.27265 85.1259 1.23596 83.7805 2.51936 78.2043C6.87032 59.2928 11.3615 40.413 15.6157 21.4801C16.7565 16.4021 19.2173 14.1578 24.6577 14.2081C47.1424 14.4167 69.631 14.275 92.1171 14.298C97.7564 14.3034 98.7031 15.5096 97.4373 21.2289C93.3272 39.797 89.1912 58.3597 84.9824 76.9057C83.4074 83.8464 81.5929 85.1709 74.2907 85.187C63.4284 85.21 52.5657 85.1929 41.7039 85.189Z" fill="#2671BE"/>
<path id="Vector_3" fill-rule="evenodd" clip-rule="evenodd" d="M51.2711 48.1272C50.5173 47.2429 49.6897 46.2248 48.8132 45.2516C43.8433 39.7311 38.9173 34.1695 33.8589 28.7315C31.5442 26.2429 30.8065 23.8261 33.5863 21.3697C36.3334 18.9416 39.0326 19.1566 41.5525 21.9501C48.5704 29.7272 55.58 37.5131 62.7142 45.1832C65.3778 48.048 64.7573 49.9958 61.8236 52.1185C50.5632 60.2689 39.3663 68.5077 28.1816 76.7621C25.6676 78.6181 23.2708 79.0827 21.2399 76.3415C18.9994 73.3179 21.0723 71.5191 23.3963 69.8268C31.7079 63.7727 40.0033 57.6962 48.2631 51.5719C49.4137 50.7189 51.0654 50.2215 51.2711 48.1272Z" fill="#FDFDFE"/>
<path id="Vector_4" fill-rule="evenodd" clip-rule="evenodd" d="M54.8311 77.3754C51.8041 77.3754 48.7727 77.4794 45.7525 77.3421C43.343 77.2332 41.893 75.8868 41.9233 73.3488C41.9526 70.9491 43.1623 69.1449 45.5693 69.0799C52.1852 68.9026 58.8108 68.9407 65.4291 69.0701C67.5322 69.1112 69.0848 70.4815 69.0721 72.6731C69.057 75.1872 67.734 77.135 65.0416 77.2972C61.6492 77.5024 58.2358 77.348 54.8316 77.348C54.8311 77.3563 54.8311 77.3661 54.8311 77.3754Z" fill="#FCFDFD"/>
</g>
</g>
</svg>
