<svg width="100" height="100" viewBox="0 0 100 100" fill="none" xmlns="http://www.w3.org/2000/svg">
<g id="presto">
<g id="presto_2">
<path id="Ellipse 154" d="M57.5897 16.5464C59.3474 14.7887 59.3474 11.9389 57.5897 10.1811C55.8319 8.42341 52.9821 8.4234 51.2244 10.1811C49.4667 11.9389 49.4667 14.7887 51.2244 16.5464C52.9821 18.3041 55.8319 18.3041 57.5897 16.5464Z" fill="#5D88D6"/>
<path id="Ellipse 155" d="M70.3167 29.2726C72.2696 27.3197 72.2696 24.1535 70.3167 22.2006C68.3639 20.2477 65.1976 20.2477 63.2447 22.2006C61.2919 24.1534 61.2919 27.3197 63.2447 29.2726C65.1976 31.2255 68.3639 31.2255 70.3167 29.2726Z" fill="#5D88D6"/>
<path id="Ellipse 156" d="M83.0417 42.0012C85.1894 39.8534 85.1894 36.3712 83.0417 34.2234C80.8939 32.0756 77.4117 32.0756 75.2639 34.2234C73.1161 36.3712 73.1161 39.8534 75.2639 42.0012C77.4117 44.149 80.8939 44.149 83.0417 42.0012Z" fill="#5D88D6"/>
<path id="Ellipse 157" d="M95.757 54.7144C98.1 52.3715 98.1 48.5728 95.757 46.2299C93.4141 43.887 89.6155 43.887 87.2725 46.2299C84.9296 48.5728 84.9296 52.3715 87.2725 54.7144C89.6155 57.0573 93.4141 57.0573 95.757 54.7144Z" fill="#5D88D6"/>
<path id="Ellipse 158" d="M32.5029 16.1935C34.0658 14.6307 34.0658 12.0968 32.5029 10.534C30.9401 8.97118 28.4063 8.97118 26.8434 10.534C25.2806 12.0968 25.2806 14.6307 26.8434 16.1935C28.4063 17.7564 30.9401 17.7564 32.5029 16.1935Z" fill="#32DBFC"/>
<path id="Ellipse 159" d="M45.2281 28.9192C46.9858 27.1615 46.9858 24.3117 45.2281 22.5539C43.4704 20.7962 40.6205 20.7962 38.8628 22.5539C37.1051 24.3117 37.1051 27.1615 38.8628 28.9192C40.6205 30.6769 43.4704 30.6769 45.2281 28.9192Z" fill="#32DBFC"/>
<path id="Ellipse 160" d="M57.9439 41.6351C59.8968 39.6822 59.8968 36.516 57.9439 34.5631C55.9911 32.6102 52.8248 32.6102 50.8719 34.5631C48.9191 36.516 48.9191 39.6822 50.8719 41.6351C52.8248 43.588 55.9911 43.588 57.9439 41.6351Z" fill="#32DBFC"/>
<path id="Ellipse 161" d="M70.665 54.3545C72.8127 52.2067 72.8127 48.7245 70.665 46.5767C68.5172 44.4289 65.035 44.4289 62.8872 46.5767C60.7394 48.7245 60.7394 52.2067 62.8872 54.3545C65.035 56.5022 68.5172 56.5022 70.665 54.3545Z" fill="#32DBFC"/>
<path id="Ellipse 162" d="M83.3952 67.0899C85.7381 64.747 85.7381 60.9483 83.3952 58.6054C81.0523 56.2625 77.2536 56.2625 74.9107 58.6054C72.5678 60.9483 72.5678 64.747 74.9107 67.0899C77.2536 69.4328 81.0523 69.4328 83.3952 67.0899Z" fill="#32DBFC"/>
<path id="Ellipse 163" d="M7.42869 15.8533C8.79637 14.4857 8.79637 12.2682 7.42869 10.9006C6.06102 9.53288 3.84358 9.53288 2.47591 10.9006C1.10823 12.2682 1.10823 14.4857 2.47591 15.8533C3.84358 17.221 6.06102 17.221 7.42869 15.8533Z" fill="black"/>
<path id="Ellipse 164" d="M20.1372 28.5605C21.7 26.9976 21.7 24.4638 20.1372 22.901C18.5744 21.3381 16.0405 21.3381 14.4777 22.901C12.9149 24.4638 12.9149 26.9976 14.4777 28.5605C16.0405 30.1233 18.5744 30.1233 20.1372 28.5605Z" fill="black"/>
<path id="Ellipse 165" d="M32.8682 41.2949C34.626 39.5372 34.626 36.6874 32.8682 34.9297C31.1105 33.1719 28.2607 33.1719 26.503 34.9297C24.7452 36.6874 24.7452 39.5372 26.503 41.2949C28.2607 43.0527 31.1105 43.0527 32.8682 41.2949Z" fill="black"/>
<path id="Ellipse 166" d="M45.5887 54.0148C47.5416 52.0619 47.5416 48.8956 45.5887 46.9428C43.6358 44.9899 40.4696 44.9899 38.5167 46.9428C36.5638 48.8956 36.5638 52.0619 38.5167 54.0148C40.4696 55.9676 43.6358 55.9676 45.5887 54.0148Z" fill="black"/>
<path id="Ellipse 167" d="M58.3078 66.7373C60.4555 64.5895 60.4555 61.1073 58.3078 58.9595C56.16 56.8117 52.6778 56.8117 50.53 58.9595C48.3822 61.1073 48.3822 64.5895 50.53 66.7373C52.6778 68.885 56.16 68.885 58.3078 66.7373Z" fill="black"/>
<path id="Ellipse 168" d="M71.0202 79.4417C73.3631 77.0988 73.3631 73.3001 71.0202 70.9572C68.6773 68.6143 64.8786 68.6143 62.5357 70.9572C60.1928 73.3001 60.1928 77.0988 62.5357 79.4417C64.8786 81.7846 68.6773 81.7846 71.0202 79.4417Z" fill="black"/>
<path id="Ellipse 169" d="M32.5044 65.6591C34.0672 64.0963 34.0672 61.5624 32.5044 59.9996C30.9416 58.4368 28.4077 58.4368 26.8449 59.9996C25.2821 61.5624 25.2821 64.0963 26.8449 65.6591C28.4077 67.2219 30.9416 67.2219 32.5044 65.6591Z" fill="#5D88D6"/>
<path id="Ellipse 170" d="M17.3095 79.1983C19.5197 79.1983 21.3114 77.4066 21.3114 75.1965C21.3114 72.9863 19.5197 71.1946 17.3095 71.1946C15.0993 71.1946 13.3076 72.9863 13.3076 75.1965C13.3076 77.4066 15.0993 79.1983 17.3095 79.1983Z" fill="#5D88D6"/>
<path id="Ellipse 171" d="M4.94646 91.5733C7.15664 91.5733 8.94834 89.7816 8.94834 87.5715C8.94834 85.3613 7.15664 83.5696 4.94646 83.5696C2.73628 83.5696 0.94458 85.3613 0.94458 87.5715C0.94458 89.7816 2.73628 91.5733 4.94646 91.5733Z" fill="#5D88D6"/>
<path id="Ellipse 172" d="M29.6767 91.5667C31.8869 91.5667 33.6786 89.775 33.6786 87.5649C33.6786 85.3547 31.8869 83.563 29.6767 83.563C27.4665 83.563 25.6748 85.3547 25.6748 87.5649C25.6748 89.775 27.4665 91.5667 29.6767 91.5667Z" fill="#5D88D6"/>
<path id="Ellipse 173" d="M57.2432 90.4035C58.806 88.8407 58.806 86.3068 57.2432 84.744C55.6803 83.1811 53.1465 83.1811 51.5837 84.744C50.0208 86.3068 50.0208 88.8407 51.5837 90.4035C53.1465 91.9663 55.6803 91.9663 57.2432 90.4035Z" fill="#5D88D6"/>
<path id="Ellipse 174" d="M44.8713 78.0248C46.4342 76.462 46.4342 73.9281 44.8713 72.3653C43.3085 70.8025 40.7747 70.8025 39.2118 72.3653C37.649 73.9281 37.649 76.462 39.2118 78.0248C40.7747 79.5877 43.3085 79.5877 44.8713 78.0248Z" fill="#5D88D6"/>
</g>
</g>
</svg>
