<svg width="100" height="100" viewBox="0 0 100 100" fill="none" xmlns="http://www.w3.org/2000/svg">
<g id="pugjs">
<g id="pugjs_2">
<path id="Vector" d="M83.678 38.2001C83.5219 34.766 83.9902 31.722 82.4292 29.1464C78.6828 22.7464 69.3169 19 50.5851 19V19.5463H50.1949H50.5851V19C31.8533 19 22.0191 22.7464 18.2728 29.2245C16.7898 31.8781 16.9459 34.844 16.7118 38.2782C16.5557 41.0099 15.3069 43.8977 15.8532 47.0197C16.4776 51.0783 16.7118 55.1368 17.3362 58.8832C17.8045 61.9271 22.0191 64.5028 22.4094 67.3906C23.502 75.3516 31.7753 79.0199 50.5071 79.0199V79.6443H50.0388H50.5851V79.0199C69.3169 79.0199 77.2779 75.3516 78.2926 67.3906C78.6828 64.4247 82.5853 61.9271 83.0536 58.8832C83.678 55.1368 83.9121 51.0783 84.5365 47.0197C85.0829 43.8977 83.8341 40.9319 83.678 38.2001Z" fill="#EFCCA3"/>
<path id="Vector_2" d="M50.273 41.0098C53.6292 41.0878 55.9706 43.1951 58.156 45.1464C60.7316 47.4098 65.1024 48.9708 66.8975 50.922C68.6927 52.8733 71.0342 54.8245 71.8927 57.8684C72.7512 60.9123 72.9854 64.8148 72.9854 65.8294C72.9854 66.8441 73.5317 66.6099 75.0927 65.8294C78.761 64.0343 82.8196 59.1953 82.8196 59.1953C82.3513 62.2392 78.3708 64.9709 77.9805 67.8587C77.044 75.8198 69.3171 79.6442 50.195 79.6442H50.1169H50.5852" fill="#CCAC8D"/>
<path id="Vector_3" d="M62.6049 34.9219C63.3073 37.3415 65.8049 45.5366 60.9658 42.8049C60.9658 42.8049 62.9951 43.9757 64.2439 48.4245C65.5707 52.8733 68.7707 53.4196 68.7707 53.4196C68.7707 53.4196 74 54.4343 77.9025 51.0781C81.1806 48.2684 81.7269 43.2732 80.322 39.4488C78.9171 35.7024 76.4196 34.5317 72.7512 33.7512C69.0829 32.8927 61.7463 32.1902 62.6049 34.9219Z" fill="#CCAC8D"/>
<path id="Vector_4" d="M71.8927 50.6879C75.686 50.6879 78.7611 47.6128 78.7611 43.8195C78.7611 40.0262 75.686 36.9512 71.8927 36.9512C68.0995 36.9512 65.0244 40.0262 65.0244 43.8195C65.0244 47.6128 68.0995 50.6879 71.8927 50.6879Z" fill="black"/>
<path id="Vector_5" d="M70.0977 42.5707C71.0891 42.5707 71.8929 41.767 71.8929 40.7756C71.8929 39.7842 71.0891 38.9805 70.0977 38.9805C69.1062 38.9805 68.3025 39.7842 68.3025 40.7756C68.3025 41.767 69.1062 42.5707 70.0977 42.5707Z" fill="white"/>
<path id="Vector_6" d="M61.4341 43.5073C61.4341 43.5073 67.5999 47.722 70.9561 51.8586C74.3122 55.9952 74.2341 56.7757 74.2341 56.7757L71.8146 57.8684C71.8146 57.8684 68.3804 51.3903 64.1658 48.9708C59.8731 46.5512 59.4048 44.522 59.4048 44.522L61.4341 43.5073Z" fill="#EFCCA3"/>
<path id="Vector_7" d="M50.5072 41.0098C47.1511 41.0878 44.6535 43.1951 42.3901 45.1464C39.8145 47.4098 35.2876 48.9708 33.4925 50.922C31.6973 52.8733 29.2778 54.8245 28.4193 57.8684C27.5607 60.9123 27.2485 64.8148 27.2485 65.8294C27.2485 66.8441 27.4046 66.9221 25.1412 65.8294C21.4729 64.1124 17.4143 59.1953 17.4143 59.1953C17.8826 62.2392 21.8631 64.9709 22.2534 67.8587C23.3461 75.8198 31.0729 79.6442 50.195 79.6442H50.5853" fill="#CCAC8D"/>
<path id="Vector_8" d="M68.6148 54.2001C64.8684 49.5952 58.8586 45.3025 50.5073 45.3025H50.4293C42.078 45.3025 36.0682 49.5952 32.3218 54.2001C28.4193 58.9611 28.7315 60.8343 28.7315 65.3611C28.7315 81.7514 34.5072 77.0685 38.3316 79.0978C42.2341 81.049 46.2926 80.4246 50.4293 80.4246H50.5073C54.722 80.4246 58.7025 80.971 62.605 79.0197C66.4294 77.0685 72.205 81.9076 72.205 65.5172C72.2831 60.9904 72.5172 58.9611 68.6148 54.2001Z" fill="#56332B"/>
<path id="Vector_9" d="M50.1171 49.3611C50.1171 49.3611 49.5707 56.932 48.478 58.4149L50.5074 57.9466L50.1171 49.3611Z" fill="#442823"/>
<path id="Vector_10" d="M50.6632 49.3611C50.6632 49.3611 51.2095 56.932 52.3022 58.4149L50.2729 57.9466L50.6632 49.3611Z" fill="#442823"/>
<path id="Vector_11" d="M44.1072 47.5659C43.3267 45.7708 46.1365 42.883 50.5853 42.8049C55.0341 42.8049 57.8439 45.6928 57.0634 47.5659C56.2829 49.4391 53.4731 49.9855 50.5853 50.0635C47.7755 49.9855 44.8877 49.4391 44.1072 47.5659Z" fill="#56332B"/>
<path id="Vector_12" d="M50.5852 49.3611C50.5852 49.0489 53.2388 48.9708 54.6437 48.0342C54.6437 48.0342 51.7559 48.9708 51.1315 48.5806C50.5071 48.2684 50.351 47.3318 50.351 47.3318C50.351 47.3318 50.1169 48.2684 49.6486 48.5806C49.1023 48.8928 45.8242 48.0342 45.8242 48.0342C45.8242 48.0342 50.1949 49.1269 50.1949 49.3611C50.1949 49.5952 50.1169 50.3757 50.1169 50.9221C50.1169 52.8733 50.1169 57.7123 50.4291 58.1026C50.8974 58.805 50.7413 52.8733 50.7413 50.9221C50.6632 50.2977 50.6632 49.6733 50.5852 49.3611Z" fill="black"/>
<path id="Vector_13" d="M50.7412 59.8196C52.0681 59.8196 54.4095 60.7562 56.5169 62.2391C54.4876 59.9757 52.0681 58.4148 50.7412 58.4148C49.3364 58.4148 46.3705 60.1318 44.2632 62.6293C46.4486 60.9123 49.2583 59.8196 50.7412 59.8196Z" fill="#7F4A41"/>
<path id="Vector_14" d="M50.195 73.6343C47.2291 73.6343 44.3413 72.6977 41.6876 71.9953C41.1413 71.8392 40.5949 72.2294 40.0486 72.0733C35.1315 70.5123 31.151 67.8587 28.7314 64.5025V65.283C28.7314 81.6734 34.5071 77.0685 38.3315 79.0198C42.234 80.971 46.2925 80.3466 50.4292 80.3466H50.5072C54.7219 80.3466 58.7024 80.893 62.6048 78.9417C66.4293 76.9905 72.2049 81.7515 72.2049 65.3611C72.2049 64.7367 72.2049 64.1123 72.283 63.5659C70.0195 67.2343 65.8829 70.1221 60.7317 71.8392C60.2634 71.9953 59.1707 71.605 58.7024 71.6831C55.8926 72.6197 53.395 73.6343 50.195 73.6343Z" fill="#442823"/>
<path id="Vector_15" d="M42.7804 64.8149C42.7804 64.8149 40.8291 70.6687 42.156 73.2443L40.3608 72.4638C40.3608 72.4638 41.6877 66.532 42.7804 64.8149ZM58.2341 64.8149C58.2341 64.8149 60.1854 70.6687 58.8585 73.2443L60.6537 72.4638C60.6537 72.4638 59.2488 66.532 58.2341 64.8149Z" fill="#442823"/>
<path id="Vector_16" d="M37.7851 34.9219C37.0827 37.3415 34.5851 45.5366 39.4242 42.8049C39.4242 42.8049 37.3949 43.9757 36.1461 48.4245C34.8973 52.8733 31.6193 53.4196 31.6193 53.4196C31.6193 53.4196 26.39 54.4343 22.4875 51.0781C19.2094 48.2684 18.6631 43.2732 20.068 39.4488C21.4728 35.6244 23.9704 34.5317 27.6387 33.7512C31.3071 32.8927 38.5656 32.1902 37.7851 34.9219Z" fill="#CCAC8D"/>
<path id="Vector_17" d="M50.5071 58.4147C52.6145 58.4147 59.1706 62.9415 59.2486 68.483V68.1708C59.2486 62.3952 53.9413 57.7903 50.5071 57.7903C47.073 57.7903 41.7656 62.4732 41.7656 68.1708V68.483C41.8437 62.9415 48.3998 58.4147 50.5071 58.4147Z" fill="black"/>
<path id="Vector_18" d="M52.211 47.6084C52.5449 47.5222 52.6846 46.9448 52.5231 46.3188C52.3616 45.6927 51.96 45.255 51.6261 45.3411C51.2922 45.4272 51.1524 46.0046 51.3139 46.6307C51.4754 47.2568 51.8771 47.6945 52.211 47.6084Z" fill="#331712"/>
<path id="Vector_19" d="M48.1992 47.5966C48.5286 47.6988 48.9509 47.281 49.1425 46.6634C49.3341 46.0459 49.2224 45.4625 48.893 45.3603C48.5636 45.2581 48.1413 45.6759 47.9497 46.2934C47.7582 46.911 47.8699 47.4944 48.1992 47.5966Z" fill="#331712"/>
<path id="Vector_20" d="M28.8876 50.6879C32.6809 50.6879 35.756 47.6128 35.756 43.8195C35.756 40.0262 32.6809 36.9512 28.8876 36.9512C25.0943 36.9512 22.0193 40.0262 22.0193 43.8195C22.0193 47.6128 25.0943 50.6879 28.8876 50.6879Z" fill="black"/>
<path id="Vector_21" d="M30.6828 42.5707C31.6742 42.5707 32.4779 41.767 32.4779 40.7756C32.4779 39.7842 31.6742 38.9805 30.6828 38.9805C29.6914 38.9805 28.8877 39.7842 28.8877 40.7756C28.8877 41.767 29.6914 42.5707 30.6828 42.5707Z" fill="white"/>
<path id="Vector_22" d="M52.5366 43.8976C52.5366 43.8195 50.7415 44.6781 50.2732 44.7561C49.8049 44.6781 48.0098 43.8195 48.0098 43.8976H52.5366Z" fill="#7F4A41"/>
<path id="Vector_23" d="M38.8779 43.5073C38.8779 43.5073 32.712 47.722 29.3559 51.8586C25.9997 55.9952 26.0778 56.7757 26.0778 56.7757L28.4973 57.8684C28.4973 57.8684 31.9315 51.3903 36.1461 48.9708C40.3608 46.5512 40.9071 44.522 40.9071 44.522L38.8779 43.5073Z" fill="#EFCCA3"/>
<path id="Vector_24" d="M25.3753 31.0196C25.3753 31.0196 23.2679 36.7952 18.585 39.2147C18.585 39.2147 25.9216 38.3562 25.3753 31.0196ZM74.6244 31.0196C74.6244 31.0196 76.7317 36.7952 81.4146 39.2147C81.4146 39.2147 74.078 38.3562 74.6244 31.0196ZM61.2779 41.7904C61.2779 41.7904 56.673 36.9513 50.5071 36.7952H50.5852H50.6632C44.4193 36.9513 39.8924 41.7904 39.8924 41.7904C45.2778 38.044 49.8827 38.1221 50.6632 38.1221C50.5852 38.1221 55.8925 38.044 61.2779 41.7904ZM55.8925 31.644C55.8925 31.644 53.5511 28.3659 50.4291 28.2878H50.5852C48.2437 28.3659 45.1998 31.644 45.1998 31.644C47.8534 29.0683 50.5852 29.1464 50.5852 29.1464C50.5852 29.1464 53.1608 29.0683 55.8925 31.644ZM28.8875 55.6051C28.8875 55.6051 25.2192 57.4002 22.5655 56.3075H22.4874C20.1459 54.9807 18.9752 51.0002 18.9752 51.0002C18.9752 51.0002 21.3167 58.0246 28.8875 55.6051ZM71.6585 55.6051C71.6585 55.6051 75.3268 57.4002 77.9805 56.3075C81.1025 54.9807 81.5707 51.0002 81.5707 51.0002C81.5707 51.0002 79.2293 58.0246 71.6585 55.6051Z" fill="#CCAC8D"/>
<path id="Vector_25" d="M33.1023 30.6291C35.1316 30.2389 38.4877 30.1608 41.1414 31.0194C44.4975 32.1901 41.7658 36.4828 42.4683 36.717C43.1707 36.9511 44.1073 33.7511 50.3512 34.0633C56.6732 34.3755 57.3757 37.1853 58.2342 36.717C59.0928 36.2487 57.3757 28.912 66.8196 30.6291C66.8196 30.6291 56.9074 27.9754 57.3757 35.156C57.3757 35.156 51.6781 30.7852 43.717 34.6877C43.7951 34.6877 45.8244 27.9754 33.1023 30.6291ZM67.6782 30.6291C67.8343 30.6291 67.9123 30.7072 67.9904 30.7072C68.0684 30.7072 67.9123 30.6291 67.6782 30.6291ZM30.3706 21.0291C30.3706 21.0291 21.9413 31.6438 20.6925 35.7023C19.4437 39.8389 18.5071 56.7756 17.4144 59.1952L13.512 42.4926L20.6925 25.0876L30.3706 21.0291ZM70.0197 21.0291C70.0197 21.0291 78.449 31.6438 79.6978 35.7023C80.9466 39.8389 81.8832 56.7756 82.9758 59.1952L86.8783 42.4926L79.6978 25.0876L70.0197 21.0291Z" fill="#CCAC8D"/>
<path id="Vector_26" d="M69.6292 21.0293C69.6292 21.0293 78.683 28.6 81.3367 37.3416C83.9904 46.0831 82.8977 56.6978 84.927 58.0246C87.8148 59.8978 91.0929 48.7368 92.1856 47.566C93.9027 45.6928 99.6003 40.9318 99.9906 40.0733C100.381 39.2147 88.4392 26.1805 83.2099 23.6049C76.8878 20.639 69.0829 20.4049 69.6292 21.0293Z" fill="#56332B"/>
<path id="Vector_27" d="M77.3562 25.7122C77.3562 25.7122 88.049 39.3708 87.8929 56.3855L92.1856 47.644C92.1075 47.644 88.3612 36.4829 77.3562 25.7122Z" fill="#442823"/>
<path id="Vector_28" d="M30.3705 21.0293C30.3705 21.0293 21.3168 28.6 18.6631 37.3416C16.0094 46.0831 17.1021 56.6978 15.0729 58.0246C12.185 59.8978 8.90696 48.7368 7.81427 47.566C6.09719 45.6928 0.399586 40.9318 0.00933904 40.0733C-0.380908 39.2147 11.5606 26.1805 16.7899 23.6049C23.1119 20.639 30.9169 20.4049 30.3705 21.0293Z" fill="#56332B"/>
<path id="Vector_29" d="M22.6437 25.7122C22.6437 25.7122 11.9509 39.3708 12.107 56.3855L7.89233 47.644C7.89233 47.644 11.6387 36.4829 22.6437 25.7122Z" fill="#442823"/>
<path id="Vector_30" d="M16.8679 56.6976C16.8679 56.6976 17.6484 60.9123 18.8972 62.2391C20.146 63.5659 19.2874 61.2245 19.2874 61.2245C19.2874 61.2245 17.9606 60.522 18.1948 55.1366C18.4289 49.7512 16.8679 56.6976 16.8679 56.6976ZM83.444 56.6976C83.444 56.6976 82.6635 60.9123 81.4147 62.2391C80.1659 63.5659 81.0244 61.2245 81.0244 61.2245C81.0244 61.2245 82.3513 60.522 82.1171 55.1366C81.883 49.7512 83.444 56.6976 83.444 56.6976Z" fill="#CCAC8D"/>
<g id="Group">
<path id="Vector_31" d="M42.39 54.1222C42.7348 54.1222 43.0144 53.8426 43.0144 53.4977C43.0144 53.1529 42.7348 52.8733 42.39 52.8733C42.0452 52.8733 41.7656 53.1529 41.7656 53.4977C41.7656 53.8426 42.0452 54.1222 42.39 54.1222Z" fill="#442823"/>
<path id="Vector_32" d="M38.7997 57.8684C39.1446 57.8684 39.4241 57.5888 39.4241 57.244C39.4241 56.8992 39.1446 56.6196 38.7997 56.6196C38.4549 56.6196 38.1753 56.8992 38.1753 57.244C38.1753 57.5888 38.4549 57.8684 38.7997 57.8684Z" fill="#442823"/>
<path id="Vector_33" d="M37.6291 54.1222C37.9739 54.1222 38.2535 53.8426 38.2535 53.4977C38.2535 53.1529 37.9739 52.8733 37.6291 52.8733C37.2842 52.8733 37.0046 53.1529 37.0046 53.4977C37.0046 53.8426 37.2842 54.1222 37.6291 54.1222Z" fill="#442823"/>
</g>
<g id="Group_2">
<path id="Vector_34" d="M57.6098 54.1222C57.9547 54.1222 58.2343 53.8426 58.2343 53.4977C58.2343 53.1529 57.9547 52.8733 57.6098 52.8733C57.2649 52.8733 56.9854 53.1529 56.9854 53.4977C56.9854 53.8426 57.2649 54.1222 57.6098 54.1222Z" fill="#442823"/>
<path id="Vector_35" d="M61.2001 57.8684C61.5449 57.8684 61.8244 57.5888 61.8244 57.244C61.8244 56.8992 61.5449 56.6196 61.2001 56.6196C60.8552 56.6196 60.5757 56.8992 60.5757 57.244C60.5757 57.5888 60.8552 57.8684 61.2001 57.8684Z" fill="#442823"/>
<path id="Vector_36" d="M62.3707 54.1222C62.7155 54.1222 62.9951 53.8426 62.9951 53.4977C62.9951 53.1529 62.7155 52.8733 62.3707 52.8733C62.0259 52.8733 61.7463 53.1529 61.7463 53.4977C61.7463 53.8426 62.0259 54.1222 62.3707 54.1222Z" fill="#442823"/>
</g>
</g>
</g>
</svg>
