<svg width="100" height="100" viewBox="0 0 100 100" fill="none" xmlns="http://www.w3.org/2000/svg">
<g id="rollup">
<g id="rollup_2" clip-path="url(#clip0_790_3328)">
<path id="Vector" d="M88.2594 32.9218C88.2594 27.0345 86.7175 21.5152 84.0016 16.7318C76.8003 9.32005 61.1357 7.60292 57.246 16.6967C53.251 26.0183 63.9567 36.3912 68.6351 35.5675C74.5925 34.5163 67.5837 20.8493 67.5837 20.8493C76.695 38.0207 74.5925 32.7642 58.122 48.5337C41.6516 64.3032 24.8308 97.5769 22.3778 98.9787C22.2726 99.0488 22.1675 99.1014 22.0448 99.1539H86.6474C87.7863 99.1539 88.5223 97.9449 88.0141 96.9287L71.1231 63.4972C70.7552 62.7788 71.018 61.8852 71.7189 61.4822C81.6011 55.8052 88.2594 45.1519 88.2594 32.9218Z" fill="url(#paint0_linear_790_3328)"/>
<path id="Vector_2" d="M88.2594 32.9218C88.2594 27.0345 86.7175 21.5152 84.0016 16.7318C76.8003 9.32005 61.1357 7.60292 57.246 16.6967C53.251 26.0183 63.9567 36.3912 68.6351 35.5675C74.5925 34.5163 67.5837 20.8493 67.5837 20.8493C76.695 38.0207 74.5925 32.7642 58.122 48.5337C41.6516 64.3032 24.8308 97.5769 22.3778 98.9787C22.2726 99.0488 22.1675 99.1014 22.0448 99.1539H86.6474C87.7863 99.1539 88.5223 97.9449 88.0141 96.9287L71.1231 63.4972C70.7552 62.7788 71.018 61.8852 71.7189 61.4822C81.6011 55.8052 88.2594 45.1519 88.2594 32.9218Z" fill="url(#paint1_linear_790_3328)"/>
<path id="Vector_3" d="M22.3778 98.9789C24.8309 97.5772 41.6518 64.2859 58.1221 48.5164C74.5925 32.7468 76.6951 38.0033 67.5839 20.832C67.5839 20.832 32.7156 69.7177 20.1 93.8977" fill="url(#paint2_linear_790_3328)"/>
<path id="Vector_4" d="M27.2839 55.1744C50.8331 11.8783 53.9169 7.51535 66.1821 7.51535C72.6301 7.51535 79.1306 10.424 83.3359 15.5929C77.6063 6.35892 67.4611 0.173748 55.8442 -0.00146484H15.8422C15.0011 -0.00146484 14.3177 0.681885 14.3177 1.52292V82.1579C16.7007 76.0078 20.7482 67.2119 27.2839 55.1744Z" fill="url(#paint3_linear_790_3328)"/>
<path id="Vector_5" d="M58.1221 48.5162C41.6516 64.2858 24.8308 97.577 22.3778 98.9788C19.9248 100.381 15.8071 100.556 13.6169 98.1027C11.2865 95.4919 7.65953 91.2692 27.2839 55.1744C50.833 11.8783 53.9169 7.51538 66.1821 7.51538C72.6301 7.51538 79.1306 10.424 83.3359 15.5929C83.5636 15.9609 83.7914 16.3463 84.0192 16.7318C76.8177 9.32013 61.1534 7.60299 57.2635 16.6968C53.2685 26.0183 63.9744 36.3912 68.6526 35.5677C74.61 34.5164 67.6014 20.8494 67.6014 20.8494C76.6951 38.0032 74.5925 32.7467 58.1221 48.5162Z" fill="url(#paint4_linear_790_3328)"/>
<path id="Vector_6" opacity="0.3" d="M29.2113 57.1019C52.7604 13.8057 55.8442 9.44278 68.1095 9.44278C73.4185 9.44278 78.7626 11.4227 82.8278 14.9972C78.6225 10.1962 72.3847 7.51538 66.1821 7.51538C53.9169 7.51538 50.833 11.8783 27.2839 55.1744C7.65953 91.2692 11.2865 95.4919 13.6169 98.1027C13.9499 98.4707 14.3353 98.786 14.7383 99.0489C12.6883 96.0702 11.7771 89.149 29.2113 57.1019Z" fill="url(#paint5_linear_790_3328)"/>
</g>
</g>
<defs>
<linearGradient id="paint0_linear_790_3328" x1="39.8064" y1="53.2559" x2="66.7899" y2="59.5638" gradientUnits="userSpaceOnUse">
<stop stop-color="#FF6533"/>
<stop offset="0.157" stop-color="#FF5633"/>
<stop offset="0.434" stop-color="#FF4333"/>
<stop offset="0.714" stop-color="#FF3733"/>
<stop offset="1" stop-color="#FF3333"/>
</linearGradient>
<linearGradient id="paint1_linear_790_3328" x1="35.586" y1="44.3113" x2="83.9461" y2="81.8078" gradientUnits="userSpaceOnUse">
<stop stop-color="#BF3338"/>
<stop offset="1" stop-color="#FF3333"/>
</linearGradient>
<linearGradient id="paint2_linear_790_3328" x1="37.1636" y1="51.6977" x2="44.1724" y2="59.0568" gradientUnits="userSpaceOnUse">
<stop stop-color="#FF6533"/>
<stop offset="0.157" stop-color="#FF5633"/>
<stop offset="0.434" stop-color="#FF4333"/>
<stop offset="0.714" stop-color="#FF3733"/>
<stop offset="1" stop-color="#FF3333"/>
</linearGradient>
<linearGradient id="paint3_linear_790_3328" x1="49.9064" y1="64.3658" x2="47.8037" y2="34.2284" gradientUnits="userSpaceOnUse">
<stop stop-color="#FF6533"/>
<stop offset="0.157" stop-color="#FF5633"/>
<stop offset="0.434" stop-color="#FF4333"/>
<stop offset="0.714" stop-color="#FF3733"/>
<stop offset="1" stop-color="#FF3333"/>
</linearGradient>
<linearGradient id="paint4_linear_790_3328" x1="40.7975" y1="51.181" x2="50.753" y2="57.9509" gradientUnits="userSpaceOnUse">
<stop stop-color="#FBB040"/>
<stop offset="1" stop-color="#FB8840"/>
</linearGradient>
<linearGradient id="paint5_linear_790_3328" x1="50.9965" y1="12.9047" x2="40.8339" y2="124.693" gradientUnits="userSpaceOnUse">
<stop stop-color="white"/>
<stop offset="1" stop-color="white" stop-opacity="0"/>
</linearGradient>
<clipPath id="clip0_790_3328">
<rect width="100" height="100" fill="white" transform="translate(0 -0.00146484)"/>
</clipPath>
</defs>
</svg>
