<svg width="100" height="100" viewBox="0 0 100 100" fill="none" xmlns="http://www.w3.org/2000/svg">
<path d="M66.6666 4.16699H33.3333C17.225 4.16699 4.16663 17.2254 4.16663 33.3337V66.667C4.16663 82.7753 17.225 95.8337 33.3333 95.8337H66.6666C82.7749 95.8337 95.8333 82.7753 95.8333 66.667V33.3337C95.8333 17.2254 82.7749 4.16699 66.6666 4.16699Z" fill="#FFD6A6"/>
<path d="M4.70829 27.692C4.35829 29.517 4.16663 31.4003 4.16663 33.3337V66.667C4.16663 74.4025 7.23953 81.8211 12.7093 87.2909C18.1792 92.7607 25.5978 95.8337 33.3333 95.8337H66.6666C68.5603 95.8356 70.4496 95.6542 72.3083 95.292C75.4639 88.5497 77.0943 81.1946 77.0833 73.7503C77.0833 45.6753 54.325 22.917 26.25 22.917C18.55 22.917 11.25 24.6253 4.70829 27.692Z" fill="#FF8549"/>
<path d="M26.0414 92.9179C36.5118 92.9179 44.9998 84.43 44.9998 73.9596C44.9998 63.4892 36.5118 55.0012 26.0414 55.0012C15.571 55.0012 7.0831 63.4892 7.0831 73.9596C7.0831 84.43 15.571 92.9179 26.0414 92.9179Z" fill="#FF2900"/>
</svg>
