<svg width="100" height="100" viewBox="0 0 100 100" fill="none" xmlns="http://www.w3.org/2000/svg">
<path d="M63.0292 90.9346C63.4167 92.1804 64.4417 93.2387 64.4667 94.6679C64.5584 95.1137 64.2542 96.4054 63.7667 95.5429C62.7292 92.0762 62.3917 95.3971 59.3292 90.6096C58.6709 89.3054 57.5417 90.3804 56.5667 90.4429C53.675 89.4929 54.525 89.2221 52.7959 91.6929C51.4834 92.0596 52.5917 89.0137 53.2167 88.6762C54.425 87.6429 56.3375 88.3179 57.0375 87.1929C58.2125 82.4304 54.3709 76.4971 52.2125 72.4012C51.5084 71.3012 52.2667 69.9971 52.1084 68.8096C51.4834 67.1096 51.325 67.5512 51.9042 65.7512C50.9584 63.7804 48.3084 66.8596 46.8209 66.8137C45.6334 66.8304 44.6417 64.9388 43.1 64.8138C37.5375 64.8304 32.3459 68.1804 26.7417 67.6096C25.728 67.6205 24.7404 67.9323 23.9042 68.5054C22.1792 69.4304 20.1167 69.3512 18.5375 70.6804C18.0417 71.0762 17.4125 71.1137 16.8125 71.0887C15.6875 71.2554 14.825 72.6304 13.5459 72.5054C12.2459 72.0512 11.1875 72.8346 9.96253 72.7429C8.54586 71.5554 6.70836 72.5054 5.07086 72.7762C4.85975 72.8695 4.6261 72.8995 4.39828 72.8625C4.17046 72.8255 3.95829 72.7232 3.78753 72.5679C3.41253 72.2679 2.68753 72.2262 2.43753 71.8304C2.31253 71.5846 2.55419 71.2262 2.85419 70.9804C5.05003 69.2929 7.59169 68.2054 10.0209 66.9221C14.7959 64.4471 18.8459 60.8262 23.1875 57.6804C23.4625 57.4721 23.5417 57.1804 23.0417 57.1846C16.325 57.7471 9.93336 61.5512 3.29169 61.4012C2.55836 61.4971 1.87919 61.9304 1.11669 62.0262C-2.53331 61.2554 3.82503 57.1929 5.09169 56.7721C12.1917 53.8096 20.0834 53.2596 26.6917 49.1221C27.475 48.5721 25.9834 48.0054 26.675 46.9137C28.3 41.5387 33.2417 39.3929 38.0709 37.8137C40.5459 36.8512 42.8084 35.0137 45.5584 34.9846C46.9125 35.0512 48.2 34.5137 49.1084 33.4846C53.9542 29.0221 59.2834 25.1012 64.4167 20.9887C70.3042 13.5596 73.925 -0.573758 86.15 5.75541C89.9834 7.40124 94.375 7.27624 97.8459 9.82208C99.0834 10.6096 101.417 13.0096 98.8292 13.3637C91.7375 14.5762 88.1959 12.4054 87.8709 19.4221C87.7459 21.0471 88.1375 22.5471 87.2125 23.9471C87.1542 26.8387 88.6792 30.2304 86.8625 32.8179C85.3459 35.4429 86.5375 38.7054 85.2792 41.3471C84.3625 43.5721 82.5709 45.2221 80.9084 46.8596C75.475 53.6512 71.4667 61.3429 70.1209 70.0762C69.6125 72.6888 68.1292 76.5762 70.525 78.6429C73.0542 81.1929 75.7334 84.7179 79.6084 82.8596C80.8834 82.2762 83.2917 82.0721 83.1084 84.0012C82.9 84.3471 82.0334 83.5929 81.5625 83.7679C80.8959 84.1929 81.8625 85.0846 81.6834 85.7054C81.5917 86.2887 81.125 86.2054 80.725 85.9304C79.5542 85.4637 77.8709 85.9388 76.5375 85.8887C75.4625 86.0762 74.4042 86.5637 73.3625 86.0971C72.8792 85.8929 72.4084 85.6804 71.8792 85.6679C70.2542 85.5762 68.1959 86.4262 67.2834 85.0554C66.275 83.1637 66.0625 84.6221 65.0667 85.2554C64.0875 85.1929 64.7875 83.7971 65.125 83.3387C66.1625 80.9637 72.8167 85.4929 70.0542 81.5387C60.5125 73.1637 66.8167 70.3471 63.1959 70.3304C62.4875 69.9596 62.7667 68.6429 61.6709 69.6096C60.275 71.0679 59.7542 69.2012 59.7542 67.9429C59.5875 67.2137 59.0167 66.6929 59.2334 65.9471C59.325 64.3221 57.1667 66.3012 57.65 67.6554C57.8875 70.2221 57.1 72.7596 57.225 75.2929C58.225 80.6096 58.9334 87.3637 64.9917 88.9429C65.7292 89.2596 66.9209 90.7429 66.0459 91.2971C65.6584 91.2554 65.3792 90.8387 65.0334 90.6596C64.55 90.3346 63.9625 90.6971 63.4584 90.7346C63.3167 90.7679 63.0917 90.7637 63.0417 90.9262L63.0292 90.9346Z" fill="url(#paint0_linear_820_2782)"/>
<defs>
<linearGradient id="paint0_linear_820_2782" x1="9999.94" y1="4944.33" x2="6.10352e-05" y2="4944.33" gradientUnits="userSpaceOnUse">
<stop stop-color="#1D1A5C"/>
<stop offset="0.49586" stop-color="#3431C3"/>
<stop offset="1" stop-color="#7361F7"/>
</linearGradient>
</defs>
</svg>
