<svg width="100" height="100" viewBox="0 0 100 100" fill="none" xmlns="http://www.w3.org/2000/svg">
<g id="safari">
<g id="safari_2">
<g id="Vector" opacity="0.53" filter="url(#filter0_f_790_3359)">
<path d="M95.6094 51.3066C95.6094 57.0739 94.4297 62.7847 92.1378 68.1129C89.8458 73.4412 86.4864 78.2826 82.2514 82.3606C78.0164 86.4387 72.9887 89.6736 67.4554 91.8806C61.9221 94.0877 55.9915 95.2236 50.0023 95.2236C44.0131 95.2236 38.0825 94.0877 32.5492 91.8806C27.0159 89.6736 21.9882 86.4387 17.7532 82.3606C13.5181 78.2826 10.1588 73.4412 7.86678 68.1129C5.57481 62.7847 4.39514 57.0739 4.39514 51.3066C4.39514 39.6591 9.20017 28.4887 17.7532 20.2526C26.3062 12.0166 37.9065 7.38965 50.0023 7.38965C55.9915 7.38965 61.9221 8.52559 67.4554 10.7326C72.9887 12.9397 78.0164 16.1746 82.2514 20.2526C86.4864 24.3307 89.8458 29.1721 92.1378 34.5003C94.4297 39.8286 95.6094 45.5394 95.6094 51.3066Z" fill="black"/>
</g>
<path id="Vector_2" d="M97.3435 47.4289C97.3435 53.6461 96.1189 59.8025 93.7397 65.5465C91.3605 71.2904 87.8732 76.5095 83.4769 80.9058C79.0807 85.302 73.8616 88.7893 68.1176 91.1686C62.3736 93.5478 56.2173 94.7724 50 94.7723C37.4438 94.7723 25.4018 89.7844 16.5232 80.9058C7.64456 72.0272 2.65662 59.9852 2.65662 47.4289C2.65662 34.8727 7.64456 22.8307 16.5232 13.952C25.4018 5.07342 37.4438 0.0854524 50 0.0854492C56.2173 0.0854488 62.3736 1.31003 68.1176 3.68926C73.8616 6.06849 79.0807 9.55579 83.4769 13.952C87.8732 18.3483 91.3605 23.5674 93.7397 29.3113C96.1189 35.0553 97.3435 41.2117 97.3435 47.4289Z" fill="url(#paint0_linear_790_3359)" stroke="#CDCDCD" stroke-width="0.140575" stroke-linecap="round" stroke-linejoin="round"/>
<path id="Vector_3" d="M93.6337 47.4288C93.6337 59.0012 89.0365 70.0996 80.8537 78.2825C72.6708 86.4654 61.5724 91.0625 50 91.0625C38.4276 91.0625 27.3292 86.4654 19.1463 78.2825C10.9634 70.0996 6.36633 59.0012 6.36633 47.4288C6.36633 35.8565 10.9634 24.7581 19.1463 16.5752C27.3292 8.39227 38.4276 3.79517 50 3.79517C61.5724 3.79517 72.6708 8.39227 80.8537 16.5752C89.0365 24.7581 93.6337 35.8565 93.6337 47.4288Z" fill="url(#paint1_radial_790_3359)"/>
<path id="Vector_4" d="M50 6.07056C49.6475 6.07056 49.3638 6.35427 49.3638 6.70672V14.0446C49.3638 14.397 49.6475 14.6808 50 14.6808C50.3524 14.6808 50.6361 14.397 50.6361 14.0446V6.70672C50.6361 6.35427 50.3524 6.07056 50 6.07056ZM45.8382 6.33359C45.796 6.32906 45.7527 6.32906 45.7088 6.33412C45.3583 6.3707 45.1055 6.68234 45.1422 7.03288L45.4628 10.1027C45.4994 10.4533 45.8111 10.706 46.1616 10.6694C46.5121 10.6329 46.7649 10.3212 46.7283 9.97067L46.4079 6.90083C46.3758 6.59411 46.1332 6.36223 45.8382 6.33359ZM54.1909 6.33662C53.8959 6.36503 53.6531 6.59689 53.6209 6.90357L53.298 9.97316C53.2611 10.3237 53.5139 10.6356 53.8644 10.6725C54.2149 10.7093 54.5266 10.4568 54.5634 10.1063L54.8863 7.03646C54.9232 6.68595 54.6704 6.37428 54.3199 6.33743C54.2761 6.3329 54.233 6.33287 54.1909 6.33662ZM41.563 6.95355C41.5207 6.95388 41.4776 6.95808 41.4346 6.96715C41.0898 7.04015 40.8709 7.37656 40.9439 7.72136L42.4636 14.9C42.5366 15.2448 42.873 15.4636 43.2178 15.3907C43.5626 15.3177 43.7815 14.9815 43.7085 14.6367L42.1888 7.4578C42.1249 7.15609 41.8594 6.95124 41.563 6.95355ZM58.4657 6.9596C58.1694 6.95657 57.9038 7.16203 57.8398 7.46368L56.3149 14.6415C56.2416 14.9862 56.4602 15.3227 56.8049 15.396C57.1497 15.4693 57.4862 15.2506 57.5594 14.9059L59.0843 7.72806C59.1576 7.38332 58.9389 7.0468 58.5942 6.97358C58.5512 6.96451 58.5081 6.9596 58.4657 6.9596ZM37.4831 8.10395C37.4007 8.09639 37.3157 8.10546 37.2318 8.13327C36.8967 8.24224 36.7144 8.59952 36.8233 8.93471L37.7771 11.8703C37.8861 12.2055 38.2437 12.3878 38.5788 12.2789C38.914 12.1699 39.096 11.8123 38.9871 11.4771L38.0333 8.54155C37.9517 8.29015 37.7301 8.12496 37.4831 8.10395ZM62.5226 8.10546C62.2756 8.12647 62.0541 8.29172 61.9724 8.5431L61.018 11.4784C60.9091 11.8136 61.0912 12.1712 61.4263 12.2801C61.7615 12.3891 62.1191 12.207 62.2281 11.8719L63.1824 8.93628C63.2914 8.60109 63.1093 8.24352 62.7741 8.13457C62.6904 8.10736 62.605 8.09851 62.5226 8.10546ZM33.4484 9.58039C33.3657 9.5819 33.2821 9.60004 33.2016 9.63586C32.8797 9.77898 32.7355 10.1534 32.8787 10.4755L35.8591 17.1808C36.0022 17.5028 36.3766 17.6468 36.6987 17.5036C37.0205 17.3605 37.165 16.9861 37.0218 16.664L34.0412 9.95874C33.9339 9.71718 33.6963 9.57558 33.4484 9.58039ZM66.6029 9.60291C66.355 9.59837 66.1173 9.73908 66.0096 9.98043L63.0201 16.6816C62.8766 17.0035 63.0201 17.3782 63.3419 17.5218C63.6638 17.6653 64.0385 17.5218 64.1821 17.2L67.1715 10.4988C67.3151 10.1769 67.1716 9.80224 66.8497 9.65865C66.7693 9.62283 66.6855 9.60472 66.6029 9.60291ZM29.7034 11.5619C29.5813 11.5528 29.4555 11.58 29.341 11.6462C29.0358 11.8225 28.932 12.21 29.1082 12.5152L30.6515 15.1883C30.8277 15.4936 31.2152 15.5974 31.5205 15.4212C31.8257 15.2449 31.9295 14.8574 31.7533 14.5522L30.21 11.8791C30.0998 11.6883 29.907 11.5761 29.7034 11.5619ZM70.2965 11.5619C70.093 11.5755 69.9004 11.6882 69.7902 11.879L68.2467 14.5521C68.0704 14.8574 68.1746 15.2449 68.4798 15.4211C68.785 15.5973 69.1725 15.4935 69.3488 15.1883L70.8921 12.5152C71.0683 12.2099 70.9645 11.8224 70.6592 11.6462C70.5448 11.5801 70.4187 11.5534 70.2965 11.5619ZM26.0669 13.83C25.9445 13.8346 25.8219 13.8739 25.7149 13.9514C25.4296 14.1583 25.3666 14.5546 25.5736 14.8399L29.8822 20.7794C30.0892 21.0647 30.4857 21.1278 30.771 20.9209C31.0563 20.7139 31.1193 20.3177 30.9123 20.0324L26.6034 14.0929C26.474 13.9145 26.2708 13.8231 26.0669 13.83ZM73.9786 13.8624C73.7747 13.8548 73.5715 13.9463 73.4419 14.1243L69.125 20.0581C68.9176 20.3431 68.9802 20.7395 69.2652 20.9468C69.5503 21.1542 69.9467 21.0918 70.154 20.8069L74.4706 14.8731C74.678 14.5881 74.6153 14.1917 74.3304 13.9844C74.2235 13.9067 74.101 13.8668 73.9786 13.8624ZM22.8164 16.5561C22.654 16.547 22.4883 16.6013 22.3573 16.7192C22.0953 16.955 22.0743 17.3556 22.3101 17.6175L24.3754 19.9117C24.6112 20.1737 25.0118 20.1948 25.2737 19.9589C25.5357 19.7231 25.5568 19.3222 25.3209 19.0603L23.2559 16.7663C23.138 16.6353 22.9788 16.5646 22.8164 16.5561ZM77.1883 16.5606C77.0259 16.5697 76.8666 16.64 76.7487 16.7709L74.6835 19.0646C74.4476 19.3265 74.4685 19.7274 74.7305 19.9632C74.9924 20.1991 75.393 20.1779 75.6288 19.9161L77.6943 17.6224C77.9302 17.3605 77.909 16.9596 77.6472 16.7238C77.5161 16.6059 77.3507 16.5521 77.1883 16.5606ZM19.7009 19.5486C19.5385 19.5577 19.3795 19.628 19.2616 19.7589C19.0258 20.0209 19.0469 20.4215 19.3088 20.6573L24.7624 25.5667C25.0243 25.8025 25.4249 25.7814 25.6607 25.5196C25.8965 25.2576 25.8757 24.857 25.6137 24.6212L20.1599 19.7118C20.0288 19.5939 19.8633 19.5401 19.7009 19.5486ZM80.3188 19.5701C80.1564 19.561 79.9905 19.6151 79.8595 19.7329L74.4026 24.6385C74.1405 24.8741 74.1189 25.2747 74.3545 25.5368C74.5901 25.7989 74.991 25.8202 75.2531 25.5846L80.7103 20.679C80.9724 20.4434 80.9937 20.0428 80.7581 19.7807C80.6402 19.6496 80.4812 19.5787 80.3188 19.5701ZM17.1102 22.8799C16.9062 22.8724 16.7029 22.9643 16.5734 23.1424C16.3663 23.4275 16.4291 23.8237 16.7143 24.0309L19.2114 25.8452C19.4965 26.0523 19.8927 25.9898 20.0999 25.7046C20.3071 25.4195 20.2444 25.023 19.9593 24.8159L17.4622 23.0016C17.3553 22.9239 17.2326 22.8843 17.1102 22.8799ZM82.9071 22.903C82.7846 22.9076 82.6621 22.9467 82.5551 23.0244L80.0569 24.8371C79.7716 25.044 79.7085 25.4405 79.9154 25.7258C80.1224 26.0111 80.5186 26.0739 80.8039 25.867L83.3024 24.0543C83.5877 23.8474 83.6505 23.4511 83.4436 23.1659C83.3142 22.9876 83.111 22.8961 82.9071 22.903ZM14.6891 26.4333C14.4856 26.4469 14.293 26.5597 14.1828 26.7505C14.0066 27.0557 14.1104 27.4432 14.4157 27.6194L20.7703 31.2884C21.0756 31.4646 21.4631 31.3608 21.6393 31.0556C21.8155 30.7503 21.7117 30.3628 21.4065 30.1866L15.0518 26.5176C14.9374 26.4516 14.8113 26.4249 14.6891 26.4333ZM85.3108 26.4333C85.1887 26.4243 85.0626 26.4515 84.9481 26.5177L78.5935 30.1866C78.2882 30.3629 78.1844 30.7504 78.3606 31.0556C78.5368 31.3608 78.9244 31.4647 79.2296 31.2884L85.5846 27.6195C85.8898 27.4433 85.9936 27.0557 85.8174 26.7505C85.7072 26.5598 85.5144 26.4476 85.3108 26.4333ZM12.8586 30.2209C12.6107 30.2148 12.373 30.3568 12.2653 30.5981C12.1217 30.92 12.2652 31.2947 12.5871 31.4383L15.4063 32.6958C15.7281 32.8393 16.1029 32.6959 16.2464 32.374C16.39 32.0521 16.2462 31.6774 15.9244 31.5338L13.1055 30.2764C13.0251 30.2404 12.9413 30.2226 12.8586 30.2209ZM87.1537 30.247C87.071 30.2485 86.9871 30.2667 86.9066 30.3025L84.0868 31.5578C83.7649 31.7012 83.6209 32.0757 83.7642 32.3977C83.9077 32.7196 84.2824 32.8636 84.6044 32.7203L87.4241 31.4647C87.7461 31.3214 87.8898 30.9468 87.7465 30.6248C87.639 30.3833 87.4016 30.2421 87.1537 30.247ZM11.2272 34.1796C10.9801 34.2003 10.7586 34.3653 10.6767 34.6167C10.5676 34.9518 10.7492 35.3095 11.0844 35.4186L18.0613 37.692C18.3964 37.8011 18.7541 37.6193 18.8633 37.2843C18.9724 36.9492 18.7907 36.5915 18.4555 36.4823L11.4787 34.2089C11.395 34.1816 11.3096 34.1726 11.2272 34.1796ZM88.7821 34.2068C88.6997 34.1992 88.6147 34.2083 88.5309 34.2361L81.5524 36.5045C81.2172 36.6135 81.0352 36.971 81.1441 37.3062C81.2531 37.6414 81.6106 37.8235 81.9458 37.7145L88.924 35.4461C89.2592 35.3371 89.4415 34.9795 89.3326 34.6444C89.2508 34.393 89.0292 34.2277 88.7821 34.2068ZM10.2108 38.3351C9.91441 38.332 9.64862 38.5378 9.58451 38.8394C9.51121 39.1842 9.7299 39.5206 10.0746 39.5939L13.0939 40.2356C13.4387 40.3089 13.7751 40.0902 13.8484 39.7455C13.9217 39.4007 13.703 39.0642 13.3583 38.991L10.3393 38.3493C10.2962 38.3403 10.2531 38.3351 10.2108 38.3351ZM89.7906 38.3411C89.7482 38.3415 89.7055 38.3472 89.6624 38.3547L86.643 38.9961C86.2983 39.0694 86.0797 39.4056 86.153 39.7503C86.2263 40.0951 86.5627 40.3139 86.9075 40.2407L89.9265 39.5993C90.2713 39.526 90.4901 39.1896 90.4169 38.8448C90.3528 38.5431 90.0869 38.3386 89.7906 38.3411ZM9.44146 42.515C9.14644 42.5432 8.90361 42.7747 8.87121 43.0814C8.83418 43.4319 9.08631 43.7439 9.43679 43.781L16.734 44.5525C17.0845 44.5895 17.3966 44.3371 17.4336 43.9866C17.4706 43.6361 17.2183 43.3241 16.8678 43.287L9.57051 42.5155C9.52669 42.511 9.48363 42.511 9.44146 42.515ZM90.5654 42.5698C90.5232 42.5653 90.4798 42.5653 90.436 42.5704L83.1379 43.332C82.7874 43.3686 82.5347 43.6802 82.5712 44.0307C82.6078 44.3813 82.9194 44.634 83.27 44.5974L90.568 43.8358C90.9186 43.7992 91.1713 43.4876 91.1347 43.137C91.1027 42.8303 90.8603 42.5985 90.5654 42.5698ZM9.31791 46.7937C8.96546 46.7937 8.68176 47.0774 8.68176 47.4298C8.68176 47.7822 8.96546 48.066 9.31791 48.066H12.4045C12.7569 48.066 13.0409 47.7822 13.0409 47.4298C13.0409 47.0774 12.7569 46.7937 12.4045 46.7937H9.31791ZM87.5954 46.7937C87.243 46.7937 86.9593 47.0774 86.9593 47.4298C86.9593 47.7822 87.243 48.066 87.5954 48.066H90.682C91.0345 48.066 91.3182 47.7822 91.3182 47.4298C91.3182 47.0774 91.0345 46.7937 90.682 46.7937H87.5954ZM16.8592 50.2616C16.8171 50.2571 16.774 50.2571 16.7302 50.2622L9.43182 51.0238C9.08127 51.0604 8.82859 51.372 8.86513 51.7225C8.90171 52.0731 9.21335 52.3258 9.56388 52.2892L16.8622 51.5276C17.2128 51.491 17.4655 51.1794 17.4289 50.8288C17.3969 50.5221 17.1542 50.2903 16.8592 50.2616ZM83.1369 50.3067C82.8418 50.3349 82.599 50.5664 82.5666 50.8731C82.5296 51.2236 82.7817 51.5356 83.1322 51.5727L90.4295 52.3442C90.78 52.3812 91.092 52.1288 91.129 51.7783C91.1661 51.4278 90.9136 51.1158 90.5632 51.0787L83.2662 50.3072C83.2224 50.3027 83.179 50.3027 83.1369 50.3067ZM13.2213 54.6044C13.179 54.6047 13.1359 54.6089 13.0929 54.618L10.0735 55.2593C9.72877 55.3326 9.51023 55.6691 9.58344 56.0138C9.65674 56.3586 9.99318 56.5771 10.3379 56.5039L13.3573 55.8628C13.702 55.7895 13.9206 55.4531 13.8473 55.1083C13.7833 54.8066 13.5177 54.6019 13.2213 54.6044ZM86.7778 54.6104C86.4814 54.6074 86.2159 54.8128 86.1518 55.1145C86.0785 55.4592 86.2969 55.7957 86.6416 55.869L89.661 56.5106C90.0057 56.5839 90.3422 56.3655 90.4154 56.0208C90.4887 55.6761 90.2701 55.3393 89.9254 55.266L86.9063 54.6244C86.8632 54.6153 86.8201 54.6104 86.7778 54.6104ZM18.3056 57.116C18.2232 57.1085 18.1382 57.1175 18.0544 57.1453L11.0759 59.4138C10.7407 59.5227 10.5587 59.8803 10.6677 60.2155C10.7766 60.5507 11.1342 60.7327 11.4694 60.6237L18.4476 58.3553C18.7828 58.2463 18.9651 57.8888 18.8561 57.5536C18.7744 57.3022 18.5527 57.137 18.3056 57.116ZM81.6875 57.1385C81.4404 57.1593 81.2189 57.3243 81.137 57.5756C81.0279 57.9108 81.2095 58.2684 81.5447 58.3776L88.5215 60.651C88.8566 60.7601 89.2143 60.5783 89.3235 60.2433C89.4328 59.9082 89.251 59.5505 88.9158 59.4413L81.939 57.1679C81.8552 57.1406 81.7698 57.1316 81.6875 57.1385ZM15.6427 62.0845C15.56 62.086 15.4763 62.1038 15.3958 62.1396L12.5758 63.3952C12.2539 63.5385 12.1102 63.9131 12.2535 64.2351C12.3969 64.557 12.7714 64.7007 13.0934 64.5574L15.9134 63.3021C16.2354 63.1588 16.3791 62.7842 16.2357 62.4622C16.1283 62.2207 15.8906 62.0795 15.6427 62.0845ZM84.3471 62.1086C84.0992 62.1026 83.8615 62.2445 83.7538 62.4859C83.6102 62.8078 83.7537 63.1825 84.0756 63.326L86.8945 64.5835C87.2164 64.7271 87.5911 64.5836 87.7346 64.2617C87.8782 63.9399 87.7347 63.5652 87.4129 63.4216L84.594 62.1641C84.5136 62.1281 84.4298 62.1103 84.3471 62.1086ZM21.133 63.4872C21.0109 63.4781 20.8848 63.5054 20.7703 63.5715L14.4157 67.2405C14.1104 67.4167 14.0066 67.8042 14.1828 68.1095C14.3591 68.4147 14.7466 68.5185 15.0518 68.3423L21.4065 64.6736C21.7117 64.4974 21.8155 64.1096 21.6393 63.8044C21.5291 63.6136 21.3366 63.5014 21.133 63.4872ZM78.8672 63.4872C78.6636 63.5008 78.4708 63.6136 78.3606 63.8043C78.1844 64.1095 78.2882 64.4974 78.5935 64.6736L84.9481 68.3422C85.2534 68.5185 85.6412 68.4146 85.8174 68.1094C85.9936 67.8042 85.8898 67.4167 85.5846 67.2404L79.2296 63.5715C79.1152 63.5055 78.9893 63.4787 78.8672 63.4872ZM19.548 68.8713C19.4256 68.8759 19.303 68.9153 19.196 68.993L16.6978 70.8056C16.4125 71.0126 16.3494 71.4088 16.5563 71.6941C16.7633 71.9794 17.1596 72.0425 17.4448 71.8354L19.9433 70.0228C20.2286 69.8158 20.2917 69.4196 20.0848 69.1343C19.9554 68.956 19.7519 68.8643 19.548 68.8713ZM80.4368 68.8928C80.2329 68.8852 80.0296 68.9771 79.9001 69.1553C79.6929 69.4404 79.7558 69.8368 80.041 70.044L82.5381 71.8583C82.8232 72.0655 83.2194 72.0026 83.4266 71.7174C83.6337 71.4323 83.571 71.0361 83.286 70.829L80.7889 69.0147C80.682 68.937 80.5592 68.8972 80.4368 68.8928ZM25.2061 69.1124C25.0438 69.1034 24.8781 69.1575 24.7471 69.2752L19.2899 74.1808C19.0278 74.4164 19.0065 74.817 19.2422 75.0792C19.4778 75.3413 19.8784 75.3625 20.1405 75.1269L25.5977 70.2214C25.8598 69.9858 25.8811 69.5851 25.6454 69.323C25.5277 69.192 25.3685 69.1211 25.2061 69.1124ZM74.7787 69.13C74.6163 69.139 74.4571 69.2093 74.3392 69.3403C74.1033 69.6022 74.1244 70.0028 74.3863 70.2386L79.8399 75.148C80.1018 75.3839 80.5027 75.3628 80.7385 75.1009C80.9743 74.8389 80.9532 74.4383 80.6914 74.2025L75.2375 69.2931C75.1065 69.1752 74.9411 69.1214 74.7787 69.13ZM30.3832 73.7903C30.1793 73.7828 29.9758 73.8741 29.8462 74.0523L25.5296 79.986C25.3222 80.2711 25.3846 80.6675 25.6695 80.8748C25.9545 81.0821 26.3509 81.0197 26.5583 80.7347L30.8749 74.8009C31.0822 74.5159 31.0198 74.1195 30.7349 73.9122C30.6281 73.8345 30.5056 73.7946 30.3832 73.7903ZM69.5813 73.8169C69.4589 73.8215 69.3363 73.8606 69.2293 73.9383C68.944 74.1453 68.881 74.5415 69.0878 74.8268L73.3965 80.7663C73.6035 81.0516 73.9997 81.1147 74.285 80.9078C74.5703 80.7008 74.6333 80.3046 74.4265 80.0193L70.1178 74.0798C69.9884 73.9015 69.7852 73.81 69.5813 73.8169ZM24.8108 74.7334C24.6484 74.7425 24.4891 74.8128 24.3712 74.9437L22.306 77.2374C22.0701 77.4993 22.091 77.9002 22.353 78.136C22.6149 78.3719 23.0155 78.3507 23.2513 78.0887L25.3168 75.7951C25.5527 75.5332 25.5315 75.1323 25.2697 74.8964C25.1386 74.7786 24.9732 74.7249 24.8108 74.7334ZM75.1853 74.7365C75.0229 74.7274 74.8575 74.7816 74.7266 74.8995C74.4646 75.1353 74.4435 75.5359 74.6793 75.7979L76.7442 78.0921C76.98 78.3541 77.3806 78.3751 77.6426 78.1393C77.9045 77.9035 77.9256 77.5026 77.6898 77.2406L75.6248 74.9467C75.5069 74.8157 75.3477 74.745 75.1853 74.7365ZM36.4112 77.2811C36.1633 77.275 35.9258 77.4169 35.8182 77.6583L32.8285 84.3595C32.6849 84.6814 32.8284 85.0561 33.1503 85.1996C33.4721 85.3432 33.8468 85.1997 33.9904 84.8779L36.9801 78.1767C37.1237 77.8548 36.9802 77.4801 36.6583 77.3365C36.5779 77.3006 36.4938 77.2827 36.4112 77.2811ZM63.5484 77.2995C63.4657 77.301 63.3818 77.3188 63.3013 77.3547C62.9794 77.4978 62.8353 77.8722 62.9784 78.1943L65.9588 84.8996C66.1019 85.2214 66.4766 85.3656 66.7986 85.2225C67.1205 85.0793 67.2647 84.7049 67.1215 84.3829L64.1412 77.6775C64.0339 77.4361 63.7963 77.2947 63.5484 77.2995ZM31.1578 79.3529C30.9542 79.3665 30.7616 79.4793 30.6515 79.67L29.1082 82.3431C28.932 82.6484 29.0358 83.0359 29.341 83.2121C29.6462 83.3884 30.0338 83.2845 30.21 82.9793L31.7533 80.3062C31.9295 80.001 31.8257 79.6134 31.5205 79.4372C31.406 79.3712 31.2799 79.3445 31.1578 79.3529ZM68.8422 79.3529C68.7201 79.3439 68.5942 79.3712 68.4798 79.4373C68.1746 79.6135 68.0707 80.001 68.2469 80.3062L69.7902 82.9794C69.9665 83.2846 70.354 83.3884 70.6592 83.2122C70.9645 83.036 71.0683 82.6484 70.8921 82.3432L69.3488 79.6701C69.2386 79.4793 69.0457 79.3671 68.8422 79.3529ZM43.0668 79.4487C42.7704 79.4457 42.5049 79.6512 42.4408 79.9528L40.9159 87.1307C40.8426 87.4754 41.0613 87.8119 41.406 87.8851C41.7507 87.9584 42.0872 87.7397 42.1605 87.3951L43.6854 80.2172C43.7587 79.8725 43.54 79.536 43.1953 79.4628C43.1522 79.4537 43.1091 79.4487 43.0668 79.4487ZM56.9106 79.4533C56.8683 79.4536 56.8256 79.4578 56.7825 79.4669C56.4377 79.5399 56.2188 79.876 56.2918 80.2208L57.8115 87.3997C57.8845 87.7445 58.2209 87.9634 58.5657 87.8904C58.9105 87.8174 59.1294 87.481 59.0564 87.1362L57.5364 79.9578C57.4725 79.6561 57.207 79.451 56.9106 79.4533ZM50 80.1773C49.6475 80.1773 49.3638 80.461 49.3638 80.8135V88.1513C49.3638 88.5038 49.6475 88.7875 50 88.7875C50.3524 88.7875 50.6361 88.5038 50.6361 88.1513V80.8135C50.6361 80.461 50.3524 80.1773 50 80.1773ZM38.3224 82.5484C38.0753 82.5694 37.8536 82.7347 37.7719 82.986L36.8178 85.9216C36.7088 86.2568 36.891 86.6144 37.2261 86.7234C37.5613 86.8323 37.9188 86.6499 38.0278 86.3148L38.9819 83.3795C39.0909 83.0443 38.9087 82.6867 38.5736 82.5778C38.4899 82.5506 38.4048 82.5414 38.3224 82.5484ZM61.6726 82.5499C61.5902 82.5424 61.5052 82.5514 61.4214 82.5791C61.0862 82.688 60.9039 83.0456 61.0128 83.3808L61.9667 86.3164C62.0756 86.6516 62.4332 86.8336 62.7684 86.7247C63.1036 86.6157 63.2858 86.2584 63.1769 85.9232L62.2228 82.9876C62.1411 82.7362 61.9197 82.5709 61.6726 82.5499ZM46.0068 84.1849C45.7118 84.2133 45.4687 84.4449 45.4365 84.7516L45.1139 87.8214C45.077 88.172 45.3295 88.4836 45.6801 88.5205C46.0306 88.5574 46.3425 88.3048 46.3794 87.9543L46.702 84.8848C46.7388 84.5342 46.4863 84.2223 46.1358 84.1854C46.092 84.1809 46.049 84.1809 46.0068 84.1849ZM53.9676 84.1879C53.9255 84.1834 53.8821 84.1834 53.8383 84.1885C53.4877 84.225 53.235 84.5367 53.2716 84.8872L53.5923 87.9573C53.6288 88.3079 53.9405 88.5604 54.291 88.5238C54.6415 88.4872 54.8943 88.1755 54.8577 87.825L54.5373 84.7551C54.5053 84.4484 54.2626 84.2166 53.9676 84.1879Z" fill="#F4F2F3"/>
<g id="Vector_5" opacity="0.409" filter="url(#filter1_f_790_3359)">
<path d="M79.8156 21.9824L45.0103 42.2044L23.0039 76.8487L55.1975 53.0033L79.8156 21.9824Z" fill="black"/>
</g>
<path id="Vector_6" d="M54.9882 52.6526L45.0118 42.205L80.4018 18.3982L54.9882 52.6526Z" fill="#FF5150"/>
<path id="Vector_7" d="M54.9881 52.6526L45.0118 42.2051L19.5981 76.4595L54.9881 52.6526Z" fill="#F1F1F1"/>
<path id="Vector_8" opacity="0.243" d="M19.5983 76.4595L54.9882 52.6526L80.4019 18.3982L19.5983 76.4595Z" fill="black"/>
</g>
</g>
<defs>
<filter id="filter0_f_790_3359" x="0.814814" y="3.80932" width="98.3749" height="94.9946" filterUnits="userSpaceOnUse" color-interpolation-filters="sRGB">
<feFlood flood-opacity="0" result="BackgroundImageFix"/>
<feBlend mode="normal" in="SourceGraphic" in2="BackgroundImageFix" result="shape"/>
<feGaussianBlur stdDeviation="1.79016" result="effect1_foregroundBlur_790_3359"/>
</filter>
<filter id="filter1_f_790_3359" x="21.9863" y="20.9648" width="58.847" height="56.9015" filterUnits="userSpaceOnUse" color-interpolation-filters="sRGB">
<feFlood flood-opacity="0" result="BackgroundImageFix"/>
<feBlend mode="normal" in="SourceGraphic" in2="BackgroundImageFix" result="shape"/>
<feGaussianBlur stdDeviation="0.508813" result="effect1_foregroundBlur_790_3359"/>
</filter>
<linearGradient id="paint0_linear_790_3359" x1="49.9983" y1="94.7714" x2="49.9983" y2="0.0852009" gradientUnits="userSpaceOnUse">
<stop stop-color="#BDBDBD"/>
<stop offset="1" stop-color="white"/>
</linearGradient>
<radialGradient id="paint1_radial_790_3359" cx="0" cy="0" r="1" gradientUnits="userSpaceOnUse" gradientTransform="translate(50.1967 41.0665) scale(47.3433 47.3433)">
<stop stop-color="#06C2E7"/>
<stop offset="0.25" stop-color="#0DB8EC"/>
<stop offset="0.5" stop-color="#12AEF1"/>
<stop offset="0.75" stop-color="#1F86F9"/>
<stop offset="1" stop-color="#107DDD"/>
</radialGradient>
</defs>
</svg>
