<svg width="100" height="100" viewBox="0 0 100 100" fill="none" xmlns="http://www.w3.org/2000/svg">
<path d="M95.8335 34.7212H65.2793V65.2795H95.8335V34.7212Z" fill="#06FDB7"/>
<path d="M4.16675 4.16699V65.2795H34.7209V34.7212H65.2792V4.16699H4.16675Z" fill="#5B2AD8"/>
<path d="M58.4919 18.0544H59.2003L65.2794 24.1211V24.8294L58.4878 18.0544H58.4919ZM55.1003 18.0544H55.8086L65.2794 27.5044V28.2128L55.1003 18.0544ZM51.7086 18.0544H52.4169L65.2794 30.8878V31.5961L51.7086 18.0544ZM48.3169 18.0544H49.0253L65.2753 34.2711V34.7211H65.0253L48.3169 18.0544ZM44.9253 18.0544H45.6336L62.3419 34.7211H61.6336L44.9253 18.0544ZM41.5336 18.0544H42.2419L58.9461 34.7211H58.2378L41.5294 18.0544H41.5336ZM38.1419 18.0544H38.8503L55.5544 34.7211H54.8461L38.1378 18.0544H38.1419ZM34.7503 18.0544H35.4586L52.1669 34.7211H51.4586L34.7503 18.0544ZM31.3378 18.0544H32.0461L48.7544 34.7211H48.0461L31.3378 18.0544ZM27.9461 18.0544H28.6544L45.3628 34.7211H44.6544L27.9461 18.0544ZM24.5503 18.0544H25.2586L41.9628 34.7211H41.2544L24.5461 18.0544H24.5503ZM21.1544 18.0544H21.8628L38.5711 34.7211H37.8628L21.1544 18.0544ZM18.0544 18.3461V18.0544H18.4711L35.1794 34.7211H34.7211V34.9711L18.0544 18.3461ZM18.0544 21.7294V21.0211L34.7211 37.6503V38.3586L18.0544 21.7294ZM18.0544 25.1128V24.4044L34.7211 41.0336V41.7419L18.0544 25.1128ZM18.0544 28.5003V27.7919L34.7211 44.4169V45.1253L18.0544 28.5003ZM18.0544 31.8836V31.1753L34.7211 47.8003V48.5086L18.0544 31.8836ZM18.0544 35.2669V34.5586L34.7211 51.1836V51.8919L18.0544 35.2669ZM18.0544 38.6503V37.9419L34.7211 54.5711V55.2794L18.0544 38.6503ZM18.0544 42.0336V41.3253L34.7211 57.9544V58.6628L18.0544 42.0336ZM18.0544 45.4169V44.7086L34.7211 61.3378V62.0461L18.0544 45.4169ZM18.0544 48.8003V48.0919L34.7211 64.7211V65.2794H34.5711L18.0544 48.8003ZM18.0544 52.1919V51.4836L31.8794 65.2753H31.1711L18.0544 52.1919ZM18.0544 55.5836V54.8794L28.4794 65.2794H27.7711L18.0544 55.5836ZM18.0544 58.9669V58.2628L25.0878 65.2794H24.3794L18.0544 58.9669ZM18.0544 62.3544V61.6461L21.6961 65.2794H20.9878L18.0544 62.3544ZM65.2794 21.4419L61.8836 18.0544H62.5919L65.2794 20.7378V21.4419Z" fill="#06FDB7"/>
<path d="M95.8335 65.2795H65.2793V95.8337H95.8335V65.2795Z" fill="#5B2AD8"/>
<path d="M65.2793 65.2795H34.7209V95.8337H65.2793V65.2795Z" fill="#06FDB7"/>
</svg>
