<svg width="100" height="100" viewBox="0 0 100 100" fill="none" xmlns="http://www.w3.org/2000/svg">
<path fill-rule="evenodd" clip-rule="evenodd" d="M86.0956 0.000244141H78.8414C55.6122 0.000244141 42.2247 14.8336 42.2247 37.5752V41.4794C35.9635 39.6847 29.287 39.988 23.2144 42.3431C17.1417 44.6982 12.0065 48.9757 8.59255 54.5227C5.17862 60.0697 3.67353 66.5814 4.30702 73.0638C4.94052 79.5463 7.67779 85.6434 12.101 90.4245C16.5243 95.2056 22.3904 98.408 28.8042 99.5429C35.2179 100.678 41.8268 99.6828 47.6221 96.7099C53.4174 93.7369 58.0807 88.9493 60.9002 83.0778C63.7196 77.2063 64.5404 70.5736 63.2372 64.1919H86.0956C88.9942 64.1919 91.774 63.0404 93.8237 60.9908C95.8733 58.9412 97.0247 56.1613 97.0247 53.2627C97.0247 50.3641 95.8733 47.5843 93.8237 45.5347C91.774 43.485 88.9942 42.3336 86.0956 42.3336H63.3539V36.6127C63.3539 27.9044 69.6456 21.6127 78.8414 21.6127H86.0956C88.9248 21.5572 91.6194 20.3943 93.6007 18.3737C95.5819 16.3532 96.6917 13.6363 96.6917 10.8065C96.6917 7.9767 95.5819 5.25976 93.6007 3.23925C91.6194 1.21873 88.9248 0.0558025 86.0956 0.000244141ZM42.8747 70.1627C42.9259 68.9825 42.7409 67.8039 42.3307 66.6961C41.9204 65.5882 41.2931 64.5735 40.4855 63.7113C39.6779 62.8491 38.7063 62.1568 37.6276 61.6749C36.549 61.1931 35.385 60.9315 34.2039 60.9055C33.0229 60.8794 31.8485 61.0894 30.7496 61.5231C29.6508 61.9568 28.6496 62.6056 27.8047 63.4313C26.9599 64.2571 26.2884 65.2432 25.8296 66.3318C25.3708 67.4204 25.134 68.5897 25.1331 69.7711C25.1312 72.0922 26.0387 74.3217 27.6611 75.9817C29.2835 77.6416 31.4916 78.5999 33.8122 78.6511C36.1327 78.7024 38.381 77.8424 40.0751 76.2557C41.7692 74.669 42.7742 72.4817 42.8747 70.1627Z" fill="#7C3AED"/>
</svg>
