<svg width="100" height="100" viewBox="0 0 100 100" fill="none" xmlns="http://www.w3.org/2000/svg">
<g id="sketch">
<g id="sketch_2">
<path id="Vector" fill-rule="evenodd" clip-rule="evenodd" d="M20.2509 37.083L49.9958 94.9736L0 37.083H20.2509Z" fill="#EA6C00"/>
<path id="Vector_2" fill-rule="evenodd" clip-rule="evenodd" d="M79.7491 37.083L50.0042 94.9736L100 37.083H79.7491Z" fill="#EA6C00"/>
<path id="Vector_3" fill-rule="evenodd" clip-rule="evenodd" d="M20.2498 37.083H79.7395L49.9946 94.9736L20.2498 37.083Z" fill="#FDAD00"/>
<path id="Vector_4" fill-rule="evenodd" clip-rule="evenodd" d="M49.9946 5L21.8153 7.9619L20.2498 37.083L49.9946 5Z" fill="#FDD231"/>
<path id="Vector_5" fill-rule="evenodd" clip-rule="evenodd" d="M49.9946 5L78.1739 7.9619L79.7395 37.083L49.9946 5Z" fill="#FDD231"/>
<path id="Vector_6" fill-rule="evenodd" clip-rule="evenodd" d="M100 37.0831L78.1835 7.96191L79.7491 37.0831H100Z" fill="#FDAD00"/>
<path id="Vector_7" fill-rule="evenodd" clip-rule="evenodd" d="M0 37.0831L21.8164 7.96191L20.2509 37.0831H0Z" fill="#FDAD00"/>
<path id="Vector_8" fill-rule="evenodd" clip-rule="evenodd" d="M49.9946 5L20.2498 37.083H79.7395L49.9946 5Z" fill="#FEEEB7"/>
</g>
</g>
</svg>
