<svg width="100" height="100" viewBox="0 0 100 100" fill="none" xmlns="http://www.w3.org/2000/svg">
<g clip-path="url(#clip0_820_2798)">
<path fill-rule="evenodd" clip-rule="evenodd" d="M96.8815 43.1877L85.0357 50.0044L96.8815 56.8002C97.5919 57.2022 98.2147 57.7422 98.7135 58.3883C99.2122 59.0344 99.5767 59.7737 99.7857 60.5627C99.998 61.3533 100.052 62.1781 99.9449 62.9897C99.8376 63.8012 99.5711 64.5836 99.1607 65.2919C98.319 66.7169 96.9524 67.7544 95.3607 68.1794C93.7676 68.602 92.0721 68.3773 90.644 67.5544L69.4357 55.3711C68.0729 54.5946 67.059 53.3258 66.6024 51.8252C66.3937 51.1726 66.2979 50.4892 66.319 49.8044C66.3534 48.7456 66.6562 47.7129 67.1992 46.8033C67.7422 45.8937 68.5075 45.1371 69.4232 44.6044L90.6315 32.4336C91.3404 32.0239 92.123 31.7579 92.9346 31.6507C93.7463 31.5436 94.5711 31.5973 95.362 31.809C96.1528 32.0206 96.8943 32.386 97.5439 32.8842C98.1936 33.3825 98.7387 34.0038 99.1482 34.7127C99.5613 35.4166 99.8305 36.1956 99.9401 37.0044C100.05 37.8132 99.9975 38.6356 99.7866 39.4241C99.5758 40.2126 99.2104 40.9513 98.7116 41.5974C98.2129 42.2435 97.5909 42.784 96.8815 43.1877ZM85.6649 76.2169L64.469 64.0502C63.3768 63.415 62.1156 63.1313 60.8565 63.2377C59.2943 63.3439 57.8313 64.0412 56.7649 65.1877C55.694 66.3377 55.0982 67.8502 55.0857 69.4252V93.7877C55.0851 94.6058 55.2463 95.416 55.5599 96.1716C55.8734 96.9272 56.3333 97.6134 56.9129 98.1907C57.4925 98.7681 58.1806 99.2251 58.9375 99.5357C59.6943 99.8462 60.5051 100.004 61.3232 100C64.7732 100 67.5607 97.2169 67.5607 93.7877V80.1627L79.4315 86.9794C80.1392 87.3912 80.9212 87.6593 81.7327 87.7683C82.5442 87.8772 83.3692 87.8249 84.1605 87.6143C84.9517 87.4038 85.6936 87.0391 86.3436 86.5411C86.9936 86.0432 87.5389 85.4219 87.9482 84.7127C88.3584 84.0052 88.6248 83.2236 88.732 82.4128C88.8392 81.602 88.7852 80.7781 88.573 79.9882C88.3609 79.1984 87.9947 78.4582 87.4956 77.8103C86.9966 77.1624 86.3744 76.6236 85.6649 76.2169ZM61.2065 52.3877L52.3899 61.1461C52.0882 61.4268 51.6972 61.592 51.2857 61.6127H48.6982C48.2872 61.5896 47.897 61.4247 47.594 61.1461L38.7815 52.3877C38.5066 52.0882 38.3445 51.7022 38.3232 51.2961V48.7127C38.3451 48.3031 38.5068 47.9133 38.7815 47.6086L47.5899 38.8502C47.8928 38.5753 48.2813 38.4134 48.6899 38.3919H51.2857C51.696 38.411 52.0866 38.5732 52.3899 38.8502L61.2065 47.6086C61.4797 47.9139 61.64 48.3036 61.6607 48.7127V51.2961C61.6367 51.7015 61.4792 52.0867 61.2065 52.3877ZM54.1649 49.9586C54.1366 49.5468 53.9707 49.1565 53.694 48.8502L51.144 46.3211C50.838 46.0458 50.4468 45.884 50.0357 45.8627H49.9357C49.5272 45.8842 49.1386 46.0461 48.8357 46.3211L46.2857 48.8502C46.0164 49.1589 45.8593 49.5494 45.8399 49.9586V50.0586C45.8399 50.4127 46.0357 50.9002 46.2857 51.1502L48.8357 53.6919C49.0899 53.9419 49.5815 54.1502 49.9357 54.1502H50.0357C50.4465 54.128 50.8375 53.9663 51.144 53.6919L53.694 51.1502C53.9694 50.8501 54.1341 50.465 54.1607 50.0586V49.9586H54.1649ZM14.3149 23.7669L35.519 35.9502C36.6607 36.6044 37.9274 36.8627 39.1357 36.7627C40.6982 36.6544 42.1607 35.9544 43.2315 34.8044C44.2982 33.6586 44.8982 32.1377 44.9107 30.5669V6.20441C44.9149 2.77941 42.1232 0.000244141 38.6815 0.000244141C35.2274 0.000244141 32.4399 2.77941 32.4399 6.20858V19.8336L20.5649 13.0044C19.8561 12.5939 19.0734 12.3271 18.2615 12.2193C17.4495 12.1115 16.6243 12.1648 15.833 12.376C15.0416 12.5873 14.2997 12.9525 13.6496 13.4507C12.9994 13.9488 12.4539 14.5703 12.044 15.2794C11.6349 15.9858 11.3692 16.7659 11.2621 17.5752C11.155 18.3844 11.2087 19.2069 11.42 19.9953C11.6313 20.7838 11.9962 21.5228 12.4937 22.17C12.9911 22.8172 13.6073 23.3599 14.3149 23.7669ZM60.8565 36.7627C62.0649 36.8627 63.3315 36.6044 64.4649 35.9502L85.6607 23.7711C86.3705 23.3683 86.9929 22.8282 87.4915 22.1821C87.9901 21.5361 88.355 20.7972 88.5649 20.0086C88.9931 18.4122 88.7698 16.7111 87.944 15.2794C87.1156 13.8491 85.7531 12.8063 84.1559 12.3804C82.5588 11.9546 80.8579 12.1805 79.4274 13.0086L67.5607 19.8336V6.20441C67.5607 2.77941 64.7732 0.000244141 61.3232 0.000244141C57.8649 0.000244141 55.0857 2.77941 55.0857 6.20858V30.5627C55.0859 32.1338 55.6814 33.6464 56.7521 34.796C57.8229 35.9456 59.2895 36.6469 60.8565 36.7586V36.7627ZM39.1357 63.2377C37.8758 63.1297 36.6131 63.4119 35.519 64.0461L14.3149 76.2127C13.6053 76.6172 12.9834 77.159 12.4855 77.8064C11.9876 78.4538 11.6236 79.194 11.4149 79.9836C10.9863 81.5794 11.2081 83.2801 12.0315 84.7127C12.8613 86.1417 14.2245 87.1827 15.8215 87.6069C17.4185 88.0312 19.1187 87.804 20.5482 86.9752L32.4274 80.1586V93.7836C32.4274 97.2211 35.219 99.9961 38.669 99.9961C42.1107 99.9961 44.9024 97.2169 44.9024 93.7877V69.4252C44.8983 67.8529 44.3017 66.3398 43.2315 65.1877C42.1654 64.0409 40.7022 63.3435 39.1399 63.2377H39.1357ZM33.3857 51.8211C33.594 51.1711 33.6857 50.4877 33.669 49.8044C33.6333 48.7429 33.3271 47.7082 32.7795 46.7982C32.2319 45.8882 31.461 45.1331 30.5399 44.6044L9.35653 32.4377C7.92381 31.6124 6.22231 31.3889 4.62503 31.8161C3.02776 32.2434 1.66507 33.2865 0.835701 34.7169C0.42457 35.4223 0.157525 36.2024 0.0500398 37.0118C-0.057445 37.8212 -0.00323213 38.6438 0.209537 39.4321C0.422306 40.2204 0.7894 40.9586 1.28955 41.604C1.7897 42.2494 2.41295 42.7891 3.1232 43.1919L14.9607 50.0086L3.1232 56.8044C2.41207 57.206 1.78844 57.7457 1.28898 58.3919C0.789516 59.038 0.424319 59.7775 0.214868 60.5669C0.00254322 61.3575 -0.0515439 62.1823 0.0557108 62.9938C0.162965 63.8054 0.42945 64.5878 0.839868 65.2961C1.68153 66.7252 3.0482 67.7627 4.63987 68.1836C6.23153 68.6086 7.92737 68.3836 9.35653 67.5586L30.5482 55.3752C31.9857 54.5627 32.9524 53.2711 33.3982 51.8252L33.3857 51.8211Z" fill="#249EDC"/>
</g>
<defs>
<clipPath id="clip0_820_2798">
<rect width="100" height="100" fill="white"/>
</clipPath>
</defs>
</svg>
