<svg width="100" height="100" viewBox="0 0 100 100" fill="none" xmlns="http://www.w3.org/2000/svg">
<g clip-path="url(#clip0_820_2800)">
<path d="M8.33337 54.4999C8.33337 38.2582 19.8834 26.5291 38.8334 8.84155C36.125 41.6874 65.5417 43.3082 59.7625 59.7332C55.6375 71.4624 42.0792 67.8541 40.6375 65.3249C40.6375 65.3249 45.6875 66.7707 46.4084 61.7166C47.1334 56.6624 37.025 53.9582 30.5334 41.1457C19.7 53.5957 26.5584 78.679 48.0334 78.679C67.8834 78.679 75.4625 58.1082 68.425 44.9332C68.425 44.9332 85.3875 47.8207 86.8334 60.8124C88.275 73.8082 71.675 96.3665 48.9375 95.8249C26.2 95.2832 8.33337 78.4999 8.33337 54.4999Z" fill="#3DC8F9"/>
<path d="M74.3833 25.4456L48.3958 -0.000244141C46.2291 24.7206 52.0041 34.8914 68.7875 39.5206C80.1583 42.6581 82.5666 43.8539 87.5541 51.0706C86.1458 41.0414 84.3041 35.1873 74.3833 25.4456Z" fill="#EA0100"/>
<path fill-rule="evenodd" clip-rule="evenodd" d="M37.6374 76.3463C40.5915 77.8213 44.0624 78.6797 48.0332 78.6797C67.8832 78.6797 75.4624 58.1088 68.4249 44.9338C68.4249 44.9338 85.3874 47.8213 86.8332 60.813C87.4832 66.6588 84.479 74.438 78.9082 81.188C64.4999 87.7297 48.5332 84.688 37.6374 76.3463Z" fill="#1652D8"/>
</g>
<defs>
<clipPath id="clip0_820_2800">
<rect width="100" height="100" fill="white"/>
</clipPath>
</defs>
</svg>
