<svg width="100" height="100" viewBox="0 0 100 100" fill="none" xmlns="http://www.w3.org/2000/svg">
<path d="M30.0959 87.4998C47.8125 87.4998 59.3375 78.2497 59.3375 64.3331C59.3375 53.5414 52.3292 46.6831 39.7959 43.8414L31.7542 41.4623C24.6959 39.8998 20.575 38.0248 21.5459 33.2331C22.3542 29.2456 24.7667 26.9956 30.3875 26.9956C48.2417 26.9956 54.8584 33.2331 54.8584 33.2331V18.2331C54.8584 18.2331 48.4167 12.4998 30.3875 12.4998C13.3875 12.4998 4.16669 21.1248 4.16669 34.4706C4.16669 45.2623 10.5584 51.5414 23.5209 54.5206L24.9125 54.8664C26.8834 55.4664 29.5459 56.2623 32.8959 57.2498C39.5209 58.8123 41.225 60.4706 41.225 65.4414C41.225 69.9831 36.4334 72.5664 30.1 72.5664C11.8375 72.5664 4.16669 63.4623 4.16669 63.4623V80.0831C4.16669 80.0831 8.96669 87.4998 30.0959 87.4998Z" fill="url(#paint0_linear_820_2804)"/>
<path d="M84.8918 86.3737C91.1626 86.3737 95.8334 81.9029 95.8334 75.8487C95.8334 69.6654 91.2959 65.3237 84.8918 65.3237C78.6209 65.3237 74.0834 69.6654 74.0834 75.8487C74.0834 82.0321 78.6209 86.3737 84.8918 86.3737Z" fill="#E80000"/>
<defs>
<linearGradient id="paint0_linear_820_2804" x1="2762.71" y1="12.4998" x2="2762.71" y2="7512.5" gradientUnits="userSpaceOnUse">
<stop stop-color="#9D39FF"/>
<stop offset="1" stop-color="#A380FF"/>
</linearGradient>
</defs>
</svg>
