<svg width="100" height="100" viewBox="0 0 100 100" fill="none" xmlns="http://www.w3.org/2000/svg">
<g clip-path="url(#clip0_820_2808)">
<path fill-rule="evenodd" clip-rule="evenodd" d="M64.6208 25.0954C68.4379 24.321 72.4057 24.9166 75.8271 26.7775C79.2486 28.6383 81.9049 31.6454 83.3292 35.2704C88.1133 36.5118 92.3482 39.3099 95.3666 43.2238C98.3849 47.1376 100.015 51.9446 100 56.8871C99.9958 69.1871 90.0958 79.1663 77.8708 79.1663C73.4846 79.1571 69.2002 77.8437 65.5625 75.393C61.9247 72.9424 59.098 69.4652 57.4417 65.4038C56.3945 62.8827 55.8306 60.1873 55.7792 57.4579H50.1833C50.0962 57.4584 50.011 57.4328 49.9385 57.3845C49.8661 57.3362 49.8097 57.2673 49.7765 57.1868C49.7434 57.1062 49.7351 57.0176 49.7526 56.9323C49.7702 56.847 49.8128 56.7689 49.875 56.7079L61.2625 45.2413C61.3129 45.1902 61.3729 45.1497 61.4391 45.1221C61.5052 45.0944 61.5762 45.0802 61.6479 45.0802C61.7196 45.0802 61.7906 45.0944 61.8568 45.1221C61.9229 45.1497 61.983 45.1902 62.0333 45.2413L73.425 56.7163C73.6958 56.9913 73.5042 57.4663 73.1167 57.4663L67.2 57.4621C67.3958 58.8704 67.8333 60.2663 68.5542 61.5871C69.3143 62.9904 70.3502 64.2257 71.5995 65.2188C72.8488 66.212 74.2858 66.9426 75.8244 67.3667C77.363 67.7909 78.9714 67.8998 80.5531 67.6871C82.1349 67.4744 83.6573 66.9443 85.0292 66.1288C90.1042 63.1163 92.2458 56.5871 89.9333 51.1288C88.8168 48.4656 86.7697 46.2996 84.1738 45.0346C81.5779 43.7696 78.6105 43.4921 75.825 44.2538C76.3963 42.4126 76.3215 40.4315 75.613 38.6386C74.9044 36.8457 73.6048 35.3487 71.9292 34.3954C70.2569 33.4512 68.3096 33.1142 66.4172 33.4415C64.5249 33.7687 62.8039 34.7402 61.5458 36.1913C58.7125 29.4038 51.7 25.0246 44.0875 25.9288C35.8625 26.9038 29.7458 33.7204 29.2833 41.7704C27.1695 40.6149 24.781 40.0567 22.374 40.1558C19.9671 40.2549 17.6325 41.0076 15.6208 42.3329C13.2299 43.9148 11.4028 46.2146 10.4024 48.9012C9.40203 51.5878 9.2801 54.5226 10.0542 57.2829C10.8352 60.1023 12.5179 62.5883 14.8452 64.361C17.1724 66.1338 20.0162 67.0956 22.9417 67.0996L52.7458 67.1121C52.975 67.1121 53.1792 67.2496 53.2667 67.4579C54.6483 70.7164 56.6556 73.6722 59.175 76.1579C59.3958 76.3788 59.25 76.7496 58.9417 76.7496L22.9542 76.7371H22.9292C10.2625 76.7329 -0.0041654 66.3746 1.26781e-06 53.6163C0.00416793 40.8454 10.2833 30.5079 22.9458 30.5163H22.9792C25.1289 26.347 28.3841 22.8496 32.3886 20.4068C36.3932 17.9639 40.9925 16.6699 45.6833 16.6663C53.1875 16.6663 59.9375 19.9204 64.6208 25.0954Z" fill="#DF0428"/>
</g>
<defs>
<clipPath id="clip0_820_2808">
<rect width="100" height="100" fill="white"/>
</clipPath>
</defs>
</svg>
