<svg width="100" height="100" viewBox="0 0 100 100" fill="none" xmlns="http://www.w3.org/2000/svg">
<g id="storybook">
<g id="storybook_2">
<path id="Vector" d="M13.1032 92.149L10.0032 9.5992C9.95642 8.28809 10.4237 7.01059 11.3055 6.03915C12.1873 5.06772 13.4137 4.47923 14.7232 4.39921L84.923 0.00922337C85.6089 -0.0345443 86.2965 0.0628546 86.9432 0.295397C87.59 0.52794 88.1822 0.890683 88.6831 1.3612C89.1841 1.83171 89.5832 2.39999 89.8558 3.0309C90.1284 3.66181 90.2687 4.34193 90.268 5.02921V94.974C90.2673 95.6531 90.1292 96.325 89.8618 96.9492C89.5945 97.5734 89.2035 98.1371 88.7125 98.6062C88.2215 99.0752 87.6405 99.44 87.0047 99.6785C86.3689 99.9171 85.6914 100.024 85.013 99.994L17.9032 96.979C16.6424 96.9222 15.4491 96.3935 14.56 95.4979C13.6708 94.6023 13.1508 93.4101 13.1032 92.149Z" fill="#FF4785"/>
<path id="Vector_2" fill-rule="evenodd" clip-rule="evenodd" d="M79.4035 0.354248L69.7436 0.954247L69.2736 12.2892C69.2678 12.431 69.3024 12.5716 69.3733 12.6945C69.4443 12.8175 69.5486 12.9178 69.6743 12.9837C69.8 13.0497 69.9418 13.0787 70.0833 13.0673C70.2248 13.0558 70.3601 13.0045 70.4736 12.9192L74.8735 9.57923L78.5935 12.5092C78.7058 12.5981 78.8413 12.653 78.9838 12.6674C79.1263 12.6817 79.2699 12.655 79.3977 12.5903C79.5255 12.5256 79.6321 12.4257 79.7049 12.3023C79.7777 12.179 79.8137 12.0374 79.8085 11.8942L79.4035 0.354248ZM71.8836 38.3042C70.1186 39.6792 56.9386 40.6142 56.9386 38.6592C57.2186 31.1942 53.8786 30.8692 52.0186 30.8692C50.2586 30.8692 47.2886 31.3992 47.2886 35.3992C47.2886 39.4742 51.6286 41.7742 56.7236 44.4741C63.9586 48.3091 72.7235 52.9541 72.7235 64.6341C72.7235 75.8341 63.6236 82.0141 52.0236 82.0141C40.0486 82.0141 29.5837 77.1691 30.7636 60.3741C31.2286 58.4041 46.4536 58.8741 46.4536 60.3741C46.2636 67.3041 47.8436 69.3441 51.8336 69.3441C54.8986 69.3441 56.2886 67.6541 56.2886 64.8141C56.2886 60.5091 51.7686 57.9691 46.5636 55.0491C39.5186 51.0941 31.2286 46.4391 31.2286 35.7542C31.2286 25.0942 38.5586 17.9842 51.6486 17.9842C64.7386 17.9842 71.8836 24.9842 71.8836 38.3042Z" fill="white"/>
</g>
</g>
</svg>
