<svg width="100" height="100" viewBox="0 0 100 100" fill="none" xmlns="http://www.w3.org/2000/svg">
<g id="strada">
<g id="strada_2">
<path id="Vector" d="M2.94118 -0.00146484C1.31681 -0.00146484 0 1.31535 0 2.93972V26.9265C0 28.3902 0 29.1218 0.288421 29.5117C0.54605 29.8598 0.914989 30.0658 1.34658 30.1023C1.82977 30.1433 2.47005 29.7483 3.7506 28.9587C17.1987 20.6655 33.0406 15.8809 50 15.8809C66.9593 15.8809 82.8013 20.6655 96.2492 28.9587C97.5299 29.7483 98.1701 30.1433 98.6534 30.1023C99.0849 30.0658 99.4539 29.8598 99.7116 29.5117C99.9999 29.1218 99.9999 28.3902 99.9999 26.9265V2.93972C99.9999 1.31534 98.6831 -0.00146484 97.0587 -0.00146484H2.94118Z" fill="#E76057"/>
<path id="Vector_2" d="M10.5882 99.9985C11.4118 99.9985 11.8236 99.9985 12.1382 99.8382C12.4149 99.6972 12.6399 99.4723 12.7809 99.1955C12.9412 98.881 12.9412 98.4692 12.9412 97.6455V43.9935C12.9412 42.6702 12.9412 42.0085 12.6457 41.6157C12.395 41.2825 11.9831 41.0599 11.567 41.0325C11.0766 41.0004 10.5404 41.3512 9.46803 42.0529C6.40358 44.0584 3.49671 46.2845 0.770009 48.709C0.492361 48.9559 0.353538 49.0794 0.249275 49.2349C0.158401 49.3702 0.0877561 49.5277 0.0468891 49.6855C0 49.8667 0 50.0579 0 50.4402V97.0573C0 98.6817 1.31681 99.9985 2.94118 99.9985H10.5882Z" fill="#E76057"/>
<path id="Vector_3" d="M32.3526 99.9987C33.1761 99.9987 33.5879 99.9987 33.9026 99.8384C34.1793 99.6974 34.4043 99.4725 34.5453 99.1957C34.7054 98.8812 34.7054 98.4694 34.7054 97.6457V34.4762C34.7054 33.4884 34.7054 32.9944 34.4924 32.6429C34.3098 32.3417 34.0046 32.1037 33.6679 32.0001C33.2753 31.8791 32.8108 31.9957 31.8818 32.2291C28.9221 32.9727 26.0329 33.8942 23.2266 34.9819C22.7114 35.1816 22.4538 35.2814 22.2541 35.4599C22.0809 35.6149 21.9406 35.8197 21.8588 36.0372C21.7643 36.2879 21.7643 36.5724 21.7643 37.1414V97.6457C21.7643 98.4694 21.7643 98.8812 21.9246 99.1957C22.0656 99.4725 22.2906 99.6974 22.5673 99.8384C22.8818 99.9987 23.2936 99.9987 24.1173 99.9987H32.3526Z" fill="#E76057"/>
<path id="Vector_4" d="M54.1177 99.9985C54.9414 99.9985 55.3531 99.9985 55.6677 99.8381C55.9444 99.6971 56.1694 99.4723 56.3104 99.1955C56.4707 98.881 56.4707 98.4691 56.4707 97.6455V32.4354C56.4707 31.6749 56.4707 31.2947 56.3217 30.9894C56.1931 30.7259 55.9756 30.4955 55.7197 30.352C55.4236 30.1857 55.0551 30.1645 54.3181 30.1222C52.8892 30.0402 51.4496 29.9985 50.0001 29.9985C48.5506 29.9985 47.1109 30.0402 45.6821 30.1222C44.9451 30.1645 44.5766 30.1857 44.2804 30.352C44.0246 30.4955 43.8071 30.7259 43.6784 30.9894C43.5294 31.2947 43.5294 31.6749 43.5294 32.4354V97.6455C43.5294 98.4691 43.5294 98.881 43.6898 99.1955C43.8308 99.4723 44.0558 99.6971 44.3324 99.8381C44.6471 99.9985 45.0588 99.9985 45.8824 99.9985H54.1177Z" fill="#E76057"/>
<path id="Vector_5" d="M75.8819 99.9987C76.7055 99.9987 77.1174 99.9987 77.4319 99.8384C77.7085 99.6974 77.9335 99.4725 78.0745 99.1957C78.2349 98.8812 78.2349 98.4694 78.2349 97.6457V37.1414C78.2349 36.5724 78.2349 36.2879 78.1404 36.0372C78.0584 35.8197 77.9182 35.6149 77.745 35.4599C77.5454 35.2814 77.2877 35.1816 76.7725 34.9819C73.9662 33.8942 71.077 32.9727 68.1174 32.2291C67.1884 31.9957 66.7239 31.8791 66.3312 32.0001C65.9945 32.1037 65.6894 32.3417 65.5067 32.6429C65.2937 32.9944 65.2937 33.4884 65.2937 34.4762V97.6457C65.2937 98.4694 65.2937 98.8812 65.4539 99.1957C65.5949 99.4725 65.8199 99.6974 66.0965 99.8384C66.4112 99.9987 66.823 99.9987 67.6465 99.9987H75.8819Z" fill="#E76057"/>
<path id="Vector_6" d="M100 50.4402C100 50.0579 100 49.8667 99.9532 49.6855C99.9122 49.5277 99.8417 49.3702 99.7507 49.2349C99.6465 49.0794 99.5077 48.9559 99.23 48.709C96.5033 46.2845 93.5963 44.0584 90.532 42.0529C89.4597 41.3512 88.9235 41.0004 88.433 41.0325C88.017 41.0599 87.605 41.2825 87.3543 41.6157C87.0588 42.0085 87.0588 42.6702 87.0588 43.9935V97.6455C87.0588 98.4692 87.0588 98.881 87.2192 99.1955C87.3602 99.4723 87.585 99.6972 87.8618 99.8382C88.1763 99.9985 88.5882 99.9985 89.4118 99.9985H97.0588C98.6832 99.9985 100 98.6817 100 97.0573V50.4402Z" fill="#E76057"/>
</g>
</g>
</svg>
