<svg width="100" height="100" viewBox="0 0 100 100" fill="none" xmlns="http://www.w3.org/2000/svg">
<g id="stylelint">
<g id="stylelint_2">
<path id="Vector" fill-rule="evenodd" clip-rule="evenodd" d="M50.6794 97.7939C61.6192 58.4315 61.3026 58.2556 69.2068 30.1955L71.1063 31.3C72.1405 31.898 72.9847 31.4055 72.9847 30.2095V16.832C75.0812 9.43789 76.7275 3.72525 77.2059 2.00513H85.7713L100 15.2736L90.6573 23.3994L97.7278 31.0889L51.1472 97.7939C50.9186 98.1703 50.602 98.0858 50.6723 97.7939H50.6794Z" fill="black"/>
<path id="Vector_2" fill-rule="evenodd" clip-rule="evenodd" d="M55.7697 12.9638C56.1918 12.9638 56.533 13.196 56.533 13.4915V20.3509C56.533 20.6323 56.2164 20.8715 55.7943 20.8715H44.2916C43.8695 20.8715 43.5177 20.6358 43.5177 20.3438V13.4844C43.5177 13.196 43.8695 12.9638 44.2916 12.9638H55.7943H55.7697ZM69.9668 5.36574L57.3104 12.7176C57.4581 12.9463 57.5461 13.2101 57.5461 13.4915V20.3509C57.5461 20.7026 57.4054 21.0192 57.1591 21.283L69.9281 28.7053C70.7724 29.2153 71.5111 28.8002 71.5111 27.7907V6.29088C71.5111 5.2778 70.7724 4.86272 69.9281 5.36926L69.9668 5.36574ZM42.4835 20.3509V13.4915C42.4835 13.2101 42.5715 12.9463 42.7157 12.7176L30.0593 5.36574C29.1904 4.86272 28.4763 5.2778 28.4763 6.28737V27.7801C28.4763 28.8002 29.1869 29.1872 30.0593 28.6947L42.8459 21.2725C42.6172 20.9911 42.48 20.6745 42.48 20.3227L42.4835 20.3509Z" fill="black"/>
<path id="Vector_3" fill-rule="evenodd" clip-rule="evenodd" d="M48.8461 97.7941H49.3175C38.3777 58.4317 38.6942 58.2558 30.7936 30.1957L28.8941 31.3002C27.8599 31.8982 27.0122 31.4057 27.0122 30.2097V16.8322C24.9051 9.43457 23.2518 3.72193 22.7593 1.99829H14.2115L0.000244141 15.2703L9.33957 23.3961L2.26912 31.0856L48.8426 97.78L48.8461 97.7941Z" fill="black"/>
<path id="Vector_4" d="M49.6511 35.1872C51.5589 35.1872 53.1054 33.6312 53.1054 31.7118C53.1054 29.7923 51.5589 28.2363 49.6511 28.2363C47.7433 28.2363 46.1968 29.7923 46.1968 31.7118C46.1968 33.6312 47.7433 35.1872 49.6511 35.1872Z" fill="black"/>
<path id="Vector_5" d="M49.6511 55.86C51.5589 55.86 53.1054 54.304 53.1054 52.3846C53.1054 50.4652 51.5589 48.9092 49.6511 48.9092C47.7433 48.9092 46.1968 50.4652 46.1968 52.3846C46.1968 54.304 47.7433 55.86 49.6511 55.86Z" fill="black"/>
<path id="Vector_6" d="M49.6511 76.5331C51.5589 76.5331 53.1054 74.9771 53.1054 73.0577C53.1054 71.1383 51.5589 69.5823 49.6511 69.5823C47.7433 69.5823 46.1968 71.1383 46.1968 73.0577C46.1968 74.9771 47.7433 76.5331 49.6511 76.5331Z" fill="black"/>
</g>
</g>
</svg>
