<svg width="100" height="100" viewBox="0 0 100 100" fill="none" xmlns="http://www.w3.org/2000/svg">
<path d="M83.5346 71.4229C82.0604 72.8804 79.1125 75.0667 73.9534 75.0667C71.7425 75.0667 69.1629 75.0667 68.0575 75.0667C66.5834 75.0667 55.5284 75.0667 42.2625 75.0667C51.8434 65.9571 59.9504 58.3046 60.6875 57.5759C61.4246 56.8471 63.2671 55.025 65.1096 53.5675C68.7946 50.2879 71.7425 49.9234 74.3221 49.9234C78.0071 49.9234 80.955 51.3813 83.5346 53.5675C88.6934 58.3046 88.6934 66.6859 83.5346 71.4229ZM89.7992 47.7371C86.1142 43.7288 80.5867 41.178 74.6904 41.178C69.5313 41.178 65.1096 43 61.0559 45.915C59.5821 47.3725 57.3709 48.8304 55.5284 51.0167C54.0546 52.4742 22.3633 83.0834 22.3633 83.0834C24.2058 83.4479 26.4168 83.4479 28.2593 83.4479C30.1018 83.4479 66.9521 83.4479 68.4259 83.4479C71.3742 83.4479 73.585 83.4479 75.7959 83.0834C80.5867 82.7192 85.3771 80.8971 89.4305 77.2534C97.9063 69.2363 97.9063 55.7538 89.7992 47.7371Z" fill="#00A3FF"/>
<path d="M38.2088 45.5509C34.1553 42.6354 30.1018 41.178 25.3112 41.178C19.4152 41.178 13.8877 43.7288 10.2027 47.7371C2.09567 56.1184 2.09567 69.2363 10.5712 77.6175C14.2562 80.8971 17.9412 82.7192 22.3632 83.0834L30.8388 75.0667C29.3648 75.0667 27.5222 75.0667 26.0482 75.0667C21.2577 74.7025 18.3097 73.245 16.4672 71.4229C11.3082 66.3213 11.3082 58.3046 16.0987 53.2029C18.6782 50.6521 21.6262 49.5592 25.3112 49.5592C27.5222 49.5592 30.8388 49.9234 34.1553 53.2029C35.6293 54.6604 39.6828 57.5759 41.1568 59.0334H41.5253L47.053 53.5675V53.2029C44.4734 50.6521 40.4198 47.3725 38.2088 45.5509Z" fill="#00C8DC"/>
<path d="M76.9017 36.4387C72.8484 25.5068 62.1617 17.8545 50.0013 17.8545C35.6296 17.8545 24.2061 28.422 21.9951 41.5402C23.1006 41.5402 24.2061 41.1758 25.6801 41.1758C27.1541 41.1758 28.9966 41.5402 30.4706 41.5402C32.3131 32.4303 40.4201 25.8712 50.0013 25.8712C58.1084 25.8712 65.1096 30.6083 68.4263 37.5319C68.4263 37.5319 68.7946 37.8962 68.7946 37.5319C71.3742 37.1674 74.3221 36.4387 76.9017 36.4387C76.9017 36.8031 76.9017 36.8031 76.9017 36.4387Z" fill="#006EFF"/>
</svg>
