<svg width="100" height="100" viewBox="0 0 100 100" fill="none" xmlns="http://www.w3.org/2000/svg">
<path d="M32.7163 12.0005H2.69543C2.0419 11.9983 1.41577 11.7377 0.953657 11.2756C0.491542 10.8135 0.230957 10.1873 0.22876 9.5338C0.233167 8.88104 0.496135 8.25665 0.96005 7.79742C1.42396 7.33819 2.05099 7.08158 2.70376 7.0838H32.7246C38.9329 7.0838 45.0579 9.0588 50.0454 12.6463C55.1094 9.03895 61.1696 7.09509 67.3871 7.0838H97.3788C97.7027 7.0816 98.0239 7.14323 98.324 7.26517C98.6241 7.3871 98.8973 7.56696 99.1279 7.79447C99.3585 8.02197 99.542 8.29267 99.668 8.5911C99.794 8.88954 99.8599 9.20987 99.8621 9.5338C99.8555 10.1877 99.5908 10.8125 99.1257 11.2722C98.6606 11.7318 98.0327 11.9891 97.3788 11.988H67.3871C62.6147 11.9984 57.947 13.3874 53.9454 15.988C55.4246 17.4755 56.7413 19.1296 57.8538 20.9046C61.7602 18.2309 66.3824 16.7976 71.1163 16.7921H97.3788C98.0323 16.7899 98.6602 17.0462 99.1255 17.5052C99.5907 17.9642 99.8555 18.5886 99.8621 19.2421C99.8555 19.896 99.5908 20.5208 99.1257 20.9805C98.6606 21.4402 98.0327 21.6974 97.3788 21.6963H71.1163C67.1329 21.6963 63.2246 22.9796 60.0579 25.3171C60.8663 27.2838 61.4413 29.3296 61.7954 31.4296C63.3525 29.795 65.2261 28.4947 67.3021 27.6078C69.3781 26.721 71.613 26.2662 73.8704 26.2713H97.3788C97.7836 26.2702 98.1825 26.3688 98.5403 26.5583C98.898 26.7479 99.2036 27.0225 99.4301 27.3581C99.6566 27.6937 99.797 28.0799 99.8389 28.4826C99.8808 28.8853 99.8229 29.2921 99.6704 29.6671C99.4798 30.1165 99.1605 30.4995 98.7527 30.7679C98.3449 31.0363 97.8669 31.1781 97.3788 31.1755H73.9204C70.8459 31.1599 67.8904 32.363 65.7007 34.5214C63.5111 36.6798 62.2657 39.6177 62.2371 42.6921V57.3213C62.2538 63.663 67.4954 68.8338 73.9204 68.838H97.6079L97.6913 68.8463C98.3421 68.8881 98.95 69.186 99.3818 69.6748C99.8136 70.1636 100.034 70.8036 99.9954 71.4546C99.9481 72.0758 99.6674 72.6561 99.2099 73.0788C98.7523 73.5016 98.1517 73.7356 97.5288 73.7338H73.9163C64.7621 73.7171 57.2996 66.363 57.2913 57.3296V36.2588C57.2663 22.8963 46.2496 12.0213 32.7121 12.0046L32.7163 12.0005Z" fill="url(#paint0_linear_820_2821)"/>
<path d="M2.69561 21.68H28.9873C39.1748 21.68 47.4623 29.8758 47.4539 39.93V60.0883C47.4539 72.8383 57.9706 83.2217 70.9039 83.2217H97.1956C97.8491 83.2272 98.4781 82.9732 98.9445 82.5154C99.4109 82.0577 99.6765 81.4335 99.6831 80.78C99.6826 80.4554 99.6178 80.1341 99.4924 79.8347C99.3671 79.5353 99.1837 79.2637 98.9528 79.0355C98.7219 78.8073 98.4481 78.6272 98.1473 78.5054C97.8464 78.3836 97.5244 78.3225 97.1998 78.3259H70.8539C67.2185 78.3399 63.66 77.2796 60.6251 75.2781C57.5902 73.2766 55.2143 70.4231 53.7956 67.0758C52.8683 64.8589 52.3937 62.4789 52.3998 60.0758V39.9342C52.3998 27.205 41.8998 16.8133 28.9914 16.7883H2.69561C2.04213 16.7861 1.41447 17.0433 0.950437 17.5034C0.486404 17.9636 0.223919 18.589 0.220612 19.2425C0.227209 19.8938 0.491143 20.5161 0.95482 20.9735C1.4185 21.4309 2.04428 21.6822 2.69561 21.68Z" fill="url(#paint1_linear_820_2821)"/>
<path d="M97.3373 87.9816H97.5998C97.9362 87.9844 98.2676 88.0639 98.5687 88.2141C98.8698 88.3643 99.1326 88.5812 99.3373 88.8482C99.6475 89.2036 99.8483 89.641 99.9156 90.1079C99.9828 90.5748 99.9137 91.0511 99.7164 91.4796C99.5191 91.9081 99.2022 92.2703 98.8037 92.5228C98.4052 92.7752 97.9423 92.9071 97.4706 92.9024L97.3873 92.8941H67.3456C61.1331 92.892 55.0763 90.9502 50.0206 87.3399C44.9536 90.9403 38.8948 92.8808 32.679 92.8941H2.5248L2.44146 92.8857H2.36646C1.72762 92.8491 1.12848 92.5639 0.697139 92.0912C0.265801 91.6186 0.0365032 90.9959 0.0582741 90.3564C0.0800451 89.7169 0.351157 89.1113 0.81364 88.669C1.27612 88.2268 1.89327 87.983 2.53313 87.9899L2.61646 87.9982H32.6665C37.4492 87.9996 42.1297 86.6146 46.1415 84.0107C44.6632 82.5157 43.35 80.8659 42.2248 79.0899C38.325 81.7711 33.7032 83.2052 28.9706 83.2024H2.68313C2.02854 83.2068 1.39893 82.9513 0.932552 82.492C0.466172 82.0326 0.201134 81.407 0.19563 80.7524C0.201134 80.0989 0.465733 79.4743 0.931332 79.0158C1.39693 78.5572 2.02547 78.3021 2.67896 78.3066H29.0123C32.9748 78.3066 36.8331 77.0399 40.0248 74.6941C39.2245 72.7295 38.6446 70.6823 38.2956 68.5899C36.7333 70.221 34.8559 71.5177 32.7774 72.4016C30.6989 73.2854 28.4626 73.7379 26.204 73.7316H2.46646C1.83247 73.697 1.23656 73.418 0.803936 72.9532C0.371308 72.4885 0.135632 71.8742 0.146419 71.2393C0.157207 70.6045 0.413619 69.9986 0.861786 69.5488C1.30995 69.099 1.91499 68.8404 2.5498 68.8274L2.63313 68.8399H26.1748C32.604 68.8316 37.8415 63.6566 37.854 57.3191V42.6982C37.8456 36.3482 32.6123 31.1816 26.179 31.1816H2.6873C2.36302 31.1838 2.04149 31.122 1.74111 30.9998C1.44073 30.8776 1.16739 30.6974 0.936735 30.4694C0.70608 30.2415 0.522636 29.9703 0.396899 29.6714C0.271161 29.3725 0.205599 29.0517 0.203963 28.7274C0.206144 28.4035 0.272109 28.0831 0.39809 27.7847C0.524071 27.4863 0.707601 27.2156 0.938202 26.9881C1.1688 26.7606 1.44196 26.5807 1.74207 26.4588C2.04218 26.3368 2.36337 26.2752 2.6873 26.2774H26.179C35.3248 26.2941 42.7956 33.6566 42.804 42.6816V63.7482C42.8123 77.1191 53.8373 88.0024 67.3831 88.0191H97.1414L97.3373 87.9857V87.9816Z" fill="url(#paint2_linear_820_2821)"/>
<defs>
<linearGradient id="paint0_linear_820_2821" x1="-0.000406967" y1="47.9171" x2="97.7079" y2="62.8796" gradientUnits="userSpaceOnUse">
<stop stop-color="#6865FC"/>
<stop offset="1" stop-color="#467DF9"/>
</linearGradient>
<linearGradient id="paint1_linear_820_2821" x1="-0.000221684" y1="47.9175" x2="97.7081" y2="62.88" gradientUnits="userSpaceOnUse">
<stop stop-color="#6865FC"/>
<stop offset="1" stop-color="#467DF9"/>
</linearGradient>
<linearGradient id="paint2_linear_820_2821" x1="-0.000203605" y1="47.9149" x2="97.7081" y2="62.8774" gradientUnits="userSpaceOnUse">
<stop stop-color="#6865FC"/>
<stop offset="1" stop-color="#467DF9"/>
</linearGradient>
</defs>
</svg>
