<svg width="100" height="100" viewBox="0 0 100 100" fill="none" xmlns="http://www.w3.org/2000/svg">
<g clip-path="url(#clip0_820_2825)">
<path d="M46.2416 31.5142H19.7916V40.71H27.1666V68.4933H38.8625V40.71H46.2375L46.2416 31.5142ZM61.7166 31.5142H50.0208V68.4933H61.7166V31.5142ZM80.9708 31.5142H69.275V68.4933H80.9708V31.5142Z" fill="#6400FF"/>
<path d="M49.9999 99.9998V95.6039C62.5416 95.6039 73.3874 91.1081 82.2374 82.2373C91.0833 73.3623 95.6083 62.5414 95.6083 49.9998C95.6083 37.4623 91.1083 26.6373 82.2374 17.7664C73.3708 8.89142 62.5208 4.39142 50.0041 4.39142V-0.000244141C63.7291 -0.000244141 75.6208 4.93309 85.3458 14.6581C95.0708 24.3831 99.9999 36.2748 99.9999 49.9998C99.9999 63.7289 95.0708 75.6456 85.3416 85.3456C75.6124 95.0456 63.7499 99.9998 50.0041 99.9998H49.9999Z" fill="#6400FF"/>
</g>
<defs>
<clipPath id="clip0_820_2825">
<rect width="100" height="100" fill="white"/>
</clipPath>
</defs>
</svg>
