<svg width="101" height="100" viewBox="0 0 101 100" fill="none" xmlns="http://www.w3.org/2000/svg">
<g id="tinyhttp">
<g id="tinyhttp_2" clip-path="url(#clip0_790_3499)">
<path id="Vector" fill-rule="evenodd" clip-rule="evenodd" d="M8.44262 52.9879H12.4182L14.8646 38.5129H10.8891L8.44262 52.9879ZM13.2337 36.6781C14.4569 36.6781 15.5782 35.7606 15.6801 34.6393C15.7821 33.518 14.9666 32.6006 13.7433 32.6006C12.5201 32.6006 11.5007 33.518 11.2969 34.6393C11.1949 35.7606 12.1123 36.6781 13.2337 36.6781ZM9.97168 38.5129H7.21938L7.831 35.0471H3.75353L3.24385 38.5129H1.30705L0.797363 41.571H2.73416L1.51092 49.1143C1.00124 51.8666 2.63223 53.2938 5.58839 53.1918C6.60776 53.1918 7.42326 52.9879 7.831 52.7841L7.72907 49.8279H7.62713L6.7097 49.9298C5.8942 49.9298 5.38452 49.624 5.58839 48.5027L6.7097 41.571H9.46199L9.97168 38.5129ZM22.6118 41.673C20.9809 41.673 19.6557 42.7943 19.3499 44.6291L17.9227 52.9879H13.9472L16.3937 38.5129H20.1654L19.7576 41.0613H19.9615C20.8789 39.4304 22.6118 38.309 24.7525 38.309C27.7087 38.309 29.4416 40.4497 28.83 43.8136L27.3009 52.9879H23.3254L24.7525 44.5272C24.9564 42.6923 24.2428 41.673 22.6118 41.673ZM35.7617 54.517C35.252 55.6383 34.5384 56.5557 33.7229 57.1674H73.2744L76.3325 38.5129H80.3081L79.9003 40.9594H80.1042C80.8178 39.7362 82.2449 38.309 84.6914 38.309C87.8514 38.309 90.094 40.8575 89.2785 45.7504C88.463 50.6434 85.5068 53.1918 82.1429 53.1918C79.7984 53.1918 78.881 51.8666 78.4732 50.6434H78.3713L77.25 57.1674H93.9676L89.5843 52.7841L92.1327 50.2357L100.593 58.6964L100.492 58.9003L100.593 59.0022L92.1327 67.463L89.5843 64.9146L93.7637 60.7351H0.8993V57.1674H27.7087L28.728 54.9247C30.0532 55.4344 30.9707 55.3325 31.7862 54.0073L32.1939 53.3957L29.4416 38.5129H33.5191L34.7423 49.2163H34.8443L39.6353 38.5129H44.1205L35.7617 54.517ZM50.6445 41.673C49.0135 41.673 47.6883 42.7943 47.3825 44.6291L46.0573 52.9879H41.9798L45.2418 33.7219H49.1154L47.8922 41.0613H48.096C49.0135 39.3284 50.6445 38.309 52.8871 38.309C55.8432 38.309 57.4742 40.3478 56.9645 43.8136L55.4355 52.9879H51.358L52.7851 44.5272C53.0909 42.6923 52.2754 41.673 50.6445 41.673ZM66.7505 38.5129H64.2021L64.7117 35.0471H60.7362L60.1246 38.5129H58.1878L57.6781 41.571H59.7168L58.3917 49.1143C57.882 51.8666 59.6149 53.2938 62.5711 53.1918C63.5904 53.1918 64.4059 52.9879 64.8137 52.7841L64.7117 49.8279H64.6098L63.6924 49.9298C62.8769 49.9298 62.3672 49.624 62.4691 48.5027L63.6924 41.571H68.2795L67.0563 49.1143C66.5466 51.8666 68.1776 53.2938 71.1338 53.1918C72.1531 53.1918 72.9686 52.9879 73.3764 52.7841L73.2744 49.8279H73.1725L72.2551 49.9298C71.4396 49.9298 70.9299 49.624 71.1338 48.5027L72.2551 41.571H75.0074L75.517 38.5129H72.7647L73.3764 35.0471H69.2989L68.7892 38.5129H66.7505ZM79.0848 45.7504C79.4926 43.202 80.9197 41.571 82.8565 41.571C84.7933 41.571 85.6088 43.3039 85.201 45.7504C84.6914 48.2989 83.3662 50.0318 81.4294 50.0318C79.4926 50.0318 78.6771 48.2989 79.0848 45.7504Z" fill="url(#paint0_linear_790_3499)"/>
</g>
</g>
<defs>
<linearGradient id="paint0_linear_790_3499" x1="50.6852" y1="32.5904" x2="50.6852" y2="67.4834" gradientUnits="userSpaceOnUse">
<stop stop-color="#C75975"/>
<stop offset="1" stop-color="#9A84CD"/>
</linearGradient>
<clipPath id="clip0_790_3499">
<rect width="100" height="35.0663" fill="white" transform="translate(0.695435 32.4985)"/>
</clipPath>
</defs>
</svg>
