<svg width="100" height="100" viewBox="0 0 100 100" fill="none" xmlns="http://www.w3.org/2000/svg">
<path opacity="0.2" fill-rule="evenodd" clip-rule="evenodd" d="M72.4377 46.7913C77.5376 46.7913 82.4286 44.7654 86.0347 41.1593C89.6409 37.5531 91.6668 32.6621 91.6668 27.5622C91.6668 22.4623 89.6409 17.5713 86.0347 13.9651C82.4286 10.3589 77.5376 8.33301 72.4377 8.33301C67.3378 8.33301 62.4468 10.3589 58.8406 13.9651C55.2344 17.5713 53.2085 22.4623 53.2085 27.5622C53.2085 32.6621 55.2344 37.5531 58.8406 41.1593C62.4468 44.7654 67.3378 46.7913 72.4377 46.7913ZM72.4377 91.6664C77.5376 91.6664 82.4286 89.6404 86.0347 86.0343C89.6409 82.4281 91.6668 77.5371 91.6668 72.4372C91.6668 67.3373 89.6409 62.4463 86.0347 58.8401C82.4286 55.2339 77.5376 53.208 72.4377 53.208C67.3378 53.208 62.4468 55.2339 58.8406 58.8401C55.2344 62.4463 53.2085 67.3373 53.2085 72.4372C53.2085 77.5371 55.2344 82.4281 58.8406 86.0343C62.4468 89.6404 67.3378 91.6663 72.4377 91.6664ZM27.5627 91.6664C32.6626 91.6664 37.5536 89.6404 41.1597 86.0343C44.7659 82.4281 46.7918 77.5371 46.7918 72.4372C46.7918 67.3373 44.7659 62.4463 41.1597 58.8401C37.5536 55.2339 32.6626 53.208 27.5627 53.208C22.4628 53.208 17.5718 55.2339 13.9656 58.8401C10.3594 62.4463 8.3335 67.3373 8.3335 72.4372C8.3335 77.5371 10.3594 82.4281 13.9656 86.0343C17.5718 89.6404 22.4628 91.6663 27.5627 91.6664Z" fill="black"/>
<path d="M27.5627 46.7913C38.1826 46.7913 46.7918 38.1821 46.7918 27.5622C46.7918 16.9422 38.1826 8.33301 27.5627 8.33301C16.9427 8.33301 8.3335 16.9422 8.3335 27.5622C8.3335 38.1821 16.9427 46.7913 27.5627 46.7913Z" fill="#0F6FFF"/>
</svg>
