<svg width="100" height="100" viewBox="0 0 100 100" fill="none" xmlns="http://www.w3.org/2000/svg">
<g clip-path="url(#clip0_820_2832)">
<path fill-rule="evenodd" clip-rule="evenodd" d="M52.7538 19.7996C52.777 19.762 52.7843 19.7168 52.7741 19.6738C52.764 19.6308 52.7372 19.5937 52.6996 19.5704C52.6743 19.5559 52.6455 19.5487 52.6163 19.5496H27.0663C26.9282 19.5512 26.7921 19.5167 26.6715 19.4494C26.5509 19.3822 26.45 19.2846 26.3788 19.1663L17.6871 4.38293C17.6777 4.36633 17.6718 4.348 17.6696 4.32904C17.6675 4.31007 17.6691 4.29087 17.6746 4.27258C17.68 4.25429 17.6891 4.23729 17.7013 4.2226C17.7135 4.20791 17.7285 4.19583 17.7455 4.18709C17.7659 4.17527 17.7887 4.16816 17.8121 4.16626C40.6955 4.16626 62.533 4.16626 83.3163 4.17459C92.0205 4.17459 98.7288 10.5913 99.9955 19.1663C100.029 19.4246 99.9163 19.5496 99.6621 19.5496H71.8705C71.724 19.5507 71.5802 19.5896 71.4532 19.6626C71.3262 19.7356 71.2202 19.8402 71.1455 19.9663C65.2538 30.0079 59.3955 39.9788 53.5705 49.8746C52.4038 51.8413 49.7371 52.4579 47.8496 51.2996C47.058 50.8163 46.3621 50.0329 45.758 48.9621C44.5803 46.8663 43.355 44.7978 42.083 42.7579C41.158 41.2746 41.108 39.8121 41.9371 38.3746C45.5199 32.1661 49.1269 25.9716 52.758 19.7913L52.7538 19.7996Z" fill="#F6D85A"/>
<path fill-rule="evenodd" clip-rule="evenodd" d="M44.8828 70.7746C47.2578 74.8246 52.9453 74.5912 55.2536 70.6579L79.1661 29.8496C79.2127 29.7626 79.2826 29.6904 79.368 29.6411C79.4534 29.5917 79.5509 29.5673 79.6495 29.5704H97.2745C97.3453 29.5704 97.3995 29.6287 97.3911 29.6954C97.3911 29.7162 97.387 29.7371 97.3786 29.7496C86.5245 48.2162 75.5786 66.8579 64.5453 85.6662C59.1995 94.7954 46.7203 96.1537 38.7995 89.6121C37.5161 88.5537 36.0286 86.5829 34.3453 83.7079C23.8245 65.6912 13.1036 47.4162 2.17862 28.8662C-2.25054 21.3537 0.411957 12.4204 7.13696 7.19955C7.35779 7.02872 7.53279 7.06205 7.67446 7.29539C19.7786 27.9204 32.1828 49.0787 44.8828 70.7746Z" fill="black"/>
</g>
<defs>
<clipPath id="clip0_820_2832">
<rect width="100" height="100" fill="white"/>
</clipPath>
</defs>
</svg>
