<svg width="100" height="100" viewBox="0 0 100 100" fill="none" xmlns="http://www.w3.org/2000/svg">
<g id="ubuntu">
<g id="ubuntu_2">
<path id="Vector" d="M11.7281 59.7356C17.1008 59.7356 21.4562 55.3802 21.4562 50.0075C21.4562 44.6347 17.1008 40.2793 11.7281 40.2793C6.35542 40.2793 2 44.6347 2 50.0075C2 55.3802 6.35542 59.7356 11.7281 59.7356Z" fill="#FF6309"/>
<path id="Vector_2" d="M81.4846 100C86.8576 100 91.2133 95.6444 91.2133 90.2713C91.2133 84.8982 86.8576 80.5425 81.4846 80.5425C76.1116 80.5425 71.7559 84.8982 71.7559 90.2713C71.7559 95.6444 76.1116 100 81.4846 100Z" fill="#FFB515"/>
<path id="Vector_3" d="M81.4763 19.4562C86.849 19.4562 91.2044 15.1008 91.2044 9.72811C91.2044 4.35542 86.849 0 81.4763 0C76.1037 0 71.7483 4.35542 71.7483 9.72811C71.7483 15.1008 76.1037 19.4562 81.4763 19.4562Z" fill="#C90016"/>
<path id="Vector_4" d="M58.2309 25.9355C70.3445 25.9355 80.3946 34.9301 82.0591 46.5911H98.7256C97.9676 37.4282 94.17 28.8875 87.8181 22.1525C83.7502 24.2239 78.748 24.2637 74.4992 21.8113C70.2471 19.3555 67.7801 15.0014 67.5435 10.4378C64.4899 9.72669 61.3649 9.36829 58.2296 9.36963C52.1479 9.36963 46.2711 10.6969 40.9263 13.2142L49.2721 27.667C52.1198 26.5208 55.1612 25.933 58.2309 25.9355Z" fill="#FF6309"/>
<path id="Vector_5" d="M34.1601 50.0077C34.1601 42.3383 37.7648 35.4966 43.368 31.0855L35.0255 16.6348C33.0493 18.0157 31.1981 19.5673 29.4931 21.2719C24.6652 26.0998 21.2029 31.929 19.2979 38.291C23.1365 40.7772 25.6784 45.0936 25.6784 50.0077C25.6784 54.9204 23.1365 59.2375 19.2979 61.723C21.2029 68.085 24.6652 73.9135 29.4931 78.7428C31.1968 80.4465 33.0464 81.9977 35.0208 83.3786L43.3647 68.9259C37.7628 64.5154 34.1601 57.6743 34.1601 50.0077Z" fill="#FFB515"/>
<path id="Vector_6" d="M82.0601 53.4131C80.4002 65.078 70.3481 74.0785 58.2312 74.0785C55.0651 74.0785 52.0395 73.4622 49.269 72.3457L40.9238 86.799C46.2673 89.3176 52.1475 90.6455 58.2305 90.6455C61.4085 90.6455 64.5315 90.2791 67.5511 89.576C67.7837 85.0066 70.2507 80.6445 74.5061 78.1874C78.7562 75.7337 83.7605 75.7722 87.8284 77.8482C94.1744 71.1119 97.9693 62.5726 98.7241 53.4131H82.0601Z" fill="#C90016"/>
</g>
</g>
</svg>
