<svg width="100" height="100" viewBox="0 0 100 100" fill="none" xmlns="http://www.w3.org/2000/svg">
<path d="M65.6797 4.24959C66.5631 4.16209 67.5131 4.25793 68.4047 4.26626L73.4464 4.27043C80.4464 4.27459 87.5006 4.44959 94.4964 4.16626L94.4922 41.3746V52.4246C94.4922 55.5246 94.5464 58.6163 94.2214 61.7038C93.8598 65.2027 93.0403 68.639 91.7839 71.9246C89.1527 78.8896 84.4846 84.9007 78.3881 89.1746C77.1839 90.0121 75.8797 90.9329 74.5339 91.5246C71.1528 93.3705 67.5323 94.739 63.7756 95.5913C62.2714 95.9371 60.7422 96.1371 59.2422 96.4913C57.6547 95.1954 56.2214 93.5996 54.7756 92.1454L46.8881 84.2579C43.8797 81.2746 40.8256 78.3538 37.8422 75.3413C36.5797 74.0746 35.1797 72.8246 34.0631 71.4329C34.5047 74.3246 34.2589 78.7246 34.2589 81.7913C34.2881 87.8621 34.2714 93.9288 34.2047 99.9996C34.1393 99.953 34.0754 99.9044 34.0131 99.8538C33.0297 99.0829 32.1506 98.0704 31.2631 97.1788C29.5547 95.4496 27.8339 93.7329 26.1006 92.0246L13.6381 79.6121C11.3881 77.3621 9.06307 75.1538 6.8714 72.8496C6.57974 72.5413 5.97557 71.9746 5.9214 71.5538C6.09926 71.5216 6.28156 71.5231 6.4589 71.5579L6.43807 71.5079C10.0589 71.2996 13.7714 71.4538 17.3964 71.4538C22.9464 71.4538 28.5006 71.3788 34.0464 71.4579C24.4716 62.0806 14.9727 52.6261 5.55057 43.0954C5.35474 41.6079 5.46724 40.0121 5.46724 38.5079L5.4714 30.5288L5.41724 4.90793C5.41724 4.74126 5.4589 4.59543 5.5339 4.44126C5.77974 4.27459 5.96724 4.28293 6.26307 4.26626C8.42974 4.14126 10.6797 4.26626 12.8547 4.27043C19.1547 4.27043 25.5047 4.44543 31.7964 4.24543C32.6172 4.18709 33.4506 4.19959 34.2714 4.18293L34.2589 48.2704C34.2964 56.0163 34.2714 63.7579 34.1839 71.4996C35.9589 71.3163 37.8922 71.4579 39.6839 71.4579H51.2339C55.2506 71.4288 58.9714 70.6663 61.8922 67.6913C64.1339 65.4079 65.0756 62.4579 65.5589 59.3579C65.8922 57.2329 65.7339 54.8579 65.7297 52.7038L65.7214 41.6829C65.7172 29.2079 65.8297 16.7246 65.6797 4.24959Z" fill="#E30A5D"/>
</svg>
