<svg width="100" height="100" viewBox="0 0 100 100" fill="none" xmlns="http://www.w3.org/2000/svg">
<g id="unjs">
<g id="unjs_2">
<path id="Vector" d="M99.9357 -0.000976562H0V99.9347H99.9357V-0.000976562Z" fill="black"/>
<path id="Vector_2" d="M99.9357 -0.000976562H0V99.9347H99.9357V-0.000976562Z" fill="white"/>
<path id="Vector_3" d="M99.6677 100.004C66.4464 100.004 33.2617 100.004 0.0770294 100.004C0.0743832 99.9949 0.0694179 99.9859 0.0694179 99.9771C0.06909 66.677 0.0690918 33.3769 0.0690918 0.0725098C33.3777 0.0725098 66.6864 0.0725098 100 0.0725098C100 33.3764 100 66.6847 100 100.004C99.9047 100.004 99.8044 100.004 99.6677 100.004ZM82.4847 65.3768C82.3252 65.1948 82.1744 65.0044 82.0052 64.8322C80.1286 62.9243 77.7658 62.5265 75.25 62.7537C73.0681 62.9507 71.1993 63.9111 69.5837 65.3767C69.4964 65.4558 69.4011 65.5261 69.2754 65.6283C69.2754 65.4241 69.2836 65.2752 69.2741 65.1273C69.2271 64.4023 68.8865 63.8528 68.2416 63.5224C67.6096 63.1987 66.9634 63.2296 66.3673 63.6105C65.7044 64.034 65.478 64.685 65.4788 65.4501C65.4835 71.1818 65.4813 76.9134 65.4813 82.6451C65.4813 83.0027 65.4742 83.3604 65.483 83.7177C65.505 84.6378 65.9928 85.3667 66.7337 85.6C68.0334 86.0091 69.2732 85.108 69.2751 83.7372C69.2802 79.8046 69.2792 75.8719 69.2754 71.9393C69.2744 70.8317 69.5544 69.8162 70.2609 68.9515C71.9069 66.9368 74.0385 66.0859 76.6168 66.3795C77.8727 66.5228 78.8874 67.1056 79.5836 68.1819C80.2367 69.1919 80.4604 70.332 80.4694 71.5061C80.494 74.7463 80.4845 77.9871 80.488 81.2275C80.489 82.1154 80.4744 83.0038 80.4915 83.8914C80.5187 85.28 82.0112 86.1395 83.2334 85.4797C84.0106 85.0603 84.2867 84.3743 84.2857 83.5272C84.2809 79.8482 84.2917 76.1692 84.2777 72.4904C84.2744 71.6168 84.2449 70.7377 84.1435 69.8709C83.9553 68.2637 83.5091 66.736 82.4847 65.3768ZM58.562 63.3227C58.3336 63.339 58.0959 63.32 57.8787 63.3776C56.9735 63.6185 56.4746 64.338 56.474 65.3832C56.4718 69.1314 56.4795 72.8799 56.4668 76.6281C56.4648 77.2479 56.4323 77.8771 56.3229 78.4854C56.0342 80.091 55.1733 81.2938 53.6285 81.903C52.1233 82.4967 50.5736 82.5172 49.0153 82.0943C47.8332 81.7735 46.9268 81.0951 46.335 80.0176C45.9106 79.2451 45.7041 78.4028 45.6887 77.5317C45.6578 75.7677 45.6682 74.0028 45.6662 72.2383C45.6637 69.9547 45.6692 67.671 45.6639 65.3875C45.6614 64.2629 44.9144 63.3796 43.9372 63.3225C42.7266 63.2517 41.8732 64.076 41.8719 65.3382C41.8677 69.1902 41.8627 73.0422 41.8745 76.8944C41.8789 78.2715 42.0268 79.6298 42.5511 80.9262C43.5456 83.3856 45.4018 84.8701 47.892 85.5927C49.4593 86.0474 51.0739 86.0749 52.6916 85.8847C53.9414 85.7376 55.1362 85.3965 56.2246 84.7639C58.7951 83.2702 60.1028 80.9473 60.1857 78.047C60.3073 73.7948 60.2577 69.5372 60.2624 65.2819C60.2635 64.2139 59.6356 63.5056 58.562 63.3227Z" fill="#ECDC5A"/>
<path id="Vector_4" d="M82.4983 65.3974C83.5092 66.7359 83.9555 68.2636 84.1436 69.8709C84.245 70.7378 84.2745 71.6168 84.2778 72.4905C84.2918 76.1693 84.2812 79.8483 84.2857 83.5271C84.2868 84.3744 84.0108 85.0603 83.2333 85.4798C82.0113 86.1394 80.5188 85.28 80.4918 83.8915C80.4743 83.0038 80.4891 82.1155 80.4881 81.2274C80.4846 77.987 80.4941 74.7464 80.4694 71.506C80.4606 70.3321 80.2369 69.192 79.5837 68.1818C78.8876 67.1055 77.8728 66.5227 76.6169 66.3798C74.0386 66.086 71.907 66.9368 70.2609 68.9515C69.5546 69.8163 69.2743 70.8318 69.2755 71.9394C69.2793 75.8719 69.2803 79.8045 69.2752 83.7371C69.2733 85.1079 68.0336 86.0092 66.734 85.5999C65.9929 85.3668 65.5052 84.6379 65.4829 83.7177C65.4744 83.3604 65.4816 83.0028 65.4816 82.6452C65.4816 76.9135 65.4838 71.1817 65.4788 65.4501C65.4783 64.6849 65.7046 64.034 66.3672 63.6106C66.9636 63.2297 67.6097 63.1989 68.2416 63.5225C68.8866 63.8528 69.2272 64.4022 69.2742 65.1273C69.2836 65.2752 69.2755 65.4243 69.2755 65.6285C69.4012 65.5262 69.4965 65.4557 69.5838 65.3766C71.1992 63.9112 73.0684 62.9508 75.2501 62.7538C77.7659 62.5265 80.1288 62.9242 82.0051 64.8323C82.1745 65.0045 82.3253 65.1949 82.4983 65.3974Z" fill="#111827"/>
<path id="Vector_5" d="M58.5928 63.3245C59.6356 63.5057 60.2635 64.2143 60.2622 65.2821C60.2577 69.5375 60.3074 73.7949 60.1858 78.0472C60.1028 80.9477 58.7952 83.2704 56.2246 84.7641C55.1362 85.3966 53.9415 85.7378 52.6916 85.8848C51.074 86.0752 49.4593 86.0476 47.892 85.5929C45.4018 84.8703 43.5456 83.3858 42.5511 80.9265C42.0268 79.63 41.8789 78.2719 41.8745 76.8946C41.8627 73.0426 41.8677 69.1904 41.8719 65.3384C41.8732 64.0764 42.7267 63.2519 43.9372 63.3228C44.9144 63.38 45.6614 64.2632 45.6639 65.3877C45.6693 67.6712 45.6636 69.9549 45.6663 72.2384C45.6683 74.003 45.6576 75.7678 45.6888 77.5319C45.7041 78.403 45.9106 79.2454 46.335 80.0178C46.9268 81.0954 47.8332 81.7736 49.0153 82.0946C50.5736 82.5175 52.1233 82.497 53.6285 81.9032C55.1733 81.2941 56.0343 80.0912 56.3229 78.4858C56.4323 77.8773 56.4647 77.2482 56.4668 76.6283C56.4795 72.88 56.4718 69.1318 56.474 65.3835C56.4747 64.3384 56.9735 63.6187 57.8787 63.378C58.0959 63.3202 58.3336 63.3393 58.5928 63.3245Z" fill="#111827"/>
</g>
</g>
</svg>
