<svg width="100" height="100" viewBox="0 0 100 100" fill="none" xmlns="http://www.w3.org/2000/svg">
<g id="ur">
<g id="ur_2">
<path id="Vector" d="M7.05859 48.0811C7.01953 48.7842 7 50.4443 7 51.167C7 75.5615 26.1602 95.3271 49.793 95.3271C73.4258 95.3271 92.5859 75.5615 92.5859 51.167C92.5859 50.4443 92.5664 49.7412 92.5274 49.0186L7.05859 48.0811Z" fill="url(#paint0_linear_790_3521)"/>
<path id="Vector_2" d="M53.7969 90.0146C75.2411 90.0146 92.625 72.6307 92.625 51.1865C92.625 29.7423 75.2411 12.3584 53.7969 12.3584C32.3527 12.3584 14.9688 29.7423 14.9688 51.1865C14.9688 72.6307 32.3527 90.0146 53.7969 90.0146Z" fill="#007AFF"/>
<path id="Vector_3" d="M76.4531 12.6123C69.3438 7.43652 60.0469 3.99902 50.6719 3.99902C26.5508 3.99902 7.01953 24.1748 7.01953 49.0381H15.0469C15.7695 31.0693 30.6328 16.3037 48.9922 16.3037C56.6289 16.3037 63.6797 18.8232 69.3633 23.0615C72.2148 24.9561 76.082 24.2334 78.0547 21.4014C80.0273 18.5107 79.3242 14.585 76.4531 12.6123Z" fill="url(#paint1_linear_790_3521)"/>
<path id="Vector_4" opacity="0.5" d="M92.1172 57.3975L74.1875 39.4678L62.7227 38.4912H52.2344L51.1797 52.124L36.3164 37.2607L32.7031 42.4561L34.0508 64.8193L58.875 89.6436C75.8867 87.4365 89.4023 74.2139 92.1172 57.3975Z" fill="url(#paint2_linear_790_3521)"/>
<path id="Vector_5" d="M50.1641 35.835V55.6787H50.1445C50.1445 59.3115 47.1953 62.2607 43.5625 62.2607C39.9297 62.2607 36.9805 59.3115 36.9805 55.6787V39.2139C36.9805 37.3975 35.4961 35.9131 33.6797 35.9131C31.8633 35.9131 30.3789 37.3779 30.3789 39.2139V55.7178C30.3789 62.9834 36.2773 68.8818 43.5625 68.8818C50.8477 68.8818 56.7461 62.9834 56.7461 55.7178V42.5146H66.6289C68.4258 42.5146 69.8906 43.9795 69.8906 45.7764C69.8906 47.5732 68.4258 49.0381 66.6289 49.0381H63.4844C61.6484 49.0381 60.1445 50.5225 60.1445 52.3584C60.1445 54.1553 61.5703 55.6201 63.3672 55.6787L70.3789 67.2803C70.9648 68.2568 72.0195 68.9209 73.25 68.9209C75.0859 68.9209 76.5898 67.4365 76.5898 65.6006C76.5898 64.8584 76.3359 64.1553 75.9258 63.6084L70.6328 54.8584C74.1094 53.3154 76.5312 49.8389 76.5312 45.7959C76.5312 40.3076 72.0781 35.874 66.5898 35.874L50.1641 35.835Z" fill="white"/>
<path id="Vector_6" d="M72.8398 21.0693C74.7815 21.0693 76.3555 19.4953 76.3555 17.5537C76.3555 15.6121 74.7815 14.0381 72.8398 14.0381C70.8982 14.0381 69.3242 15.6121 69.3242 17.5537C69.3242 19.4953 70.8982 21.0693 72.8398 21.0693Z" fill="white"/>
<path id="Vector_7" d="M70.8671 20.4833C70.8671 20.4833 58.7382 9.78021 43.3866 11.831C37.5663 12.7685 32.8983 14.5263 28.3671 17.2412C23.8358 19.956 30.3983 15.3466 32.3514 14.2919C34.3241 13.2372 43.5038 7.53412 58.7577 9.83881C74.0116 12.1435 75.6913 15.5419 75.6913 15.5419L70.8671 20.4833Z" fill="white"/>
</g>
</g>
<defs>
<linearGradient id="paint0_linear_790_3521" x1="7" y1="71.7041" x2="92.5859" y2="71.7041" gradientUnits="userSpaceOnUse">
<stop stop-color="#FF3B30"/>
<stop offset="1" stop-color="#F7951E"/>
</linearGradient>
<linearGradient id="paint1_linear_790_3521" x1="7.01953" y1="26.5186" x2="79.1719" y2="26.5186" gradientUnits="userSpaceOnUse">
<stop stop-color="#FF3B30"/>
<stop offset="1" stop-color="#F7951E"/>
</linearGradient>
<linearGradient id="paint2_linear_790_3521" x1="42.3555" y1="40.3799" x2="81.2793" y2="79.3037" gradientUnits="userSpaceOnUse">
<stop/>
<stop offset="1" stop-opacity="0"/>
</linearGradient>
</defs>
</svg>
