<svg width="100" height="100" viewBox="0 0 100 100" fill="none" xmlns="http://www.w3.org/2000/svg">
<g clip-path="url(#clip0_820_2842)">
<path d="M49.9794 84.2327C47.8881 84.2327 45.8824 85.0634 44.4036 86.5423C42.9248 88.0211 42.094 90.0267 42.094 92.1181C42.094 94.2094 42.9248 96.2151 44.4036 97.6939C45.8824 99.1727 47.8881 100.003 49.9794 100.003C52.0708 100.003 54.0764 99.1727 55.5552 97.6939C57.034 96.2151 57.8648 94.2094 57.8648 92.1181C57.8648 90.0267 57.034 88.0211 55.5552 86.5423C54.0764 85.0634 52.0708 84.2327 49.9794 84.2327ZM49.9794 95.9243C49.2132 95.9243 48.4643 95.6963 47.828 95.2694C47.1917 94.8426 46.6967 94.2361 46.406 93.5272C46.1154 92.8182 46.0421 92.0388 46.1956 91.2882C46.349 90.5375 46.7223 89.8494 47.2679 89.3114C47.8136 88.7735 48.5068 88.4099 49.2596 88.2671C50.0124 88.1242 50.7907 88.2085 51.4954 88.5091C52.2002 88.8098 52.7996 89.3133 53.2175 89.9556C53.6353 90.5978 53.8527 91.3499 53.8419 92.116C53.842 92.6207 53.7417 93.1204 53.5469 93.586C53.3522 94.0516 53.0668 94.4739 52.7074 94.8282C52.348 95.1826 51.9218 95.462 51.4534 95.6501C50.9851 95.8383 50.4841 95.9315 49.9794 95.9243Z" fill="#4285F4"/>
<path fill-rule="evenodd" clip-rule="evenodd" d="M90.3624 58.9347C91.3499 59.093 92.2457 59.6014 92.8832 60.368C93.4521 61.2032 93.6903 62.2199 93.5517 63.2209C93.4131 64.2218 92.9076 65.1355 92.1332 65.7847L57.7999 91.1264C57.6259 89.7514 57.0926 88.4465 56.2535 87.3434C55.4144 86.2403 54.2994 85.3778 53.0208 84.843L87.5207 59.5097C88.3673 58.9809 89.3768 58.7766 90.3624 58.9347Z" fill="#669DF6"/>
<path fill-rule="evenodd" clip-rule="evenodd" d="M42.1751 91.0078L7.9376 65.7328C7.13938 65.1158 6.6063 64.2177 6.44684 63.2215C6.28738 62.2253 6.51353 61.2057 7.07926 60.3703C7.71132 59.5932 8.60752 59.076 9.59669 58.9177C10.5859 58.7594 11.5987 58.9709 12.4418 59.512L46.9418 84.8454C45.6817 85.372 44.58 86.2168 43.7445 87.297C42.9089 88.3772 42.3681 89.6559 42.1751 91.0078Z" fill="#AECBFA"/>
<path d="M17.8044 18.6441C16.7424 18.63 15.7278 18.2019 14.9768 17.4509C14.2257 16.6998 13.7976 15.6852 13.7836 14.6232V4.53989C13.7174 3.96899 13.7728 3.39055 13.946 2.84256C14.1193 2.29457 14.4065 1.78943 14.7887 1.36029C15.171 0.931148 15.6398 0.587727 16.1642 0.352573C16.6886 0.117418 17.2568 -0.00415039 17.8315 -0.00415039C18.4062 -0.00415039 18.9744 0.117418 19.4989 0.352573C20.0233 0.587727 20.492 0.931148 20.8743 1.36029C21.2566 1.78943 21.5438 2.29457 21.717 2.84256C21.8902 3.39055 21.9456 3.96899 21.8794 4.53989V14.6232C21.8652 15.6946 21.4296 16.7172 20.6669 17.4697C19.9042 18.2223 18.8759 18.6441 17.8044 18.6441ZM17.6961 54.3066C18.7769 54.3066 19.8133 53.8772 20.5776 53.113C21.3418 52.3488 21.7711 51.3123 21.7711 50.2316C21.7711 49.1508 21.3418 48.1143 20.5776 47.3501C19.8133 46.5859 18.7769 46.1566 17.6961 46.1566C16.6153 46.1566 15.5788 46.5859 14.8146 47.3501C14.0504 48.1143 13.6211 49.1508 13.6211 50.2316C13.6211 51.3123 14.0504 52.3488 14.8146 53.113C15.5788 53.8772 16.6153 54.3066 17.6961 54.3066ZM17.6961 42.4566C18.2312 42.4566 18.7611 42.3512 19.2555 42.1464C19.7499 41.9416 20.1992 41.6414 20.5776 41.263C20.956 40.8846 21.2561 40.4354 21.4609 39.941C21.6657 39.4466 21.7711 38.9167 21.7711 38.3816C21.7711 37.8464 21.6657 37.3165 21.4609 36.8221C21.2561 36.3277 20.956 35.8785 20.5776 35.5001C20.1992 35.1217 19.7499 34.8215 19.2555 34.6167C18.7611 34.412 18.2312 34.3066 17.6961 34.3066C16.6153 34.3066 15.5788 34.7359 14.8146 35.5001C14.0504 36.2643 13.6211 37.3008 13.6211 38.3816C13.6211 39.4623 14.0504 40.4988 14.8146 41.263C15.5788 42.0272 16.6153 42.4566 17.6961 42.4566ZM17.6961 30.5482C18.7769 30.5482 19.8133 30.1189 20.5776 29.3547C21.3418 28.5905 21.7711 27.554 21.7711 26.4732C21.7711 25.3925 21.3418 24.356 20.5776 23.5918C19.8133 22.8275 18.7769 22.3982 17.6961 22.3982C16.6153 22.3982 15.5788 22.8275 14.8146 23.5918C14.0504 24.356 13.6211 25.3925 13.6211 26.4732C13.6211 27.554 14.0504 28.5905 14.8146 29.3547C15.5788 30.1189 16.6153 30.5482 17.6961 30.5482Z" fill="#AECBFA"/>
<path d="M82.1585 30.4472C81.0865 30.4329 80.0632 29.9967 79.3106 29.2332C78.5579 28.4696 78.1365 27.4402 78.1377 26.368V16.2847C78.1377 15.2183 78.5613 14.1956 79.3154 13.4415C80.0694 12.6875 81.0921 12.2639 82.1585 12.2639C83.2249 12.2639 84.2476 12.6875 85.0017 13.4415C85.7557 14.1956 86.1794 15.2183 86.1794 16.2847V26.368C86.1877 26.9011 86.0898 27.4305 85.8914 27.9253C85.693 28.4201 85.398 28.8705 85.0238 29.2502C84.6495 29.6299 84.2034 29.9313 83.7115 30.1368C83.2196 30.3423 82.6917 30.4478 82.1585 30.4472ZM82.2627 54.3638C82.7978 54.3638 83.3277 54.2584 83.8221 54.0537C84.3165 53.8489 84.7658 53.5487 85.1442 53.1703C85.5226 52.7919 85.8227 52.3427 86.0275 51.8483C86.2323 51.3539 86.3377 50.824 86.3377 50.2888C86.3377 49.7537 86.2323 49.2238 86.0275 48.7294C85.8227 48.235 85.5226 47.7858 85.1442 47.4074C84.7658 47.029 84.3165 46.7288 83.8221 46.524C83.3277 46.3193 82.7978 46.2138 82.2627 46.2138C81.1819 46.2138 80.1454 46.6432 79.3812 47.4074C78.617 48.1716 78.1877 49.2081 78.1877 50.2888C78.1877 51.3696 78.617 52.4061 79.3812 53.1703C80.1454 53.9345 81.1819 54.3638 82.2627 54.3638ZM82.2627 42.2972C83.3435 42.2972 84.38 41.8679 85.1442 41.1036C85.9084 40.3394 86.3377 39.3029 86.3377 38.2222C86.3377 37.1414 85.9084 36.1049 85.1442 35.3407C84.38 34.5765 83.3435 34.1472 82.2627 34.1472C81.1819 34.1472 80.1454 34.5765 79.3812 35.3407C78.617 36.1049 78.1877 37.1414 78.1877 38.2222C78.1877 39.3029 78.617 40.3394 79.3812 41.1036C80.1454 41.8679 81.1819 42.2972 82.2627 42.2972ZM82.2627 8.61802C82.7978 8.61802 83.3277 8.51261 83.8221 8.30783C84.3165 8.10304 84.7658 7.80288 85.1442 7.42448C85.5226 7.04608 85.8227 6.59685 86.0275 6.10245C86.2323 5.60805 86.3377 5.07815 86.3377 4.54302C86.3377 4.00788 86.2323 3.47798 86.0275 2.98358C85.8227 2.48918 85.5226 2.03996 85.1442 1.66156C84.7658 1.28316 84.3165 0.982996 83.8221 0.778208C83.3277 0.573421 82.7978 0.468018 82.2627 0.468018C81.1819 0.468018 80.1454 0.897347 79.3812 1.66156C78.617 2.42577 78.1877 3.46226 78.1877 4.54302C78.1877 5.62377 78.617 6.66027 79.3812 7.42448C80.1454 8.18869 81.1819 8.61802 82.2627 8.61802Z" fill="#4285F4"/>
<path d="M49.9791 66.3214C48.917 66.3074 47.9024 65.8793 47.1514 65.1283C46.4004 64.3772 45.9722 63.3626 45.9582 62.3006V52.0548C46.0733 51.0619 46.5492 50.1459 47.2956 49.481C48.0419 48.8162 49.0066 48.4488 50.0061 48.4488C51.0057 48.4488 51.9703 48.8162 52.7167 49.481C53.463 50.1459 53.939 51.0619 54.054 52.0548V62.1923C54.0624 62.7323 53.963 63.2685 53.7618 63.7697C53.5607 64.2708 53.2617 64.7269 52.8824 65.1113C52.503 65.4957 52.0509 65.8007 51.5524 66.0084C51.054 66.2162 50.5191 66.3226 49.9791 66.3214ZM49.9791 78.1756C51.0598 78.1756 52.0963 77.7463 52.8605 76.9821C53.6247 76.2179 54.054 75.1814 54.054 74.1006C54.054 73.0199 53.6247 71.9834 52.8605 71.2192C52.0963 70.4549 51.0598 70.0256 49.9791 70.0256C48.8983 70.0256 47.8618 70.4549 47.0976 71.2192C46.3334 71.9834 45.9041 73.0199 45.9041 74.1006C45.9041 75.1814 46.3334 76.2179 47.0976 76.9821C47.8618 77.7463 48.8983 78.1756 49.9791 78.1756ZM49.9791 44.334C51.0598 44.334 52.0963 43.9046 52.8605 43.1404C53.6247 42.3762 54.054 41.3397 54.054 40.2589C54.054 39.1782 53.6247 38.1417 52.8605 37.3775C52.0963 36.6133 51.0598 36.184 49.9791 36.184C48.8983 36.184 47.8618 36.6133 47.0976 37.3775C46.3334 38.1417 45.9041 39.1782 45.9041 40.2589C45.9041 41.3397 46.3334 42.3762 47.0976 43.1404C47.8618 43.9046 48.8983 44.334 49.9791 44.334ZM49.9791 32.4298C51.0598 32.4298 52.0963 32.0005 52.8605 31.2362C53.6247 30.472 54.054 29.4355 54.054 28.3548C54.054 27.274 53.6247 26.2375 52.8605 25.4733C52.0963 24.7091 51.0598 24.2798 49.9791 24.2798C48.8983 24.2798 47.8618 24.7091 47.0976 25.4733C46.3334 26.2375 45.9041 27.274 45.9041 28.3548C45.9041 29.4355 46.3334 30.472 47.0976 31.2362C47.8618 32.0005 48.8983 32.4298 49.9791 32.4298Z" fill="#669DF6"/>
<path d="M66.0669 42.4044C65.0048 42.3904 63.9903 41.9622 63.2392 41.2112C62.4882 40.4602 62.0601 39.4456 62.046 38.3835V28.3002C61.9432 27.4386 62.1183 26.5667 62.5459 25.8117C62.9735 25.0567 63.6311 24.458 64.4229 24.1031C65.2147 23.7481 66.0992 23.6555 66.9473 23.8386C67.7955 24.0217 68.5629 24.471 69.1377 25.121C69.5195 25.5504 69.8064 26.0555 69.9794 26.6034C70.1525 27.1512 70.2078 27.7295 70.1419 28.3002V38.3835C70.1276 39.4549 69.692 40.4775 68.9293 41.2301C68.1667 41.9826 67.1383 42.4045 66.0669 42.4044ZM66.121 20.471C66.6562 20.471 67.1861 20.3656 67.6805 20.1609C68.1749 19.9561 68.6241 19.6559 69.0025 19.2775C69.3809 18.8991 69.6811 18.4499 69.8858 17.9555C70.0906 17.4611 70.196 16.9312 70.196 16.396C70.196 15.8609 70.0906 15.331 69.8858 14.8366C69.6811 14.3422 69.3809 13.893 69.0025 13.5146C68.6241 13.1362 68.1749 12.836 67.6805 12.6312C67.1861 12.4264 66.6562 12.321 66.121 12.321C65.0403 12.321 64.0038 12.7504 63.2396 13.5146C62.4754 14.2788 62.046 15.3153 62.046 16.396C62.046 17.4768 62.4754 18.5133 63.2396 19.2775C64.0038 20.0417 65.0403 20.471 66.121 20.471ZM66.121 66.0544C67.2018 66.0544 68.2383 65.625 69.0025 64.8608C69.7667 64.0966 70.196 63.0601 70.196 61.9794C70.196 60.8986 69.7667 59.8621 69.0025 59.0979C68.2383 58.3337 67.2018 57.9044 66.121 57.9044C65.0403 57.9044 64.0038 58.3337 63.2396 59.0979C62.4754 59.8621 62.046 60.8986 62.046 61.9794C62.046 63.0601 62.4754 64.0966 63.2396 64.8608C64.0038 65.625 65.0403 66.0544 66.121 66.0544ZM66.121 54.1502C67.2018 54.1502 68.2383 53.7209 69.0025 52.9567C69.7667 52.1925 70.196 51.156 70.196 50.0752C70.196 48.9945 69.7667 47.958 69.0025 47.1937C68.2383 46.4295 67.2018 46.0002 66.121 46.0002C65.0403 46.0002 64.0038 46.4295 63.2396 47.1937C62.4754 47.958 62.046 48.9945 62.046 50.0752C62.046 51.156 62.4754 52.1925 63.2396 52.9567C64.0038 53.7209 65.0403 54.1502 66.121 54.1502Z" fill="#4285F4"/>
<path d="M33.8373 66.0544C34.9181 66.0544 35.9546 65.6251 36.7188 64.8609C37.483 64.0966 37.9123 63.0602 37.9123 61.9794C37.9123 60.8986 37.483 59.8621 36.7188 59.0979C35.9546 58.3337 34.9181 57.9044 33.8373 57.9044C32.7566 57.9044 31.7201 58.3337 30.9559 59.0979C30.1917 59.8621 29.7623 60.8986 29.7623 61.9794C29.7623 63.0602 30.1917 64.0966 30.9559 64.8609C31.7201 65.6251 32.7566 66.0544 33.8373 66.0544ZM33.8373 32.4294C34.9181 32.4294 35.9546 32.0001 36.7188 31.2359C37.483 30.4716 37.9123 29.4352 37.9123 28.3544C37.9123 27.2736 37.483 26.2371 36.7188 25.4729C35.9546 24.7087 34.9181 24.2794 33.8373 24.2794C32.7566 24.2794 31.7201 24.7087 30.9559 25.4729C30.1917 26.2371 29.7623 27.2736 29.7623 28.3544C29.7623 29.4352 30.1917 30.4716 30.9559 31.2359C31.7201 32.0001 32.7566 32.4294 33.8373 32.4294ZM33.8373 20.4711C34.9186 20.4711 35.9557 20.0415 36.7203 19.2769C37.4849 18.5123 37.9144 17.4753 37.9144 16.394C37.9144 15.3127 37.4849 14.2756 36.7203 13.511C35.9557 12.7464 34.9186 12.3169 33.8373 12.3169C32.756 12.3169 31.719 12.7464 30.9544 13.511C30.1898 14.2756 29.7603 15.3127 29.7603 16.394C29.7603 17.4753 30.1898 18.5123 30.9544 19.2769C31.719 20.0415 32.756 20.4711 33.8373 20.4711ZM33.8915 54.1502C32.8376 54.151 31.8244 53.7435 31.0646 53.0132C30.3048 52.2829 29.8575 51.2866 29.8165 50.2336V40.0461C29.8165 38.9797 30.2401 37.957 30.9942 37.2029C31.7482 36.4489 32.7709 36.0252 33.8373 36.0252C34.9037 36.0252 35.9264 36.4489 36.6805 37.2029C37.4345 37.957 37.8582 38.9797 37.8582 40.0461V50.2336C37.8303 51.2722 37.4019 52.2597 36.6626 52.9897C35.9233 53.7197 34.9304 54.1355 33.8915 54.1502Z" fill="#AECBFA"/>
</g>
<defs>
<clipPath id="clip0_820_2842">
<rect width="100" height="100" fill="white"/>
</clipPath>
</defs>
</svg>
