<svg width="100" height="100" viewBox="0 0 100 100" fill="none" xmlns="http://www.w3.org/2000/svg">
<g clip-path="url(#clip0_820_2851)">
<path d="M85.8626 9.36313C73.7085 5.33813 63.2543 13.8798 60.8168 21.6965C60.8168 21.6965 52.046 49.8631 48.3085 61.6131C46.5251 67.2215 42.1043 76.3965 33.7793 76.3965C27.0001 76.3965 23.5168 70.034 22.046 66.2423L11.9376 39.2965C10.7668 36.459 11.9918 30.7965 16.6876 29.1006C21.7043 27.3006 24.9293 31.4965 25.7626 33.7256L38.3543 65.9756C41.3543 62.109 43.2626 55.8173 44.5043 51.3631L36.2376 29.6548C32.3168 19.5256 21.946 14.9173 12.3418 18.459C4.56264 21.3256 -2.92485 31.1423 1.14598 43.4798L11.5793 70.3131C13.1626 74.3798 19.4168 87.659 33.5585 87.659C50.5293 87.659 56.896 73.1881 60.4293 61.7506C62.196 56.0298 71.8835 25.0965 71.8835 25.0965C73.2918 20.4756 79.0085 19.1465 82.5835 20.3131C85.1043 21.1298 89.6585 24.609 88.1876 30.0006C87.9127 30.984 80.1876 55.8715 77.3376 63.4423C75.8502 67.3923 72.0793 75.9673 63.4876 74.7756C60.871 80.5673 58.696 83.9381 55.4043 86.9631C66.121 92.0381 81.7376 86.9256 88.3126 67.0631C90.7543 59.6756 99.3293 33.0381 99.3293 33.0381C101.821 24.859 97.3751 13.1715 85.8626 9.36313Z" fill="url(#paint0_linear_820_2851)"/>
</g>
<defs>
<linearGradient id="paint0_linear_820_2851" x1="3.16265" y1="23.4881" x2="108.979" y2="72.1298" gradientUnits="userSpaceOnUse">
<stop stop-color="#40EDD8"/>
<stop offset="0.024" stop-color="#38E7E2"/>
<stop offset="0.084" stop-color="#28DAF7"/>
<stop offset="0.124" stop-color="#22D5FF"/>
<stop offset="0.36" stop-color="#1ABFFF"/>
<stop offset="0.85" stop-color="#0786FE"/>
<stop offset="0.909" stop-color="#047FFE"/>
</linearGradient>
<clipPath id="clip0_820_2851">
<rect width="100" height="100" fill="white"/>
</clipPath>
</defs>
</svg>
