<svg width="103" height="104" viewBox="0 0 103 104" fill="none" xmlns="http://www.w3.org/2000/svg">
<g id="vim">
<g id="vim_2">
<path id="path2836" d="M52.3179 6.19043L6.51978 52.0501L52.127 97.7187L97.9251 51.859L52.3179 6.19043Z" fill="#019833" stroke="black" stroke-width="0.267335"/>
<path id="path2838" d="M52.1272 6.38161V2.3689L2.32178 52.2413H6.51994L52.1272 6.38161Z" fill="#66FE98" stroke="black" stroke-width="0.267335"/>
<path id="path2840" d="M52.0127 6.38161V2.3689L101.818 52.2413H97.62L52.0127 6.38161Z" fill="#45FE02" stroke="black" stroke-width="0.267335"/>
<path id="path2842" d="M52.1272 97.9864V101.999L2.32178 52.1267H6.51994L52.1272 97.9864Z" fill="#017D17" stroke="black" stroke-width="0.267335"/>
<path id="path3650" d="M11.5613 7.43384H43.6756L45.6322 9.393V15.4056L44.0804 17.2972H40.5721V47.1577L70.7973 17.2972H65.8048L64.0506 15.4056V9.05522L65.6698 7.56895H98.1889L99.8081 9.19034V15.1354L26.2691 90.6649H17.9032L15.4817 89.2649V17.027H11.4264L9.94214 15.5408V9.19034L11.5613 7.43384Z" stroke="black" stroke-width="5.3467"/>
<path id="path2844" d="M52.0127 97.9864V101.999L101.818 52.1267H97.62L52.0127 97.9864Z" fill="#005D04" stroke="black" stroke-width="0.267335"/>
<path id="path2846" d="M51.9928 1.99902L2 52.059L51.7845 101.91L101.777 51.8504L51.9928 1.99902Z" stroke="black" stroke-width="1.60401"/>
<path id="path3640" d="M44.0171 10.4898L45.8299 9.53443L43.9694 7.67139H11.5768L9.93091 9.31947V15.5535L11.7557 17.3807L12.6263 15.5535L11.4814 14.407V10.0121L12.3401 9.24781H43.2538L44.0171 10.4898Z" fill="#FEFEFE" stroke="black" stroke-width="0.267335"/>
<path id="path3632" d="M66.9185 9.05542L65.7747 10.2007V14.4057L66.7766 15.4089H72.0696V19.4718L37.0555 55.0094V15.4591H42.8745L44.0683 14.2636V10.0084L42.9663 9.15574H12.3436L11.3418 10.1589V14.506L12.3603 15.5259H17.6867V88.3568L18.6886 89.36H24.7413L98.1173 13.5446V10.2007L96.9735 9.05542H66.9185Z" stroke="black" stroke-width="0.267335"/>
<path id="path3646" d="M17.6335 15.4055V88.3678L18.578 89.4487L17.8373 90.8623L15.7444 88.7731V17.2971L17.6335 15.4055Z" fill="#FEFEFE" stroke="black" stroke-width="0.267335"/>
<path id="path3644" d="M12.4003 15.4055L11.8606 17.162H15.7737L17.9326 15.4055H12.4003Z" fill="#808080" stroke="black" stroke-width="0.267335"/>
<g id="path3638">
<path d="M66.1529 17.3783L67.0116 15.6108L65.7712 14.4643V10.5471L67.2024 9.11402H97.0666L98.2115 10.6427L99.8336 9.49619L98.1638 7.82422H66.0575L64.4593 9.42453V15.7063L66.1171 17.2708M40.1708 47.4343L37.052 55.0119L72.2593 19.6617V15.4579L40.1708 47.4343Z" fill="#FEFEFE"/>
<path d="M66.1529 17.3783L67.0116 15.6108L65.7712 14.4643V10.5471L67.2024 9.11402H97.0666L98.2115 10.6427L99.8336 9.49619L98.1638 7.82422H66.0575L64.4593 9.42453V15.7063L66.1171 17.2708M40.1708 47.4343L37.052 55.0119L72.2593 19.6617V15.4579L40.1708 47.4343Z" stroke="black" stroke-width="0.267335"/>
</g>
<path id="path3642" d="M43.9456 10.2712L45.4973 9.25781V15.4056L43.7095 17.1958H40.2349V47.4954L37.064 54.9943V15.4056H42.8661L43.9456 14.5273V10.2712Z" fill="#808080" stroke="black" stroke-width="0.267335"/>
<path id="path3622" d="M66.9185 9.05542L65.7747 10.2007V14.4057L66.7766 15.4089H72.0696V19.4718L37.0555 55.0094V15.4591H42.8745L44.0683 14.2636V10.0084L42.9663 9.15574H12.3436L11.3418 10.1589V14.506L12.3603 15.5259H17.6867V88.3568L18.6886 89.36H24.7413L98.1172 13.5446V10.2007L96.9735 9.05542H66.9185Z" fill="#CCCCCC" stroke="black" stroke-width="0.267335"/>
<path id="path3636" d="M98.2115 10.2988L99.8411 9.35669V15.267L25.9258 90.8985H18.0784L18.8281 89.4067H24.8391L98.1161 13.6428L98.2115 10.2988Z" fill="#808080" stroke="black" stroke-width="0.267335"/>
<path id="path3652" d="M72.1132 15.5068L70.4602 17.2296H66.1423L67.1543 15.5068C67.1881 15.5068 72.1132 15.5068 72.1132 15.5068Z" fill="#808080" stroke="black" stroke-width="0.267335"/>
<path id="path3671" d="M54.4874 58.1482C54.4316 58.1598 54.3798 58.1858 54.3371 58.2234L52.9178 59.444C52.8754 59.4825 52.8437 59.5315 52.826 59.5861L51.4067 63.5654C51.3858 63.6238 51.3817 63.6869 51.395 63.7476C51.4083 63.8082 51.4384 63.8638 51.4819 63.9081L52.5672 64.9949C52.6299 65.0552 52.7139 65.0883 52.8009 65.0868H57.184C57.2709 65.0883 57.355 65.0552 57.4177 64.9949L58.5615 63.8412C58.6009 63.8017 58.6296 63.7528 58.645 63.6991L59.8639 59.5108C59.8805 59.454 59.8815 59.3937 59.8668 59.3364C59.8521 59.279 59.8222 59.2266 59.7804 59.1848L58.837 58.2401C58.7742 58.1798 58.6902 58.1467 58.6032 58.1482H54.5541C54.5319 58.1459 54.5096 58.1459 54.4874 58.1482ZM46.456 69.3671C46.3958 69.38 46.3404 69.4096 46.2961 69.4524C46.2519 69.4953 46.2205 69.5497 46.2055 69.6095L45.6629 71.7663C45.6508 71.8148 45.6499 71.8653 45.6602 71.9141C45.6704 71.963 45.6916 72.0088 45.7222 72.0483C45.7527 72.0877 45.7918 72.1197 45.8365 72.1418C45.8812 72.1639 45.9303 72.1756 45.9801 72.176H48.5598L42.1648 90.4589C42.1483 90.5083 42.1436 90.5608 42.1513 90.6123C42.1589 90.6637 42.1786 90.7126 42.2087 90.755C42.2388 90.7974 42.2785 90.8321 42.3246 90.8562C42.3707 90.8803 42.4217 90.8931 42.4737 90.8936H51.7824C51.8524 90.8946 51.9208 90.8733 51.9779 90.8327C52.0349 90.7921 52.0776 90.7344 52.0997 90.6679L52.7091 88.7034C52.7242 88.6539 52.7275 88.6015 52.7187 88.5505C52.7098 88.4995 52.6891 88.4513 52.6583 88.4098C52.6274 88.3683 52.5872 88.3346 52.5409 88.3116C52.4946 88.2885 52.4435 88.2767 52.3919 88.277H50.288L56.6162 69.8018C56.6328 69.7525 56.6374 69.6999 56.6298 69.6485C56.6221 69.597 56.6025 69.5481 56.5723 69.5057C56.5422 69.4633 56.5025 69.4286 56.4565 69.4045C56.4104 69.3805 56.3593 69.3676 56.3074 69.3671H46.5228C46.5006 69.3648 46.4782 69.3648 46.456 69.3671ZM76.0769 69.434C76.0053 69.4488 75.9407 69.487 75.8932 69.5426L73.9563 71.7329H70.8757L68.8219 69.6012C68.7915 69.5698 68.7552 69.5447 68.7151 69.5275C68.675 69.5103 68.6318 69.5012 68.5882 69.5008H61.233C61.1655 69.501 61.0996 69.5219 61.0444 69.5608C60.9891 69.5997 60.9472 69.6546 60.9241 69.7182L60.2479 71.7413C60.2314 71.7906 60.2267 71.8431 60.2344 71.8946C60.242 71.9461 60.2617 71.995 60.2918 72.0374C60.3219 72.0798 60.3616 72.1144 60.4077 72.1385C60.4537 72.1626 60.5048 72.1754 60.5568 72.176H62.5271L56.3992 90.2583C56.3827 90.3076 56.378 90.3602 56.3857 90.4116C56.3933 90.4631 56.413 90.512 56.4431 90.5544C56.4732 90.5968 56.5129 90.6315 56.559 90.6555C56.605 90.6796 56.6561 90.6925 56.7081 90.693H64.5391C64.6066 90.6929 64.6725 90.6719 64.7277 90.633C64.783 90.5942 64.8249 90.5392 64.848 90.4757L65.4491 88.7117C65.4656 88.6624 65.4702 88.6099 65.4626 88.5584C65.455 88.5069 65.4353 88.458 65.4052 88.4156C65.375 88.3732 65.3353 88.3386 65.2893 88.3145C65.2432 88.2904 65.1921 88.2776 65.1402 88.277H63.771L67.6782 75.963H74.7494L70.2913 90.2667C70.2761 90.3162 70.2729 90.3685 70.2817 90.4195C70.2905 90.4705 70.3112 90.5187 70.3421 90.5602C70.373 90.6018 70.4132 90.6354 70.4595 90.6585C70.5058 90.6815 70.5568 90.6934 70.6085 90.693H78.164C78.2282 90.6925 78.2908 90.6733 78.3442 90.6376C78.3976 90.602 78.4394 90.5515 78.4646 90.4924L79.1408 88.8706C79.1604 88.821 79.1678 88.7674 79.1622 88.7143C79.1566 88.6613 79.1382 88.6104 79.1087 88.566C79.0791 88.5216 79.0393 88.485 78.9925 88.4595C78.9458 88.4339 78.8935 88.42 78.8403 88.4191H77.4711L81.445 75.8961H88.174L83.6491 90.2667C83.6339 90.3162 83.6306 90.3685 83.6395 90.4195C83.6483 90.4705 83.669 90.5187 83.6999 90.5602C83.7308 90.6018 83.771 90.6354 83.8173 90.6585C83.8636 90.6815 83.9146 90.6934 83.9663 90.693H92.2648C92.3314 90.6935 92.3965 90.6738 92.4516 90.6365C92.5068 90.5992 92.5493 90.546 92.5737 90.484L93.25 88.7201C93.2681 88.6703 93.274 88.6168 93.2672 88.5643C93.2604 88.5117 93.241 88.4615 93.2107 88.4181C93.1803 88.3746 93.14 88.3391 93.0931 88.3145C93.0462 88.29 92.994 88.2771 92.9411 88.277H91.2964L96.2972 72.0171C96.3137 71.9666 96.3177 71.9129 96.309 71.8605C96.3003 71.8081 96.279 71.7586 96.2471 71.7162L94.6943 69.6262C94.6625 69.586 94.6219 69.5537 94.5755 69.5319C94.5291 69.5101 94.4783 69.4995 94.4271 69.5008H88.4912C88.4462 69.5001 88.4014 69.5086 88.3598 69.5258C88.3182 69.5431 88.2805 69.5687 88.2491 69.6012L86.379 71.6577H83.1064L81.1695 69.5343C81.1382 69.5019 81.1005 69.4762 81.0588 69.459C81.0172 69.4417 80.9725 69.4332 80.9274 69.434H76.1437C76.1214 69.4317 76.0991 69.4317 76.0769 69.434Z" fill="#CCCCCC" stroke="black" stroke-width="2.13868" stroke-miterlimit="10"/>
<path id="path3665" d="M54.5541 58.4741L53.1348 59.6947L51.7155 63.6739L52.8009 64.7607H57.1839L58.3276 63.6071L59.5465 59.4188L58.6031 58.4741H54.5541ZM46.5227 69.693L45.98 71.8499H49.0189L42.4736 90.5675H51.7823L52.3918 88.603H49.8288L56.3073 69.693H46.5227ZM76.1436 69.7599L74.1149 72.0588H70.742L68.5881 69.8268H61.233L60.5567 71.8499H62.9862L56.708 90.3669H64.539L65.1401 88.603H63.3201L67.436 75.6369H75.2002L70.6084 90.3669H78.1639L78.8402 88.7451H77.0202L81.2028 75.57H88.6248L83.9662 90.3669H92.2647L92.941 88.603H90.8455L95.9799 71.9167L94.427 69.8268H88.4912L86.5292 71.9836H82.956L80.9273 69.7599H76.1436Z" fill="#CCCCCC" stroke="black" stroke-width="0.267335" stroke-miterlimit="10"/>
</g>
</g>
</svg>
