<svg width="102" height="102" viewBox="0 0 102 102" fill="none" xmlns="http://www.w3.org/2000/svg">
<g id="visualbasic">
<g id="visualbasic_2">
<path id="Vector" d="M51.3916 99.999C79.0058 99.999 101.392 77.6133 101.392 49.999C101.392 22.3848 79.0058 -0.000976562 51.3916 -0.000976562C23.7774 -0.000976562 1.3916 22.3848 1.3916 49.999C1.3916 77.6133 23.7774 99.999 51.3916 99.999Z" fill="#004E8C"/>
<path id="Vector_2" opacity="0.1" d="M16.7355 14.0615C11.6526 18.5909 7.54833 24.1106 4.67414 30.2824C1.79995 36.4541 0.216439 43.1477 0.0206758 49.9531C-0.175088 56.7584 1.02102 63.5321 3.53568 69.8588C6.05034 76.1855 9.83057 81.932 14.6447 86.7461C19.4588 91.5602 25.2053 95.3405 31.532 97.8551C37.8587 100.37 44.6324 101.566 51.4377 101.37C58.2431 101.174 64.9367 99.5908 71.1084 96.7167C77.2802 93.8425 82.7999 89.7381 87.3293 84.6553L16.7355 14.0615Z" fill="white"/>
<path id="Vector_3" d="M53.4072 30.3115L38.8916 69.6865H33.751L19.4697 30.3115H24.6104L35.5479 61.5615C35.925 62.6946 36.1919 63.8615 36.3447 65.0459H36.4541C36.6178 63.8306 36.9112 62.6363 37.3291 61.4834L48.4541 30.2334L53.4072 30.3115Z" fill="white"/>
<path id="Vector_4" d="M59.0791 69.6865V30.3115H70.2822C73.1916 30.1558 76.0612 31.0421 78.376 32.8115C79.344 33.5931 80.1185 34.5878 80.6388 35.718C81.1592 36.8482 81.4115 38.0833 81.376 39.3271C81.4065 41.4155 80.7536 43.4566 79.5166 45.1396C78.2683 46.8155 76.516 48.0475 74.5166 48.6552V48.7646C76.9348 48.9595 79.2001 50.0255 80.8916 51.7646C82.527 53.5674 83.386 55.9421 83.2822 58.374C83.3334 59.9235 83.034 61.4647 82.4063 62.8824C81.7786 64.3001 80.8389 65.5577 79.6572 66.5615C77.1001 68.6949 73.8446 69.8079 70.5166 69.6865H59.0791ZM63.7666 34.4677V47.1865H68.4541C70.5884 47.2868 72.6884 46.6219 74.376 45.3115C75.1072 44.6745 75.683 43.8787 76.0594 42.985C76.4359 42.0913 76.6029 41.1234 76.5479 40.1552C76.5479 36.3323 74.0322 34.4208 69.001 34.4208L63.7666 34.4677ZM63.7666 51.3271V65.499H70.0166C72.2631 65.6292 74.4814 64.947 76.2666 63.5771C77.0114 62.9242 77.5992 62.1116 77.9861 61.1998C78.373 60.2881 78.549 59.3007 78.501 58.3115C78.501 53.6656 75.3343 51.3427 69.001 51.3427L63.7666 51.3271Z" fill="white"/>
</g>
</g>
</svg>
