<svg width="100" height="100" viewBox="0 0 100 100" fill="none" xmlns="http://www.w3.org/2000/svg">
<g clip-path="url(#clip0_820_2856)">
<path d="M80.9999 42.3047L68.7666 90.5797C68.7376 90.7119 68.7389 90.8489 68.7705 90.9805C68.8021 91.1121 68.8631 91.2348 68.9489 91.3395C69.0347 91.4442 69.1431 91.528 69.2659 91.5848C69.3888 91.6415 69.5229 91.6697 69.6582 91.6672H94.1166C94.2519 91.6697 94.386 91.6415 94.5089 91.5848C94.6317 91.528 94.7401 91.4442 94.8259 91.3395C94.9117 91.2348 94.9727 91.1121 95.0043 90.9805C95.0359 90.8489 95.0372 90.7119 95.0082 90.5797L82.7166 42.3047C82.6639 42.1176 82.5516 41.9528 82.3966 41.8354C82.2417 41.7181 82.0526 41.6545 81.8582 41.6545C81.6638 41.6545 81.4748 41.7181 81.3198 41.8354C81.1649 41.9528 81.0525 42.1176 80.9999 42.3047ZM13.6666 53.2422L4.18739 90.5755C4.15674 90.7084 4.15698 90.8466 4.18811 90.9794C4.21924 91.1122 4.28043 91.2361 4.36696 91.3416C4.45349 91.447 4.56306 91.5312 4.68723 91.5876C4.81141 91.6441 4.94688 91.6713 5.08323 91.6672H23.9666C24.172 91.6742 24.3734 91.6094 24.5361 91.4839C24.6989 91.3584 24.8128 91.1801 24.8582 90.9797C24.8892 90.8467 24.8892 90.7085 24.8582 90.5755L15.3749 53.2422C15.3198 53.0584 15.207 52.8973 15.0531 52.7828C14.8993 52.6682 14.7126 52.6064 14.5207 52.6064C14.3289 52.6064 14.1422 52.6682 13.9883 52.7828C13.8344 52.8973 13.7216 53.0584 13.6666 53.2422Z" fill="#00E5E5"/>
<path d="M30.3747 22.3277L13.1164 90.5736C13.0882 90.702 13.0886 90.8351 13.1176 90.9633C13.1466 91.0916 13.2035 91.2119 13.2843 91.3157C13.365 91.4195 13.4676 91.5042 13.5848 91.5639C13.7019 91.6236 13.8308 91.6568 13.9622 91.661H48.5039C48.6398 91.665 48.7748 91.6379 48.8986 91.5816C49.0224 91.5254 49.1317 91.4416 49.2181 91.3367C49.3046 91.2318 49.3659 91.1084 49.3974 90.9762C49.4288 90.8439 49.4296 90.7062 49.3997 90.5736L32.0831 22.3235C32.028 22.1398 31.9152 21.9787 31.7613 21.8641C31.6074 21.7496 31.4207 21.6877 31.2289 21.6877C31.0371 21.6877 30.8504 21.7496 30.6965 21.8641C30.5426 21.9787 30.4298 22.1398 30.3747 22.3235V22.3277Z" fill="#006EFF"/>
<path d="M60.1664 0.623591C60.1114 0.439834 59.9986 0.278728 59.8447 0.164191C59.6908 0.0496537 59.5041 -0.012207 59.3123 -0.012207C59.1204 -0.012207 58.9337 0.0496537 58.7799 0.164191C58.626 0.278728 58.5132 0.439834 58.4581 0.623591L34.8581 90.5778C34.8283 90.71 34.829 90.8474 34.8603 90.9793C34.8915 91.1113 34.9524 91.2344 35.0384 91.3392C35.1244 91.4441 35.2331 91.5279 35.3564 91.5844C35.4797 91.6409 35.6142 91.6686 35.7498 91.6653H82.9164C83.052 91.6683 83.1865 91.6406 83.3099 91.5843C83.4333 91.528 83.5423 91.4446 83.6289 91.3403C83.7156 91.2355 83.7772 91.1124 83.8089 90.9802C83.8407 90.8481 83.8419 90.7104 83.8123 90.5778L60.1664 0.623591Z" fill="#006EFF"/>
<path d="M42.825 32.2562L27.8542 90.5687C27.8222 90.7018 27.8212 90.8405 27.8514 90.9741C27.8816 91.1076 27.9422 91.2325 28.0284 91.3388C28.1147 91.4452 28.2242 91.5303 28.3486 91.5875C28.4731 91.6447 28.609 91.6725 28.7459 91.6687H58.6209C58.7575 91.6716 58.893 91.6433 59.017 91.5858C59.141 91.5284 59.2502 91.4433 59.3362 91.3372C59.4223 91.231 59.4829 91.1065 59.5135 90.9733C59.544 90.8401 59.5437 90.7017 59.5125 90.5687L44.5334 32.2562C44.4783 32.0724 44.3655 31.9113 44.2116 31.7968C44.0577 31.6822 43.871 31.6204 43.6792 31.6204C43.4874 31.6204 43.3007 31.6822 43.1468 31.7968C42.9929 31.9113 42.8801 32.0724 42.825 32.2562Z" fill="#00E5E5"/>
</g>
<defs>
<clipPath id="clip0_820_2856">
<rect width="100" height="100" fill="white"/>
</clipPath>
</defs>
</svg>
