<svg width="100" height="100" viewBox="0 0 100 100" fill="none" xmlns="http://www.w3.org/2000/svg">
<g clip-path="url(#clip0_820_2861)">
<path d="M22.5292 0V0.275C22.419 0.605289 22.3518 0.948385 22.3292 1.29583C22.2834 1.75417 22.2625 2.1625 22.2625 2.525C22.2625 3.9375 22.4417 5.50417 22.7959 7.23333C23.2 8.92083 23.9375 11.0333 25.0084 13.5833L54.6959 81.775L83.3792 14.125C84.05 12.4417 84.7667 10.6 85.525 8.59583C86.2834 6.59583 86.6625 4.57083 86.6625 2.52083C86.6782 1.75185 86.5423 0.987303 86.2625 0.270833V0H100V0.275C99.15 1.1375 98.125 2.68333 96.9167 4.91667C95.7084 7.14583 94.3917 9.89583 92.9625 13.175L54.5625 100H49.2L12.8125 16.5208C11.9625 14.5625 11.0709 12.675 10.1292 10.8542C9.23752 9.03333 8.38752 7.39583 7.58752 5.9375C6.77919 4.4375 6.06669 3.1875 5.44169 2.1875C5.04822 1.52684 4.62272 0.885798 4.16669 0.266667V0H22.5292Z" fill="#012E33"/>
</g>
<defs>
<clipPath id="clip0_820_2861">
<rect width="100" height="100" fill="white"/>
</clipPath>
</defs>
</svg>
