<svg width="100" height="100" viewBox="0 0 100 100" fill="none" xmlns="http://www.w3.org/2000/svg">
<path d="M47.1666 4.90106C48.0333 4.41947 49.0084 4.16675 49.9999 4.16675C50.9914 4.16675 51.9666 4.41947 52.8333 4.90106L88.8333 25.0802C90.5874 26.0552 91.6666 27.8719 91.6666 29.8344V70.1677C91.6666 72.1344 90.5874 73.9511 88.8333 74.9302L52.8333 95.0969C51.9666 95.5785 50.9914 95.8312 49.9999 95.8312C49.0084 95.8312 48.0333 95.5785 47.1666 95.0969L11.1666 74.9302C10.3122 74.4616 9.59882 73.7728 9.10059 72.9353C8.60235 72.0978 8.3374 71.1422 8.33325 70.1677V29.8302C8.33325 27.8677 9.41242 26.0511 11.1666 25.0719L47.1666 4.90523V4.90106ZM78.0833 62.5636V34.2802L50.0083 50.0011L49.9999 81.4636L75.2458 67.3219C76.0995 66.8536 76.8125 66.1654 77.3107 65.3288C77.8089 64.4921 78.0784 63.5373 78.0833 62.5636ZM52.8333 20.1386C51.9674 19.6543 50.992 19.4 49.9999 19.4C49.0079 19.4 48.0324 19.6543 47.1666 20.1386L24.7666 32.6927C23.0124 33.6719 21.9333 35.4844 21.9333 37.4511V62.5636C21.9333 64.5219 23.0124 66.3344 24.7666 67.3219L36.4124 73.8469V46.2094C36.4174 47.3695 36.7355 48.5068 37.3333 49.5011C36.7059 48.4531 36.3935 47.2468 36.4333 46.0261L36.4499 45.6344L36.5333 45.0094L36.6083 44.6594L36.6791 44.4011L36.8416 43.9136L37.0999 43.3219L37.2458 43.0511L37.5833 42.5094L37.9749 42.0011L38.3249 41.6219L38.6583 41.3094L39.1791 40.8927L39.4749 40.6927L40.0333 40.3761L64.4916 26.6677L52.8416 20.1427L52.8333 20.1386Z" fill="url(#paint0_linear_820_2863)"/>
<path d="M49.9997 46.1999C49.9997 42.554 46.958 39.5999 43.2038 39.5999C41.9487 39.5997 40.7172 39.9411 39.6413 40.5874C39.5288 40.654 39.4122 40.7249 39.308 40.7957C39.133 40.9192 38.9621 41.0485 38.7955 41.1832C38.7038 41.2665 38.608 41.3415 38.5205 41.429L38.3205 41.6165L38.058 41.8957C37.9997 41.9624 37.9413 42.0249 37.8913 42.0957C37.7549 42.2648 37.6243 42.4385 37.4997 42.6165L37.3247 42.904C37.2196 43.0803 37.1223 43.261 37.033 43.4457L36.883 43.7832C36.849 43.8652 36.8184 43.9486 36.7913 44.0332C36.7497 44.1582 36.708 44.2749 36.6747 44.3957L36.6038 44.654C36.5417 44.8719 36.4999 45.0951 36.4788 45.3207C36.4705 45.4249 36.4497 45.529 36.4455 45.629C36.3208 46.9809 36.6318 48.3373 37.333 49.4999C38.5913 51.6165 40.8747 52.7999 43.2247 52.7999C44.3788 52.7999 45.5497 52.5165 46.6163 51.9165L50.0122 50.0124V46.204L49.9997 46.1999Z" fill="#012F8D"/>
<defs>
<linearGradient id="paint0_linear_820_2863" x1="771.25" y1="6895.23" x2="7892.7" y2="2905.42" gradientUnits="userSpaceOnUse">
<stop stop-color="#0A51C3"/>
<stop offset="1" stop-color="#23A4FB"/>
</linearGradient>
</defs>
</svg>
