<svg width="100" height="100" viewBox="0 0 100 100" fill="none" xmlns="http://www.w3.org/2000/svg">
<path fill-rule="evenodd" clip-rule="evenodd" d="M66.6248 10.1848H57.729V29.7265L66.6207 29.7515L66.6248 10.1848ZM46.0832 21.4723L55.3498 30.7431L49.0415 37.0015L39.7998 27.7598L46.0915 21.4681L46.0832 21.4723ZM28.5207 39.3973H48.0873L48.0582 48.2848H28.5165V39.4015L28.5207 39.3973ZM39.8123 59.9306L49.0707 50.664L55.3415 56.9723L46.0998 66.2098L39.8082 59.9223L39.8123 59.9306ZM57.729 77.4973V57.9306L66.6207 57.9598V77.5015L57.729 77.4973ZM78.2623 66.2223L68.9915 56.9515L75.2998 50.6848L84.5498 59.9348L78.2582 66.2265H78.2623V66.2223ZM95.8332 48.2848H76.2665L76.2957 39.3973H95.8332V48.2848ZM84.5457 27.7598L75.2832 37.0223L69.0165 30.7181L78.2665 21.4681L84.5457 27.7598ZM13.3332 12.1931V17.2098H8.30817V25.2473H13.3332V30.264H21.3623V25.2473H26.379V17.214H21.3623V12.1931H13.3332ZM13.3332 90.6723V81.5056H4.1665V73.4765H13.3332V64.3181H21.3623V73.4765H30.529V81.5056H21.3623V90.6723H13.3332Z" fill="#F38020"/>
</svg>
