<svg width="100" height="100" viewBox="0 0 100 100" fill="none" xmlns="http://www.w3.org/2000/svg">
<path d="M21.7631 40.3815C24.4798 47.8607 29.784 54.4482 35.9131 59.4357C42.0881 64.5565 49.4715 68.4774 57.2548 70.4899C60.0276 71.1994 62.8663 71.6211 65.7256 71.7482C71.1506 71.9565 77.0298 70.8899 81.384 67.4149C86.7881 63.0982 88.2631 56.4774 86.8756 49.8732C86.0048 45.7357 84.2048 41.8315 81.8548 38.2607C81.3693 37.5159 80.8607 36.7864 80.3298 36.0732C80.3301 36.0669 80.3323 36.0607 80.336 36.0556C80.3397 36.0504 80.3447 36.0464 80.3506 36.044H80.3673C80.3756 36.044 80.384 36.044 80.3923 36.0524L82.034 37.7399C86.0127 41.8422 89.4873 46.4051 92.384 51.3315C94.7965 55.469 96.6465 59.8565 97.6131 64.4315C99.1506 71.7107 97.9048 79.2065 92.1715 84.3357C89.1548 87.0357 85.2756 88.6732 81.3798 89.4815C75.9756 90.594 70.3423 90.4315 64.859 89.5107C62.0715 89.044 59.3798 88.4274 56.7881 87.6649C46.0548 84.5149 35.9048 79.119 27.0256 72.344C21.6774 68.3366 16.8067 63.7286 12.509 58.6107C8.12146 53.3857 4.35896 47.4815 2.0298 41.0524C0.500629 36.8524 -0.361871 32.1857 0.146463 27.7607C1.25896 18.1524 8.39646 12.5357 17.5381 10.844C22.809 9.86904 28.3465 10.069 33.7006 10.9982C39.4013 11.998 44.9645 13.665 50.2756 15.9649V15.9815C50.2744 15.9855 50.2723 15.9891 50.2694 15.992C50.2665 15.9949 50.2629 15.997 50.259 15.9982H50.2423C46.3497 14.9488 42.312 14.5407 38.2881 14.7899C34.9256 14.9899 31.3465 15.8857 28.4673 17.5232C24.159 19.9732 21.509 23.619 20.5215 28.4607C20.241 29.9713 20.1444 31.5103 20.234 33.044C20.3381 35.4607 20.9131 38.0357 21.7631 40.3815Z" fill="url(#paint0_linear_820_2869)"/>
<path d="M75.0834 30.1448C75.0871 30.1885 75.0769 30.2323 75.0542 30.2698C73.1334 34.0865 71.2084 37.9031 69.2792 41.7156C67.5126 45.2031 66.175 47.7032 65.2584 49.2156C61.8259 54.8943 57.6501 60.0889 52.8417 64.6615C52.8254 64.6771 52.8047 64.6875 52.7824 64.6912C52.7601 64.6949 52.7372 64.6918 52.7167 64.6823C46.161 62.0366 40.2031 58.102 35.1959 53.1115C34.6125 52.5281 34.0292 51.9115 33.4459 51.249C33.4337 51.2334 33.4265 51.2145 33.425 51.1948C33.425 51.174 33.425 51.1531 33.4375 51.1365C35.4949 47.6458 37.8361 44.3305 40.4375 41.224C43.8049 37.228 47.5748 33.5894 51.6875 30.3656C53.3875 29.0323 57.4792 25.8073 63.9792 20.6865L90.2167 0.00731251L90.2375 0L90.2584 0.00731251C90.2661 0.0122425 90.2719 0.0195624 90.2751 0.0281458C90.2776 0.0362827 90.2776 0.045009 90.2751 0.0531458L75.0751 30.1448H75.0834Z" fill="url(#paint1_linear_820_2869)"/>
<path d="M8.44588 99.9999C8.45421 99.9999 8.46255 99.9999 8.46671 99.9915L32.8125 80.9082C32.8235 80.9 32.8322 80.8893 32.838 80.8769C32.8439 80.8646 32.8465 80.851 32.8459 80.8374C32.845 80.8237 32.8407 80.8104 32.8334 80.7988C32.8261 80.7872 32.8161 80.7775 32.8042 80.7707C29.0666 78.4277 25.4714 75.8649 22.0375 73.0957H22.0125L21.9917 73.104C21.9844 73.1093 21.9786 73.1165 21.975 73.1249L8.41671 99.9457C8.41416 99.9538 8.41416 99.9626 8.41671 99.9707C8.41671 99.979 8.41671 99.9874 8.42505 99.9915C8.4321 99.9972 8.44098 100 8.45005 99.9999H8.44588Z" fill="url(#paint2_linear_820_2869)"/>
<defs>
<linearGradient id="paint0_linear_820_2869" x1="1.9923" y1="14.3774" x2="95.7715" y2="82.0732" gradientUnits="userSpaceOnUse">
<stop stop-color="#6F11F4"/>
<stop offset="1" stop-color="#AA66F1"/>
</linearGradient>
<linearGradient id="paint1_linear_820_2869" x1="90.3167" y1="0.0239813" x2="8.47505" y2="99.9448" gradientUnits="userSpaceOnUse">
<stop stop-color="#F52C77"/>
<stop offset="1" stop-color="#E9A45F" stop-opacity="0.996"/>
</linearGradient>
<linearGradient id="paint2_linear_820_2869" x1="90.3167" y1="0.0248608" x2="8.47503" y2="99.9457" gradientUnits="userSpaceOnUse">
<stop stop-color="#F52C77"/>
<stop offset="1" stop-color="#E9A45F" stop-opacity="0.996"/>
</linearGradient>
</defs>
</svg>
