<svg width="100" height="100" viewBox="0 0 100 100" fill="none" xmlns="http://www.w3.org/2000/svg">
<g clip-path="url(#clip0_820_2873)">
<path d="M1.93277e-06 26.2737C1.93277e-06 22.832 3.72084 20.6654 6.71667 22.3737L34.2458 38.0404C35.65 38.8404 36.5167 40.332 36.5167 41.9487V80.907C36.5167 83.3904 34.5042 85.4029 32.0208 85.4029H4.5C3.9089 85.4034 3.32349 85.2874 2.77728 85.0614C2.23107 84.8355 1.73477 84.504 1.3168 84.0861C0.898826 83.6681 0.56738 83.1718 0.341428 82.6256C0.115476 82.0794 -0.000546146 81.494 1.93277e-06 80.9029V26.2737Z" fill="#3C96E6"/>
<path d="M40.4502 41.9278C40.4502 40.3236 41.3085 38.8361 42.7002 38.0361L93.2627 8.93613C93.9462 8.54299 94.721 8.33651 95.5095 8.33741C96.2979 8.3383 97.0723 8.54653 97.7549 8.94122C98.4374 9.3359 99.0042 9.90315 99.3983 10.5861C99.7924 11.269 100 12.0435 100 12.832V80.9028C100 83.3861 97.9877 85.3986 95.5044 85.3986H44.946C44.3553 85.3992 43.7702 85.2833 43.2243 85.0576C42.6783 84.8319 42.1822 84.5008 41.7643 84.0833C41.3464 83.6658 41.0149 83.17 40.7887 82.6242C40.5625 82.0785 40.446 81.4935 40.446 80.9028V41.9278H40.4502Z" fill="#F95A4C"/>
</g>
<defs>
<clipPath id="clip0_820_2873">
<rect width="100" height="100" fill="white"/>
</clipPath>
</defs>
</svg>
