<svg width="100" height="100" viewBox="0 0 100 100" fill="none" xmlns="http://www.w3.org/2000/svg">
<path fill-rule="evenodd" clip-rule="evenodd" d="M77.5835 58.0281C80.1294 58.0281 82.196 60.1323 82.196 62.7281V86.9656C82.196 89.5614 80.1293 91.6656 77.5794 91.6656C76.9676 91.6602 76.3629 91.5343 75.7998 91.2951C75.2367 91.056 74.7263 90.7082 74.2976 90.2718C73.8689 89.8354 73.5303 89.3187 73.3013 88.7515C73.0722 88.1842 72.9572 87.5774 72.9627 86.9656V62.7281C72.9627 60.1323 75.0294 58.0281 77.5794 58.0281H77.5835ZM69.1252 12.7156C69.5126 12.2461 69.9901 11.859 70.5295 11.577C71.0689 11.295 71.6594 11.1239 72.266 11.0738C72.8726 11.0237 73.4831 11.0956 74.0615 11.2853C74.6398 11.475 75.1744 11.7785 75.6335 12.1781C77.5752 13.8614 77.8085 16.8281 76.1585 18.8031L51.4169 48.4323V86.5448C51.4169 89.1448 49.3502 91.2489 46.8002 91.2489C46.1881 91.2435 45.5831 91.1175 45.0197 90.8781C44.4563 90.6386 43.9457 90.2906 43.5169 89.8537C43.0882 89.4168 42.7497 88.8997 42.5209 88.3319C42.2921 87.7642 42.1775 87.1569 42.1835 86.5448V47.0573L42.196 46.6906L42.2377 46.3281C42.3002 45.3614 42.6627 44.4031 43.3252 43.6031L69.1252 12.7156ZM12.1085 9.39893C12.5747 9.00795 13.1145 8.71425 13.696 8.53516C14.2775 8.35608 14.889 8.29523 15.4944 8.35619C16.0998 8.41716 16.6868 8.59871 17.221 8.89015C17.7551 9.18159 18.2255 9.57701 18.6044 10.0531L36.8835 32.7614C37.6596 33.7301 38.0264 34.9637 37.9058 36.1991C37.7851 37.4344 37.1865 38.5737 36.2377 39.3739C35.7715 39.7649 35.2317 40.0586 34.6502 40.2377C34.0687 40.4168 33.4572 40.4776 32.8518 40.4167C32.2464 40.3557 31.6594 40.1742 31.1252 39.8827C30.5911 39.5913 30.1207 39.1959 29.7418 38.7198L11.4627 16.0114C10.7461 15.1152 10.3768 13.9905 10.4228 12.8439C10.4687 11.6974 10.9267 10.6058 11.7127 9.76977L12.1085 9.39893Z" fill="black"/>
<path d="M83.942 50.2934C87.0578 50.2934 89.5836 47.7209 89.5836 44.5476C89.5836 41.3743 87.0578 38.8018 83.942 38.8018C80.8262 38.8018 78.3003 41.3743 78.3003 44.5476C78.3003 47.7209 80.8262 50.2934 83.942 50.2934Z" fill="#00FF25"/>
</svg>
