<svg width="100" height="100" viewBox="0 0 100 100" fill="none" xmlns="http://www.w3.org/2000/svg">
<g id="yoga">
<g id="yoga_2">
<path id="Vector" d="M50 99.9985C77.6142 99.9985 100 77.6128 100 49.9985C100 22.3843 77.6142 -0.00146484 50 -0.00146484C22.3858 -0.00146484 0 22.3843 0 49.9985C0 77.6128 22.3858 99.9985 50 99.9985Z" fill="#303846"/>
<path id="Vector_2" d="M50.4055 70.6743C54.3919 63.7149 54.6622 54.9311 50.4055 47.4986C46.1487 40.0662 38.3109 35.9446 30.3379 35.9446C26.3514 42.904 26.0811 51.6878 30.3379 59.1203C34.5947 66.4851 42.3649 70.6743 50.4055 70.6743Z" stroke="#97DCCF" stroke-width="3.37838" stroke-miterlimit="10"/>
<path id="Vector_3" d="M49.595 70.6743C57.5679 70.6743 65.3382 66.5527 69.6625 59.1203C73.9193 51.6878 73.649 42.904 69.6625 35.9446C61.6896 35.9446 53.9193 40.0662 49.595 47.4986C45.3382 54.9311 45.6085 63.7149 49.595 70.6743Z" stroke="#97DCCF" stroke-width="3.37838" stroke-miterlimit="10"/>
<path id="Vector_4" d="M49.9999 69.8634C56.8917 65.8769 61.5539 58.3769 61.5539 49.7958C61.5539 41.2148 56.8917 33.7148 49.9999 29.7283C43.108 33.7148 38.4458 41.2148 38.4458 49.7958C38.4458 58.3769 43.108 65.8769 49.9999 69.8634Z" stroke="#97DCCF" stroke-width="3.37838" stroke-miterlimit="10"/>
</g>
</g>
</svg>
