<svg width="100" height="100" viewBox="0 0 100 100" fill="none" xmlns="http://www.w3.org/2000/svg">
<g clip-path="url(#clip0_820_2880)">
<path d="M50 100C77.6125 100 100 77.6127 100 50.0002C100 22.3877 77.6125 0.000244141 50 0.000244141C22.3875 0.000244141 0 22.3877 0 50.0002C0 77.6127 22.3875 100 50 100Z" fill="url(#paint0_linear_820_2880)"/>
<path fill-rule="evenodd" clip-rule="evenodd" d="M50 0.000244141C52.1583 0.000244141 54.2833 0.137744 56.3667 0.400244C62.4157 1.93858 67.7013 5.61896 71.2429 10.7585C74.7844 15.898 76.3413 22.1478 75.6248 28.3481C74.9083 34.5484 71.967 40.2783 67.3466 44.4746C62.7262 48.6709 56.7404 51.0488 50.5 51.1669L50 51.1711C37.5417 51.1711 28.1583 60.2503 26.8583 72.4628C25.9292 81.1544 28.3292 90.8461 36.2 98.0711C15.3 92.0836 0 72.8294 0 50.0002C0 22.3877 22.3875 0.000244141 50 0.000244141Z" fill="url(#paint1_linear_820_2880)"/>
<path fill-rule="evenodd" clip-rule="evenodd" d="M22.025 20.8346C23.1364 21.5727 24.0915 22.5225 24.8358 23.6297C25.5801 24.7369 26.099 25.9799 26.3629 27.2877C26.6268 28.5955 26.6305 29.9425 26.3737 31.2517C26.117 32.5609 25.6049 33.8067 24.8667 34.918C8.35833 59.7763 11.4708 79.6805 35.9 97.9846C15.15 91.9013 0 72.718 0 50.0013C0 42.5555 1.625 35.493 4.54167 29.143C5.59583 27.3305 6.72917 25.5096 7.94583 23.6805C9.43573 21.4364 11.7559 19.876 14.3962 19.3423C17.0364 18.8086 19.7805 19.3454 22.025 20.8346Z" fill="url(#paint2_linear_820_2880)"/>
<path fill-rule="evenodd" clip-rule="evenodd" d="M54.0834 0.167236C55.2167 0.254736 56.3459 0.38807 57.4584 0.554736C59.8875 0.996403 62.1125 1.61307 63.8667 2.38807C91.525 14.5839 97.4917 44.2714 71.15 67.5631C67.7347 70.5806 63.2609 72.1185 58.7121 71.8388C54.1633 71.5591 49.9116 69.4846 46.8917 66.0714C40.6 58.9631 41.475 48.6381 48.3792 41.8131C51.9542 38.2797 61.3292 36.7172 65.2334 31.6464C70.4709 24.8339 74.075 6.60474 54.7209 0.367236L54.0834 0.167236Z" fill="url(#paint3_linear_820_2880)"/>
<path fill-rule="evenodd" clip-rule="evenodd" d="M56.3669 0.40057C62.4639 1.94312 67.7866 5.66124 71.3332 10.8549C74.8797 16.0487 76.4053 22.3597 75.6228 28.5999C74.8402 34.8401 71.8036 40.579 67.0845 44.7362C62.3653 48.8934 56.2893 51.1821 50.0002 51.1714C47.5853 51.1646 45.1831 51.5228 42.8752 52.2339C43.4877 48.4631 45.3544 44.8006 48.3794 41.8131C51.9544 38.2797 61.3294 36.7172 65.2336 31.6422C70.5252 24.7631 74.1502 6.2089 54.0836 0.167236C54.8502 0.22557 55.6127 0.304736 56.3669 0.40057Z" fill="#ECECEE"/>
</g>
<defs>
<linearGradient id="paint0_linear_820_2880" x1="50" y1="0.000244141" x2="50" y2="100" gradientUnits="userSpaceOnUse">
<stop stop-color="#02B2FC"/>
<stop offset="0.5" stop-color="#20CBB6"/>
<stop offset="1" stop-color="#13D363"/>
</linearGradient>
<linearGradient id="paint1_linear_820_2880" x1="37.8958" y1="0.000244141" x2="37.8958" y2="98.0711" gradientUnits="userSpaceOnUse">
<stop stop-color="#C3EBEF"/>
<stop offset="1" stop-color="#D3F4DD"/>
</linearGradient>
<linearGradient id="paint2_linear_820_2880" x1="17.95" y1="19.1388" x2="17.95" y2="97.9846" gradientUnits="userSpaceOnUse">
<stop stop-color="#14D368"/>
<stop offset="0.5" stop-color="#24CEAD"/>
<stop offset="1" stop-color="#03B4F8"/>
</linearGradient>
<linearGradient id="paint3_linear_820_2880" x1="65.3542" y1="0.16307" x2="65.3542" y2="71.8714" gradientUnits="userSpaceOnUse">
<stop stop-color="#61CFFA" stop-opacity="0.996"/>
<stop offset="1" stop-color="#79E3C0"/>
</linearGradient>
<clipPath id="clip0_820_2880">
<rect width="100" height="100" fill="white"/>
</clipPath>
</defs>
</svg>
