<svg width="100" height="100" viewBox="0 0 100 100" fill="none" xmlns="http://www.w3.org/2000/svg">
<g clip-path="url(#clip0_820_2893)">
<path d="M49.9623 97.9297C49.8267 97.9274 49.6921 97.9527 49.5666 98.004C49.4411 98.0553 49.3273 98.1316 49.2322 98.2283C49.1371 98.3249 49.0627 98.4399 49.0134 98.5662C48.9642 98.6925 48.9411 98.8276 48.9456 98.9631C48.9405 99.0989 48.9632 99.2344 49.0122 99.3612C49.0612 99.488 49.1355 99.6035 49.2307 99.7006C49.3258 99.7977 49.4398 99.8744 49.5656 99.926C49.6914 99.9776 49.8264 100.003 49.9623 100.001C50.0986 100.004 50.234 99.9786 50.3603 99.9272C50.4866 99.8759 50.601 99.7993 50.6967 99.7022C50.7923 99.605 50.867 99.4893 50.9162 99.3622C50.9655 99.2351 50.9883 99.0993 50.9831 98.9631C50.9915 98.7067 50.901 98.4569 50.7304 98.2654C50.5598 98.0738 50.3221 97.9551 50.0665 97.9339L49.9623 97.9297ZM40.2956 22.3547C42.0802 22.9264 43.565 24.1831 44.4236 25.8488C45.2822 27.5144 45.4445 29.4528 44.8748 31.2381L44.579 31.9547L44.5123 32.1214L44.4373 32.3464C44.1456 33.0131 44.004 33.6797 44.004 34.4214C43.8581 37.3797 45.9623 39.7506 48.9456 39.8964H50.4706C55.9248 40.1172 60.2123 44.7839 59.9956 50.4089C59.779 55.9589 55.1956 60.3256 49.6706 60.1047H48.9456C45.9665 60.1797 43.6373 62.7714 43.7831 65.8047C43.7831 66.3214 43.8581 66.7631 44.004 67.2089C44.8748 68.7631 46.254 69.9506 48.004 70.5422C51.129 71.5006 54.3248 70.0214 55.9206 67.2839L55.9956 67.1381C57.6706 64.4714 60.8706 63.1381 63.9956 64.1756C67.554 65.3589 69.7373 69.2839 68.5748 73.2047C68.3088 74.075 67.8738 74.8842 67.2947 75.5861C66.7156 76.288 66.0038 76.8688 65.2 77.2953C64.3961 77.7218 63.5161 77.9856 62.6102 78.0716C61.7043 78.1576 60.7903 78.064 59.9206 77.7964C58.3562 77.2756 57.0207 76.2287 56.1415 74.8339L56.0706 74.6881C55.2373 73.3422 54.1415 72.2714 52.5248 71.7256L52.2915 71.6506C50.7844 71.1449 49.1485 71.1784 47.6635 71.7453C46.1784 72.3123 44.9364 73.3775 44.1498 74.7589C43.6649 75.5629 43.0214 76.2598 42.2585 76.8071C41.4956 77.3544 40.6293 77.7406 39.7123 77.9422C37.9071 78.3289 36.0222 77.9855 34.4694 76.987C32.9165 75.9885 31.822 74.416 31.4248 72.6131C30.554 68.8381 32.8081 64.9881 36.6623 64.1006C37.0676 64.0114 37.4807 63.9626 37.8956 63.9547H37.9706C40.804 63.6589 42.7665 61.3631 42.6206 58.4006C42.5857 57.3678 42.2576 56.3663 41.6748 55.5131C40.6036 53.7564 40.0732 51.7233 40.1498 49.6672C40.1979 47.8831 40.7246 46.1447 41.6748 44.6339C42.2581 43.8214 42.5498 42.7839 42.6206 41.7464C42.6956 38.7881 40.5123 36.4922 37.679 36.1964L37.3873 36.1214C36.9628 36.0692 36.5451 35.9714 36.1415 35.8297L35.9331 35.7506C34.2076 35.1321 32.7889 33.8689 31.9754 32.2263C31.1618 30.5836 31.0168 28.6896 31.5706 26.9422C32.126 25.1815 33.3546 23.7115 34.9887 22.8523C36.6229 21.9931 38.5303 21.8142 40.2956 22.3547ZM17.0665 64.4797C18.1498 63.3797 19.729 62.9506 21.2081 63.3547C22.6873 63.7547 23.8456 64.9339 24.2415 66.4381C24.6373 67.9464 24.2123 69.5547 23.129 70.6589C21.454 72.3672 18.7415 72.3672 17.0665 70.6589C16.2617 69.8327 15.8113 68.7248 15.8113 67.5714C15.8113 66.418 16.2617 65.306 17.0665 64.4797ZM78.9206 63.2547C80.4165 62.8797 81.9956 63.3547 83.054 64.4922C84.1123 65.6339 84.4873 67.2631 84.0415 68.7631C83.5956 70.2631 82.3915 71.4047 80.8915 71.7547C78.5956 72.2881 76.3081 70.8381 75.7665 68.5006C75.5006 67.3868 75.682 66.2132 76.2717 65.2316C76.8614 64.25 77.8124 63.543 78.9206 63.2547ZM78.654 44.9631C79.9623 46.2964 80.6956 48.1006 80.6956 49.9881C80.6956 51.8714 79.9623 53.6797 78.654 55.0131C77.3415 56.3464 75.5706 57.0964 73.7165 57.0964C71.8665 57.0964 70.0915 56.3464 68.7831 55.0131C67.4719 53.6691 66.738 51.8657 66.738 49.9881C66.738 48.1104 67.4719 46.3071 68.7831 44.9631C69.4252 44.3043 70.1927 43.7807 71.0403 43.4232C71.888 43.0657 72.7986 42.8815 73.7185 42.8815C74.6385 42.8815 75.5491 43.0657 76.3968 43.4232C77.2444 43.7807 78.0119 44.3043 78.654 44.9631ZM31.8081 45.6422C33.3248 47.6589 33.6706 50.3422 32.7165 52.6881C32.3768 53.5442 31.8702 54.3241 31.2259 54.9824C30.5817 55.6406 29.8129 56.164 28.9643 56.522C28.1157 56.88 27.2043 57.0654 26.2832 57.0674C25.3622 57.0695 24.45 56.8881 23.5998 56.5339C20.0373 55.0339 18.3498 50.8756 19.8206 47.2506C20.2809 46.105 21.0359 45.1016 22.0092 44.342C22.9824 43.5824 24.1392 43.0938 25.3623 42.9256C27.8331 42.5922 30.2915 43.6297 31.8081 45.6422ZM79.9123 28.0547C81.4456 28.0547 82.8623 28.8881 83.629 30.2381C84.3956 31.5881 84.3956 33.2547 83.629 34.6047C83.2584 35.2653 82.719 35.8155 82.066 36.1991C81.4129 36.5828 80.6697 36.786 79.9123 36.7881C77.5456 36.7881 75.6206 34.8297 75.6206 32.4214C75.6206 30.0089 77.5456 28.0547 79.9123 28.0547ZM20.0873 28.0547C21.6206 28.0547 23.0331 28.8881 23.7998 30.2381C24.5665 31.5881 24.5665 33.2547 23.7998 34.6047C23.4296 35.2647 22.8908 35.8145 22.2386 36.1981C21.5863 36.5817 20.844 36.7853 20.0873 36.7881C17.7165 36.7881 15.7956 34.8297 15.7956 32.4214C15.7956 30.0089 17.7165 28.0547 20.0873 28.0547ZM61.8831 21.9089C65.7373 21.9089 68.8623 25.0922 68.8623 29.0172C68.8623 32.9422 65.7373 36.1214 61.8831 36.1214C58.029 36.1214 54.9081 32.9422 54.9081 29.0172C54.9081 25.0922 58.0331 21.9089 61.8831 21.9089ZM50.9415 19.0589C52.4498 18.7172 53.6623 17.5756 54.1123 16.0672C54.3346 15.3288 54.36 14.545 54.1861 13.7937C54.0121 13.0424 53.6448 12.3495 53.1206 11.7839C52.6028 11.2257 51.9441 10.8173 51.2138 10.6018C50.4835 10.3862 49.7086 10.3714 48.9706 10.5589C46.6915 11.1422 45.2998 13.4756 45.8373 15.7964C46.379 18.1214 48.6498 19.5756 50.9415 19.0589ZM50.9415 89.3756C52.4373 89.0131 53.6248 87.8756 54.0665 86.3756C54.2823 85.6428 54.3049 84.8667 54.1318 84.1226C53.9588 83.3786 53.596 82.692 53.079 82.1297C52.5682 81.5746 51.9186 81.1658 51.1972 80.9453C50.4758 80.7249 49.7086 80.7008 48.9748 80.8756C48.2282 81.0474 47.5408 81.4146 46.9829 81.9395C46.425 82.4645 46.0167 83.1284 45.7998 83.8631C45.3498 85.3672 45.729 87.0047 46.7956 88.1464C47.8165 89.2422 49.3206 89.7172 50.7665 89.4172L50.9456 89.3756H50.9415ZM71.6248 14.5839C71.9722 14.5823 72.3158 14.5118 72.6358 14.3766C72.9558 14.2414 73.2459 14.0442 73.4892 13.7962C73.7325 13.5482 73.9242 13.2545 74.0534 12.932C74.1825 12.6095 74.2464 12.2646 74.2415 11.9172C74.2415 10.4381 73.079 9.25058 71.6248 9.25058C71.2774 9.25219 70.9338 9.32264 70.6138 9.45784C70.2938 9.59305 70.0037 9.79033 69.7604 10.0383C69.5171 10.2862 69.3253 10.58 69.1962 10.9025C69.0671 11.225 69.0032 11.5699 69.0081 11.9172C69.0081 13.3964 70.1748 14.5839 71.6248 14.5839ZM28.3748 14.5839C28.7222 14.5823 29.0658 14.5118 29.3858 14.3766C29.7058 14.2414 29.9959 14.0442 30.2392 13.7962C30.4825 13.5482 30.6742 13.2545 30.8034 12.932C30.9325 12.6095 30.9964 12.2646 30.9915 11.9172C30.9915 10.4381 29.8248 9.25058 28.3748 9.25058C28.0274 9.25219 27.6838 9.32264 27.3638 9.45784C27.0438 9.59305 26.7537 9.79033 26.5104 10.0383C26.2671 10.2862 26.0754 10.58 25.9462 10.9025C25.8171 11.225 25.7532 11.5699 25.7581 11.9172C25.7581 13.3964 26.9206 14.5839 28.3748 14.5839ZM6.78313 47.3006C6.43574 47.3022 6.09211 47.3726 5.77211 47.5078C5.4521 47.643 5.16206 47.8403 4.91875 48.0883C4.67544 48.3362 4.48369 48.63 4.35456 48.9525C4.22544 49.275 4.16151 49.6199 4.16647 49.9672C4.16647 51.4422 5.33313 52.6297 6.78313 52.6297C7.46018 52.627 8.10998 52.3628 8.59682 51.8923C9.08365 51.4217 9.36985 50.7813 9.39563 50.1047L9.3998 49.9631C9.4111 49.6141 9.35151 49.2664 9.22465 48.941C9.0978 48.6157 8.90629 48.3194 8.66172 48.0702C8.41714 47.8209 8.12457 47.6239 7.80169 47.4909C7.4788 47.3579 7.1323 47.2917 6.78313 47.2964V47.3006ZM28.3748 85.3422C28.0274 85.3439 27.6838 85.4143 27.3638 85.5495C27.0438 85.6847 26.7537 85.882 26.5104 86.13C26.2671 86.3779 26.0754 86.6716 25.9462 86.9941C25.8171 87.3167 25.7532 87.6615 25.7581 88.0089C25.7581 89.4881 26.9206 90.6756 28.3748 90.6756C28.7222 90.674 29.0658 90.6035 29.3858 90.4683C29.7058 90.3331 29.9959 90.1358 30.2392 89.8879C30.4825 89.6399 30.6742 89.3462 30.8034 89.0237C30.9325 88.7012 30.9964 88.3563 30.9915 88.0089C30.9915 86.5297 29.8248 85.3422 28.3748 85.3422ZM71.6248 85.4172C71.2774 85.4189 70.9338 85.4893 70.6138 85.6245C70.2938 85.7597 70.0037 85.957 69.7604 86.205C69.5171 86.4529 69.3253 86.7466 69.1962 87.0691C69.0671 87.3916 69.0032 87.7365 69.0081 88.0839C69.0081 89.5631 70.1748 90.7506 71.6248 90.7506C71.9722 90.749 72.3158 90.6785 72.6358 90.5433C72.9558 90.4081 73.2459 90.2108 73.4892 89.9629C73.7325 89.7149 73.9242 89.4212 74.0534 89.0987C74.1825 88.7762 74.2464 88.4313 74.2415 88.0839C74.2415 86.6047 73.079 85.4172 71.6248 85.4172ZM93.2165 47.3006C92.8691 47.3022 92.5255 47.3726 92.2054 47.5078C91.8854 47.643 91.5954 47.8403 91.3521 48.0883C91.1088 48.3362 90.917 48.63 90.7879 48.9525C90.6588 49.275 90.5948 49.6199 90.5998 49.9672C90.5998 51.4422 91.7623 52.6297 93.2165 52.6297C93.5639 52.6281 93.9075 52.5577 94.2275 52.4225C94.5475 52.2873 94.8375 52.09 95.0808 51.842C95.3242 51.5941 95.5159 51.3003 95.645 50.9778C95.7742 50.6553 95.8381 50.3104 95.8331 49.9631C95.8331 48.4839 94.6665 47.2964 93.2165 47.2964V47.3006ZM91.6165 26.5006C91.7524 26.5029 91.8874 26.4776 92.0132 26.426C92.139 26.3744 92.2529 26.2977 92.3481 26.2006C92.4432 26.1035 92.5176 25.988 92.5666 25.8612C92.6156 25.7344 92.6383 25.5989 92.6331 25.4631C92.6383 25.3272 92.6156 25.1917 92.5666 25.0649C92.5176 24.9381 92.4432 24.8226 92.3481 24.7255C92.2529 24.6284 92.139 24.5517 92.0132 24.5002C91.8874 24.4486 91.7524 24.4232 91.6165 24.4256C91.4805 24.4232 91.3455 24.4486 91.2197 24.5002C91.094 24.5517 90.98 24.6284 90.8848 24.7255C90.7897 24.8226 90.7153 24.9381 90.6663 25.0649C90.6173 25.1917 90.5947 25.3272 90.5998 25.4631C90.5998 26.0547 91.1081 26.5006 91.6165 26.5006ZM49.9623 2.07141C50.0982 2.07432 50.2333 2.04948 50.3593 1.99842C50.4853 1.94736 50.5995 1.87114 50.6951 1.77443C50.7906 1.67771 50.8655 1.56254 50.915 1.43593C50.9645 1.30932 50.9877 1.17395 50.9831 1.03807C50.9883 0.901501 50.9654 0.765316 50.9159 0.637931C50.8664 0.510545 50.7913 0.394661 50.6952 0.297436C50.5992 0.20021 50.4842 0.123706 50.3574 0.0726479C50.2307 0.0215894 50.0948 -0.00293976 49.9581 0.000574871C49.8222 -0.00178743 49.6872 0.0235933 49.5614 0.0751661C49.4356 0.126739 49.3217 0.20342 49.2265 0.300525C49.1314 0.397629 49.057 0.513116 49.008 0.639929C48.959 0.766742 48.9363 0.902217 48.9415 1.03807C48.9415 1.59224 49.3915 2.02141 49.8706 2.06724L49.9581 2.07141H49.9623ZM8.37897 26.5006C8.51525 26.5035 8.65069 26.4786 8.77697 26.4272C8.90326 26.3759 9.01772 26.2993 9.11332 26.2022C9.20892 26.105 9.28365 25.9893 9.33292 25.8622C9.38218 25.7351 9.40494 25.5993 9.3998 25.4631C9.40492 25.3272 9.38228 25.1917 9.33327 25.0649C9.28426 24.9381 9.2099 24.8226 9.11475 24.7255C9.0196 24.6284 8.90564 24.5517 8.77985 24.5002C8.65406 24.4486 8.51907 24.4232 8.38313 24.4256C8.2472 24.4232 8.11221 24.4486 7.98642 24.5002C7.86063 24.5517 7.74667 24.6284 7.65152 24.7255C7.55636 24.8226 7.48201 24.9381 7.433 25.0649C7.38399 25.1917 7.36135 25.3272 7.36647 25.4631C7.36135 25.5989 7.38399 25.7344 7.433 25.8612C7.48201 25.988 7.55636 26.1035 7.65152 26.2006C7.74667 26.2977 7.86063 26.3744 7.98642 26.426C8.11221 26.4776 8.2472 26.5029 8.38313 26.5006H8.37897ZM8.37897 73.4297C8.24374 73.428 8.10957 73.4537 7.98455 73.5052C7.85954 73.5568 7.74628 73.6332 7.65164 73.7298C7.55699 73.8264 7.48292 73.9412 7.4339 74.0672C7.38489 74.1932 7.36195 74.3279 7.36647 74.4631C7.36135 74.5989 7.38399 74.7344 7.433 74.8612C7.48201 74.988 7.55636 75.1035 7.65152 75.2006C7.74667 75.2977 7.86063 75.3744 7.98642 75.426C8.11221 75.4776 8.2472 75.5029 8.38313 75.5006C8.51907 75.5029 8.65406 75.4776 8.77985 75.426C8.90564 75.3744 9.0196 75.2977 9.11475 75.2006C9.2099 75.1035 9.28426 74.988 9.33327 74.8612C9.38228 74.7344 9.40492 74.5989 9.3998 74.4631C9.39565 74.1932 9.28771 73.9352 9.0984 73.7428C8.90908 73.5504 8.65293 73.4383 8.38313 73.4297H8.37897ZM91.6915 73.3547C91.5555 73.3518 91.4205 73.3767 91.2945 73.4277C91.1685 73.4788 91.0542 73.555 90.9587 73.6517C90.8631 73.7484 90.7883 73.8636 90.7388 73.9902C90.6893 74.1168 90.6661 74.2522 90.6706 74.3881C90.6649 74.5246 90.6872 74.6609 90.7362 74.7885C90.7852 74.9161 90.8599 75.0323 90.9555 75.1299C91.0512 75.2275 91.1659 75.3045 91.2924 75.3561C91.419 75.4076 91.5548 75.4327 91.6915 75.4297C91.8278 75.4321 91.9631 75.4066 92.0892 75.3548C92.2153 75.303 92.3294 75.2259 92.4247 75.1284C92.5199 75.0308 92.5941 74.9148 92.6429 74.7875C92.6916 74.6602 92.7138 74.5243 92.7081 74.3881C92.704 74.1182 92.596 73.8602 92.4067 73.6678C92.2174 73.4754 91.9613 73.3633 91.6915 73.3547Z" fill="#3859FF"/>
</g>
<defs>
<clipPath id="clip0_820_2893">
<rect width="100" height="100" fill="white"/>
</clipPath>
</defs>
</svg>
